<?xml version="1.0" encoding="UTF-8"?>
<svg width="36px" height="37px" viewBox="0 0 36 37" version="1.1" xmlns="http://www.w3.org/2000/svg" xmlns:xlink="http://www.w3.org/1999/xlink">
    <title>编组 2</title>
    <g id="页面-1" stroke="none" stroke-width="1" fill="none" fill-rule="evenodd">
        <g id="编组-2" transform="translate(1.500000, 1.792857)">
            <circle id="椭圆形备份-2" stroke="#D33A31" stroke-width="2.75" fill="#D33A31" stroke-linecap="round" stroke-linejoin="round" cx="16.5" cy="16.5" r="16.5"></circle>
            <path d="M22.3928571,17.9 L10.6071429,17.9 L10.6071429,17.9 C10.032966,17.9 9.50240475,17.6331615 9.21531632,17.2 C8.92822789,16.7668385 8.92822789,16.2331615 9.21531632,15.8 C9.50240475,15.3668385 10.032966,15.1 10.6071429,15.1 L22.3928571,15.1 C22.967034,15.1 23.4975952,15.3668385 23.7846837,15.8 C24.0717721,16.2331615 24.0717721,16.7668385 23.7846837,17.2 C23.4975952,17.6331615 22.967034,17.9 22.3928571,17.9 L22.3928571,17.9 Z" id="路径" fill="#FFFFFF" fill-rule="nonzero"></path>
            <path d="M19.7142857,11.2458278 L13.2857143,11.2458278 C12.3981138,11.2458278 11.6785715,10.6190265 11.6785715,9.84582784 C11.6785715,9.07262919 12.3981138,8.44582784 13.2857143,8.44582784 L19.7142857,8.44582784 C20.6018862,8.44582784 21.3214285,9.07262919 21.3214285,9.84582784 C21.3214285,10.6190265 20.6018862,11.2458278 19.7142857,11.2458278 L19.7142857,11.2458278 Z" id="路径" fill="#FFFFFF" fill-rule="nonzero"></path>
            <path d="M13.2857143,21.7541722 L19.7142857,21.7541722 C20.6018862,21.7541722 21.3214285,22.3809735 21.3214285,23.1541722 C21.3214285,23.9273708 20.6018862,24.5541722 19.7142857,24.5541722 L13.2857143,24.5541722 C12.3981138,24.5541722 11.6785715,23.9273708 11.6785715,23.1541722 C11.6785715,22.3809735 12.3981138,21.7541722 13.2857143,21.7541722 Z" id="路径" fill="#FFFFFF" fill-rule="nonzero"></path>
        </g>
    </g>
</svg>