<?xml version="1.0" encoding="UTF-8"?>
<svg width="41px" height="41px" viewBox="0 0 41 41" version="1.1" xmlns="http://www.w3.org/2000/svg" xmlns:xlink="http://www.w3.org/1999/xlink">
    <title>形状</title>
    <g id="页面-1" stroke="none" stroke-width="1" fill="none" fill-rule="evenodd">
        <path d="M20.5,0.776553328 C9.46,0.776553328 0.5,9.73655333 0.5,20.7765533 C0.5,31.8165533 9.46,40.7765533 20.5,40.7765533 C31.54,40.7765533 40.5,31.8165533 40.5,20.7765533 C40.5,9.73655333 31.54,0.776553328 20.5,0.776553328 M16.5,28.7765533 C15.4,28.7765533 14.5,27.8765533 14.5,26.7765533 L14.5,14.7765533 C14.5,13.6765533 15.4,12.7765533 16.5,12.7765533 C17.6,12.7765533 18.5,13.6765533 18.5,14.7765533 L18.5,26.7765533 C18.5,27.8765533 17.6,28.7765533 16.5,28.7765533 M24.5,28.7765533 C23.4,28.7765533 22.5,27.8765533 22.5,26.7765533 L22.5,14.7765533 C22.5,13.6765533 23.4,12.7765533 24.5,12.7765533 C25.6,12.7765533 26.5,13.6765533 26.5,14.7765533 L26.5,26.7765533 C26.5,27.8765533 25.6,28.7765533 24.5,28.7765533" id="形状" fill="#d33a31" fill-rule="nonzero"></path>
    </g>
</svg>
