<?xml version="1.0" encoding="UTF-8"?>
<svg width="41px" height="41px" viewBox="0 0 41 41" version="1.1" xmlns="http://www.w3.org/2000/svg" xmlns:xlink="http://www.w3.org/1999/xlink">
    <title>形状</title>
    <g id="页面-1" stroke="none" stroke-width="1" fill="none" fill-rule="evenodd">
        <path d="M20.6533019,0.776553328 C9.61330192,0.776553328 0.653301917,9.73655333 0.653301917,20.7765533 C0.653301917,31.8165533 9.61330192,40.7765533 20.6533019,40.7765533 C31.6933019,40.7765533 40.6533019,31.8165533 40.6533019,20.7765533 C40.6533019,9.73655333 31.6933019,0.776553328 20.6533019,0.776553328 M15.6533019,26.1165533 L15.6533019,15.4365533 C15.6533019,13.8565533 17.4133019,12.8965533 18.7333019,13.7565533 L27.0333019,19.0965533 C27.6036475,19.4649602 27.9481291,20.0975705 27.9481291,20.7765533 C27.9481291,21.4555362 27.6036475,22.0881465 27.0333019,22.4565533 L18.7333019,27.7965533 C17.4133019,28.6565533 15.6533019,27.6965533 15.6533019,26.1165533" id="形状" fill="#d33a31" fill-rule="nonzero"></path>
    </g>
</svg>
