<svg xmlns="http://www.w3.org/2000/svg" width="1.2em" height="1.2em" viewBox="0 0 26 26"><g fill="none"><defs><mask id="pepiconsPencilShareAndroidCircleFilled0"><path fill="#fff" d="M0 0h26v26H0z"/><g fill="#000"><path fill-rule="evenodd" d="M8 15.5a2.5 2.5 0 1 0 0-5a2.5 2.5 0 0 0 0 5m0-4a1.5 1.5 0 1 1 0 3a1.5 1.5 0 0 1 0-3m9-1a2.5 2.5 0 1 0 0-5a2.5 2.5 0 0 0 0 5m0-4a1.5 1.5 0 1 1 0 3a1.5 1.5 0 0 1 0-3m0 14a2.5 2.5 0 1 0 0-5a2.5 2.5 0 0 0 0 5m0-4a1.5 1.5 0 1 1 0 3a1.5 1.5 0 0 1 0-3" clip-rule="evenodd"/><path d="m9.754 12.18l-.508-.86l5.5-3.25l.508.86zM15 17.878l.479-.878l-5.5-3l-.479.878z"/></g></mask></defs><circle cx="13" cy="13" r="13" fill="#0091FF" mask="url(#pepiconsPencilShareAndroidCircleFilled0)"/></g></svg>