<svg width="1570.472168" height="1870.841797" viewBox="0 0 1570.47 1870.84" fill="none" xmlns="http://www.w3.org/2000/svg" xmlns:xlink="http://www.w3.org/1999/xlink">
	<desc>
			Created with Pixso.
	</desc>
	<defs/>
	<mask id="mask1_3994" mask-type="alpha" maskUnits="userSpaceOnUse" x="0.000000" y="0.000000" width="1570.472168" height="1870.841797">
		<path id="Vector" d="M0 0L1570.47 0L1570.47 1870.84L0 1870.84L0 0Z" fill="#000000" fill-opacity="1.000000" fill-rule="evenodd"/>
	</mask>
	<g mask="url(#mask1_3994)">
		<path id="Vector" d="M967.99 519.32C934.72 519.32 892.72 507.48 852.77 486.9C816.08 468.03 784.7 443.84 764.64 418.79C743.9 393.06 737.56 369.22 746.47 351.72C754.53 335.94 774.59 327.36 802.88 327.36C836.14 327.36 878.15 339.2 918.09 359.78C954.78 378.65 986.16 402.84 1006.22 427.89C1026.97 453.62 1033.31 477.46 1024.4 494.96C1016.51 510.57 996.45 519.32 967.99 519.32Z" fill="#ED4F30" fill-opacity="1.000000" fill-rule="nonzero"/>
		<path id="Vector" d="M638.8 1380.66C617.37 1380.66 595.94 1379.29 574.68 1376.55C545.7 1372.94 517.07 1366.42 489.29 1357.16C423.28 1334.69 362.76 1298.49 309.61 1249.93C309.27 1249.6 308.93 1249.43 308.58 1249.09C307.04 1247.89 304.98 1246.17 304.3 1243.25C303.95 1242.22 304.13 1241.18 304.81 1240.51C305.32 1239.65 306.18 1239.14 307.21 1238.96C309.1 1238.79 310.98 1238.62 312.87 1238.62C320.76 1238.62 328.64 1240.68 335.67 1244.44C339.1 1246.17 342.87 1247.54 346.82 1248.56C354.53 1250.8 362.25 1252.68 369.45 1254.4C385.05 1258.18 401 1261.09 416.94 1262.98C419.34 1263.31 421.74 1263.5 424.14 1263.67C428.77 1264.01 433.74 1264.53 438.54 1265.38C444.89 1266.41 451.4 1266.93 457.92 1266.93L459.29 1266.93C472.32 1267.1 485.52 1267.1 498.38 1267.27L504.72 1267.27C505.58 1267.43 506.61 1267.43 507.47 1267.43C508.84 1267.43 510.21 1267.27 511.58 1267.1C517.07 1265.55 522.73 1265.38 528.04 1265.21C532.84 1265.04 537.3 1264.87 541.59 1264.01C546.73 1262.81 552.22 1262.29 557.36 1261.61C562.33 1261.09 567.47 1260.41 572.45 1259.38L575.53 1258.68C588.22 1255.94 601.25 1253.19 613.94 1249.6C641.54 1242.05 668.8 1231.93 694.69 1219.75C699.32 1217.52 704.12 1214.94 708.58 1212.55L714.24 1209.46L717.15 1207.91C723.5 1204.48 730.01 1200.88 736.18 1197.11C750.41 1188.36 764.3 1178.92 777.5 1168.8C791.39 1158.17 803.22 1148.22 813.68 1138.61C822.94 1130.19 831.34 1120.6 839.4 1111.32C841.45 1108.93 843.51 1106.53 845.74 1104.13C861.52 1086.29 875.06 1066.05 886.55 1048.55C890.66 1042.37 894.09 1035.51 897.52 1029.16C898.55 1027.28 899.41 1025.39 900.43 1023.67L900.78 1023.16C905.24 1014.75 909.86 1006 913.81 997.25C921.35 980.44 927.52 963.11 932.5 945.27C936.78 930 941.58 912.68 944.33 895.35C945.01 890.89 945.7 886.09 946.21 881.63C946.38 879.91 946.73 878.2 946.9 876.48C947.24 873.91 947.58 871.51 948.1 869.1C949.13 863.27 949.98 857.78 950.16 852.29C950.16 847.66 950.33 843.03 950.5 838.57C951.01 813.18 951.53 786.76 947.58 761.03C945.35 746.28 943.13 733.07 940.38 719.86C936.1 699.79 930.1 679.72 922.72 660.5C918.78 649.7 914.32 639.06 909.35 628.94C908.32 626.88 907.98 626.88 906.95 626.88L906.09 626.88C903.52 627.22 900.95 627.4 898.38 627.4C893.4 627.4 888.26 626.71 883.46 625.34C879.35 624.31 874.89 623.62 870.6 623.11C868.03 622.76 865.46 622.42 862.89 622.25C858.26 621.73 853.63 621.39 848.83 620.36C820.88 614.53 798.59 607.32 778.53 597.72C772.53 594.8 766.7 591.71 761.04 588.8C758.3 587.25 755.39 585.88 752.64 584.34C746.13 581.08 739.96 577.13 733.95 573.01C720.58 563.24 705.32 551.74 691.78 537.85C674.12 519.66 662.29 502.68 654.23 484.15C647.71 469.23 644.63 456.53 644.11 444.18C643.09 428.4 646.86 412.62 654.74 398.89C646 398.89 637.43 398.72 628.34 398.72L620.97 398.72C617.88 398.72 615.48 398.38 613.25 397.87C611.71 397.52 610.68 396.15 610.68 394.61C610.68 393.06 611.71 391.69 613.08 391.35C614.8 390.83 616.68 390.49 618.4 390.32L618.74 390.32L624.57 390.15C633.65 389.97 642.91 389.8 652.17 389.8L655.09 389.8C674.8 390.15 694.52 391.69 714.07 394.43C716.12 394.78 718.7 395.29 720.07 397.52C721.44 399.75 720.75 402.33 719.9 404.21C719.38 405.41 718.7 406.79 718.18 407.99C717.15 410.05 716.12 412.1 715.78 414.16C713.89 426.34 715.1 436.12 719.55 444.87C721.95 449.67 724.52 454.3 727.27 458.94C738.76 476.78 753.16 492.56 769.96 505.77C791.56 522.92 815.05 538.02 839.74 550.54C870.6 565.98 899.23 575.42 927.18 579.53C935.58 580.73 942.95 581.42 949.98 581.42C958.56 581.42 966.27 580.56 973.64 578.68C989.42 574.73 998.5 567.18 1002.28 554.83C1002.8 553.29 1004 549.51 1008.11 549.17L1008.45 549.17C1008.97 549.17 1009.48 549.34 1010 549.51C1012.74 550.89 1014.63 553.12 1016 555C1016.34 555.52 1016.68 556.03 1017.2 556.37C1088.52 637.86 1131.56 742.33 1138.24 850.58C1140.47 887.46 1138.76 924.86 1133.1 961.4C1130.87 975.64 1127.43 989.87 1124.18 1003.6C1123.15 1007.72 1122.13 1011.84 1121.27 1015.95C1120.57 1018.7 1119.9 1021.27 1119.21 1023.5C1111.67 1048.72 1101.89 1073.59 1090.57 1097.43C1061.77 1157.65 1021.83 1210.66 971.59 1254.57C879.17 1336.06 761.22 1380.66 638.8 1380.66Z" fill="#ED4F30" fill-opacity="1.000000" fill-rule="nonzero"/>
		<path id="Vector" d="M507.3 1274.13C506.27 1274.13 505.07 1274.13 504.04 1273.96L498.72 1273.96C485.69 1273.96 472.32 1273.79 459.12 1273.62L457.75 1273.62C450.89 1273.62 444.03 1273.1 437.17 1272.06C432.71 1271.22 427.91 1270.87 423.46 1270.53C421.06 1270.36 418.48 1270.18 416.08 1269.84C399.8 1267.96 383.51 1265.04 367.73 1261.27C360.53 1259.55 352.82 1257.66 344.93 1255.43C340.64 1254.4 336.53 1252.86 332.59 1250.8C326.59 1247.54 319.73 1245.82 313.04 1245.82C311.33 1245.82 309.78 1246 308.07 1246.17L307.73 1246.17C307.04 1246.17 306.53 1246 305.84 1245.65C304.98 1245.14 303.95 1244.44 303.1 1243.6L302.93 1243.42C272.06 1214.09 244.97 1180.98 222.34 1144.96C208.63 1123.34 196.8 1100.53 186.85 1077.02C176.22 1052.31 167.48 1026.42 160.62 1000.34C159.42 995.71 158.56 991.07 157.88 986.61C157.53 984.21 157.02 981.98 156.5 979.58C152.56 959.68 149.82 939.44 148.45 919.2C146.39 889.69 147.08 859.67 150.33 830.34C153.93 797.4 160.79 764.63 171.08 733.07C201.6 639.57 255.78 561.01 332.07 499.42C403.74 441.95 489.98 405.41 581.02 394.09L584.79 393.58C592.85 392.55 601.08 391.52 609.31 391.52C610.68 391.52 612.22 391.52 613.59 391.69C613.77 391.69 614.11 391.69 614.28 391.86C615.82 392.38 617.71 392.55 620.11 392.55L626.97 392.55C635.54 392.72 646.69 392.72 658 392.72C659.03 392.72 660.06 393.23 660.75 394.09C663.66 397.69 661.26 400.95 660.57 401.98C660.4 402.15 660.4 402.33 660.23 402.5C652.69 415.19 649.26 429.77 650.11 444.7C650.63 456.36 653.71 468.2 659.72 482.44C667.26 500.11 678.75 516.4 695.89 534.07C707.72 546.25 720.92 556.55 737.04 568.38C742.7 572.5 748.7 576.1 754.87 579.19C757.79 580.73 760.53 582.11 763.44 583.65C769.1 586.57 774.93 589.65 780.76 592.57C800.31 602.01 822.08 609.04 849.34 614.7C853.63 615.56 857.91 616.07 862.54 616.42C865.12 616.59 867.69 616.93 870.26 617.27C874.89 617.79 879.52 618.47 884.15 619.68C888.43 620.88 892.89 621.39 897.35 621.39C899.58 621.39 901.98 621.22 904.21 620.88C904.89 620.88 905.41 620.7 905.92 620.7C910.72 620.7 912.78 623.45 914.32 626.54C919.47 637 924.09 647.98 928.04 658.79C935.58 678.34 941.58 698.59 946.04 719.17C948.96 732.55 951.01 745.93 953.41 760.86C957.53 787.11 957.01 813.69 956.5 839.6C956.33 844.23 956.33 848.69 956.16 853.32C955.98 859.33 955.13 865.33 954.1 871.16C953.76 873.56 953.24 875.97 952.9 878.37C952.73 880.08 952.38 881.8 952.21 883.51C951.7 887.97 951.01 892.78 950.33 897.41C947.58 915.25 942.61 932.75 938.33 948.19C933.35 966.2 926.84 984.04 919.29 1001.03C915.35 1010.12 910.55 1018.87 906.09 1027.44L905.92 1027.96C904.89 1029.85 904.03 1031.56 903.01 1033.44C899.58 1040.14 895.98 1047 891.69 1053.52C880.2 1071.18 866.49 1091.61 850.37 1109.79C848.31 1112.18 846.08 1114.59 844.03 1116.99C835.8 1126.43 827.22 1136.04 817.79 1144.79C807.16 1154.56 795.16 1164.51 781.1 1175.31C767.73 1185.61 753.5 1195.22 739.1 1203.97C732.75 1207.91 726.07 1211.52 719.72 1214.94L716.98 1216.49L711.32 1219.57C706.69 1221.98 701.89 1224.55 697.09 1226.96C670.86 1239.31 643.26 1249.43 615.31 1257.15C602.45 1260.75 589.25 1263.5 576.39 1266.24L573.3 1266.93C568.16 1268.13 562.67 1268.64 557.53 1269.32C552.21 1270.01 547.24 1270.53 542.44 1271.56C537.47 1272.59 532.5 1272.76 527.7 1272.93C522.38 1273.1 517.41 1273.27 512.61 1274.47L512.27 1274.47C510.9 1273.96 509.18 1274.13 507.3 1274.13Z" fill="#FF7A61" fill-opacity="1.000000" fill-rule="nonzero"/>
		<path id="Vector" d="M649.6 1771.1C646.52 1771.1 644.63 1769.39 642.92 1768.19L642.57 1767.84C642.06 1767.5 641.71 1766.99 641.54 1766.3C636.74 1752.92 631.94 1739.2 622.51 1727.87C621.31 1726.5 621.48 1724.44 622.86 1723.24C623.71 1722.38 624.57 1721.53 625.26 1720.67C625.77 1719.98 626.28 1719.47 626.97 1718.95C658 1687.22 687.32 1652.74 713.21 1622.37C715.44 1619.8 718.18 1616.88 722.64 1616.88C723.84 1616.88 725.21 1617.05 726.58 1617.57C729.16 1618.25 731.73 1618.6 734.3 1618.6L734.47 1618.6C739.27 1618.94 744.24 1619.28 749.22 1619.28C758.65 1619.28 768.25 1618.6 777.5 1617.05C815.4 1610.36 844.37 1595.44 866.32 1571.42C866.66 1569.88 867.52 1568.51 868.72 1567.48C869.23 1565.93 870.26 1564.56 871.97 1564.05C872.49 1563.87 873 1563.7 873.52 1563.7C874.2 1563.7 874.72 1563.87 875.23 1564.22C878.32 1566.28 879.52 1570.22 877.98 1573.48C874.37 1582.74 869.23 1591.32 862.54 1598.87C850.89 1611.74 836.31 1621.86 820.2 1628.2C811.11 1631.98 800.82 1636.1 790.02 1637.98C782.48 1639.53 774.42 1640.73 766.53 1641.24C760.87 1641.58 755.22 1642.27 749.73 1643.47C745.96 1644.16 745.44 1645.36 745.27 1646.39C745.1 1647.59 744.59 1649.48 744.59 1650.16C744.93 1650.51 745.96 1651.02 746.47 1651.36C757.45 1657.88 769.28 1661.14 781.62 1661.14C788.13 1661.14 794.99 1660.28 801.85 1658.4C805.62 1657.37 809.39 1656.17 813.17 1655.14C814.88 1654.62 816.77 1654.11 818.48 1653.59C818.82 1653.42 819.17 1653.42 819.51 1653.42C819.85 1653.42 820.02 1653.42 820.37 1653.59C820.88 1653.76 821.4 1653.76 821.74 1653.76C823.45 1653.76 825.17 1653.25 827.05 1652.56C828.08 1652.22 829.11 1651.88 830.14 1651.71C834.26 1650.68 838.37 1650.16 842.66 1650.16C850.71 1650.16 858.77 1652.05 867.52 1655.82C876.26 1659.77 884.15 1665.94 892.03 1675.21C897.52 1681.9 901.12 1689.96 902.84 1698.37C903.35 1700.25 903.01 1702.31 901.81 1703.86C900.61 1705.57 898.72 1706.6 896.32 1706.94C885.18 1708.49 873.86 1710.03 862.89 1712.09C846.09 1715.35 828.08 1719.3 807.85 1724.1C787.62 1729.07 761.05 1735.59 734.47 1743.14C717.84 1747.77 702.75 1752.75 688.52 1758.07C681.83 1760.64 674.98 1762.87 668.29 1765.1C663.15 1766.81 657.66 1768.53 652.52 1770.42C651.66 1770.93 650.63 1771.1 649.6 1771.1ZM484.67 1811.42C473.18 1811.42 462.03 1809.19 451.4 1807.13L451.23 1807.13C445.57 1805.58 440.26 1803.53 435.29 1800.61C432.37 1799.06 430.32 1796.32 429.63 1793.06L429.63 1792.2C429.63 1790.66 429.8 1789.29 430.14 1787.74L430.14 1787.57C434.26 1774.02 439.57 1760.64 445.75 1747.94C451.58 1736.11 458.95 1725.13 468.03 1715.35C482.44 1700.43 499.24 1691.51 518.27 1689.1C521.7 1688.59 525.3 1688.42 528.73 1688.42C541.24 1688.42 554.1 1691.16 567.65 1696.99L569.71 1697.85C577.25 1701.11 585.14 1704.37 591.14 1711.06C591.65 1711.58 591.99 1712.43 591.99 1713.12C592.85 1728.04 589.59 1742.8 581.71 1758.24C573.65 1774.02 560.96 1786.71 543.99 1795.81C529.41 1803.35 513.98 1808.33 497.7 1810.56C493.58 1811.07 489.29 1811.42 484.67 1811.42ZM290.07 1768.01C277.72 1768.01 265.89 1764.76 255.78 1761.5C248.58 1759.27 247.89 1754.29 248.06 1751.2C248.06 1749.83 247.89 1748.46 247.72 1747.09L247.72 1746.23C248.75 1734.56 253.38 1723.58 262.46 1711.4C274.47 1695.11 290.58 1683.27 311.67 1674.87C326.42 1669.03 342.19 1666.12 358.65 1666.12C366.36 1666.12 374.59 1666.8 382.65 1668C392.6 1669.55 404.08 1671.95 413 1679.84C413.34 1680.18 413.68 1680.53 413.86 1680.87C415.57 1684.64 415.4 1688.93 413.17 1692.36C411.28 1695.11 409.57 1697.85 407.85 1700.43L404.25 1706.09C392.94 1723.41 376.48 1737.31 354.36 1748.8L353.33 1749.32C343.56 1754.29 333.62 1759.44 322.47 1762.53C313.04 1765.27 303.1 1766.99 293.15 1767.67C292.12 1768.02 291.1 1768.01 290.07 1768.01ZM610.17 1705.23C609.48 1705.23 608.97 1705.06 608.28 1704.71L595.94 1696.99C573.13 1682.58 551.19 1675.55 528.9 1675.55C526.67 1675.55 524.44 1675.55 522.38 1675.72L521.01 1675.72C518.27 1675.72 516.38 1674.18 515.53 1671.43C515.18 1670.23 515.53 1669.03 516.21 1668.17C516.9 1667.32 517.76 1666.46 518.61 1665.6C519.81 1664.23 521.18 1662.69 522.38 1661.31L529.93 1653.25C549.13 1632.84 569.02 1611.74 587.02 1589.78C596.28 1578.28 609.48 1571.08 624.23 1569.36L626.11 1569.36C635.89 1569.36 641.2 1575.71 644.63 1581.03C652.17 1592.69 654.75 1606.42 652.17 1620.14C652 1621.51 651.66 1623.06 651.49 1624.6C650.29 1631.98 649.09 1639.53 646.34 1646.73C641.2 1660.11 634.69 1675.55 624.74 1689.28C622.34 1692.71 619.94 1696.48 617.71 1700.08L617.54 1700.43C616 1702.83 613.6 1704.71 610.68 1705.23L610.17 1705.23Z" fill="#9AC5F0" fill-opacity="1.000000" fill-rule="nonzero"/>
		<path id="Vector" d="M417.11 1673.32L415.57 1673.32C414.54 1673.15 413.34 1672.81 412.31 1672.29L412.14 1672.29C393.62 1664.06 374.76 1659.77 356.25 1659.77C347.67 1659.77 338.93 1660.63 330.36 1662.34L329.84 1662.51C329.16 1662.69 328.13 1662.86 327.1 1662.86C325.56 1662.86 324.19 1662.34 322.99 1661.48C322.3 1660.8 321.79 1659.94 321.61 1658.91C321.44 1655.48 323.67 1653.59 324.87 1652.39L325.56 1651.71L329.16 1648.1C330.87 1646.39 332.59 1644.67 334.13 1642.96L346.47 1628.89C366.36 1606.07 386.77 1582.4 406.83 1559.07C413.17 1551.18 422.26 1545.69 432.2 1543.46L433.23 1543.46C438.37 1544.15 442.14 1547.58 443.17 1553.24C443.52 1554.78 443.86 1556.15 444.03 1557.7C445.06 1562.16 446.09 1566.96 445.92 1571.94L445.92 1573.48C445.75 1577.77 445.57 1581.89 446.94 1585.83C447.63 1588.06 447.63 1590.46 446.94 1592.69C445.75 1596.47 445.4 1600.59 445.74 1604.7L445.74 1604.87C446.09 1617.4 443.34 1630.26 437.34 1644.33L434.77 1650.51C432.71 1655.48 430.49 1660.46 428.43 1665.43C426.89 1670.06 422.26 1673.32 417.11 1673.32Z" fill="#9AC5F0" fill-opacity="1.000000" fill-rule="nonzero"/>
		<path id="Vector" d="M905.58 563.24C905.24 563.24 904.89 563.24 904.55 563.07C904.21 563.07 903.86 562.89 903.35 562.72C901.81 562.21 900.09 561.69 898.55 561.35C894.26 560.15 889.98 558.78 885.69 557.23L873.86 552.6C869.4 550.71 864.94 548.83 860.31 547.28C850.37 543.85 841.11 539.05 832.2 534.25C829.11 532.7 826.2 530.99 823.11 529.61C817.79 527.04 817.79 523.95 819.51 519.15C821.05 514.69 822.77 510.23 824.31 505.77C826.37 500.28 828.25 494.79 830.14 489.3C831.17 486.38 832.2 483.47 833.05 480.72C833.74 478.84 834.43 476.78 835.11 474.89C835.11 474.72 835.11 474.72 835.28 474.55C835.8 473.52 836.31 472.66 837 471.8C837.51 471.12 838.37 470.6 839.23 470.6L840.25 470.6C843 470.6 844.71 471.8 846.08 472.66C846.43 472.83 846.6 473 846.94 473.17C870.26 486.9 894.95 497.88 920.84 505.77C921.18 505.94 921.35 505.94 921.69 505.94L923.75 506.45C925.29 506.97 926.5 507.83 927.18 509.2C928.04 510.57 928.21 512.29 927.87 513.83C927.87 514.17 927.7 514.35 927.52 514.69C925.81 519.32 923.92 523.95 922.21 528.41C918.44 538.19 914.49 548.14 911.41 558.26C911.06 561.18 908.49 563.24 905.58 563.24ZM762.07 484.33C761.73 484.33 761.39 484.33 761.22 484.15C758.3 483.3 756.41 481.58 754.87 480.04C754.19 479.35 753.67 478.84 753.16 478.49C748.7 475.23 747.5 470.94 749.56 465.28C753.67 454.65 757.79 443.67 761.73 433.2C763.27 428.92 764.82 424.8 766.53 420.51C767.22 418.11 769.45 416.56 771.85 416.56L772.19 416.56C773.05 416.56 773.73 416.91 774.42 417.59L776.82 420C778.53 421.71 780.42 423.6 782.3 425.14C786.25 428.4 787.28 432.52 785.05 437.49C780.76 447.61 776.47 457.74 772.19 467.69L767.05 479.87C767.05 480.04 766.87 480.21 766.87 480.21C766.19 481.24 765.5 482.27 764.47 483.12C763.79 483.98 762.93 484.33 762.07 484.33Z" fill="#ED4F30" fill-opacity="1.000000" fill-rule="nonzero"/>
		<path id="Vector" d="M650.63 1812.45C649.77 1812.45 648.91 1812.27 648.23 1811.93C647.71 1811.76 647.2 1811.42 646.69 1810.9C645.31 1809.19 644.8 1806.96 645.14 1804.9C645.66 1796.66 644.63 1788.77 643.6 1780.37L643.26 1777.11C643.09 1775.91 642.74 1774.71 642.4 1773.5C641.71 1770.93 641.03 1768.19 641.54 1764.93C641.71 1763.73 642.57 1762.7 643.77 1762.18C644.11 1762.01 644.63 1762.01 644.97 1762.01C645.83 1762.01 646.51 1762.35 647.2 1762.87L647.54 1763.21C648.74 1764.24 649.26 1764.58 649.77 1764.58C649.94 1764.58 650.29 1764.58 650.63 1764.41C655.94 1762.53 661.43 1760.64 666.75 1758.92C673.26 1756.69 680.12 1754.46 686.63 1752.06C701.21 1746.57 716.47 1741.6 733.27 1736.97C759.84 1729.42 786.59 1722.73 806.99 1717.92C827.4 1712.95 845.57 1709 862.37 1705.92C873.52 1703.86 884.66 1702.31 896.15 1700.77C896.66 1700.77 896.83 1700.6 896.83 1700.6L896.83 1700.43C895.29 1693.05 892.03 1686.02 887.4 1680.18C880.03 1671.61 873.35 1666.12 865.29 1662.69C857.4 1659.25 850.2 1657.54 843.17 1657.54C839.57 1657.54 835.97 1658.05 832.37 1658.91C831.51 1659.08 830.65 1659.43 829.8 1659.77C827.57 1660.46 825.17 1661.31 822.42 1661.31C821.4 1661.31 820.37 1661.14 819.34 1660.97C818.14 1660.63 817.28 1659.94 816.94 1658.74C816.59 1657.71 816.77 1656.34 817.45 1655.48C819.34 1653.25 821.74 1652.39 823.62 1651.71C824.31 1651.54 825 1651.19 825.51 1651.02L827.05 1650.33C843.86 1642.79 855.51 1634.72 864.43 1624.43L864.09 1624.6C848.66 1636.78 830.14 1645.36 805.79 1651.36C796.02 1653.77 787.1 1654.97 778.36 1654.97C768.93 1654.97 759.67 1653.59 750.93 1650.68C749.39 1650.16 747.84 1649.82 746.3 1649.48C745.96 1649.48 745.44 1649.3 745.1 1649.3C744.41 1649.3 743.9 1649.3 743.21 1649.48C742.87 1649.48 742.7 1649.65 742.36 1649.65C741.5 1649.65 740.64 1649.3 739.96 1648.79C739.1 1647.93 738.76 1646.9 738.93 1645.7C739.44 1642.61 741.67 1638.5 748.7 1637.3C754.36 1636.1 760.36 1635.24 766.36 1635.07C773.9 1634.55 781.45 1633.52 788.82 1631.98C798.76 1630.26 808.19 1626.49 817.45 1622.72L817.79 1622.54C832.88 1616.54 846.6 1606.93 857.57 1594.92C863.57 1588.06 868.37 1580.17 871.63 1571.59L871.63 1571.42C871.8 1571.08 871.63 1570.74 871.46 1570.56C870.6 1570.05 869.92 1569.02 869.92 1567.82C869.74 1565.59 870.77 1564.05 871.46 1562.85C871.63 1562.5 871.8 1562.33 871.97 1561.99C874.55 1556.5 877.12 1550.84 879.52 1545.35C880.37 1543.12 880.37 1540.72 879.52 1538.66C879.35 1538.49 879.17 1538.31 879 1538.31L878.83 1538.31C878.83 1538.31 878.66 1538.31 878.66 1538.49C878.15 1539 877.63 1539.86 877.12 1540.72C876.09 1542.6 874.72 1545 871.97 1546.38C871.46 1546.55 870.94 1546.72 870.43 1546.72C869.23 1546.72 868.03 1546.03 867.52 1545C862.2 1535.57 857.06 1519.79 857.06 1512.58C857.06 1510.87 858.43 1509.32 860.14 1509.15C860.83 1509.15 861.34 1508.98 862.03 1508.98C862.72 1508.98 863.23 1508.98 863.92 1509.15C864.09 1509.15 864.26 1509.15 864.43 1509.32C882.09 1514.13 896.83 1528.71 903.18 1547.23C908.84 1564.05 906.44 1581.2 896.32 1594.41C896.15 1594.75 895.98 1594.92 895.63 1595.27C895.29 1595.61 894.95 1596.13 894.78 1596.47C894.78 1596.64 894.61 1596.64 894.61 1596.81C894.26 1597.15 894.26 1597.67 894.43 1598.18L894.95 1598.18C895.29 1598.18 895.81 1598.18 896.66 1597.84C897.52 1597.5 898.38 1597.15 899.23 1596.64C899.75 1596.47 900.26 1596.13 900.61 1595.95C901.12 1595.78 901.63 1595.61 901.98 1595.61C903.18 1595.61 904.38 1596.3 904.89 1597.33C906.61 1600.24 907.64 1603.33 908.32 1606.59C913.81 1629.41 920.67 1652.05 928.72 1674.18C930.78 1679.67 933.01 1685.16 935.24 1690.65C936.27 1693.22 937.3 1695.79 938.33 1698.2L938.5 1698.71C940.04 1702.48 941.58 1706.6 940.55 1711.4C937.98 1721.7 932.67 1729.25 924.95 1733.53C918.61 1737.31 911.75 1740.22 904.55 1742.28C894.09 1745.03 883.63 1747.94 873.35 1750.86C859.46 1754.63 845.23 1758.58 831 1762.35C762.76 1780.2 706.87 1795.98 655.43 1811.93C655.09 1812.1 654.92 1812.1 654.57 1812.27C653.37 1812.1 652.17 1812.45 650.63 1812.45ZM356.93 1797.69C340.3 1797.69 323.67 1795.98 307.38 1792.72C288.52 1788.77 273.61 1783.8 260.41 1776.94C255.95 1774.88 251.83 1771.62 248.75 1767.84C248.75 1767.84 248.4 1767.33 248.23 1767.16C247.37 1765.96 246 1764.41 246.17 1762.35L246.17 1758.41C246 1754.29 245.83 1749.66 248.23 1745.03C248.92 1744 249.95 1743.31 251.32 1743.31L251.83 1743.31C253.2 1743.48 254.4 1744.69 254.58 1746.06C254.92 1747.77 255.09 1749.49 255.09 1751.38L255.09 1751.72C254.92 1753.09 255.09 1754.29 258 1754.98C268.12 1758.07 278.92 1761.15 290.07 1761.15L293.15 1761.15C302.58 1760.64 312.01 1758.92 320.93 1756.35C331.73 1753.43 341.85 1748.12 351.45 1743.14C372.53 1732.16 388.14 1718.95 398.77 1702.66C400.14 1700.43 401.68 1698.2 403.05 1695.97C404.6 1693.56 406.14 1691.16 407.68 1688.93C408.54 1687.56 408.71 1685.67 408.03 1684.13C407.34 1682.76 407.68 1681.21 408.71 1680.18C409.4 1679.5 410.25 1679.33 411.11 1679.33C411.63 1679.33 412.31 1679.5 412.83 1679.67C425.86 1686.7 436.83 1697.17 444.37 1709.86C445.23 1711.41 446.09 1713.12 446.6 1714.66C449.17 1720.5 448.66 1727.02 445.23 1732.33C437.69 1744.86 431.86 1758.58 428.26 1772.82C426.71 1779.17 422.26 1784.48 416.25 1787.06C414.2 1788.09 411.97 1788.94 409.91 1789.8L409.05 1790.14C397.22 1794.95 385.05 1796.32 374.59 1797.01C368.59 1797.35 362.76 1797.69 356.93 1797.69ZM554.45 1835.6C532.84 1835.6 511.24 1833.37 490.15 1829.09C467.86 1824.63 451.4 1818.96 436.66 1811.07C435.46 1810.39 434.43 1809.87 433.57 1809.36C429.63 1807.3 426.71 1805.93 426.2 1802.5C425.86 1799.75 427.06 1797.01 429.8 1790.83C430.31 1789.63 431.51 1788.77 432.89 1788.77L433.23 1788.77C434.77 1788.94 435.97 1789.97 436.14 1791.52C436.31 1792.72 437.17 1793.75 438.2 1794.26C438.2 1794.26 438.37 1794.26 438.37 1794.43C442.83 1797.01 447.63 1799.07 452.77 1800.27C462.89 1802.32 473.69 1804.38 484.49 1804.38C488.78 1804.38 492.72 1804.04 496.67 1803.53C512.1 1801.3 526.84 1796.66 540.73 1789.46C556.67 1780.88 567.99 1769.56 575.53 1754.98C582.73 1740.57 585.82 1727.02 584.96 1713.46C584.96 1712.09 585.48 1710.89 586.68 1710.2C587.19 1709.86 587.88 1709.69 588.39 1709.69C589.08 1709.69 589.76 1709.86 590.28 1710.2C601.94 1718.1 611.71 1728.73 618.57 1741.08C631.43 1763.38 635.71 1787.74 638.97 1810.9C639.49 1814.68 637.6 1818.28 634.17 1819.99C628.34 1823.43 622.17 1826 615.65 1827.89C600.91 1832 585.82 1834.4 570.56 1835.09C565.42 1835.43 559.93 1835.6 554.45 1835.6ZM428.6 1681.04C427.91 1681.04 427.4 1680.87 426.71 1680.53L414.37 1672.64C413 1671.78 412.48 1670.06 413 1668.69C413.51 1667.32 414.71 1666.46 416.25 1666.46L417.11 1666.46C419.34 1666.46 421.23 1665.09 421.91 1662.86C421.91 1662.86 421.91 1662.69 422.08 1662.69C424.14 1657.71 426.37 1652.74 428.43 1647.76L431.17 1641.59C436.83 1628.03 439.4 1616.54 439.06 1605.05C438.72 1600.24 439.23 1595.27 440.6 1590.64C440.94 1589.78 440.94 1588.75 440.6 1587.89C438.89 1582.92 439.06 1577.94 439.23 1573.14L439.23 1571.59C439.4 1567.48 438.54 1563.36 437.52 1559.07L436.49 1554.44C435.8 1551.01 434.09 1550.32 432.54 1550.15C431.17 1549.98 429.97 1549.12 429.63 1547.75C429.29 1546.38 429.63 1545 430.66 1544.15L430.83 1543.98C431.34 1543.46 432.03 1542.6 433.4 1542.26C442.83 1539.17 452.77 1537.46 462.89 1537.46C469.06 1537.46 475.23 1538.14 481.41 1539.34C487.75 1540.72 493.92 1542.77 499.75 1545.86C511.93 1551.87 521.35 1562.16 526.33 1574.68C528.04 1578.46 527.01 1582.92 523.76 1585.32C512.44 1596.47 501.12 1607.79 491.69 1617.23C476.26 1632.84 460.66 1648.62 445.4 1664.23C442.14 1667.66 438.89 1671.09 435.63 1674.87L431 1680.01C430.49 1680.7 429.46 1681.04 428.6 1681.04ZM617.02 1710.2C616.68 1710.2 616.17 1710.2 615.82 1710.03C612.57 1708.83 609.65 1706.77 607.42 1704.03C606.74 1703.17 606.57 1701.8 606.91 1700.77C607.25 1699.74 608.28 1698.88 609.48 1698.54C610.51 1698.37 611.2 1697.85 611.71 1697L612.22 1696.14C614.45 1692.53 616.68 1688.93 619.25 1685.5C628.68 1672.29 635.03 1657.37 640 1644.5C642.57 1637.81 643.6 1630.95 644.8 1623.74C644.97 1622.2 645.31 1620.66 645.49 1619.11C647.89 1607.28 645.49 1595.1 638.97 1584.97C635.2 1578.8 631.43 1576.4 626.28 1576.4L624.91 1576.4C623.54 1576.4 622.17 1575.54 621.65 1574.17C621.14 1572.62 621.65 1571.08 622.85 1570.22C624.91 1568.85 627.31 1567.99 629.88 1567.99L630.23 1567.99C632.8 1567.82 635.37 1567.65 637.94 1567.65C660.06 1567.65 679.95 1576.23 696.92 1593.38C701.72 1598.01 705.67 1603.5 708.92 1609.33C710.64 1611.91 710.29 1615.51 708.07 1617.74C707.55 1618.25 706.87 1618.94 706.35 1619.63L705.32 1620.66L699.15 1626.83C674.12 1652.22 648.23 1678.47 624.23 1705.57C622.68 1707.8 620.63 1709.35 618.22 1710.2L617.02 1710.2ZM455.35 1713.29L454.66 1713.29C453.46 1713.12 452.6 1712.26 452.09 1711.23C448.32 1701.97 442.32 1694.59 436.49 1688.25C435.29 1686.87 435.29 1684.82 436.66 1683.44C438.54 1681.56 440.43 1679.84 442.32 1678.12C445.92 1674.69 449.35 1671.61 452.6 1668.18C476.09 1644.16 499.92 1619.8 523.58 1595.44C525.3 1593.55 527.18 1591.84 529.07 1589.95C530.27 1588.75 531.81 1588.06 533.53 1588.06C534.73 1588.06 535.93 1588.41 536.96 1589.09C542.44 1592.52 548.79 1594.58 555.47 1594.75C557.7 1594.92 559.42 1596.13 560.27 1597.84C561.13 1599.73 560.62 1601.96 559.07 1603.84C554.1 1609.51 549.13 1615.17 544.33 1620.66C539.7 1625.8 535.24 1631.12 530.78 1636.27C519.98 1648.96 508.67 1662.17 495.81 1673.66C486.89 1681.73 478.66 1690.3 469.92 1699.57C465.98 1703.69 462.03 1707.97 457.75 1712.26C457.06 1712.95 456.2 1713.29 455.35 1713.29Z" fill="#5B8FCB" fill-opacity="1.000000" fill-rule="nonzero"/>
		<path id="Vector" d="M228 1289.23C224.91 1289.23 222.34 1287 222.17 1284.07C221.83 1279.79 221.83 1275.5 221.83 1271.39L221.83 1271.22C221.83 1270.36 222.17 1269.5 222.69 1268.64C223.71 1267.1 225.26 1266.24 227.14 1266.24C228.17 1266.24 229.03 1266.57 229.89 1267.1C235.89 1270.53 240.35 1275.16 244.97 1281.16C245.83 1282.18 246 1283.74 245.32 1284.93C244.8 1286.14 243.6 1286.82 242.23 1286.82L241.03 1286.82C238.12 1286.82 235.89 1287.51 233.49 1288.19C231.94 1288.71 230.4 1289.06 228.69 1289.4C228.52 1289.23 228.34 1289.23 228 1289.23ZM1085.26 1590.64L1080.46 1590.64C1075.66 1590.64 1074.29 1587.55 1073.94 1584.97C1073.78 1583.6 1074.46 1582.23 1075.66 1581.54C1078.41 1579.83 1080.81 1577.6 1083.38 1575.02C1084.75 1573.65 1086.29 1572.28 1087.84 1570.91C1088.18 1569.54 1089.21 1568.33 1090.41 1567.65C1090.92 1566.62 1091.61 1565.42 1092.29 1564.39C1105.31 1543.46 1108.41 1520.99 1101.55 1496.11C1101.04 1494.23 1100.35 1492.68 1099.49 1491.14L1099.15 1491.14L1099.15 1503.32C1099.15 1507.44 1099.31 1511.55 1098.98 1515.84C1097.43 1534.2 1092.12 1548.09 1082.35 1559.24C1071.89 1571.25 1059.19 1577.43 1044.46 1577.43C1042.92 1577.43 1041.37 1577.43 1039.66 1577.25C1015.48 1575.2 991.65 1556.5 983.07 1533C982.73 1531.97 982.9 1530.77 983.42 1529.91C985.13 1527.33 987.7 1526.99 989.25 1526.65C989.42 1526.65 989.76 1526.65 989.93 1526.48C995.93 1525.28 1001.6 1522.36 1006.05 1518.07C1014.8 1510.01 1020.11 1499.2 1020.97 1487.36C1021.48 1481.7 1020.63 1476.21 1018.4 1471.24C1017.88 1470.38 1017.37 1469.35 1016.51 1468.67L1016.17 1468.67C1016.17 1468.67 1015.83 1468.67 1015.83 1468.84C1015.48 1469.52 1015.31 1470.38 1015.31 1471.24L1015.31 1471.41C1015.31 1472.27 1015.48 1472.95 1015.48 1473.81C1015.83 1476.39 1016.17 1479.47 1014.8 1482.73C1013.77 1496.28 1006.4 1506.41 993.02 1512.41C989.93 1513.78 986.85 1514.47 984.1 1514.47C977.07 1514.47 971.42 1510.01 968.33 1502.12C963.36 1489.08 959.24 1475.7 956.16 1462.15C953.41 1451 953.58 1439.16 956.67 1428.18C958.9 1419.95 961.47 1411.88 964.04 1403.99L965.93 1397.82L966.1 1397.47C966.44 1396.1 967.47 1392.33 972.27 1392.16L972.44 1392.16C973.64 1392.16 974.67 1392.67 975.36 1393.7C976.22 1394.9 976.9 1396.1 977.76 1397.47C979.13 1399.7 980.5 1401.76 982.05 1403.99C992.33 1418.23 1006.4 1428.7 1025.07 1435.73C1040 1441.39 1055.77 1444.13 1071.72 1444.13C1083.21 1444.13 1095.38 1442.59 1107.55 1439.85C1111.67 1438.82 1115.94 1437.79 1119.9 1436.76C1121.78 1436.24 1123.5 1435.73 1125.38 1435.39L1126.93 1434.36C1127.1 1434.36 1127.27 1434.18 1127.43 1434.18C1148.18 1426.47 1164.47 1415.49 1177.32 1400.22L1179.91 1396.1C1181.79 1393.01 1183.85 1389.75 1186.07 1386.49C1187.11 1384.95 1187.96 1383.06 1188.81 1381.18C1190.18 1377.92 1191.91 1374.14 1195.34 1370.88C1196.02 1370.2 1196.88 1370.03 1197.74 1370.03C1198.07 1370.03 1198.25 1370.03 1198.59 1370.2C1199.79 1370.54 1200.65 1371.23 1200.99 1372.26C1201.85 1374.66 1202.71 1376.89 1203.56 1379.12C1205.11 1383.24 1206.65 1387.01 1208.02 1390.95C1212.48 1403.82 1217.28 1419.09 1218.14 1435.73C1219 1451 1218.14 1466.44 1215.74 1481.53C1215.05 1488.05 1213.51 1494.57 1211.44 1500.74C1205.97 1515.5 1197.22 1529.05 1185.91 1539.69C1185.22 1540.37 1184.36 1540.54 1183.51 1540.54C1182.99 1540.54 1182.48 1540.37 1182.13 1540.2C1179.22 1538.83 1178.53 1536.26 1178.36 1534.88C1178.36 1534.54 1178.18 1534.37 1178.18 1534.02C1177.85 1533.17 1178.02 1532.48 1178.18 1531.62C1183.85 1517.56 1185.91 1502.29 1184.02 1487.36L1184.02 1487.19C1183.51 1480.85 1182.31 1474.5 1180.07 1468.49C1179.73 1467.64 1178.71 1466.95 1177.68 1466.95L1177.5 1466.95C1176.48 1467.12 1175.79 1467.98 1175.62 1469.01C1175.44 1472.61 1175.44 1476.21 1175.62 1480.16C1176.3 1497.66 1173.22 1514.81 1166.53 1531.11C1158.65 1550.15 1148.53 1564.56 1135.5 1575.37C1127.96 1581.89 1118.69 1586.35 1108.92 1588.23C1101.21 1589.95 1093.31 1590.64 1085.26 1590.64Z" fill="#F7F6F5" fill-opacity="1.000000" fill-rule="nonzero"/>
		<path id="Vector" d="M1071.21 1438.13C1067.09 1438.13 1062.63 1437.96 1058.18 1437.62C1045.66 1436.76 1033.49 1433.67 1022.17 1428.7C1011.03 1424.24 1000.74 1417.2 992.33 1408.28C975.87 1390.27 970.39 1370.03 975.87 1348.41C979.13 1335.72 985.82 1323.88 994.91 1314.44C995.59 1313.76 996.96 1312.39 999.19 1312.39C999.71 1312.39 1000.4 1312.56 1000.91 1312.73C1003.14 1313.59 1004.34 1315.47 1004.34 1318.39C1004.51 1326.45 1004.51 1332.63 1004.51 1338.46C1004.51 1342.24 1001.94 1343.95 999.71 1343.95L999.36 1343.95C997.82 1343.78 996.28 1343.09 995.42 1341.89L995.25 1341.72C994.73 1341.03 994.39 1340.18 994.05 1339.49C993.88 1339.15 993.53 1338.63 993.36 1338.29C993.36 1338.12 993.19 1338.12 993.19 1337.95C993.19 1337.78 993.02 1337.78 993.02 1337.78C992.68 1337.78 992.51 1338.12 992.33 1338.63L992.33 1338.8C991.48 1341.55 991.99 1344.47 993.71 1346.87C996.62 1350.98 1000.4 1354.59 1004.68 1357.5C1013.94 1364.02 1024.4 1368.65 1035.37 1371.23C1039.66 1372.26 1043.77 1373.29 1048.06 1374.31L1050.12 1374.83L1054.57 1375C1057.82 1375.17 1061.09 1375.34 1064.35 1375.34C1066.57 1375.52 1068.81 1375.52 1071.03 1375.52C1096.41 1375.52 1120.41 1368.65 1144.42 1354.42C1152.65 1349.78 1159.85 1343.78 1165.85 1336.57C1167.73 1334.17 1169.62 1331.6 1171.5 1329.03C1172.18 1328 1172.88 1326.97 1173.73 1325.94L1173.73 1323.88C1173.56 1323.02 1173.05 1322.68 1172.71 1322.68C1172.53 1322.68 1172.36 1322.68 1172.18 1322.85C1170.65 1324.22 1169.28 1325.77 1167.73 1327.31C1166.88 1328.34 1165.85 1329.2 1164.81 1330.23C1163.96 1331.08 1162.07 1332.97 1159.5 1332.97C1158.65 1332.97 1157.79 1332.8 1156.93 1332.46C1155.56 1331.77 1154.69 1330.4 1154.87 1328.85C1156.06 1319.42 1157.27 1309.98 1158.65 1300.55C1158.65 1300.38 1158.65 1300.21 1158.81 1300.04C1159.16 1298.82 1159.85 1297.8 1161.05 1297.29C1161.22 1297.12 1161.39 1297.12 1161.56 1297.12C1162.25 1296.78 1163.1 1296.6 1163.96 1296.6L1164.3 1296.6C1165.16 1296.6 1166.02 1296.94 1166.69 1297.63C1174.07 1305.01 1181.62 1312.56 1184.88 1323.54C1186.07 1324.91 1186.76 1326.8 1186.76 1328.68C1191.05 1337.78 1190.54 1347.21 1189.51 1355.1C1187.44 1370.37 1180.76 1384.26 1170.13 1395.42C1154.69 1412.4 1134.81 1425.09 1112.87 1432.13C1100.01 1436.24 1086.47 1438.13 1071.21 1438.13ZM559.93 1585.66C555.3 1585.66 550.5 1584.97 545.7 1583.6C537.99 1581.89 531.99 1576.05 529.93 1568.51C526.33 1556.5 518.44 1546.72 506.1 1538.49C503.87 1537.11 501.47 1535.74 499.24 1534.37C498.38 1533.85 497.7 1533.51 496.84 1533C495.98 1532.82 494.95 1532.65 494.1 1532.48C493.92 1532.48 493.75 1532.48 493.75 1532.31C484.84 1528.54 474.72 1526.65 463.06 1526.65C461.35 1526.65 459.63 1526.65 457.92 1526.82L456.38 1526.82C455 1526.82 453.8 1526.99 452.78 1526.99C450.72 1526.99 448.49 1526.82 446.95 1525.1C445.06 1523.05 445.06 1520.3 445.23 1515.5L445.23 1514.81C446.09 1492.85 447.12 1470.72 447.97 1448.77C447.97 1447.74 448.15 1446.71 448.49 1445.68C448.49 1445.51 448.66 1445.34 448.66 1445.16C449.69 1443.45 451.23 1442.42 452.95 1442.42C453.63 1442.42 454.83 1442.59 456.03 1443.45L456.38 1443.62C457.75 1444.82 459.29 1446.02 460.66 1447.22C468.21 1454.08 476.26 1460.6 484.49 1466.44C485.87 1467.46 487.24 1468.15 488.78 1469.18C492.21 1471.24 495.81 1473.3 498.38 1476.9C498.9 1477.59 499.07 1478.27 499.07 1479.13C498.72 1484.62 498.55 1489.94 498.21 1495.43C498.04 1497.49 498.04 1499.37 497.87 1501.43C497.52 1506.06 497.35 1510.87 497.18 1515.5C497.18 1517.73 497.35 1519.96 497.7 1522.19L497.87 1522.19C498.04 1522.19 498.04 1522.02 498.21 1522.02C498.9 1519.27 499.58 1516.7 500.27 1513.95L500.78 1507.78L502.84 1486.68C503.35 1482.56 506.1 1481.19 508.5 1481.19C509.53 1481.19 510.55 1481.36 511.58 1481.87C513.47 1482.56 515.53 1483.25 517.41 1483.93C521.36 1485.48 525.47 1487.02 529.59 1488.05C538.33 1490.45 547.59 1491.65 556.67 1491.65L557.53 1491.65C563.53 1491.65 566.28 1492.85 566.62 1499.54C566.79 1502.46 566.96 1505.38 567.13 1508.12C567.65 1515.84 567.99 1523.9 567.48 1531.97L567.99 1536.77C568.51 1541.06 569.02 1545.18 569.36 1549.46L569.36 1549.64C569.53 1552.38 570.05 1555.13 570.9 1557.7C571.25 1556.67 571.42 1555.81 571.76 1554.78C571.93 1554.1 572.11 1553.41 572.28 1552.9C572.28 1550.67 572.28 1548.61 572.45 1546.38C572.62 1541.4 572.62 1536.43 572.62 1531.45L572.62 1499.03C572.62 1492.51 573.65 1490.11 580.16 1488.22C593.37 1484.45 605.2 1477.07 614.45 1467.12C614.63 1466.95 614.63 1466.78 614.8 1466.78C615.65 1465.92 617.2 1464.21 619.77 1464.21C620.8 1464.21 621.65 1464.38 622.68 1464.89C623.71 1465.41 624.57 1466.44 624.57 1467.81C624.74 1469.87 624.91 1471.75 625.08 1473.81C625.43 1477.76 625.77 1481.7 625.77 1485.82C625.77 1487.88 625.94 1490.11 626.11 1492.17C626.46 1497.31 626.8 1502.46 626.28 1507.78C627.83 1518.41 629.37 1547.75 628.86 1553.92C628.68 1555.13 628 1556.15 626.97 1556.67C626.28 1557.01 625.6 1557.36 624.74 1557.53C624.57 1557.53 624.57 1557.53 624.4 1557.7C610.68 1560.61 597.65 1566.96 587.02 1576.05C579.48 1582.4 570.22 1585.66 559.93 1585.66ZM1359.59 380.02C1358.56 380.02 1357.7 379.68 1357.02 378.82C1356.33 377.97 1355.64 377.11 1354.96 376.42C1353.24 374.36 1351.53 372.48 1349.64 370.59C1343.64 364.41 1333.53 357.21 1319.98 357.21C1313.98 357.21 1307.81 358.58 1301.64 361.5C1295.64 364.41 1289.98 368.36 1285.01 372.99L1284.49 373.51C1283.63 374.36 1282.09 375.74 1279.68 375.74C1278.82 375.74 1277.98 375.56 1277.12 375.22C1275.92 374.71 1275.06 373.51 1275.06 372.13L1275.06 363.56C1275.06 358.41 1274.38 353.43 1272.66 348.63C1268.55 336.97 1260.66 329.76 1248.31 326.67C1245.4 325.99 1242.31 325.64 1239.23 325.64C1234.93 325.64 1230.31 326.33 1224.82 327.7C1224.14 327.87 1223.46 328.05 1222.77 328.39C1220.88 329.07 1218.65 329.76 1215.74 329.76L1214.19 329.76C1213.17 329.59 1212.31 329.25 1211.8 328.39C1211.28 327.7 1210.93 326.67 1211.11 325.64C1211.97 320.67 1211.97 315.69 1211.11 310.89C1210.77 308.15 1209.56 305.57 1208.54 302.66C1207.51 300.43 1206.65 298.02 1205.8 295.45C1205.44 294.42 1205.8 293.22 1206.48 292.36C1207.17 291.51 1208.19 290.99 1209.22 290.99L1210.25 290.99C1219 290.99 1224.48 285.67 1229.11 280.01C1234.26 273.49 1238.03 265.6 1239.74 257.2C1243.51 240.9 1240.09 227.86 1229.11 216.88C1221.91 209.68 1214.19 202.99 1206.14 196.81C1204.6 195.78 1203.4 194.58 1202.02 193.21C1200.31 191.49 1201.34 188.92 1201.51 188.23C1202.19 186.52 1203.56 186 1204.42 185.83C1205.8 185.66 1207.17 185.49 1208.37 185.32C1209.56 185.15 1210.93 185.15 1212.14 184.98C1222.93 183.43 1231 179.14 1236.49 171.77C1239.06 168.51 1240.77 164.73 1241.97 160.79C1242.49 159.41 1243.68 158.39 1245.23 158.39L1248.66 158.39C1249.68 158.39 1250.72 158.9 1251.4 159.76C1251.92 160.62 1252.26 161.47 1252.09 162.5C1252.77 162.85 1253.29 163.36 1253.8 163.88C1262.19 178.29 1276.43 188.41 1292.72 191.67C1297.87 192.69 1303.01 193.21 1308.15 193.21C1315.18 193.21 1322.04 192.35 1328.73 190.46C1340.04 187.55 1350.84 182.23 1363.87 173.14C1364.39 172.8 1365.07 172.45 1365.76 172.45C1366.45 172.45 1367.3 172.62 1367.82 173.14L1370.39 175.2C1371.59 176.06 1371.93 177.6 1371.59 178.97L1370.73 181.37C1368.85 187.21 1366.96 192.69 1366.27 198.53C1364.56 214.31 1372.27 226.32 1387.53 231.46C1392.16 233.18 1396.96 234.04 1401.94 234.21C1403.48 234.21 1405.02 234.38 1407.08 234.38C1408.11 234.38 1409.48 234.55 1410.85 234.55C1412.22 234.55 1413.42 235.58 1413.94 236.78C1414.45 237.98 1414.11 239.53 1413.08 240.39C1409.99 243.3 1406.57 245.7 1402.79 247.59C1397.82 250.33 1393.54 254.11 1390.28 258.57C1388.91 260.63 1387.19 263.89 1387.88 266.97C1388.56 270.06 1391.48 272.29 1393.88 273.49C1398.68 276.07 1403.99 277.61 1409.48 278.3C1409.99 278.3 1410.34 278.3 1410.85 278.47C1413.08 278.47 1416.34 278.64 1419.42 281.73C1420.28 282.41 1420.62 283.61 1420.45 284.64C1420.28 285.67 1419.6 286.7 1418.74 287.22C1407.25 293.56 1400.91 301.11 1398.51 310.89C1396.11 320.84 1398.68 330.45 1406.39 340.4C1407.08 341.25 1407.25 342.28 1406.91 343.31C1406.57 344.34 1405.88 345.2 1405.02 345.54C1403.48 346.23 1401.94 346.57 1400.22 346.57C1398.68 346.57 1397.14 346.23 1395.94 346.06C1395.42 345.89 1394.74 345.71 1394.22 345.71C1392.85 345.54 1391.65 345.37 1390.45 345.37C1380.68 345.37 1372.79 350.52 1368.67 359.78C1367.13 363.9 1366.1 368.19 1365.59 372.65L1365.59 373.33C1365.42 374.53 1365.25 378.48 1360.62 379.51C1359.93 380.02 1359.76 380.02 1359.59 380.02ZM721.27 1607.96C718.18 1607.96 715.27 1606.25 713.9 1603.5C712.01 1600.41 710.3 1597.15 708.41 1594.07L706.01 1590.12C705.15 1589.43 704.12 1588.58 703.44 1587.72L703.27 1587.55C697.27 1580.51 690.06 1574.34 682.01 1569.71C673.09 1564.56 663.32 1560.79 653.2 1558.9C645.83 1557.53 644.46 1555.98 643.94 1548.26C642.57 1532.14 641.37 1515.67 640 1499.54L638.97 1483.59L638.63 1478.44C638.63 1477.41 638.97 1476.56 639.66 1475.87C640.34 1475.18 641.2 1474.84 642.06 1474.84L642.23 1474.84C645.83 1475.01 648.23 1476.73 650.12 1478.1C650.46 1478.27 650.8 1478.62 651.14 1478.79C656.63 1482.39 662.46 1485.65 668.46 1488.22C676.35 1491.65 684.58 1494.23 692.81 1496.11C697.95 1497.14 699.67 1499.03 699.84 1504.35L700.35 1514.13C700.52 1519.44 700.87 1524.76 701.21 1530.08C701.72 1536.43 702.41 1542.77 703.09 1549.12L703.27 1549.98C703.44 1552.04 703.95 1554.1 704.98 1555.81C705.5 1555.3 705.67 1554.44 705.84 1552.9L707.9 1529.74C707.04 1525.96 707.04 1522.19 707.04 1518.41C707.04 1516.36 707.04 1514.47 706.87 1512.58C706.7 1510.18 706.7 1507.95 706.7 1505.72L706.7 1505.21C706.7 1501.77 709.61 1499.03 713.04 1499.03L718.18 1499.03C720.24 1499.03 722.3 1499.2 724.53 1499.2C737.73 1499.2 750.93 1497.49 763.79 1494.23C765.16 1493.88 766.53 1493.71 767.73 1493.37L768.07 1493.37C768.42 1493.37 768.93 1493.2 769.27 1493.2C772.19 1493.2 774.93 1495.26 775.45 1498.17C775.96 1500.06 776.48 1502.12 776.99 1504C778.7 1510.18 780.59 1516.7 781.45 1523.39C781.62 1523.9 781.79 1524.25 781.96 1524.76C782.48 1525.96 782.82 1527.33 783.16 1528.54L783.16 1528.71C785.56 1537.11 788.13 1545.69 790.71 1554.27C791.56 1556.67 792.59 1559.24 793.79 1561.47C794.14 1561.99 794.65 1562.33 795.34 1562.33L795.68 1562.33C796.19 1562.16 796.36 1561.64 796.36 1561.13C796.19 1557.18 795.85 1553.24 795.34 1549.29C794.14 1542.6 792.76 1535.74 791.56 1529.22L790.36 1523.56C787.96 1517.04 786.42 1510.35 785.22 1504L783.16 1494.74C782.82 1493.03 782.31 1488.91 787.96 1486.33C799.11 1481.53 809.57 1475.53 819.17 1468.15C820.54 1466.95 821.91 1466.44 823.28 1466.44C825 1466.44 827.4 1467.29 828.6 1471.41C828.94 1472.78 829.45 1474.16 829.97 1475.53C831.34 1479.3 832.71 1483.08 832.88 1487.36C835.97 1495.43 838.54 1503.66 840.94 1511.55C842.66 1517.04 844.2 1522.53 846.09 1528.02C847.63 1532.65 848.83 1537.28 850.2 1541.74C852.09 1548.95 853.97 1555.81 857.06 1562.33C858.6 1565.25 857.57 1568.85 854.83 1570.74L853.11 1572.11C850.37 1574.34 847.63 1576.57 844.71 1578.46C830.65 1587.55 815.57 1594.41 799.45 1598.7C773.39 1605.9 746.3 1607.1 723.15 1607.62L722.13 1607.62C721.61 1607.96 721.44 1607.96 721.27 1607.96ZM170.57 1430.07C169.71 1430.07 168.68 1429.9 167.31 1429.55C151.88 1425.26 135.93 1422.18 119.99 1420.46C117.42 1420.12 114.84 1419.77 112.27 1419.6C101.64 1418.4 90.67 1417.2 79.87 1414.8C61.18 1410.51 46.26 1403.65 33.92 1393.36C26.89 1387.52 21.06 1379.98 17.29 1371.74C15.23 1367.62 14.89 1362.48 16.6 1358.02C18.32 1353.56 19.69 1349.1 20.89 1344.64C22.26 1339.49 24.32 1334.34 26.72 1329.71C28.26 1326.45 30.83 1323.37 33.75 1321.14C43.35 1313.76 53.29 1306.9 63.58 1300.55C65.47 1299.52 67.01 1298.49 69.07 1298.49C71.81 1298.49 73.52 1300.38 75.41 1302.27C86.55 1314.27 99.24 1324.91 113.13 1333.49C115.87 1334.69 117.59 1337.43 117.59 1340.35C117.59 1341.38 117.24 1342.24 116.56 1342.92C115.87 1343.44 115.02 1343.78 114.16 1343.78L113.82 1343.78C112.79 1343.61 111.76 1343.61 110.9 1343.44C108.5 1343.27 106.27 1342.92 104.04 1342.92L102.5 1342.92C96.67 1342.58 90.5 1342.41 84.5 1342.24L83.98 1342.24C80.21 1342.24 76.27 1343.09 73.01 1344.98C73.01 1344.98 72.84 1344.98 72.84 1345.15C72.5 1345.32 72.32 1345.5 72.15 1345.67C71.98 1346.18 71.98 1346.52 71.98 1346.7C71.98 1346.87 72.15 1347.21 72.67 1347.55C72.84 1347.55 72.84 1347.73 73.01 1347.73C73.35 1348.07 73.87 1348.24 74.21 1348.41C84.5 1353.04 95.81 1357.16 108.16 1357.16C109.36 1357.16 110.73 1357.16 111.93 1356.99C116.22 1356.65 120.67 1356.47 124.96 1356.47L127.7 1356.3L129.25 1356.3C135.42 1356.3 141.25 1358.02 146.39 1361.45C161.31 1371.57 171.77 1384.61 177.25 1400.22C180 1408.45 179.65 1417.37 176.22 1425.26C176.05 1426.64 174.51 1430.07 170.57 1430.07Z" fill="#F7F6F5" fill-opacity="1.000000" fill-rule="nonzero"/>
		<path id="Vector" d="M229.72 1479.99C224.91 1479.99 219.94 1479.65 215.14 1479.13L214.97 1479.13C210.34 1479.13 206.57 1475.7 205.88 1471.07C202.63 1457.34 201.43 1443.45 202.11 1429.38C202.45 1421.83 204.34 1414.63 207.43 1407.77C212.4 1396.79 219.43 1389.75 229.2 1385.81C232.12 1384.61 235.03 1384.09 237.77 1384.09C244.8 1384.09 250.98 1387.87 255.09 1394.56C258.86 1400.05 260.23 1407.08 258.69 1413.6C256.81 1423.03 255.6 1432.81 255.09 1442.42C254.92 1443.96 255.09 1445.68 255.09 1447.22L255.09 1449.8C255.09 1450.14 255.26 1450.31 255.43 1450.48L255.78 1450.48C256.12 1450.48 256.46 1450.31 256.63 1450.14L256.81 1449.97C259.03 1447.74 260.41 1444.82 260.75 1441.56L260.75 1441.39C263.15 1428.52 265.21 1413.26 262.12 1397.99C259.55 1384.95 249.6 1376.37 236.75 1376.37C232.63 1376.37 228.34 1377.23 224.23 1379.12C214.63 1383.41 207.08 1390.78 201.25 1401.42C200.91 1402.11 200.57 1402.96 200.23 1403.82C199.37 1406.05 198.34 1408.8 195.6 1410.85C195.08 1411.37 194.22 1411.54 193.54 1411.54C192.85 1411.54 192 1411.2 191.31 1410.85C190.62 1410.34 189.94 1409.65 189.25 1409.14L186.17 1406.57C183.77 1405.02 182.22 1402.45 181.71 1399.7C179.14 1388.55 173.65 1377.57 164.05 1364.19L163.71 1363.85C162.85 1362.82 160.28 1360.08 162.68 1355.96C163.36 1354.93 164.39 1354.24 165.59 1354.24L166.28 1354.24C174.34 1355.79 182.74 1356.65 190.97 1356.65C198.85 1356.65 206.57 1355.96 214.29 1354.42C230.4 1351.5 245.66 1344.47 258.35 1334.17C259.03 1333.66 259.72 1333.32 260.58 1333.32L260.92 1333.32C261.78 1333.49 262.63 1333.83 263.32 1334.69C286.81 1364.88 294.52 1396.1 286.64 1430.24C284.24 1440.36 279.61 1450.14 273.09 1458.37C262.98 1471.24 250.63 1478.1 235.37 1479.47C233.83 1479.99 231.77 1479.99 229.72 1479.99Z" fill="#F7F6F5" fill-opacity="1.000000" fill-rule="nonzero"/>
		<path id="Vector" d="M199.2 1346.87C190.11 1346.87 180.68 1345.84 171.25 1343.61C140.73 1336.75 113.13 1321.82 86.72 1297.98C83.81 1295.57 82.09 1291.63 82.61 1287.68C83.29 1274.48 86.9 1261.27 93.24 1249.6C94.78 1247.03 96.33 1244.8 98.21 1242.74C99.41 1241.37 101.3 1239.14 104.9 1239.14C105.58 1239.14 106.1 1239.14 106.78 1239.31C107.98 1239.65 109.01 1240.51 109.36 1241.71C109.87 1243.43 110.38 1244.97 110.9 1246.86C111.76 1250.12 112.79 1253.55 113.99 1257.66C114.33 1258.86 113.99 1260.06 113.13 1260.92C112.44 1261.61 111.58 1261.94 110.73 1261.94L110.04 1261.94C109.01 1261.78 108.16 1261.43 107.3 1261.27C105.93 1260.92 105.07 1260.75 104.04 1260.57L103.36 1260.57C102.84 1260.57 102.5 1260.75 102.16 1261.27C102.16 1261.27 102.16 1261.61 102.33 1261.78L102.67 1262.12C105.24 1264.87 107.98 1267.27 110.9 1269.32C127.53 1281.17 145.88 1290.43 165.42 1296.78C177.25 1300.38 188.05 1302.27 198.51 1302.27C204.68 1302.27 210.68 1301.57 216.68 1300.38C229.03 1297.81 237.09 1293.35 242.75 1286.31C243.43 1285.44 244.29 1285.11 245.32 1285.11C246.35 1285.11 247.37 1285.63 248.06 1286.48C254.75 1295.4 260.41 1308.61 261.6 1317.88L261.6 1318.22C262.46 1325.94 262.46 1327.83 256.29 1331.26C255.78 1331.43 255.26 1331.77 254.75 1332.11C237.6 1341.72 218.74 1346.87 199.2 1346.87ZM67.69 1486.68C66.15 1486.68 64.43 1486.68 62.89 1486.51C59.46 1486.34 56.03 1485.14 53.12 1483.08C47.63 1479.47 42.32 1475.53 37.35 1471.24C29.8 1464.72 24.66 1456.32 22.43 1446.71C19.52 1434.7 19.52 1422.69 19.69 1411.2L19.69 1406.4C19.69 1405.02 20.54 1403.65 21.91 1403.14C22.09 1402.96 22.43 1402.96 22.43 1402.96C22.94 1402.79 23.63 1402.45 24.49 1402.45C25 1402.45 25.69 1402.62 26.2 1402.96C33.57 1406.74 41.12 1410.68 48.66 1414.46C48.66 1414.46 48.83 1414.46 48.83 1414.63C49.52 1414.97 50.03 1415.49 50.55 1416.17C51.23 1417.03 53.12 1419.43 51.4 1422.35C51.06 1422.86 50.89 1423.38 50.55 1423.89C49.86 1425.09 49.35 1426.12 48.66 1427.32C44.38 1436.07 43.52 1445.68 43.35 1454.94L43.35 1455.29C43.35 1455.8 43.69 1456.32 44.2 1456.49L44.38 1456.49C44.89 1456.49 45.4 1456.14 45.58 1455.63L45.58 1455.29C46.26 1453.23 46.95 1451.34 47.63 1449.28C47.98 1447.91 48.49 1446.71 48.83 1445.51C50.89 1438.65 53.63 1431.96 57.06 1425.44C58.26 1423.21 59.98 1419.78 64.26 1419.78C65.29 1419.78 66.49 1419.95 67.86 1420.46C73.35 1422.01 78.84 1422.86 84.67 1423.72L94.44 1425.27C97.35 1425.78 100.44 1426.12 103.36 1426.64C105.24 1426.81 106.96 1427.15 108.84 1427.32C109.53 1427.5 110.04 1427.5 110.56 1427.5C116.73 1428.18 118.44 1430.41 118.27 1437.96C118.27 1441.05 117.93 1444.14 117.07 1447.22C114.16 1458.89 107.13 1469.01 96.33 1477.07C88.27 1483.25 77.98 1486.68 67.69 1486.68Z" fill="#F7F6F5" fill-opacity="1.000000" fill-rule="nonzero"/>
		<path id="Vector" d="M130.1 1505.38C118.96 1505.38 107.13 1503.15 92.73 1498.51C91.35 1498 90.5 1497.14 89.81 1496.28L89.13 1495.6C88.27 1494.91 87.93 1493.71 88.1 1492.68C88.27 1491.65 88.95 1490.62 89.81 1490.11L91.18 1489.42C92.21 1488.74 93.24 1488.22 94.27 1487.71C100.1 1484.79 105.24 1481.02 109.87 1476.39C120.67 1465.23 126.16 1452.71 126.33 1438.3C126.33 1432.3 130.45 1431.61 132.16 1431.61C132.85 1431.61 133.7 1431.78 134.73 1431.95C135.25 1432.13 135.93 1432.3 136.45 1432.47C136.79 1432.64 137.13 1432.64 137.47 1432.81L139.02 1433.16C146.05 1434.53 152.73 1435.73 159.59 1435.73L161.82 1435.73C170.22 1435.39 174.51 1433.5 177.25 1428.52C178.45 1426.64 179.82 1425.61 181.71 1425.61C182.74 1425.61 183.6 1425.95 184.8 1426.46C186 1427.15 186.85 1428.52 186.68 1429.9C186 1435.73 186.34 1441.73 186.68 1448.08C186.85 1451.85 187.02 1455.63 187.02 1459.4C187.2 1471.93 181.71 1483.59 172.11 1491.65C164.74 1497.83 155.65 1502.12 146.22 1503.83C141.25 1504.86 135.76 1505.38 130.1 1505.38ZM666.92 1476.56C666.4 1476.56 666.06 1476.39 665.55 1476.21C655.43 1471.92 646.17 1465.41 638.97 1457.34C636.74 1454.94 636.57 1452.03 636.4 1449.97L636.4 1449.11C635.89 1443.1 635.2 1437.27 634.68 1431.27C634.17 1426.81 633.83 1422.18 633.31 1417.72C632.97 1414.63 632.63 1410.68 632.46 1407.08C632.46 1406.22 632.28 1403.65 634 1401.76C635.71 1399.88 638.11 1399.88 638.97 1399.88C645.31 1399.7 651.49 1399.53 657.66 1399.53C662.63 1399.53 664.86 1401.59 665.2 1406.74C665.72 1413.77 666.23 1420.8 666.75 1427.67C667.26 1434.7 667.78 1441.73 668.29 1448.59C668.63 1453.91 669.15 1459.23 669.66 1465.23L670.35 1472.95C670.52 1474.16 670 1475.36 668.98 1476.04C668.29 1476.21 667.6 1476.56 666.92 1476.56ZM961.64 281.04C959.76 281.04 957.87 280.35 956.67 278.98C954.27 276.92 953.59 273.32 955.13 270.41C955.99 268.69 957.01 267.15 958.39 265.77C965.07 258.23 973.13 252.05 981.87 247.08C992.33 241.59 1001.94 239.01 1011.37 239.01L1013.25 239.01C1025.93 239.01 1038.63 242.44 1049.77 248.79C1054.75 251.54 1059.03 255.14 1062.46 259.6C1063.49 260.8 1064.35 262.34 1064.86 263.89C1064.86 264.06 1064.86 264.06 1065.03 264.23C1065.38 265.95 1065.03 267.83 1064.18 269.2C1064.18 269.38 1064 269.38 1064 269.38C1064 269.38 1063.82 269.55 1063.82 269.72C1062.8 270.92 1061.43 271.61 1059.89 271.61C1058.68 271.61 1057.66 271.26 1056.8 270.58C1049.43 265.95 1041.54 262.51 1032.97 260.46C1027.49 258.91 1022 258.05 1016.51 258.05C1006.57 258.05 996.79 260.63 988.05 265.26C982.05 268.69 976.05 272.46 970.39 276.58C968.84 277.78 966.96 278.98 965.24 280.01C963.87 280.7 962.67 281.04 961.64 281.04ZM471.46 1446.19C470.43 1446.19 469.41 1445.85 468.55 1445.16L468.38 1444.99L467.01 1443.79C462.2 1439.67 457.23 1435.56 453.46 1430.07C449.52 1427.15 449.69 1423.03 449.69 1420.12L449.69 1418.92C450.03 1406.05 450.2 1393.19 450.37 1380.49L450.37 1377.4C450.37 1371.91 450.55 1366.94 455.86 1366.94C457.58 1366.94 459.63 1367.62 463.06 1368.83C464.09 1369.17 465.12 1369.51 466.49 1370.03C467.01 1370.2 467.52 1370.37 467.86 1370.54C472.15 1371.23 475.23 1375.17 474.89 1379.63C474.89 1384.78 474.89 1389.75 475.06 1394.9L475.06 1401.93C475.41 1403.48 475.58 1405.02 475.75 1406.74C476.61 1414.11 476.61 1421.49 476.61 1428.7C476.61 1432.81 476.61 1436.93 476.78 1441.05L476.78 1441.56C476.61 1442.42 476.43 1443.1 475.92 1443.79C474.72 1445.34 473.18 1446.19 471.46 1446.19ZM433.91 844.23L433.23 844.23C431.86 843.89 430.83 842.69 430.66 841.31C429.8 835.14 428.26 828.62 426.54 822.27C425.69 818.67 424.66 814.9 423.97 811.29C423.8 810.61 423.46 808.55 422.94 805.98C421.91 799.8 418.66 781.62 416.77 776.81C404.94 775.27 392.6 775.27 380.42 775.1C374.94 775.1 369.45 774.93 363.96 774.75C362.42 774.75 361.05 773.55 360.7 772.18C360.36 770.64 361.05 769.09 362.42 768.41L401.17 746.96C398.94 735.98 396.37 726.21 391.22 717.63C385.74 708.54 377.51 702.19 368.93 700.65C367.56 700.3 366.53 699.27 366.19 697.9C366.02 696.53 366.53 695.16 367.73 694.3C378.54 687.95 390.71 684.52 403.22 684.52C405.11 684.52 407.17 684.52 409.05 684.69C458.78 690.18 479.86 733.24 473.86 816.44C473.69 817.98 472.66 819.18 471.12 819.53C466.49 820.39 461.86 821.93 457.58 824.16C453.63 826.05 450.03 828.45 446.6 831.36C443.35 834.11 440.43 837.37 437.86 840.8C437.34 841.49 437 842.17 436.49 842.86C436.14 843.72 435.12 844.23 433.91 844.23ZM712.52 848.18C712.01 848.18 711.5 848 710.98 847.83C695.38 839.77 678.75 834.62 661.26 832.57C659.37 832.39 658.17 830.85 658.17 828.96L658.35 826.73C659.37 809.41 660.23 793.11 660.57 776.13C649.77 771.84 637.94 768.58 626.63 765.32C621.48 763.95 616 762.4 610.85 760.86C609.31 760.34 608.45 758.97 608.45 757.43C608.45 755.88 609.48 754.51 611.02 754.17L654.23 743.53C654.92 732.9 655.09 722.43 652.17 712.65C650.63 706.99 647.71 701.67 643.94 697.21C643.09 696.36 642.91 694.98 643.26 693.78C643.6 692.58 644.63 691.72 645.83 691.55C646.69 691.38 647.54 691.21 648.57 691.21C650.46 691.04 652.52 690.87 654.4 690.87C674.8 690.87 696.06 702.88 708.58 721.57C731.56 755.2 727.27 807.86 715.61 845.6C715.27 846.63 714.58 847.32 713.72 847.83C713.38 848 713.04 848.18 712.52 848.18Z" fill="#F7F6F5" fill-opacity="1.000000" fill-rule="nonzero"/>
		<path id="Vector" d="M1558.99 275.38C1552.13 274.69 1545.27 274.18 1538.58 273.32C1523.67 271.44 1509.09 267.32 1495.55 260.97C1490.92 258.74 1486.46 256 1482.18 253.08C1459.03 236.61 1451.66 213.45 1461.43 187.03C1467.09 171.77 1476.17 158.56 1487.15 146.55C1493.49 139.69 1500.35 133.34 1507.04 126.65C1508.92 124.76 1510.98 123.39 1512.01 120.82C1512.52 119.62 1512.52 118.24 1511.67 117.21C1510.81 116.19 1509.44 115.67 1508.24 116.19C1507.04 116.53 1505.84 117.21 1504.81 117.9C1489.89 128.19 1473.09 134.03 1455.6 138.66C1445.14 141.4 1434.51 142.95 1423.71 143.29C1366.79 144.66 1322.9 112.58 1312.27 59.4C1309.01 42.93 1309.18 26.12 1312.95 9.83C1313.47 7.94 1313.64 6.05 1313.64 4.16C1313.29 1.93 1311.24 0.56 1309.18 0.91C1308.15 1.08 1307.12 1.76 1306.43 2.62C1305.75 4.34 1305.06 6.22 1304.55 8.11C1300.26 20.29 1294.61 31.78 1286.38 41.9C1270.43 60.95 1247.63 65.24 1225.34 56.49C1214.71 52.2 1205.11 46.02 1196.71 38.3C1194.31 36.07 1191.91 34.01 1189.34 31.96C1187.44 30.41 1185.22 30.93 1183.16 32.64C1181.28 34.19 1181.44 35.9 1182.31 37.79C1184.71 43.45 1187.11 48.94 1189.34 54.6C1194.99 69.01 1197.56 84.28 1196.71 99.72C1196.18 107.44 1194.31 114.98 1190.88 121.85C1183.51 136.77 1170.81 145 1154.36 147.75C1138.24 150.49 1123.16 146.55 1108.57 140.55C1103.1 138.31 1098.12 135.4 1092.81 132.65C1091.43 131.97 1090.06 130.94 1088.52 130.42C1085.09 129.05 1082.35 130.08 1080.29 133.51C1078.57 136.08 1079.09 138.31 1082.18 140.89C1083.38 141.92 1084.92 142.78 1086.12 143.63C1090.75 147.24 1095.21 151.01 1099.67 154.78C1101.04 155.98 1103.43 157.18 1102.75 159.24C1102.06 161.64 1099.5 160.62 1097.61 160.62C1081.31 160.27 1065.03 162.16 1049.09 166.28C1014.28 175.03 984.79 192.18 961.47 219.46C954.27 227.69 947.93 236.61 942.61 246.22C941.41 248.45 939.53 250.34 937.3 251.71C907.81 271.78 886.89 298.71 872.49 330.79C868.72 339.37 869.23 338.34 861.17 335.77C847.97 331.13 834.43 327.7 820.54 325.13C805.97 322.73 791.39 321.35 776.65 323.59C769.79 324.44 763.27 326.67 757.27 329.76C749.04 334.39 743.04 340.74 740.64 350.18C738.93 357.04 734.98 363.04 732.07 369.56C730.87 372.13 728.98 372.48 726.41 371.96C721.61 371.1 716.81 370.25 711.84 369.56C677.55 364.59 642.91 363.04 608.28 364.93C584.45 366.3 560.96 369.22 537.64 374.02C503.7 380.88 470.61 390.83 438.72 404.04C393.97 422.57 351.96 447.27 314.07 477.29C272.06 510.74 235.37 550.37 205.2 594.97C172.62 642.83 148.45 696.01 133.53 751.94C123.59 789.16 117.93 827.25 116.56 865.67C114.5 918.51 120.5 971.52 134.22 1022.64C135.59 1026.93 135.25 1031.56 133.36 1035.51C124.79 1052.66 119.99 1070.85 115.36 1089.19C108.67 1117.17 104.04 1145.64 101.64 1174.46C100.44 1186.64 100.44 1198.81 101.64 1210.82C102.16 1215.98 102.67 1220.94 103.36 1226.1C103.7 1228.16 102.67 1230.04 100.61 1230.73C90.33 1235.18 83.64 1243.42 78.15 1252.68C74.04 1260.06 71.12 1267.78 69.24 1276.02C69.07 1276.71 68.89 1277.22 68.89 1277.91C68.55 1284.6 65.12 1288.37 58.44 1291.11C44.89 1296.78 33.06 1305.69 21.74 1314.79C16.6 1319.25 12.66 1324.91 10.6 1331.43C7 1341.72 3.91 1352.19 1.68 1362.82C-0.2 1370.03 1.17 1377.75 5.29 1384.09C9.06 1389.93 9.4 1395.76 8.89 1402.28C7.69 1418.23 7.51 1434.19 10.09 1450.14C14.2 1474.84 34.26 1490.28 53.98 1493.71C61.86 1495.08 69.58 1498 76.61 1501.95C97.87 1514.3 122.56 1519.96 147.08 1517.9C157.19 1517.04 166.96 1513.78 175.54 1508.29C182.4 1504 188.05 1498 191.83 1490.8C194.23 1486.34 194.05 1484.79 201.94 1486.34C206.74 1487.19 211.54 1488.05 216.34 1488.74C230.92 1491.14 245.83 1489.59 259.72 1484.28C275.32 1478.27 288.01 1466.44 295.04 1451.34C299.84 1441.22 302.58 1430.24 303.1 1418.92C304.64 1388.21 293.5 1361.96 275.15 1337.95C273.78 1336.06 272.41 1334.34 270.86 1332.8C268.98 1331.09 268.12 1328.34 268.81 1325.77C272.41 1303.29 264.18 1284.25 250.46 1267.1C244.97 1260.24 238.12 1254.57 230.23 1250.8C228 1249.93 226.8 1247.71 227.32 1245.31C228.34 1236.39 230.23 1227.64 232.8 1219.06C233.14 1218.04 234.17 1217.52 235.2 1217.68C235.37 1217.68 235.72 1217.86 235.89 1218.04C237.26 1219.41 238.46 1220.94 239.83 1222.31C285.27 1274.99 341.16 1317.88 403.91 1347.9C415.06 1353.21 426.37 1358.02 437.69 1363.16C441.8 1365.05 441.97 1365.39 441.46 1369.68C439.92 1385.64 438.2 1401.59 436.83 1417.37C436.49 1421.83 436.49 1426.29 436.14 1430.75C434.09 1457.86 432.2 1484.96 430.14 1512.07C429.8 1517.21 429.46 1522.19 429.11 1527.33C425.34 1531.11 419.68 1531.28 415.4 1534.2C413.51 1535.4 411.28 1536.26 409.4 1537.28C407.34 1538.14 405.63 1539.86 404.6 1541.92C402.54 1547.92 397.74 1552.04 393.8 1556.5C374.42 1579.31 354.53 1601.96 335.33 1624.95C324.36 1638.5 312.7 1651.53 300.53 1663.89C297.1 1667.32 293.32 1670.23 289.04 1672.64C272.58 1681.04 258.52 1693.56 248.06 1709C243.09 1716.55 239.15 1724.61 236.57 1733.36C235.55 1736.97 234.35 1740.05 230.4 1741.25C229.2 1741.77 228.17 1742.46 227.14 1743.31C217.37 1751.2 211.54 1775.56 219.94 1787.74C220.8 1789.12 221.83 1790.32 223.03 1791.52C238.8 1806.61 257.49 1818.28 277.89 1825.83C299.5 1834.23 322.47 1838.69 345.79 1838.86C365.51 1839.04 384.88 1836.63 403.05 1828.4C404.25 1827.89 405.63 1827.54 407 1827.03C408.71 1828.91 410.6 1830.8 412.31 1832.69C422.43 1844.7 435.63 1852.07 450.2 1857.22C463.75 1861.85 477.81 1865.11 492.04 1867C513.47 1869.91 535.07 1870.77 556.5 1869.23C579.65 1867.86 602.62 1864.6 625.26 1859.62C640.17 1856.19 654.92 1852.24 669.49 1847.61C680.12 1844.18 690.75 1841.44 701.55 1838.69C758.47 1824.8 815.22 1809.87 871.8 1794.78C888.43 1790.32 904.89 1785.17 921.52 1780.02C927.01 1778.14 932.5 1776.08 937.81 1773.5C950.33 1767.84 957.53 1758.07 961.81 1745.89C966.1 1734.05 966.79 1721.18 963.53 1709C961.47 1701.46 958.21 1694.42 951.7 1689.62C948.96 1687.56 947.07 1684.3 946.38 1680.87C942.78 1665.94 938.33 1651.19 933.01 1636.78C927.52 1621.69 922.04 1606.59 916.04 1591.84C913.81 1586.52 913.12 1580.69 914.32 1575.2C919.47 1548.44 910.21 1526.82 888.6 1510.01C881.06 1504.18 871.97 1500.57 862.37 1499.89C856.72 1499.37 854.83 1496.8 853.29 1492C846.08 1470.38 838.54 1448.94 831.17 1427.32C825.68 1411.54 820.2 1395.76 813.68 1380.49C813.17 1379.29 812.82 1378.09 812.31 1376.89C811.79 1375.52 812.48 1373.8 813.85 1373.29C814.02 1373.29 814.02 1373.11 814.19 1373.11C816.25 1372.26 818.48 1371.4 820.54 1370.71C863.74 1355.27 904.72 1334 942.1 1307.41C959.59 1295.23 976.39 1281.68 991.99 1267.27C993.36 1265.9 994.9 1264.69 996.45 1263.67C997.48 1262.98 998.33 1263.67 998.68 1264.52C999.02 1265.04 999.02 1265.73 999.02 1266.41C999.19 1274.13 999.36 1281.85 999.71 1289.4C999.88 1292.31 998.85 1295.06 996.79 1297.29C993.7 1301.06 990.62 1304.84 987.7 1308.43C979.3 1318.73 972.27 1329.88 968.67 1342.75C966.96 1349.27 965.24 1355.79 965.59 1362.65C965.93 1370.37 964.22 1378.09 960.79 1384.95C956.33 1394.21 952.39 1403.65 948.96 1413.43C947.07 1419.26 945.18 1425.09 943.47 1430.75C940.21 1441.9 939.87 1453.57 942.44 1464.89C944.84 1476.21 946.73 1487.54 950.67 1498.52C955.47 1511.72 959.76 1525.28 964.9 1538.31C972.62 1558.21 986.5 1574 1005.2 1585.15C1016.34 1592.01 1029.37 1595.44 1042.4 1595.1C1047.54 1595.1 1052.86 1595.27 1058 1596.13C1077.55 1598.36 1097.27 1597.84 1116.47 1594.24C1126.06 1592.35 1135.16 1588.23 1142.87 1582.23C1147.16 1579.31 1151.1 1576.05 1154.69 1572.11C1161.22 1564.22 1169.44 1558.9 1178.02 1553.58C1206.48 1535.91 1224.14 1510.69 1230.48 1478.1C1235.11 1454.43 1236.31 1430.41 1230.66 1406.57C1226.37 1387.01 1217.62 1368.83 1205.11 1353.04C1202.37 1349.96 1200.81 1346.01 1200.48 1341.89C1199.11 1326.62 1193.11 1312.39 1183.16 1300.72C1178.88 1295.4 1173.73 1290.93 1168.07 1287.17C1164.99 1285.44 1163.1 1282.02 1163.62 1278.42C1164.13 1263.67 1164.48 1248.91 1164.3 1234.16C1164.13 1218.72 1162.76 1203.44 1161.73 1188.18C1160.02 1165.89 1156.93 1143.57 1153.5 1121.46C1149.73 1097.1 1145.27 1072.91 1139.43 1048.89C1137.73 1042.37 1138.06 1035.68 1139.96 1029.16C1150.24 994.85 1156.93 959.34 1159.67 923.66C1162.59 887.63 1161.39 851.26 1156.42 815.41C1142.53 713.68 1101.38 623.96 1034.17 545.57C1030.06 540.59 1025.6 535.79 1021.31 531.16C1019.08 529.1 1018.74 525.84 1020.11 523.27C1024.06 514.52 1027.31 505.43 1031.26 496.68C1037.09 483.81 1035.89 471.12 1030.4 458.59C1026.63 450.02 1021.66 442.12 1015.66 434.92C1007.77 424.97 999.02 415.88 989.59 407.64C987.19 405.59 984.79 403.18 982.39 401.12C973.47 395.12 964.9 388.77 956.84 381.91C951.87 378.82 946.9 375.91 942.1 372.65C935.75 368.53 935.75 368.53 939.01 362.18C939.35 361.33 939.87 360.47 940.38 359.61C940.9 358.58 942.27 358.07 943.3 358.58C943.64 358.75 943.98 359.1 944.33 359.44C949.13 366.3 954.27 372.82 959.76 379.17C968.33 386.37 977.42 392.89 987.02 398.72C990.45 399.92 993.7 401.3 997.13 402.5C1018.57 410.05 1039.66 407.64 1060.06 398.89C1073.94 392.89 1083.89 382.25 1091.27 369.39C1103.27 347.95 1105.5 325.13 1100.69 301.46C1096.57 281.04 1086.29 262.51 1071.03 248.28C1070.35 247.59 1069.66 246.9 1068.98 246.39C1068.29 245.87 1067.78 244.67 1068.29 243.99C1068.98 243.3 1069.82 242.79 1070.68 242.62C1072.57 242.27 1074.63 242.27 1076.52 242.1C1095.38 241.07 1114.41 243.13 1132.57 248.45C1134.47 248.96 1136.69 249.31 1137.56 251.19C1139.1 255.31 1142.69 255.82 1146.13 256.34C1149.22 256.68 1151.43 259.08 1151.62 262.17C1151.79 263.37 1151.96 264.75 1151.96 265.95C1150.76 282.76 1148.18 299.05 1137.39 312.95C1136.53 313.98 1136.01 315.18 1135.5 316.38C1134.64 318.27 1135.32 320.5 1137.04 321.53C1139.1 323.07 1141.84 323.76 1144.42 323.41C1147.67 323.24 1150.93 322.56 1154.18 322.38C1167.05 321.7 1179.73 323.24 1191.22 329.42C1210.07 339.54 1218.82 356.01 1220.19 376.59C1221.56 395.64 1215.74 413.3 1206.81 429.94C1201.17 441.1 1193.28 451.22 1183.85 459.45C1178.88 463.57 1174.59 468.37 1169.96 473C1168.25 474.38 1166.88 476.43 1166.36 478.49C1166.02 479.69 1166.36 481.07 1167.22 482.09C1168.25 483.3 1169.96 483.98 1171.68 483.47C1172.88 483.12 1174.07 482.61 1175.11 481.75C1181.62 475.58 1188.99 470.09 1195.34 463.74C1209.05 450.19 1225.34 439.72 1243.51 433.03C1252.43 429.6 1261.86 427.89 1271.29 428.06C1285.18 428.06 1298.38 433.55 1308.15 443.5C1319.3 454.48 1325.64 468.2 1329.58 482.95C1333.87 498.74 1336.44 514.86 1335.24 531.33C1334.73 536.13 1335.58 540.94 1337.3 545.4C1337.64 546.25 1338.16 547.28 1339.36 546.94C1340.21 546.77 1341.07 546.25 1341.76 545.57C1343.47 542.14 1344.5 538.36 1344.84 534.59C1346.21 526.35 1347.41 518.12 1348.96 510.06C1351.53 497.88 1354.62 485.7 1361.13 474.72C1363.7 470.26 1366.79 465.97 1370.39 462.37C1381.36 451.56 1393.71 449.16 1407.94 455.33C1414.11 458.08 1419.94 462.02 1424.91 466.66C1430.57 471.63 1435.71 476.95 1440.34 482.61C1441.37 483.81 1442.4 485.01 1443.6 486.04C1444.97 487.07 1446.86 487.07 1448.23 486.21C1449.94 485.01 1451.31 483.47 1450.46 481.41C1449.6 479.35 1448.57 477.46 1447.2 475.58C1438.28 460.99 1434.17 444.01 1435.2 426.86C1436.91 398.89 1456.8 377.28 1486.63 372.13C1495.55 370.25 1504.81 370.07 1513.89 371.62C1516.98 372.3 1520.92 373.68 1523.5 369.9C1522.12 366.3 1518.52 366.13 1515.61 364.93C1500.01 359.27 1485.43 351.38 1471.89 341.6C1466.23 337.65 1461.43 332.85 1457.83 327.19C1452 317.92 1453.37 310.38 1461.77 303.51C1466.4 299.91 1471.55 297.17 1477.2 295.11C1486.29 291.68 1495.89 289.28 1505.66 288.07C1519.89 286.36 1534.12 284.64 1548.53 287.56C1552.13 288.07 1555.73 288.42 1559.33 288.42C1566.7 289.1 1569.1 286.02 1569.62 282.07C1568.59 278.64 1565.16 275.9 1558.99 275.38ZM752.81 466.48C758.64 451.56 764.13 436.63 769.79 421.54C770.13 420.51 770.99 419.82 772.02 420C774.59 422.57 777.16 425.48 780.25 427.89C783.33 430.29 783.33 433.03 781.96 436.29C775.96 450.36 769.96 464.6 763.96 478.66C763.45 479.52 762.93 480.21 762.25 480.72C759.16 479.86 757.62 477.12 755.22 475.58C751.62 473.17 751.27 470.43 752.81 466.48ZM20.03 1358.88C21.74 1354.42 23.29 1349.78 24.49 1345.15C25.86 1340.18 27.75 1335.37 30.15 1330.91C31.52 1328 33.57 1325.42 36.15 1323.54C45.58 1316.16 55.52 1309.3 65.64 1303.12C69.41 1300.89 69.92 1300.89 73.01 1304.31C84.5 1316.68 97.53 1327.48 111.76 1336.4C113.3 1337.09 114.5 1338.63 114.5 1340.35C110.9 1340.01 107.81 1339.66 104.56 1339.49C98.04 1339.15 91.53 1338.8 85.01 1338.63C80.38 1338.46 75.92 1339.66 71.81 1341.72C69.41 1342.75 68.21 1345.67 69.41 1348.07C69.75 1348.93 70.44 1349.78 71.47 1350.3C71.98 1350.64 72.67 1350.98 73.18 1351.33C85.7 1356.99 98.56 1361.28 112.79 1360.25C117.93 1359.91 123.24 1359.73 128.39 1359.56C134.22 1359.22 140.05 1360.76 145.02 1364.02C158.73 1373.29 169.02 1385.47 174.68 1401.08C177.25 1408.45 176.91 1416.52 173.65 1423.55C172.45 1426.47 171.59 1426.98 168.51 1426.12C152.91 1421.66 136.79 1418.57 120.67 1417.03C107.47 1415.49 94.1 1414.29 81.07 1411.37C64.61 1407.6 49.52 1401.42 36.49 1390.61C29.8 1385.12 24.32 1378.09 20.72 1370.03C18.83 1366.42 18.66 1362.48 20.03 1358.88ZM63.06 1483.25C60.15 1483.08 57.41 1482.05 54.83 1480.5C49.52 1476.9 44.21 1472.95 39.23 1468.84C32.37 1462.83 27.57 1454.94 25.52 1446.19C22.26 1432.98 22.77 1419.77 22.77 1406.57C23.63 1406.22 24.14 1405.88 24.32 1406.05C31.86 1409.83 39.23 1413.77 46.78 1417.54C47.12 1417.72 47.29 1417.89 47.46 1418.23C48.15 1418.92 48.66 1419.77 48.15 1420.8C47.29 1422.52 46.26 1424.24 45.41 1425.95C40.95 1435.04 39.92 1444.99 39.75 1454.94C39.4 1457.34 41.12 1459.4 43.35 1459.92C45.75 1460.26 47.98 1458.89 48.66 1456.66C49.86 1453.4 50.72 1449.97 51.92 1446.71C53.98 1440.02 56.72 1433.33 59.81 1427.15C61.86 1423.38 62.89 1422.69 66.66 1423.72C75.41 1426.29 84.67 1427.15 93.58 1428.7C98.38 1429.55 103.18 1430.07 108.16 1430.75C113.47 1431.61 114.84 1430.75 114.5 1437.96C114.5 1440.88 114.16 1443.79 113.47 1446.54C110.56 1458.2 103.53 1467.29 93.93 1474.5C85.35 1481.19 74.21 1484.45 63.06 1483.25ZM170.05 1488.91C163.02 1494.74 154.62 1498.69 145.7 1500.4C127.87 1504.18 110.73 1500.75 93.93 1495.26C93.24 1494.91 92.55 1494.05 91.53 1493.2C93.24 1492.34 94.61 1491.48 95.98 1490.8C102.16 1487.71 107.64 1483.76 112.44 1478.96C123.42 1467.64 129.76 1454.26 129.93 1438.47C129.93 1435.39 130.96 1434.7 134.22 1435.39C135.25 1435.56 136.1 1436.07 136.96 1436.24C145.36 1437.79 153.59 1439.33 162.16 1438.99C169.71 1438.65 176.39 1437.27 180.51 1430.07C180.85 1429.38 181.54 1428.35 183.6 1429.38C182.57 1439.16 183.94 1449.28 183.77 1459.4C183.94 1470.9 178.79 1481.7 170.05 1488.91ZM283.89 1430.07C281.67 1439.85 277.21 1448.94 271.04 1456.66C262.12 1468.15 250.8 1475.18 235.72 1476.39C228.86 1476.73 222.17 1476.56 215.31 1475.7C212.23 1475.87 209.66 1473.64 209.48 1470.55C206.4 1457.17 205.03 1443.45 205.71 1429.55C206.06 1422.52 207.77 1415.49 210.68 1409.14C214.8 1400.05 220.97 1392.84 230.57 1388.9C239.49 1385.47 247.38 1388.04 252.35 1396.27C255.61 1401.08 256.81 1407.08 255.43 1412.74C253.38 1422.52 252.18 1432.3 251.83 1442.25C251.66 1444.82 251.83 1447.39 251.83 1449.97C251.83 1451.68 252.86 1453.06 254.41 1453.74C256.29 1454.6 258.35 1453.91 259.72 1452.37C262.46 1449.62 264.18 1446.02 264.69 1442.08C267.44 1427.32 269.15 1412.4 266.06 1397.3C261.95 1377.23 242.58 1367.62 223.37 1376.03C212.23 1381.01 204.51 1389.41 198.85 1399.88C197.31 1402.62 196.97 1406.05 194.23 1408.11C192.51 1406.57 190.8 1405.02 188.91 1403.82C187.37 1402.79 186.17 1401.08 185.82 1399.19C182.74 1385.47 175.71 1373.63 167.48 1362.31C166.62 1361.11 164.91 1360.25 166.28 1357.85C182.57 1361.11 199.2 1361.11 215.49 1358.19C232.29 1355.1 247.89 1347.9 261.09 1337.09C283.38 1365.57 291.78 1395.93 283.89 1430.07ZM245.32 1288.19C251.49 1296.43 257.15 1309.13 258.18 1318.05C259.21 1326.28 259.21 1325.25 253.03 1328.68C227.66 1343.44 200.4 1346.52 171.94 1340.18C139.88 1332.97 112.79 1317.02 88.95 1295.4C86.73 1293.52 85.52 1290.77 85.87 1287.86C86.38 1274.99 89.98 1262.47 96.15 1251.14C97.53 1248.91 99.07 1246.86 100.78 1244.97C101.98 1243.6 103.36 1242.05 106.1 1242.56C107.47 1247.19 108.84 1252.17 110.56 1258.35C107.64 1257.66 106.1 1257.15 104.38 1256.98C102.5 1256.46 100.44 1257.31 99.24 1258.86C98.21 1260.57 98.56 1262.81 100.1 1264.01C102.67 1266.76 105.58 1269.32 108.84 1271.73C125.82 1283.74 144.5 1293.17 164.22 1299.68C181.54 1305.01 199.2 1307.24 217.2 1303.29C228.17 1301.24 238.12 1297.12 245.32 1288.19ZM228.17 1270.18C233.32 1273.1 237.43 1277.05 242.4 1283.4C236.23 1283.05 232.63 1285.28 228.52 1285.8C227.14 1285.97 225.77 1285.28 225.6 1283.91C225.43 1279.79 225.26 1275.68 225.26 1271.56C225.43 1270.53 226.29 1269.84 227.32 1270.01C227.66 1270.01 228 1270.01 228.17 1270.18ZM328.13 1653.94C331.04 1650.85 334.13 1648.1 336.87 1645.02C361.22 1617.05 385.39 1589.09 409.57 1560.96C415.57 1553.58 423.8 1548.61 433.06 1546.55C433.57 1546.21 433.91 1545.52 434.6 1545.35C449.52 1540.37 465.46 1539.51 480.89 1542.43C486.89 1543.63 492.89 1545.69 498.38 1548.61C509.87 1554.27 518.61 1564.05 523.41 1575.88C524.61 1578.28 523.93 1581.03 521.7 1582.57C510.73 1593.21 500.1 1603.84 489.29 1614.65C473.86 1630.26 458.43 1645.87 443 1661.66C438.03 1666.63 433.57 1672.12 428.6 1677.61L416.26 1669.72C415.23 1669.55 414.37 1669.2 413.51 1668.86C386.59 1656.85 358.82 1652.91 329.67 1658.74C328.13 1659.08 326.59 1659.6 325.21 1658.4C325.04 1656.34 326.93 1655.31 328.13 1653.94ZM473.35 1441.22C473.18 1442.08 472.32 1442.76 471.46 1442.76C471.12 1442.76 470.95 1442.59 470.78 1442.42C465.46 1437.96 459.98 1433.5 456.03 1427.49C452.77 1425.44 453.29 1422.01 453.29 1418.92C453.46 1406.22 453.8 1393.36 453.97 1380.66C454.15 1368.14 452.95 1369 465.46 1373.46C466.15 1373.63 466.66 1373.97 467.35 1373.97C470.09 1374.31 471.98 1376.72 471.63 1379.46C471.63 1387.18 471.81 1394.73 471.81 1402.45C472.15 1403.99 472.49 1405.54 472.49 1407.08C473.69 1418.4 472.83 1429.9 473.35 1441.22ZM454.15 1446.19C455.69 1447.39 457.23 1448.59 458.6 1449.97C466.32 1457 474.38 1463.35 482.78 1469.35C487.24 1472.44 492.55 1474.5 495.98 1478.96C495.64 1484.45 495.47 1489.77 495.12 1495.26C494.78 1501.95 494.27 1508.64 494.09 1515.33C494.09 1518.24 494.44 1521.16 494.95 1523.9C495.47 1526.31 497.35 1526.65 500.1 1524.93C500.61 1524.59 501.12 1524.08 501.47 1523.56C502.15 1520.47 503.01 1517.39 503.7 1514.3C504.55 1505.21 505.41 1495.94 506.44 1486.85C506.61 1484.45 507.98 1483.93 510.55 1484.79C516.73 1486.85 522.73 1489.42 528.9 1491.14C538.33 1493.71 548.1 1495.08 557.87 1494.91C562.68 1494.91 563.36 1495.43 563.53 1499.54C563.88 1510.35 565.08 1521.16 564.22 1531.97C564.9 1537.97 565.59 1543.8 566.1 1549.64C566.28 1553.75 567.3 1557.7 569.02 1561.3C569.53 1561.99 570.39 1562.5 571.25 1562.5C572.1 1562.5 572.96 1561.99 573.48 1561.13C574.33 1558.56 575.02 1555.64 575.71 1553.07C575.88 1545.69 576.05 1538.49 576.05 1531.11C576.05 1520.3 576.22 1509.49 576.05 1498.69C576.05 1493.37 576.39 1492.51 581.19 1491.14C594.91 1487.19 607.25 1479.47 617.03 1469.01C618.05 1467.98 618.91 1466.44 621.14 1467.47C621.48 1473.3 622.17 1479.47 622.34 1485.48C622.68 1492.85 623.71 1500.06 623.03 1507.44C624.57 1517.04 626.28 1547.23 625.6 1553.24C625.08 1553.58 624.4 1553.75 623.88 1553.92C609.48 1557.01 596.11 1563.53 584.96 1572.97C573.82 1582.06 560.27 1583.95 546.21 1580C539.7 1578.63 534.56 1573.65 532.84 1567.31C528.56 1553.58 519.64 1543.29 507.64 1535.4C504.38 1533.34 500.95 1531.45 497.7 1529.39C496.67 1529.39 495.81 1529.22 494.78 1528.88C482.78 1523.73 470.26 1522.53 457.4 1523.05C447.97 1523.39 448.15 1524.08 448.49 1514.64C449.35 1492.51 450.37 1470.55 451.23 1448.42C451.23 1447.74 451.23 1447.22 451.57 1446.54C452.26 1446.19 452.95 1445.51 454.15 1446.19ZM694.35 1595.61C698.98 1600.07 702.75 1605.22 705.84 1610.88C706.69 1612.25 706.69 1613.97 705.49 1615.17C704.64 1616.02 703.61 1616.88 702.75 1617.91C675.15 1645.87 647.54 1673.66 621.48 1703.17C620.45 1704.89 618.91 1706.09 617.03 1706.77C614.28 1705.74 611.88 1704.03 610.17 1701.8L597.82 1694.08C574.85 1679.5 550.16 1670.75 522.21 1672.29C521.01 1672.29 519.47 1672.81 518.95 1670.58C520.84 1668.52 522.9 1666.12 525.13 1663.71C547.24 1640.21 569.53 1617.05 589.94 1592.01C598.68 1581.37 611.2 1574.34 624.91 1572.79C626.46 1571.77 628.51 1571.08 630.4 1571.25C655.77 1569.02 676.86 1577.94 694.35 1595.61ZM638.97 1403.14C645.14 1402.96 651.32 1402.79 657.49 1402.79C660.57 1402.79 661.26 1403.48 661.6 1406.74C662.8 1420.8 663.66 1434.7 664.86 1448.77C665.37 1456.31 666.23 1463.86 666.92 1473.13C657.14 1469.01 648.57 1462.83 641.54 1455.11C639.83 1453.23 640 1451 639.66 1448.77L636.57 1417.37C636.23 1413.94 635.89 1410.34 635.71 1406.91C635.54 1404.34 636.4 1403.31 638.97 1403.14ZM493.58 1671.26C480.38 1683.1 468.72 1696.31 455.35 1710.03C451.57 1700.77 445.92 1693.39 439.23 1686.02C445.06 1680.53 450.37 1675.89 455.35 1670.75C479.01 1646.56 502.67 1622.37 526.33 1598.01C528.04 1596.13 529.93 1594.41 531.81 1592.52C532.67 1591.49 534.21 1591.32 535.41 1592.18C541.42 1596.13 548.44 1598.18 555.65 1598.53C557.53 1598.7 558.05 1600.24 556.67 1601.96C551.87 1607.62 546.9 1613.11 541.93 1618.6C525.98 1636.27 511.58 1655.14 493.58 1671.26ZM414.54 1784.14C412.14 1785.34 409.74 1786.2 407.34 1787.23C396.71 1791.52 385.22 1793.06 373.91 1793.92C351.79 1795.46 329.5 1794.09 307.73 1789.63C291.78 1786.37 276.18 1781.74 261.6 1774.19C257.49 1772.3 253.89 1769.39 250.98 1765.96C250.29 1764.93 249.09 1763.73 249.09 1762.7C249.26 1757.38 247.89 1751.89 250.63 1746.74C251.66 1734.22 257.32 1723.41 264.69 1713.64C276.87 1697.17 293.32 1685.84 312.53 1678.47C334.82 1669.55 358.13 1668.17 381.79 1671.95C392.08 1673.49 402.37 1675.72 410.43 1682.93C422.94 1689.79 433.4 1699.74 440.77 1711.92C441.63 1713.29 442.32 1714.84 442.83 1716.21C444.89 1721.01 444.54 1726.33 441.63 1730.79C433.74 1743.66 427.91 1757.72 424.14 1772.3C423.46 1777.28 419.68 1781.91 414.54 1784.14ZM632.8 1817.08C627.14 1820.34 621.14 1822.91 614.97 1824.8C600.57 1828.91 585.65 1831.14 570.73 1831.83C543.99 1833.2 517.24 1831.14 491.01 1825.66C472.83 1821.88 455 1816.91 438.54 1807.99C428.43 1802.5 427.74 1804.21 433.23 1792.2C433.23 1791 433.4 1789.63 433.74 1788.43C437.86 1774.88 443 1761.84 449.17 1749.15C454.83 1737.48 462.03 1726.84 470.78 1717.41C483.81 1703.69 499.75 1694.59 518.78 1692.19C535.41 1690.13 551.19 1693.39 566.45 1699.91C574.51 1703.34 582.73 1706.43 588.74 1713.12C600.05 1720.67 609.31 1730.79 615.83 1742.8C628.17 1764.07 632.46 1787.74 635.89 1811.42C636.23 1813.82 634.86 1816.22 632.8 1817.08ZM882.78 1536.6C881.92 1534.54 879.69 1533.68 877.63 1534.54C877.12 1534.71 876.77 1535.05 876.26 1535.4C874.2 1537.46 873.69 1541.06 870.6 1542.6C865.46 1533.34 860.66 1518.24 860.49 1511.9C861.52 1511.72 862.37 1511.72 863.4 1511.9C894.95 1520.47 915.52 1562.67 893.58 1591.67C893.06 1592.52 892.38 1593.21 891.86 1593.9C890.66 1595.44 890.49 1597.67 891.52 1599.38C892.55 1600.93 894.95 1601.27 897.69 1600.24C899.23 1599.73 900.61 1598.87 901.98 1598.18C903.52 1600.76 904.38 1603.67 905.06 1606.59C910.72 1629.58 917.41 1652.39 925.47 1674.69C928.55 1682.76 931.81 1690.82 934.9 1698.88C936.27 1702.48 937.98 1706.09 936.95 1710.03C934.9 1718.44 930.61 1725.81 923.07 1730.1C916.89 1733.71 910.38 1736.62 903.35 1738.51C878.83 1745.03 854.49 1752.06 829.8 1758.58C770.99 1774.02 712.18 1790.14 654.06 1808.16C652.52 1808.67 650.97 1809.53 649.43 1808.84C648.57 1807.81 648.4 1806.61 648.57 1805.41C649.09 1795.81 647.71 1786.2 646.52 1776.76C646 1772.99 644.29 1769.39 644.8 1765.44C639.83 1751.55 634.86 1737.65 625.26 1725.81C626.8 1724.1 628 1722.56 629.37 1721.18C659.55 1690.13 687.66 1657.37 715.78 1624.43C718.52 1621.17 720.93 1619.11 725.55 1620.66C728.3 1621.51 731.21 1621.86 734.3 1621.86C748.87 1623.06 763.62 1622.54 778.19 1620.14C813.85 1613.97 845.4 1599.9 869.57 1572.62C869.57 1571.25 870.43 1569.88 871.8 1569.36L871.97 1569.02C871.8 1568.16 872.32 1567.13 873.17 1566.96L873.35 1566.96C873.17 1565.25 874.55 1564.05 875.06 1562.67C877.63 1557.18 880.2 1551.69 882.43 1546.03C883.98 1542.95 883.98 1539.51 882.78 1536.6ZM821.05 1470.9C823.11 1469.18 824.48 1469.7 825.34 1472.44C826.88 1477.59 829.45 1482.56 829.45 1488.05C834.77 1501.43 838.2 1515.5 842.83 1529.05C846.77 1540.54 848.66 1552.72 853.8 1563.7C854.49 1565.25 853.97 1566.96 852.6 1567.99C849.34 1570.56 846.08 1573.31 842.66 1575.71C829.11 1584.63 814.02 1591.32 798.42 1595.61C773.73 1602.3 748.36 1603.84 722.81 1604.53L721.78 1604.53C719.72 1604.7 717.84 1603.67 716.98 1601.79C714.24 1596.98 711.5 1592.35 708.75 1587.72C707.72 1586.86 706.87 1586.18 705.84 1585.15C699.49 1577.77 692.12 1571.42 683.72 1566.62C674.46 1561.3 664.35 1557.36 653.72 1555.47C647.71 1554.27 647.71 1554.1 647.2 1547.92C645.83 1531.62 644.63 1515.5 643.43 1499.2C642.91 1492.17 642.57 1485.31 642.06 1478.1C645.14 1478.27 647.03 1479.99 649.26 1481.53C654.92 1485.31 660.92 1488.57 667.26 1491.31C675.32 1494.74 683.72 1497.49 692.29 1499.54C696.06 1500.4 696.58 1501.09 696.75 1504.69C697.26 1513.27 697.44 1521.85 698.12 1530.59C698.64 1537.28 699.32 1543.98 700.18 1550.67C700.52 1554.27 701.72 1557.53 703.95 1560.27C707.89 1559.76 709.27 1557.01 709.61 1553.58C710.3 1545.69 711.15 1537.8 711.84 1529.91C710.47 1524.25 711.15 1518.41 710.64 1512.75C710.47 1510.52 710.47 1508.29 710.47 1506.06C710.3 1504.52 711.5 1503.15 713.04 1502.98L718.18 1502.98C733.78 1503.66 749.56 1501.95 764.65 1498.17C765.85 1497.83 767.22 1497.66 768.42 1497.31C769.96 1496.8 771.67 1497.83 772.02 1499.37L772.02 1499.54C774.25 1507.78 776.82 1516.01 778.02 1524.59C778.7 1526.31 779.39 1528.19 779.9 1530.08C782.48 1538.66 784.88 1547.23 787.62 1555.81C788.48 1558.56 789.68 1561.13 791.05 1563.7C792.25 1565.76 794.65 1566.79 796.88 1566.1C798.76 1565.42 799.96 1563.7 799.96 1561.64C799.79 1557.53 799.45 1553.41 798.94 1549.29C797.39 1540.54 795.68 1531.8 793.96 1523.05C790.36 1513.78 789.16 1503.83 786.76 1494.23C786.25 1492 787.45 1490.8 789.51 1489.94C800.48 1484.62 811.28 1478.44 821.05 1470.9ZM1197.74 1373.29C1200.31 1379.98 1202.54 1385.98 1204.59 1391.98C1209.56 1406.22 1213.68 1420.63 1214.71 1435.9C1215.56 1451 1214.71 1466.09 1212.31 1480.85C1211.62 1487.19 1210.25 1493.54 1208.19 1499.54C1203.05 1513.78 1194.48 1526.65 1183.51 1537.11C1182.81 1538.83 1181.62 1540.37 1180.07 1541.4C1179.39 1541.92 1178.53 1542.43 1177.68 1541.92C1177.32 1541.4 1177.16 1540.72 1177.32 1540.2C1178.36 1537.63 1178.88 1534.88 1181.11 1533C1187.11 1518.41 1189.16 1502.63 1187.28 1487.02C1186.76 1480.33 1185.39 1473.81 1183.16 1467.47C1182.13 1464.89 1179.56 1463.52 1176.99 1463.69C1174.42 1464.03 1172.36 1466.26 1172.18 1469.01C1172.02 1472.78 1172.02 1476.73 1172.18 1480.5C1172.88 1497.49 1169.79 1514.47 1163.28 1530.08C1156.42 1546.55 1147.16 1561.3 1133.1 1572.97C1125.9 1579.14 1117.32 1583.26 1108.06 1585.15C1099.15 1586.86 1090.06 1587.55 1080.98 1587.2C1079.61 1587.2 1077.72 1587.55 1077.21 1584.63C1082.18 1581.54 1085.94 1576.74 1090.57 1572.97L1090.75 1572.79C1090.57 1571.77 1091.43 1570.74 1092.47 1570.56C1093.31 1569.19 1094.01 1567.82 1094.87 1566.45C1108.75 1544.15 1111.32 1520.47 1104.47 1495.43C1103.94 1493.2 1103.1 1491.14 1101.9 1489.25C1100.87 1487.88 1099.15 1487.36 1097.43 1488.05C1096.06 1488.39 1095.21 1489.59 1095.21 1490.8L1095.21 1498.52C1095.21 1504.35 1095.55 1510.01 1095.04 1515.84C1093.67 1531.11 1089.55 1545.52 1079.26 1557.36C1068.98 1569.19 1055.77 1575.54 1039.66 1574.17C1016.68 1572.11 994.05 1554.1 985.99 1532.14C987.02 1530.59 988.73 1530.59 990.28 1530.25C996.96 1528.88 1003.14 1525.62 1008.11 1520.82C1017.37 1512.24 1023.2 1500.4 1024.06 1487.88C1024.74 1481.88 1023.71 1475.7 1021.31 1470.04C1020.63 1468.67 1019.77 1467.29 1018.57 1466.26C1016.86 1464.89 1014.46 1465.06 1013.08 1466.78C1012.91 1466.95 1012.91 1467.12 1012.74 1467.29C1011.88 1468.67 1011.71 1470.38 1011.88 1471.93C1012.05 1475.36 1013.08 1478.96 1011.37 1482.22C1010.68 1495.43 1003.48 1504.35 991.65 1509.49C982.22 1513.78 975.02 1510.35 971.42 1501.09C966.44 1488.22 962.5 1475.01 959.41 1461.63C956.84 1451 957.01 1439.85 959.93 1429.38C962.84 1419.26 965.93 1409.14 969.19 1399.02C969.53 1397.65 969.87 1395.93 972.27 1395.76C974.5 1399.19 976.56 1402.79 978.96 1406.05C990.28 1421.66 1005.54 1432.3 1023.54 1438.99C1051.31 1449.45 1079.61 1449.97 1108.06 1443.28C1114.41 1441.73 1120.57 1440.02 1126.93 1438.47C1127.43 1437.96 1127.96 1437.62 1128.47 1437.27C1148.69 1429.9 1166.18 1418.57 1180.07 1402.11C1182.99 1397.47 1185.74 1392.84 1188.99 1388.38C1192.25 1383.92 1192.93 1377.75 1197.74 1373.29ZM1146.13 1357.5C1154.53 1352.7 1162.06 1346.35 1168.42 1338.98C1171.5 1335.2 1174.07 1331.26 1176.81 1327.31C1176.99 1326.11 1176.99 1324.74 1176.99 1323.54C1176.31 1319.76 1172.53 1318.05 1169.79 1320.45C1167.05 1322.85 1164.81 1325.42 1162.42 1328C1161.39 1329.03 1160.18 1330.23 1158.13 1329.37C1159.32 1319.93 1160.53 1310.5 1161.9 1301.06C1161.9 1300.72 1162.25 1300.55 1162.42 1300.38C1162.93 1300.21 1163.44 1300.04 1164.13 1300.04C1171.32 1307.24 1178.88 1314.79 1181.62 1325.42C1182.81 1326.45 1183.32 1328 1182.99 1329.37C1186.93 1337.43 1186.93 1346.01 1185.74 1354.59C1183.85 1369 1177.32 1382.55 1167.22 1393.01C1152.13 1409.65 1132.76 1422.01 1111.5 1428.87C1094.18 1434.36 1076.35 1435.56 1058.35 1434.36C1046.34 1433.5 1034.51 1430.58 1023.37 1425.78C1012.57 1421.49 1002.62 1414.8 994.56 1406.22C979.65 1389.93 973.47 1371.23 978.96 1349.44C982.05 1337.26 988.39 1326.11 997.13 1317.02C997.82 1316.33 998.51 1315.65 999.71 1315.99C1000.91 1316.33 1000.91 1317.36 1000.91 1318.39C1001.08 1325.08 1001.08 1331.77 1001.08 1338.46C1001.08 1339.32 1000.91 1340.52 999.53 1340.52C998.85 1340.52 998.33 1340.18 997.99 1339.66C997.31 1338.63 996.79 1337.43 996.11 1336.4C995.25 1334.86 993.7 1334.17 991.99 1334.52C990.45 1335.03 989.25 1336.23 988.9 1337.95C987.88 1341.72 988.56 1345.67 990.79 1348.93C994.05 1353.39 997.99 1357.33 1002.62 1360.42C1012.23 1367.11 1023.03 1371.91 1034.51 1374.66C1039.49 1376.03 1044.46 1377.23 1049.6 1378.43C1054.4 1378.6 1059.38 1378.78 1064.18 1379.12C1093.84 1380.32 1120.93 1372.26 1146.13 1357.5ZM1113.38 735.98C1125.04 773.38 1132.06 811.98 1134.47 850.92C1136.69 887.63 1134.99 924.51 1129.32 961.05C1126.57 979.41 1121.61 997.42 1117.32 1015.44C1116.81 1018.01 1116.13 1020.41 1115.43 1022.82C1107.9 1048.03 1098.29 1072.56 1086.98 1096.24C1058.52 1155.76 1018.4 1208.93 968.84 1252.35C861 1347.38 717.67 1391.47 575.19 1373.11C546.39 1369.51 518.1 1363.16 490.49 1353.9C423.29 1330.91 364.13 1294.89 312.01 1247.37C310.3 1245.82 308.24 1244.63 307.73 1242.4C306.87 1241.88 306.18 1241.37 305.33 1240.68C274.64 1211.52 247.89 1178.57 225.26 1142.9C211.71 1121.46 199.88 1098.98 190.11 1075.48C179.48 1050.78 170.91 1025.22 164.05 999.14C162.34 992.28 161.31 985.41 159.93 978.55C155.99 958.82 153.25 938.75 151.88 918.68C149.82 889.35 150.5 859.84 153.76 830.51C157.36 797.74 164.22 765.32 174.34 733.93C204.51 641.29 257.49 563.75 334.3 501.99C405.45 444.87 491.01 408.67 581.53 397.35C592.16 395.98 602.79 394.26 613.77 394.78C615.31 394.26 616.85 394.09 618.4 393.92C630.4 393.75 642.57 393.41 654.57 393.41C674.12 393.75 693.66 395.29 713.04 398.04C716.81 398.55 717.5 399.75 716.12 403.18C714.75 406.61 712.35 409.87 711.84 413.82C710.12 425.14 710.64 436.12 715.95 446.58C718.35 451.56 720.93 456.19 723.84 460.82C735.67 479.01 750.24 495.13 767.39 508.51C789.33 525.84 812.82 540.94 837.68 553.63C865.8 567.7 894.95 578.5 926.32 582.96C942.27 585.19 958.21 585.88 973.99 581.94C988.73 578.33 1000.4 570.96 1005.02 555.86C1005.37 554.49 1005.88 552.77 1007.94 552.6C1010.68 553.97 1012.23 556.55 1014.11 558.6C1059.38 610.41 1092.98 670.8 1113.38 735.98ZM822.94 520.18L833.74 490.33C835.45 485.53 837 480.55 838.54 475.75C838.88 475.06 839.4 474.38 839.91 473.69C842.48 473.35 843.86 474.89 845.57 475.75C869.06 489.64 894.09 500.62 920.15 508.68C921.01 509.03 922.04 509.03 922.9 509.54C924.44 509.89 925.3 511.43 924.78 512.8C924.78 512.97 924.61 513.14 924.61 513.32C919.12 527.9 912.78 542.31 908.32 557.4C907.98 558.95 906.61 559.81 905.24 559.63C905.06 559.63 904.89 559.46 904.72 559.46C898.89 557.75 892.89 556.03 887.06 553.97C878.49 550.89 870.26 546.94 861.69 543.85C848.66 539.39 837 532.36 824.82 526.35C821.74 524.81 821.57 523.95 822.94 520.18ZM960.79 403.01C972.79 411.93 983.76 422.05 993.7 433.03C1002.97 443.5 1011.2 454.48 1015.83 467.86C1017.2 471.8 1018.06 475.92 1017.88 480.04C1017.88 485.7 1015.14 490.84 1010.51 493.93C1007.77 495.82 1004.85 497.19 1001.77 498.22C994.39 500.62 987.02 500.28 979.47 500.28C967.64 500.45 956.16 497.88 944.67 495.48C930.27 492.73 916.38 488.27 903.01 482.09C895.63 480.72 889.12 477.12 882.43 474.2C870.6 469.23 859.29 463.4 848.49 456.71C846.43 455.68 844.37 454.82 842.48 453.79C827.74 445.38 814.02 435.95 800.14 426.17C784.36 414.85 771.16 400.44 761.39 383.63C758.47 378.65 755.39 373.68 755.04 367.67C752.64 361.84 751.96 356.01 755.22 350.18C759.16 342.8 760.02 342.11 767.05 340.4C767.56 342.8 766.19 344.51 765.16 346.4C763.96 356.52 765.5 366.64 769.45 375.91L769.45 376.77C769.96 377.11 770.3 377.62 770.65 378.14C782.31 399.75 799.79 415.88 820.2 429.43C820.37 429.43 820.54 429.43 820.88 429.6C823.11 430.63 825.51 431.66 827.74 432.69C826.71 431.32 826.02 429.94 825.34 428.4C821.22 423.25 816.77 418.62 811.97 414.16C806.48 408.67 801.85 402.5 797.74 395.81C793.62 389.12 791.91 381.4 792.59 373.68C792.76 367.84 796.02 362.36 801.16 359.44C805.97 356.52 811.28 354.81 816.77 354.29C830.48 353.09 844.2 353.95 857.57 357.04C861.17 357.89 862.03 358.92 861.34 362.36C859.97 369.9 858.43 377.45 856.89 385C856.71 386.54 855.34 387.74 853.63 387.57L853.46 387.57C849.51 387.23 845.74 386.54 841.8 386.37C832.88 386.03 827.74 391.52 832.88 400.61C836.66 406.96 841.46 412.79 847.11 417.59C861.86 430.97 878.32 442.12 895.98 450.87C908.49 457.22 921.35 462.71 935.07 465.63C938.15 466.48 941.41 466.83 944.84 466.66C953.76 465.97 958.56 457.91 955.13 450.02C953.59 446.41 951.18 443.33 948.44 440.58C944.67 437.15 940.73 433.72 936.78 430.46C933.53 427.89 930.1 425.31 926.67 422.91C924.78 421.71 923.75 419.48 924.1 417.08C924.95 408.16 926.5 399.24 929.07 390.66C929.58 388.94 929.24 386.71 932.15 385.69C941.41 391.17 951.7 396.15 960.79 403.01ZM849.69 404.9C850.71 405.76 851.74 407.3 853.11 407.13C851.91 407.3 850.71 405.76 849.69 404.9ZM926.67 439.89C925.98 439.55 924.95 439.72 924.61 440.58C924.61 440.75 924.44 440.92 924.44 441.1C923.92 443.15 924.44 445.21 925.64 446.93C924.44 445.21 924.1 443.15 924.44 441.1C924.61 440.24 925.47 439.72 926.15 439.89C926.32 439.72 926.5 439.89 926.67 439.89C930.61 442.47 934.38 445.38 936.95 449.84C936.1 450.19 935.41 450.36 934.38 450.53C935.24 450.53 936.1 450.36 936.95 449.84C934.38 445.38 930.61 442.64 926.67 439.89ZM933.18 450.36C931.47 450.02 929.75 449.33 928.21 448.64C927.52 448.47 926.84 447.96 926.15 447.44C926.67 447.96 927.35 448.3 928.21 448.64C929.75 449.5 931.47 450.02 933.18 450.36ZM1028 334.05C1020.97 342.8 1011.03 344.86 1000.91 339.54C989.59 333.54 981.87 318.1 983.93 305.4C984.62 300.26 986.85 295.45 990.45 291.68C994.39 287.73 998.68 284.3 1005.02 284.82C1009.83 284.64 1014.63 286.02 1018.74 288.76C1027.66 294.25 1033.31 303.69 1033.82 314.32C1034.51 321.53 1032.46 328.56 1028 334.05ZM1061.09 267.66C1060.4 268.52 1059.38 268.52 1058.52 268C1050.8 263.03 1042.4 259.43 1033.49 257.37C1017.71 252.74 1000.57 254.62 986.16 262.69C979.99 266.12 973.99 270.06 968.16 274.18C966.62 275.38 964.9 276.41 963.36 277.27C961.81 277.95 960.1 277.78 958.9 276.58C957.53 275.55 957.36 273.67 958.21 272.12C958.9 270.75 959.76 269.38 960.96 268.18C967.47 260.97 975.19 254.8 983.59 250.16C993.02 245.36 1002.8 242.1 1013.08 242.62C1025.26 242.62 1037.43 245.87 1048.06 251.88C1052.68 254.45 1056.63 257.71 1059.89 261.83C1060.75 262.86 1061.26 263.89 1061.78 265.09C1061.78 265.95 1061.6 266.97 1061.09 267.66ZM1394.73 310.38C1391.82 322.38 1395.76 333.02 1403.14 342.8C1399.71 344.34 1396.96 342.97 1394.22 342.63C1381.19 340.91 1370.22 346.92 1365.07 358.75C1363.36 363.21 1362.16 368.02 1361.82 372.65C1361.64 374.02 1361.99 375.91 1359.42 376.42C1357.02 373.68 1354.62 370.59 1351.87 367.84C1339.18 355.15 1321.18 348.29 1299.92 358.07C1293.57 361.15 1287.57 365.27 1282.43 370.07C1281.23 371.1 1280.38 372.65 1278.15 371.62L1278.15 363.04C1278.31 357.55 1277.29 352.06 1275.57 346.92C1271.12 334.05 1262.19 326.16 1248.66 322.73C1240.09 320.67 1231.86 321.53 1223.44 323.76C1220.71 324.44 1218.14 326.16 1214.02 325.64C1215.05 320.33 1215.05 314.84 1214.02 309.52C1213.34 304.2 1210.25 299.57 1208.54 293.91C1218.82 294.25 1225.34 288.76 1231 281.73C1236.66 274.69 1240.43 266.29 1242.31 257.54C1246.09 241.07 1243.17 226.49 1230.82 214.14C1223.63 206.76 1215.74 199.9 1207.34 193.9C1206.14 192.87 1204.93 191.84 1203.74 190.64C1203.56 190.47 1203.91 189.09 1204.07 189.09C1206.65 188.75 1209.22 188.58 1211.8 188.24C1222.6 186.69 1231.86 182.4 1238.37 173.65C1241.11 170.05 1243.17 165.93 1244.37 161.64C1243.86 160.27 1244.19 158.73 1245.4 158.56C1247.46 158.21 1247.97 159.76 1247.8 161.64C1249.17 162.33 1250.03 163.88 1249.86 165.42C1258.77 180.69 1273.86 191.32 1291.18 194.75C1303.68 197.33 1316.55 196.81 1328.73 193.38C1342.1 189.95 1353.93 183.26 1365.07 175.54C1365.59 174 1366.79 172.8 1368.16 172.28C1369.19 171.77 1370.05 172.45 1369.87 173.65C1369.87 175.2 1369.02 176.74 1367.65 177.43C1365.42 184.12 1363.02 190.81 1362.16 197.84C1360.27 215.17 1369.02 228.72 1385.65 234.38C1390.62 236.1 1395.76 237.13 1400.91 237.3C1403.31 237.3 1405.88 237.47 1409.82 237.81C1406.91 240.56 1403.82 242.79 1400.22 244.5C1394.91 247.59 1390.28 251.54 1386.5 256.51C1380.85 264.57 1382.56 271.95 1391.31 276.58C1396.62 279.33 1402.28 281.04 1408.11 281.73C1410.51 282.07 1413.25 281.38 1416.17 284.13C1405.88 290.65 1397.65 298.54 1394.73 310.38Z" fill="#2C2729" fill-opacity="1.000000" fill-rule="nonzero"/>
		<path id="Vector" d="M867.17 1617.05C865.29 1618.43 863.57 1619.8 861.86 1621.17C845.06 1634.55 825.51 1642.1 804.77 1647.25C787.11 1651.71 769.27 1652.39 751.79 1646.56C750.07 1646.05 748.36 1645.53 746.64 1645.36C745.1 1645.19 743.73 1645.19 742.18 1645.53C740.98 1651.53 741.16 1651.88 745.1 1654.11C763.45 1664.92 782.82 1666.8 803.22 1661.66C808.88 1660.28 814.37 1658.4 820.02 1656.68C821.74 1654.62 824.48 1654.28 826.88 1653.25L828.43 1652.56C843.68 1645.7 857.74 1637.12 868.37 1623.92C869.23 1623.06 870.09 1622.03 870.77 1621C871.63 1619.46 873.86 1617.91 872.15 1616.02C870.43 1614.14 868.72 1616.02 867.17 1617.05ZM736.7 861.73C734.47 859.67 732.07 857.61 729.67 855.72C744.07 812.84 749.73 752.8 722.3 712.48C704.64 686.58 674.98 672 646.86 675.26C634.68 676.8 623.2 681.26 613.25 688.47C603.14 693.78 594.05 704.76 586.85 716.77C581.88 724.66 577.93 733.24 575.02 741.99C565.08 773.38 569.36 820.21 571.59 850.06C565.93 854.35 560.96 859.67 556.84 865.5C572.28 856.92 589.08 851.44 606.4 849.03C612.4 848.18 618.4 847.66 624.23 847.32C630.06 846.98 635.71 847.15 640.69 847.15C646.17 847.32 651.83 847.66 657.32 848.18C674.46 849.89 691.26 853.49 707.38 859.15C724.18 864.64 739.61 873.22 753.33 884.37C749.21 875.8 743.73 868.08 736.7 861.73ZM712.52 844.75C696.58 836.51 679.43 831.19 661.6 829.31C662.63 810.78 663.83 792.59 664 774.07C647.54 767.03 629.03 762.92 611.88 757.77L652 747.99L657.49 746.62C658.17 734.95 658.69 723.29 655.43 712.14C653.71 705.96 650.63 700.3 646.52 695.5C647.37 695.33 648.23 695.16 649.09 695.16C669.83 692.75 692.64 704.25 706.01 723.98C728.47 756.4 723.84 808.21 712.52 844.75ZM440.77 866.7C442.49 860.53 445.75 854.69 450.03 849.89C454.15 845.09 459.29 841.14 465.12 838.4C467.86 837.03 470.95 835.82 474.03 835.14C476.95 834.28 480.04 833.94 483.29 833.77C489.81 833.59 496.32 834.8 502.5 837.2C515.01 842 526.84 851.26 531.13 866.87C533.19 858.47 531.99 849.72 527.7 842.34C523.41 834.62 517.07 828.1 509.52 823.47C505.75 821.07 501.64 819.18 497.35 817.81C495.12 817.13 493.07 816.61 490.67 816.1L490.49 816.1C496.84 724.66 470.26 675.09 411.45 668.74C381.96 665.48 350.76 679.89 332.07 705.45C316.47 726.89 309.44 755.54 312.53 786.08C315.1 812.32 324.01 836.68 333.62 859.5C333.1 860.01 332.59 860.36 332.07 860.87C322.81 869.96 316.98 881.8 315.1 894.49C324.01 885.74 332.42 878.2 341.85 872.71C351.1 867.22 360.88 862.76 371.16 859.67C381.62 856.41 392.42 854.18 403.4 852.81C408.88 852.12 414.54 851.61 420.37 851.26C423.29 851.09 426.2 851.09 429.11 850.92C427.57 855.04 426.54 859.5 426.2 863.79C425.34 872.54 426.89 881.46 430.49 889.52C433.74 897.24 439.4 903.76 446.26 908.39C442.66 901.7 440.43 894.32 439.57 886.77C438.37 880.26 438.89 873.39 440.77 866.7ZM435.29 838.74L433.74 840.8C432.37 830.68 429.11 820.21 427.06 810.44C426.2 806.66 421.06 773.72 418.66 773.38C400.82 770.98 381.97 771.84 363.96 771.15L400.14 751.25L405.11 748.51C402.88 737.18 400.14 725.52 394.14 715.57C388.65 706.48 379.91 698.93 369.62 696.87C381.45 689.84 395.17 686.58 408.88 687.78C456.2 692.93 476.43 734.78 470.43 815.75C465.46 816.78 460.66 818.33 456.03 820.56C451.92 822.62 447.97 825.19 444.54 828.1C441.29 831.54 438.03 834.97 435.29 838.74ZM474.03 1090.92C474.03 1044.6 500.95 1007.03 534.21 1007.03C540.73 1007.03 547.24 1008.58 553.07 1011.32C548.44 1006.18 543.13 1001.89 536.96 998.45C507.64 982.15 477.98 1001.89 464.09 1028.65C446.43 1062.79 444.89 1107.39 458.95 1143.06C469.58 1170.17 494.95 1199.51 527.53 1189.04C538.67 1185.43 548.44 1178.57 555.65 1169.31C549.13 1172.92 541.76 1174.63 534.39 1174.81C500.95 1174.81 474.03 1137.24 474.03 1090.92Z" fill="#2C2729" fill-opacity="1.000000" fill-rule="nonzero"/>
		<path id="Vector" d="M560.1 1091.94C560.1 1125.39 544.67 1152.51 525.64 1152.51C506.61 1152.51 491.18 1125.39 491.18 1091.94C491.18 1058.5 506.61 1031.39 525.64 1031.39C544.67 1031.39 560.1 1058.5 560.1 1091.94Z" fill="#2C2729" fill-opacity="1.000000" fill-rule="evenodd"/>
	</g>
</svg>
