<svg width="735.870728" height="1092.483398" viewBox="0 0 735.871 1092.48" fill="none" xmlns="http://www.w3.org/2000/svg" xmlns:xlink="http://www.w3.org/1999/xlink">
	<desc>
			Created with Pixso.
	</desc>
	<defs>
		<filter id="filter_16_46_dd" x="388.362549" y="544.299255" width="83.983337" height="84.022949" filterUnits="userSpaceOnUse" color-interpolation-filters="sRGB">
			<feFlood flood-opacity="0" result="BackgroundImageFix"/>
			<feBlend mode="normal" in="SourceGraphic" in2="BackgroundImageFix" result="shape"/>
			<feGaussianBlur stdDeviation="4" result="effect_layerBlur_1"/>
		</filter>
		<filter id="filter_16_47_dd" x="376.362549" y="532.299255" width="107.983337" height="108.022949" filterUnits="userSpaceOnUse" color-interpolation-filters="sRGB">
			<feFlood flood-opacity="0" result="BackgroundImageFix"/>
			<feBlend mode="normal" in="SourceGraphic" in2="BackgroundImageFix" result="shape"/>
			<feGaussianBlur stdDeviation="8" result="effect_layerBlur_1"/>
		</filter>
	</defs>
	<path id="Neck" d="M196.47 554.48L293.95 813.98L484.47 804.91L408.25 509.45L196.47 554.48Z" fill="#FFC6AE" fill-opacity="1.000000" fill-rule="evenodd"/>
	<g style="mix-blend-mode:multiply">
		<path id="Shadow" d="M416.391 541.004L207.737 584.473L221.864 622.079C306.64 644.137 406.702 689.957 465.765 743.483L441.365 637.813L416.391 541.004Z" clip-rule="evenodd" fill="#EB9F7F" fill-opacity="0.500000" fill-rule="evenodd"/>
	</g>
	<path id="Ear" d="M480.87 575.78C462.88 595.96 431.93 596.11 414.66 581.31C397.39 566.52 397.97 538.16 415.96 517.98C433.94 497.8 462.52 493.44 479.78 508.24C497.05 523.03 498.85 555.6 480.87 575.78Z" fill="#FFA787" fill-opacity="1.000000" fill-rule="evenodd"/>
	<g style="mix-blend-mode:multiply">
		<path id="Subtract" d="M406.807 550.535C419.913 568.976 448.82 577.032 469.689 562.878C483.313 553.638 490.144 537.216 489.598 521.796C496.758 538.184 494.471 560.528 480.871 575.788C462.888 595.968 431.931 596.116 414.664 581.318C404.041 572.215 400.173 557.98 402.956 543.675C403.973 546.051 405.253 548.349 406.807 550.535Z" clip-rule="evenodd" fill="#FFA787" fill-opacity="0.500000" fill-rule="evenodd"/>
	</g>
	<path id="Face" d="M468.19 478.09C428.22 583.47 284.26 660.56 179.72 612.91C75.17 565.27 52.98 444.52 92.95 339.14C132.92 233.76 249.32 179.44 352.94 217.81C456.56 256.18 508.16 372.71 468.19 478.09Z" fill="#FFCEB9" fill-opacity="1.000000" fill-rule="evenodd"/>
	<g style="mix-blend-mode:multiply">
		<path id="Face shadow" d="M144.088 570.498C248.635 618.141 392.586 541.058 432.556 435.679C456.193 373.362 447.808 307.145 415.58 255.498C475.421 309.079 498.988 396.899 468.19 478.098C428.219 583.477 284.268 660.56 179.722 612.917C144.616 596.919 118.797 572.679 101.5 543.546C113.784 554.054 127.955 563.146 144.088 570.498Z" clip-rule="evenodd" fill="#FFCEB9" fill-opacity="0.400000" fill-rule="evenodd"/>
	</g>
	<ellipse id="Ellipse 7" rx="31.994789" ry="31.311687" transform="matrix(0.996029 0.0890308 -0.0852396 0.996361 329.339 511.772)" fill="#ED653B" fill-opacity="1.000000"/>
	<ellipse id="Ellipse 8" rx="31.994789" ry="31.311687" transform="matrix(0.996029 0.0890308 -0.0852396 0.996361 127.998 441.229)" fill="#ED653B" fill-opacity="1.000000"/>
	<path id="Mouth" d="M199.24 449.01C204.51 468.26 227.91 502.24 279.36 484.19" stroke="#323232" stroke-opacity="1.000000" stroke-width="8.824697" stroke-linecap="round"/>
	<path id="Ellipse 4" d="M200.88 399.59C200.82 409.86 192.26 418.07 181.77 417.93C171.29 417.79 162.84 409.35 162.91 399.08C162.97 388.81 171.53 380.59 182.01 380.73C192.5 380.88 200.95 389.32 200.88 399.59Z" fill="#323232" fill-opacity="1.000000" fill-rule="evenodd"/>
	<path id="Ellipse 5" d="M349.66 448.81C349.59 459.08 341.04 467.29 330.55 467.15C320.07 467.01 311.62 458.57 311.68 448.3C311.75 438.02 320.3 429.81 330.79 429.95C341.28 430.09 349.72 438.54 349.66 448.81Z" fill="#323232" fill-opacity="1.000000" fill-rule="evenodd"/>
	<path id="Ellipse 1" d="M560.18 310.44C530.71 358.22 453.29 345.4 383.68 303.86C314.07 262.33 225.86 198.32 255.33 150.54C284.8 102.77 403.51 84.89 473.12 126.42C542.73 167.96 589.65 262.67 560.18 310.44Z" fill="#FFEBA8" fill-opacity="1.000000" fill-rule="evenodd"/>
	<g style="mix-blend-mode:multiply">
		<path id="shadow" d="M253.821 153.207C299.09 120.443 396.937 113.666 458.509 150.403C519.758 186.948 564.688 262.251 558.34 313.266C558.973 312.351 559.587 311.411 560.182 310.447C589.654 262.673 542.732 167.961 473.121 126.427C403.51 84.8931 284.805 102.772 255.333 150.547C254.789 151.428 254.285 152.315 253.821 153.207Z" clip-rule="evenodd" fill="#FFEBA8" fill-opacity="0.800000" fill-rule="evenodd"/>
	</g>
	<path id="Rectangle 3" d="M303.14 143.36C384.97 130.05 537.21 212.55 549.25 284.49C561.29 356.43 503.9 394.1 503.9 394.1L177.83 231.55C177.83 231.55 221.31 156.67 303.14 143.36Z" fill="#FEDE77" fill-opacity="1.000000" fill-rule="evenodd"/>
	<g style="mix-blend-mode:multiply">
		<path id="Shadow" d="M303.145 143.365C384.972 130.054 537.212 212.557 549.255 284.495C561.299 356.433 503.904 394.108 503.904 394.108L500.793 392.557C514.379 374.169 527.162 345.865 520.846 308.138C508.802 236.2 356.562 153.696 274.735 167.007C248.33 171.302 225.918 182.009 207.672 194.542C228.767 173.598 260.828 150.248 303.145 143.365Z" clip-rule="evenodd" fill="#FEDE77" fill-opacity="0.800000" fill-rule="evenodd"/>
	</g>
	<path id="Vector 1" d="M83.8 363.01C224.59 276.44 355.3 377.78 458.81 499.04C481.76 461.76 502.69 431.47 519.51 382.19C528.78 355.02 524.36 324.61 504.99 303.43C438.75 230.97 321.49 186.35 254.14 196.71C176.31 208.68 112.95 268.09 83.8 363.01Z" fill="#4783DE" fill-opacity="1.000000" fill-rule="evenodd"/>
	<g style="mix-blend-mode:multiply">
		<path id="Shadow" d="M120.245 285.247C201.633 261.591 305.715 288.286 386.616 347.667C421.96 373.609 472.918 360.225 468.67 316.587C466.78 297.167 463.539 278.649 459.334 263.077C476.087 275.238 491.586 288.764 504.996 303.431C524.367 324.619 528.788 355.023 519.515 382.193C502.695 431.477 481.766 461.763 458.816 499.04C355.306 377.781 224.592 276.447 83.8013 363.016C92.8499 333.553 105.195 307.511 120.245 285.247Z" clip-rule="evenodd" fill="#3D76CE" fill-opacity="0.500000" fill-rule="evenodd"/>
	</g>
	<g filter="url(#filter_16_46_dd)">
		<ellipse id="Ellipse 2" rx="30.000000" ry="29.999998" transform="matrix(0.996593 0.082479 -0.0783968 0.996922 430.354 586.311)" fill="#F9F9F9" fill-opacity="1.000000"/>
	</g>
	<g filter="url(#filter_16_47_dd)">
		<ellipse id="Ellipse 4" rx="30.000000" ry="29.999998" transform="matrix(0.996593 0.082479 -0.0783968 0.996922 430.354 586.311)" fill="#F9F9F9" fill-opacity="1.000000"/>
	</g>
	<ellipse id="Ellipse 3" rx="30.000000" ry="29.999998" transform="matrix(0.996593 0.082479 -0.0783968 0.996922 430.354 586.311)" fill="#F9F9F9" fill-opacity="1.000000"/>
	<path id="Clothes" d="M182.97 773.48C280.82 692.23 357.23 671.81 488.56 655.48C561.95 794.68 619.98 882.04 636.97 1047.89L80.97 1092.48C102.5 1025.37 116.96 911.58 176.74 847.86C179.01 845.44 180.29 842.25 180.2 838.94C179.5 813.79 180.05 799.26 182.97 773.48Z" fill="#CE8221" fill-opacity="1.000000" fill-rule="evenodd"/>
	<path id="Shadow 2" d="M331.998 687.065C377.35 671.722 426.903 663.152 488.562 655.483C561.952 794.684 619.984 882.045 636.973 1047.89L80.9727 1092.48C84.1294 1082.64 87.1343 1071.8 90.1523 1060.25L631.327 1025.94C640.575 901.282 450.993 758.629 331.998 687.065Z" clip-rule="evenodd" fill="#B86F1F" fill-opacity="1.000000" fill-rule="evenodd"/>
	<path id="Line 2" d="M628.64 988.635Q605.031 906.597 559.155 856.018Q536.155 830.661 508.076 813.729Q479.147 796.284 444.827 787.781Q379.69 771.643 298.497 788.568Q242.037 800.337 179.967 827.632C180.011 831.191 180.09 834.93 180.202 838.94C180.23 839.947 180.131 840.943 179.916 841.909Q243.628 813.313 301.156 801.321Q379.441 785.003 441.694 800.426Q474.089 808.452 501.388 824.923Q527.838 840.882 549.505 864.77Q595.653 915.647 618.454 1000.63L630.191 997.485C629.689 994.511 629.172 991.561 628.64 988.635Z" clip-rule="evenodd" fill="#D7963D" fill-opacity="1.000000" fill-rule="evenodd"/>
	<path id="Collar" d="M197 718.06C271.99 638.2 445.4 616.07 470 624.48C494.6 632.89 499 676.48 499 676.48C378.64 679.77 276.97 723.92 182.76 774.34C182.76 774.34 178.99 737.23 197 718.06Z" fill="#FFECD5" fill-opacity="1.000000" fill-rule="evenodd"/>
	<g style="mix-blend-mode:multiply">
		<path id="Shadow" d="M183.409 751.139C181.7 763.849 182.767 774.343 182.767 774.343C276.977 723.922 378.642 679.777 499 676.483C499 676.483 494.6 632.89 470 624.483C469.43 624.289 468.78 624.11 468.054 623.949C476.316 635.457 470.084 646.231 438 653.484C334.842 676.801 257.517 704.397 183.409 751.139Z" clip-rule="evenodd" fill="#FEE7CB" fill-opacity="1.000000" fill-rule="evenodd"/>
	</g>
	<path id="main shap" d="M499.83 183.27C492.43 402.64 508.94 558.44 480.14 807.24C478.44 821.9 491.87 833.84 506.19 830.28L582.83 811.27C591.54 809.11 600.68 809.44 609.21 812.21L684.02 836.51C697.99 841.05 712.17 830.21 711.14 815.55C692.62 550.78 599.27 276.56 568.24 228.43C542.24 188.09 513.73 181.01 503.7 179.77C501.6 179.51 499.9 181.16 499.83 183.27Z" fill="#FFCE05" fill-opacity="1.000000" fill-rule="evenodd"/>
	<g style="mix-blend-mode:multiply">
		<path id="Shadow" d="M502.296 179.894C500.894 180.324 499.89 181.661 499.834 183.27C497.276 259.164 497.578 327.449 497.876 394.607C498.438 521.573 498.983 644.514 480.143 807.241C478.446 821.9 491.875 833.84 506.198 830.288L582.834 811.278C585.354 810.653 587.91 810.236 590.476 810.026C633.276 557.392 570.819 347.866 502.296 179.894ZM616.251 814.499L659.065 761.196L707.453 772.016C708.893 786.533 710.132 801.06 711.146 815.559C712.171 830.212 697.993 841.053 684.022 836.514L616.251 814.499Z" clip-rule="evenodd" fill="#FFCE05" fill-opacity="0.500000" fill-rule="evenodd"/>
	</g>
	<path id="Blue" d="M486.36 747.757L595.937 727.675C597.566 727.376 599.239 727.418 600.85 727.797L705.385 752.404C707.732 773.437 709.675 794.528 711.146 815.559C712.171 830.212 697.993 841.053 684.022 836.514L609.22 812.215C600.685 809.442 591.544 809.118 582.834 811.278L506.198 830.288C491.875 833.84 478.446 821.9 480.143 807.241C482.508 786.815 484.568 767.016 486.36 747.757Z" clip-rule="evenodd" fill="#4783DE" fill-opacity="1.000000" fill-rule="evenodd"/>
	<g style="mix-blend-mode:multiply">
		<path id="Shadow" d="M482.068 790.146C483.341 790.038 484.625 789.857 485.914 789.599L580.084 770.767C591.541 768.476 603.648 768.813 614.863 771.734L706.666 795.649C707.667 795.91 708.669 796.122 709.669 796.288C710.245 803.201 710.771 810.111 711.247 817.015C712.203 830.892 697.796 840.989 683.794 836.44L609.992 812.465C600.976 809.536 591.247 809.191 582.046 811.474L506.415 830.234C492.065 833.793 478.364 822.547 479.977 808.675C480.702 802.441 481.399 796.266 482.068 790.146Z" clip-rule="evenodd" fill="#4783DE" fill-opacity="0.500000" fill-rule="evenodd"/>
	</g>
</svg>
