<?xml version="1.0" encoding="UTF-8"?>
<svg width="1247px" height="1318px" viewBox="0 0 1247 1318" version="1.1" xmlns="http://www.w3.org/2000/svg" xmlns:xlink="http://www.w3.org/1999/xlink">
    <title>牛油果</title>
    <defs>
        <radialGradient cx="52.454354%" cy="48.8910596%" fx="52.454354%" fy="48.8910596%" r="57.5297718%" gradientTransform="translate(0.524544,0.488911),scale(0.983817,1.000000),rotate(134.999966),translate(-0.524544,-0.488911)" id="radialGradient-1">
            <stop stop-color="#95B071" offset="0%"></stop>
            <stop stop-color="#44783E" offset="85.26%"></stop>
            <stop stop-color="#75B068" offset="100%"></stop>
        </radialGradient>
        <linearGradient x1="26.2706497%" y1="17.7026306%" x2="73.7410279%" y2="78.3944659%" id="linearGradient-2">
            <stop stop-color="#F5FFF2" offset="0%"></stop>
            <stop stop-color="#FEFFFC" offset="100%"></stop>
        </linearGradient>
        <radialGradient cx="24.7126608%" cy="22.1718494%" fx="24.7126608%" fy="22.1718494%" r="109.894773%" gradientTransform="translate(0.247127,0.221718),scale(0.980080,1.000000),rotate(135.000000),translate(-0.247127,-0.221718)" id="radialGradient-3">
            <stop stop-color="#967D56" offset="0%"></stop>
            <stop stop-color="#0E1C03" offset="74.16%"></stop>
            <stop stop-color="#73540D" offset="100%"></stop>
        </radialGradient>
        <radialGradient cx="25.3401248%" cy="25.3402221%" fx="25.3401248%" fy="25.3402221%" r="107.907184%" id="radialGradient-4">
            <stop stop-color="#CC9B52" offset="0%"></stop>
            <stop stop-color="#944A12" offset="74.16%"></stop>
            <stop stop-color="#B08D3C" offset="100%"></stop>
        </radialGradient>
    </defs>
    <g id="页面-1" stroke="none" stroke-width="1" fill="none" fill-rule="evenodd">
        <g id="牛油果" transform="translate(0.000000, 0.000000)" fill-rule="nonzero">
            <g id="编组" opacity="0.3" transform="translate(111.991106, 224.756678)" fill="#54BA3D">
                <g id="椭圆形">
                    <circle cx="546.621661" cy="546.621661" r="546.621661"></circle>
                </g>
            </g>
            <path d="M1109.58475,119.717252 C855.262946,-134.886971 408.184126,59.426401 163.250552,304.358457 C-81.6830225,549.292031 -31.5487058,849.803363 184.723673,1066.07574 C293.830875,1175.17991 419.638887,1218.60596 555.021889,1225.24134 C687.9952,1231.75525 830.113795,1187.38779 1024.97834,1012.37168 C1219.84137,837.352537 1363.90655,374.321474 1109.58475,119.717252 Z" id="路径" fill="url(#radialGradient-1)"></path>
            <path d="M1056.08567,98.0315558 C806.595398,-99.2305362 408.039879,80.0962918 176.041499,312.094672 C-55.9568813,544.093052 -17.1178939,810.464824 138.367119,998.968823 C293.852132,1187.47889 569.193055,1126.88285 823.695545,933.697641 C1078.19804,740.512436 1305.56987,295.295166 1056.08567,98.0315558 Z" id="路径" fill="url(#linearGradient-2)"></path>
            <g id="编组" opacity="0.9" style="mix-blend-mode: multiply;" transform="translate(321.945437, 274.398549)" fill="url(#radialGradient-3)">
                <path d="M438.399694,45.9744038 C330.335629,-31.6777584 218.940208,-9.21160808 109.603728,100.12639 C0.267249051,209.462869 -44.7667839,328.158726 56.8942164,429.818208 C85.9577864,458.883296 219.248442,513.496874 370.331632,362.413683 C521.416341,211.330493 470.424132,78.3981787 438.399694,45.9744038 Z" id="路径" style="mix-blend-mode: multiply;"></path>
            </g>
            <path d="M759.88354,316.030348 C654.865372,211.01218 484.597279,211.01218 379.579111,316.030348 C274.560943,421.048516 274.560943,591.316608 379.579111,696.336295 C409.602306,726.35949 539.707372,766.391935 684.823276,621.276031 C829.940698,476.158608 789.908253,346.055061 759.88354,316.030348 Z" id="路径" fill="url(#radialGradient-4)"></path>
            <g id="编组" opacity="0.2" style="mix-blend-mode: soft-light;" fill="#54BA3D">
                <path d="M184.723673,1066.07574 C293.830875,1175.17991 419.638887,1218.60596 555.021889,1225.24134 C687.9952,1231.75525 830.113795,1187.38779 1024.97834,1012.37168 C1219.84137,837.352537 1363.90655,374.321474 1109.58475,119.717252 C855.262946,-134.886971 408.184126,59.426401 163.250552,304.358457 C-81.6830225,549.292031 -31.5487058,849.803363 184.723673,1066.07574 Z" id="路径"></path>
            </g>
        </g>
    </g>
</svg>