<?xml version="1.0" encoding="UTF-8"?>
<svg width="1125px" height="1296px" viewBox="0 0 1125 1296" version="1.1" xmlns="http://www.w3.org/2000/svg" xmlns:xlink="http://www.w3.org/1999/xlink">
    <title>草莓</title>
    <defs>
        <linearGradient x1="68.2020407%" y1="52.4396202%" x2="30.1608277%" y2="67.8234341%" id="linearGradient-1">
            <stop stop-color="#93BD66" offset="0%"></stop>
            <stop stop-color="#B1DB97" offset="100%"></stop>
        </linearGradient>
        <linearGradient x1="58.6089576%" y1="67.7506323%" x2="39.7056687%" y2="78.5818421%" id="linearGradient-2">
            <stop stop-color="#7CA356" offset="0%"></stop>
            <stop stop-color="#7CA356" stop-opacity="0.01" offset="100%"></stop>
        </linearGradient>
        <linearGradient x1="71.0934332%" y1="74.9478136%" x2="25.2194961%" y2="42.7824154%" id="linearGradient-3">
            <stop stop-color="#93BD66" offset="0%"></stop>
            <stop stop-color="#B1DB97" offset="100%"></stop>
        </linearGradient>
        <linearGradient x1="56.237123%" y1="85.5501658%" x2="25.133275%" y2="50.7607925%" id="linearGradient-4">
            <stop stop-color="#7CA356" offset="0%"></stop>
            <stop stop-color="#7CA356" stop-opacity="0.01" offset="100%"></stop>
        </linearGradient>
        <linearGradient x1="30.3653569%" y1="28.8677158%" x2="49.7096046%" y2="69.4849615%" id="linearGradient-5">
            <stop stop-color="#93BD66" offset="0%"></stop>
            <stop stop-color="#B1DB97" offset="100%"></stop>
        </linearGradient>
        <linearGradient x1="19.1620281%" y1="43.64107%" x2="40.8640667%" y2="63.5478211%" id="linearGradient-6">
            <stop stop-color="#7CA356" offset="0%"></stop>
            <stop stop-color="#7CA356" stop-opacity="0.01" offset="100%"></stop>
        </linearGradient>
        <linearGradient x1="31.4087549%" y1="54.7378775%" x2="69.5541974%" y2="65.930009%" id="linearGradient-7">
            <stop stop-color="#93BD66" offset="0%"></stop>
            <stop stop-color="#B1DB97" offset="100%"></stop>
        </linearGradient>
        <linearGradient x1="43.6509879%" y1="69.477609%" x2="58.7896133%" y2="76.2764246%" id="linearGradient-8">
            <stop stop-color="#7CA356" offset="0%"></stop>
            <stop stop-color="#7CA356" stop-opacity="0.01" offset="100%"></stop>
        </linearGradient>
        <linearGradient x1="22.5032156%" y1="29.500794%" x2="61.3431855%" y2="77.5808117%" id="linearGradient-9">
            <stop stop-color="#93BD66" offset="0%"></stop>
            <stop stop-color="#B1DB97" offset="100%"></stop>
        </linearGradient>
        <linearGradient x1="11.8435853%" y1="45.1174524%" x2="54.1675094%" y2="82.4355692%" id="linearGradient-10">
            <stop stop-color="#7CA356" offset="0%"></stop>
            <stop stop-color="#7CA356" stop-opacity="0.01" offset="100%"></stop>
        </linearGradient>
        <radialGradient cx="27.4959257%" cy="30.1245951%" fx="27.4959257%" fy="30.1245951%" r="73.9907957%" gradientTransform="translate(0.274959,0.301246),scale(1.000000,0.993158),rotate(127.602089),translate(-0.274959,-0.301246)" id="radialGradient-11">
            <stop stop-color="#FF9178" offset="0%"></stop>
            <stop stop-color="#E04A28" offset="79.42%"></stop>
            <stop stop-color="#FF9178" offset="100%"></stop>
        </radialGradient>
        <linearGradient x1="67.8709573%" y1="83.7453552%" x2="35.221192%" y2="15.5221117%" id="linearGradient-12">
            <stop stop-color="#FF9178" offset="0%"></stop>
            <stop stop-color="#E04A28" offset="100%"></stop>
        </linearGradient>
        <radialGradient cx="33.1189104%" cy="12.0423531%" fx="33.1189104%" fy="12.0423531%" r="135.7457%" gradientTransform="translate(0.331189,0.120424),scale(1.000000,0.740620),rotate(177.208498),translate(-0.331189,-0.120424)" id="radialGradient-13">
            <stop stop-color="#FFF1DE" offset="0%"></stop>
            <stop stop-color="#F7B68F" offset="63.64%"></stop>
            <stop stop-color="#FFECD1" offset="100%"></stop>
        </radialGradient>
        <linearGradient x1="68.0276689%" y1="77.3064798%" x2="34.1081348%" y2="18.5412904%" id="linearGradient-14">
            <stop stop-color="#FF9178" offset="0%"></stop>
            <stop stop-color="#E04A28" offset="100%"></stop>
        </linearGradient>
        <radialGradient cx="21.7264148%" cy="14.7162794%" fx="21.7264148%" fy="14.7162794%" r="153.558794%" gradientTransform="translate(0.217264,0.147163),scale(1.000000,0.625969),rotate(168.459542),translate(-0.217264,-0.147163)" id="radialGradient-15">
            <stop stop-color="#FFF1DE" offset="0%"></stop>
            <stop stop-color="#F7B68F" offset="63.64%"></stop>
            <stop stop-color="#FFECD1" offset="100%"></stop>
        </radialGradient>
        <linearGradient x1="67.4093385%" y1="90.4395497%" x2="37.7384693%" y2="12.67146%" id="linearGradient-16">
            <stop stop-color="#FF9178" offset="0%"></stop>
            <stop stop-color="#E04A28" offset="100%"></stop>
        </linearGradient>
        <radialGradient cx="42.742186%" cy="9.50643257%" fx="42.742186%" fy="9.50643257%" r="121.693072%" gradientTransform="translate(0.427422,0.095064),scale(1.000000,0.879284),rotate(-174.201700),translate(-0.427422,-0.095064)" id="radialGradient-17">
            <stop stop-color="#FFF1DE" offset="0%"></stop>
            <stop stop-color="#F7B68F" offset="63.64%"></stop>
            <stop stop-color="#FFECD1" offset="100%"></stop>
        </radialGradient>
        <linearGradient x1="68.1006318%" y1="75.8067076%" x2="33.9830243%" y2="19.2963597%" id="linearGradient-18">
            <stop stop-color="#FF9178" offset="0%"></stop>
            <stop stop-color="#E04A28" offset="100%"></stop>
        </linearGradient>
        <radialGradient cx="18.8528719%" cy="15.3830852%" fx="18.8528719%" fy="15.3830852%" r="158.144935%" gradientTransform="translate(0.188529,0.153831),scale(1.000000,0.602891),rotate(166.358752),translate(-0.188529,-0.153831)" id="radialGradient-19">
            <stop stop-color="#FFF1DE" offset="0%"></stop>
            <stop stop-color="#F7B68F" offset="63.64%"></stop>
            <stop stop-color="#FFECD1" offset="100%"></stop>
        </radialGradient>
        <linearGradient x1="66.6565287%" y1="94.8376127%" x2="40.360564%" y2="10.9118788%" id="linearGradient-20">
            <stop stop-color="#FF9178" offset="0%"></stop>
            <stop stop-color="#E04A28" offset="100%"></stop>
        </linearGradient>
        <radialGradient cx="47.95126%" cy="7.93625971%" fx="47.95126%" fy="7.93625971%" r="114.715726%" gradientTransform="translate(0.479513,0.079363),scale(1.000000,0.979156),rotate(-168.840798),translate(-0.479513,-0.079363)" id="radialGradient-21">
            <stop stop-color="#FFF1DE" offset="0%"></stop>
            <stop stop-color="#F7B68F" offset="63.64%"></stop>
            <stop stop-color="#FFECD1" offset="100%"></stop>
        </radialGradient>
    </defs>
    <g id="页面-1" stroke="none" stroke-width="1" fill="none" fill-rule="evenodd">
        <g id="草莓" transform="translate(0.000000, -0.000000)">
            <g id="编组" opacity="0.3" transform="translate(19.422406, 262.640182)" fill="#FF9494" fill-rule="nonzero">
                <g id="椭圆形">
                    <circle cx="516.679909" cy="516.679909" r="516.679909"></circle>
                </g>
            </g>
            <path d="M491.992203,37.1581995 C460.026939,45.8154584 437.350432,74.1768798 435.938174,107.263052 L428.005702,293.098463 C424.312876,379.59068 505.503382,444.891844 589.192611,422.739193 C670.140565,401.314199 709.269022,309.40402 668.607748,236.204829 L578.283488,73.6042262 C561.31773,43.0627027 525.714178,28.0258821 491.992203,37.1581995 Z" id="路径" fill="url(#linearGradient-1)" fill-rule="nonzero"></path>
            <path d="M665.32109,574.526833 C700.146751,562.156655 722.950993,528.657139 721.687997,491.720266 L714.596565,284.261801 C711.29699,187.704373 615.362448,121.998476 524.138304,153.814476 C435.902293,184.589941 400.235592,290.209361 451.751449,368.174924 L566.183132,541.36603 C587.677016,573.895335 628.580842,587.578742 665.32109,574.526833 Z" id="路径" fill="#689141" fill-rule="nonzero"></path>
            <g id="编组" opacity="0.5" transform="translate(503.750976, 111.765343)" fill="url(#linearGradient-2)" fill-rule="nonzero">
                <g transform="translate(0.000000, 0.000000)" id="路径">
                    <path d="M59.6779647,209.015681 C101.468758,191.81024 21.1637832,62.1106659 0,3.55271368e-15 C14.2503189,76.1442664 17.8871714,226.222557 59.6779647,209.015681 Z"></path>
                </g>
            </g>
            <path d="M889.838603,25.6606363 C861.118376,9.17567678 825.026849,13.1899926 800.630946,35.583761 L663.597388,161.360874 C599.818994,219.900707 611.040995,323.486418 685.876339,367.010959 C758.258888,409.10889 850.922559,371.800295 873.940649,291.291518 L925.073302,112.452814 C934.677808,78.8628795 920.139009,43.0526561 889.838603,25.6606363 Z" id="路径" fill="url(#linearGradient-3)" fill-rule="nonzero"></path>
            <path d="M632.354041,528.163423 C665.724387,544.047024 705.53888,536.489145 730.767211,509.482573 L872.470982,357.792528 C938.423737,287.191089 917.064764,172.891447 830.067349,130.871018 C745.920285,90.2284023 646.008743,139.678975 627.292013,231.23322 L585.715068,434.607043 C577.906025,472.806911 597.148046,511.408641 632.354041,528.163423 Z" id="路径" fill="#689141" fill-rule="nonzero"></path>
            <g id="编组" opacity="0.5" transform="translate(730.058941, 86.725025)" fill="url(#linearGradient-4)" fill-rule="nonzero">
                <g id="路径">
                    <path d="M9.70711237,189.980332 C51.4218389,207.369481 86.3694939,58.8799813 115.332273,0 C71.5565679,63.9118695 -32.0076142,172.591183 9.70711237,189.980332 Z"></path>
                </g>
            </g>
            <path d="M808.309384,330.264971 C724.802429,336.43212 669.43013,419.573093 695.931504,499.004018 C723.328456,581.125984 822.469284,613.177361 892.754974,562.634584 L1043.76903,454.039949 C1070.65074,434.706074 1081.91723,400.186115 1071.62669,368.713132 C1060.76206,335.509272 1028.6504,313.993859 993.808953,316.567212 L808.309384,330.264971 Z" id="路径" fill="url(#linearGradient-5)" fill-rule="nonzero"></path>
            <path d="M835.818283,598.495756 C929.267021,598.784955 997.999801,511.016826 975.316118,420.363901 C951.864591,326.6396 844.29614,282.484996 761.759395,332.703413 L584.424803,440.60053 C552.851355,459.810976 537.355264,497.255918 546.121599,533.15943 C555.368735,571.036373 589.25002,597.727196 628.23926,597.847755 L835.818283,598.495756 Z" id="路径" fill="#689141" fill-rule="nonzero"></path>
            <g id="编组" opacity="0.5" transform="translate(794.962918, 399.815828)" fill="url(#linearGradient-6)" fill-rule="nonzero">
                <g id="路径">
                    <path d="M0.344789634,64.7873549 C8.88866602,109.167289 136.35647,29.865534 207.83483,0 C144.294683,16.384494 -8.19908675,20.4074212 0.344789634,64.7873549 Z"></path>
                </g>
            </g>
            <path d="M538.504876,212.385885 C503.080728,288.257459 548.562912,377.195294 630.814048,392.886576 C715.852385,409.11176 792.259297,338.27351 782.506963,252.253481 L761.551287,67.4327717 C757.821145,34.5274376 733.209959,7.82800335 700.716534,1.4355247 C666.436257,-5.30858333 631.975142,12.1896429 617.195227,43.8463339 L538.504876,212.385885 Z" id="路径" fill="url(#linearGradient-7)" fill-rule="nonzero"></path>
            <g id="编组" opacity="0.5" transform="translate(635.788317, 76.684213)" fill="url(#linearGradient-8)" fill-rule="nonzero">
                <g transform="translate(0.000000, -0.000000)" id="路径">
                    <path d="M13.5716696,212.688414 C56.4661485,226.920075 49.5627309,76.956602 58.4338379,1.77635684e-15 C41.6804918,63.4425519 -29.3242447,198.456753 13.5716696,212.688414 Z"></path>
                </g>
            </g>
            <g id="编组" opacity="0.8" transform="translate(515.971241, 168.040068)" fill="#FF8E61" fill-opacity="0.7" fill-rule="nonzero">
                <g id="路径">
                    <path d="M268.184792,213.858449 C314.100413,132.468446 271.109775,29.6118283 180.931908,5.10541313 C87.6998886,-20.2305603 -3.38647364,52.0457829 0.0968100827,148.59747 L7.58292787,356.041583 C8.91624908,392.975586 34.0139757,424.793021 69.6218327,434.688877 C107.187333,445.128681 147.03053,428.609277 166.189308,394.651925 L268.184792,213.858449 Z"></path>
                </g>
            </g>
            <path d="M743.435916,223.3151 C665.702859,254.4465 638.06766,350.439886 687.348876,418.137871 C738.297821,488.129341 842.489195,488.697689 894.198807,419.265956 L1005.30078,270.088984 C1025.08244,243.528766 1025.38384,207.217651 1006.04853,180.333073 C985.649716,151.970216 948.539182,141.171606 916.107471,154.160365 L743.435916,223.3151 Z" id="路径" fill="url(#linearGradient-9)" fill-rule="nonzero"></path>
            <g id="编组" opacity="0.5" transform="translate(769.487519, 230.794042)" fill="url(#linearGradient-10)" fill-rule="nonzero">
                <g id="路径">
                    <path d="M2.18064778,124.499765 C23.7462931,164.218098 121.26245,50.0820706 180.36202,0 C124.75291,34.831402 -19.3835623,84.7828674 2.18064778,124.499765 Z"></path>
                </g>
            </g>
            <g id="编组" opacity="0.8" transform="translate(503.590634, 227.630402)" fill="#FF8B61" fill-opacity="0.7" fill-rule="nonzero">
                <g id="路径">
                    <path d="M308.250831,280.105506 C397.411125,252.122983 436.383143,147.67901 387.347349,68.1289621 C336.651003,-14.1149976 220.765441,-23.6707055 157.281267,49.1567629 L20.8792064,205.630403 C-3.40618451,233.489497 -6.85215246,273.866596 12.3597288,305.438609 C32.6279335,338.745805 72.9949866,353.939065 110.19594,342.26497 L308.250831,280.105506 Z"></path>
                </g>
            </g>
            <path d="M739.572298,276.992402 C492.448603,134.315551 226.684246,131.980445 84.0073945,379.104139 C-58.6694567,626.229269 -24.2313055,1029.23099 222.892389,1171.91071 C470.017519,1314.58612 836.24598,1142.90487 978.922831,895.784048 C1121.60112,648.660353 986.695993,419.669253 739.572298,276.992402 Z" id="路径" fill="url(#radialGradient-11)" fill-rule="nonzero"></path>
            <path d="M651.652036,491.286829 C625.13918,475.980187 598.14122,473.105437 571.563779,519.140182 C544.984904,565.174927 528.890324,642.68696 555.40318,657.995037 C581.916035,673.301679 640.996948,620.607505 667.574388,574.57276 C694.153264,528.538016 678.164891,506.594907 651.652036,491.286829 Z" id="路径" fill="url(#linearGradient-12)" fill-rule="nonzero"></path>
            <path d="M634.519791,520.961479 C621.208107,513.275865 607.233351,512.559689 591.862124,539.183057 C576.490896,565.806424 565.544458,609.688336 578.856142,617.37395 C592.167826,625.059563 624.697132,593.638249 640.068359,567.014881 C655.439586,540.391514 647.831475,528.647092 634.519791,520.961479 Z" id="路径" fill="url(#radialGradient-13)" fill-rule="nonzero"></path>
            <path d="M293.960276,427.528529 C265.428063,416.431392 238.306673,417.697258 219.040253,467.239685 C199.773834,516.780677 195.656182,595.839879 224.188395,606.93558 C252.720607,618.032717 303.099769,556.964022 322.366189,507.42303 C341.632608,457.880603 322.492488,438.62423 293.960276,427.528529 Z" id="路径" fill="url(#linearGradient-14)" fill-rule="nonzero"></path>
            <path d="M281.5413,459.463653 C267.214914,453.892121 253.293261,455.308685 242.151633,483.961456 C231.008569,512.612793 226.863648,557.648623 241.190034,563.220154 C255.514985,568.791686 282.887538,532.787708 294.029166,504.136372 C305.17223,475.485035 295.86625,465.035184 281.5413,459.463653 Z" id="路径" fill="url(#radialGradient-15)" fill-rule="nonzero"></path>
            <path d="M836.947803,727.805669 C813.018347,708.710041 786.75235,701.835327 753.597287,743.383568 C720.440789,784.933244 692.950548,859.171536 716.878568,878.267164 C740.808024,897.362792 807.096621,854.083674 840.251684,812.533998 C873.408182,770.985757 860.875824,746.901297 836.947803,727.805669 Z" id="路径" fill="url(#linearGradient-16)" fill-rule="nonzero"></path>
            <path d="M815.574478,754.588346 C803.560234,744.999628 789.849559,742.205251 770.674993,766.233737 C751.498993,790.262223 734.121325,832.017136 746.135568,841.604419 C758.149811,851.191702 795.007747,824.981678 814.182312,800.953192 C833.358313,776.924706 827.590156,764.175629 815.574478,754.588346 Z" id="路径" fill="url(#radialGradient-17)" fill-rule="nonzero"></path>
            <path d="M309.836701,743.81557 C280.916978,733.773322 253.861609,736.030926 236.423662,786.246472 C218.985715,836.460583 217.768647,915.617381 246.689805,925.659629 C275.609527,935.703312 323.715297,872.830543 341.153244,822.614997 C358.589756,772.400886 338.757859,753.859253 309.836701,743.81557 Z" id="路径" fill="url(#linearGradient-18)" fill-rule="nonzero"></path>
            <path d="M298.597478,776.184131 C284.075902,771.142196 270.215963,773.069699 260.132094,802.109981 C250.046789,831.150262 247.555244,876.308086 262.076819,881.351456 C276.59696,886.393391 302.630451,849.410591 312.714321,820.37031 C322.799626,791.328593 313.117618,781.227501 298.597478,776.184131 Z" id="路径" fill="url(#radialGradient-19)" fill-rule="nonzero"></path>
            <path d="M608.156199,898.404764 C586.115495,877.157738 560.60873,867.858934 523.714914,906.129128 C486.822533,944.397887 452.516423,1015.74277 474.555691,1036.99123 C496.596395,1058.23826 566.638097,1021.34157 603.530478,983.072813 C640.424294,944.804055 630.196902,919.653225 608.156199,898.404764 Z" id="路径" fill="url(#linearGradient-20)" fill-rule="nonzero"></path>
            <path d="M584.376006,923.073359 C573.309009,912.405354 559.919823,908.340805 538.583814,930.473363 C517.246369,952.605921 496.043834,992.55389 507.110831,1003.22189 C518.176392,1013.8899 557.320636,991.239226 578.658081,969.106668 C599.994091,946.97411 595.441567,933.741364 584.376006,923.073359 Z" id="路径" fill="url(#radialGradient-21)" fill-rule="nonzero"></path>
            <g id="编组" opacity="0.3" style="mix-blend-mode: soft-light;" transform="translate(5.069695, 4.299810)" fill="#FA6336">
                <path d="M772.5977,209.168232 L756.748544,69.4048815 C752.896408,35.4633172 727.652289,7.91279626 694.203006,1.36387842 C661.314894,-5.07596256 628.2115,11.7434037 613.995626,42.2260831 L561.976006,153.973901 L516.618686,71.9308722 C500.304518,42.523174 466.070168,27.9370132 433.612623,36.852612 C400.704419,45.7395065 377.448082,74.9993768 375.981285,109.128955 L372.937179,181.253165 C257.391764,193.006198 154.88247,253.985909 83.4486025,378.112516 C-58.2881783,624.398041 -24.0610048,1026.12528 221.433713,1168.31416 C466.928431,1310.51595 830.827526,1139.38008 972.564307,893.100298 C1045.06024,767.125125 1045.409,645.863221 995.595314,538.421069 L1082.21527,485.033682 C1111.23545,467.149381 1125.40109,432.533262 1117.13422,399.363847 C1109.02521,366.749863 1079.80409,343.797794 1046.25865,343.797794 L943.479533,343.869555 L997.552956,270.971761 C1017.88001,243.566197 1018.24025,206.144219 998.299272,178.418601 C978.692705,151.155125 943.076236,140.716756 911.924743,153.203187 L772.5977,209.168232 Z" id="路径"></path>
            </g>
        </g>
    </g>
</svg>