<svg xmlns="http://www.w3.org/2000/svg" xmlns:xlink="http://www.w3.org/1999/xlink" width="128" height="128" viewBox="0 0 128 128" fill="none">
<g opacity="0.3">
<g filter="url(#filter_htq-UD68kB9NAr4wVM0Sn)">
<circle cx="64" cy="75" r="27"   fill="#FF9524" >
</circle>
</g>
</g>
<g filter="url(#filter_4doz1OYY651rIesfvQDzN)">
<path     fill="url(#linear_fill_4doz1OYY651rIesfvQDzN_0)"  d="M75.6611 46.8756C77.474 47.3503 79.3856 46.5962 80.3861 45.0116L86.006 36.1115C88.6217 31.9691 86.4736 26.4781 81.7415 25.2102C77.1644 23.9838 72.6566 27.3946 72.5927 32.1327L72.4505 42.6577C72.4238 44.6345 73.7485 46.3749 75.6611 46.8756Z">
</path>
</g>
<g mask="url(#mask-4doz1OYY651rIesfvQDzN)">
<g filter="url(#filter_58ihFaTK89LJZ0lYJQOX-)">
<path     fill="#689141"  d="M75.4303 56.2597C77.2432 56.7344 79.1548 55.9803 80.1554 54.3957L85.7752 45.4956C88.3909 41.3533 86.2429 35.8623 81.5107 34.5943C76.9337 33.3679 72.4258 36.7788 72.3619 41.5169L72.2197 52.0418C72.1931 54.0187 73.5177 55.759 75.4303 56.2597Z">
</path>
</g>
</g>
<g filter="url(#filter_WMtYpsdNgiRFxLZfhZ5io)">
<path     fill="url(#linear_fill_WMtYpsdNgiRFxLZfhZ5io_0)"  d="M82.2993 48.8575C82.2052 50.7292 83.3341 52.4463 85.0898 53.1018L94.9506 56.7839C99.5402 58.4977 104.476 55.2727 104.75 50.3813C105.015 45.6501 100.755 41.9347 96.1038 42.8405L85.772 44.8526C83.8314 45.2305 82.3986 46.883 82.2993 48.8575Z">
</path>
</g>
<g mask="url(#mask-WMtYpsdNgiRFxLZfhZ5io)">
<g filter="url(#filter_eVS0zRT_tdcCFP3LbNKfI)">
<path     fill="#689141"  d="M74.9901 47.821C74.896 49.6927 76.0249 51.4098 77.7805 52.0653L87.6414 55.7474C92.2309 57.4612 97.1669 54.2362 97.4409 49.3448C97.7059 44.6136 93.4457 40.8982 88.7945 41.804L78.4627 43.8161C76.5221 44.194 75.0893 45.8465 74.9901 47.821Z">
</path>
</g>
</g>
<g opacity="0.5">
<g filter="url(#filter_-eMsMEiFsjgUYXuectluK)">
<path d="M98.9777 49.7398C98.7462 47.1785 90.3773 49.181 86.6593 49.2079C91.0214 49.8055 99.2092 52.3011 98.9777 49.7398Z"   fill="url(#linear_fill_-eMsMEiFsjgUYXuectluK)" >
</path>
</g>
</g>
<g opacity="0.5">
<g filter="url(#filter_u1VO2Oky4yhnavrwJDFWf)">
<path d="M80.0868 30.5779C77.5315 30.8675 79.7236 39.1888 79.8349 42.9052C80.3332 38.5306 82.6422 30.2882 80.0868 30.5779Z"   fill="url(#linear_fill_u1VO2Oky4yhnavrwJDFWf)" >
</path>
</g>
</g>
<g filter="url(#filter_hrVzEktWV_aIDw98PzIVM)">
<path     fill="url(#linear_fill_hrVzEktWV_aIDw98PzIVM_0)"  d="M80.5772 49.6736C82.2181 51.2958 84.7206 51.6685 86.763 50.5948L98.2345 44.5645C103.574 41.7578 104.664 34.5804 100.398 30.3152C96.273 26.1897 89.3665 27.0516 86.3814 32.0644L79.7505 43.1995C78.505 45.291 78.8461 47.9622 80.5772 49.6736Z">
</path>
</g>
<g mask="url(#mask-hrVzEktWV_aIDw98PzIVM)" opacity="0.8">
<g filter="url(#filter_ph4PcQ0t8SKFnmKTyTwSy)">
<path     fill="#FFB361" fill-opacity="0.7" d="M68.3884 61.7552C70.2196 63.5655 73.0124 63.9815 75.2917 62.7833L88.0939 56.0534C94.0524 52.9212 95.2688 44.9112 90.5088 40.1513C85.9048 35.5472 78.1972 36.5091 74.8659 42.1033L67.4658 54.5302C66.0758 56.8642 66.4565 59.8453 68.3884 61.7552Z">
</path>
</g>
</g>
<g opacity="0.5">
<g filter="url(#filter_LdQ0sdp1K12bB-APeTnqI)">
<path d="M95.1593 35.4378C92.6593 33.5231 87.6593 42.9024 84.6593 46.3524C88.7468 42.8274 97.6593 37.3524 95.1593 35.4378Z"   fill="url(#linear_fill_LdQ0sdp1K12bB-APeTnqI)" >
</path>
</g>
</g>
<g filter="url(#filter_QlJQS2JRUMGbP_mWr5qJ7)">
<path d="M87.7677 42.086C78.6204 32.9387 65.9351 30.7933 51.631 45.0974C37.3269 59.4015 22.2699 84.9983 33.5627 96.2911C44.8554 107.584 70.4522 92.5268 84.7563 78.2227C99.0605 63.9186 96.915 51.2333 87.7677 42.086Z"   fill="url(#linear_fill_QlJQS2JRUMGbP_mWr5qJ7)" >
</path>
</g>
<g opacity="0.6">
<g filter="url(#filter_yw7KDS7HALf8YMMDVENGX)">
<path d="M48.721 82.5351C47.6593 83.5969 49.8754 85.8129 52.6091 88.5466C55.3427 91.2803 57.5588 93.4964 58.6205 92.4346C59.6822 91.3729 57.4662 89.1569 54.7325 86.4232C51.9988 83.6895 49.7827 81.4734 48.721 82.5351Z"   fill="url(#linear_fill_yw7KDS7HALf8YMMDVENGX)" >
</path>
</g>
</g>
<g opacity="0.3">
<g filter="url(#filter_Uwnsbdp4cOTx54AGDX6X2)">
<path d="M47.721 57.2444C46.6593 58.3061 48.8754 60.5221 51.6091 63.2558C54.3427 65.9895 56.5588 68.2056 57.6205 67.1438C58.6822 66.0821 56.4662 63.8661 53.7325 61.1324C50.9988 58.3987 48.7827 56.1826 47.721 57.2444Z"   fill="url(#linear_fill_Uwnsbdp4cOTx54AGDX6X2)" >
</path>
</g>
</g>
<g opacity="0.3">
<g filter="url(#filter_QgSyoBxPqC8DaryziOSYX)">
<path d="M71.721 43.2444C70.6593 44.3061 72.8754 46.5221 75.6091 49.2558C78.3427 51.9895 80.5588 54.2056 81.6205 53.1438C82.6822 52.0821 80.4662 49.8661 77.7325 47.1324C74.9988 44.3987 72.7827 42.1826 71.721 43.2444Z"   fill="url(#linear_fill_QgSyoBxPqC8DaryziOSYX)" >
</path>
</g>
</g>
<g opacity="0.6">
<g filter="url(#filter_U6dZ3Bozx3YcantW92y0f)">
<path d="M74.721 64.2443C73.6593 65.3061 75.8754 67.5221 78.6091 70.2558C81.3427 72.9895 83.5588 75.2056 84.6205 74.1438C85.6822 73.0821 83.4662 70.8661 80.7325 68.1324C77.9988 65.3987 75.7827 63.1826 74.721 64.2443Z"   fill="url(#linear_fill_U6dZ3Bozx3YcantW92y0f)" >
</path>
</g>
</g>
<g style="mix-blend-mode:soft-light" opacity="0.2">
<path d="M72.8711 34.7505L72.903 32.3506C72.9322 30.0462 74.0265 27.8927 75.8657 26.5063C77.705 25.1199 80.071 24.6591 82.2981 25.2552C84.4674 25.8358 86.2253 27.4108 87.04 29.4972C87.2313 29.9873 87.3659 30.4917 87.444 31.0013C88.9179 29.295 90.9889 28.1774 93.2636 27.892C96.0725 27.5395 98.8887 28.5054 100.893 30.5076C102.848 32.4606 103.752 35.2243 103.335 37.9528C103.023 40.0294 101.963 41.9008 100.393 43.241C101.134 43.5478 101.83 43.9758 102.449 44.5167C104.183 46.0318 105.119 48.2511 104.99 50.5507C104.864 52.7906 103.68 54.8315 101.802 56.0546C99.9238 57.2777 97.5795 57.5459 95.4742 56.759L95.3036 56.6954C95.67 63.1437 92.7447 70.3595 85.052 78.044C70.7738 92.3068 45.2171 107.317 33.9456 96.0575C22.6742 84.7982 37.7075 59.276 51.9856 45.0133C59.4862 37.5207 66.5408 34.5557 72.8711 34.7505Z" fill-rule="evenodd"  fill="#FF9524" >
</path>
</g>
<defs>
<filter id="filter_htq-UD68kB9NAr4wVM0Sn" x="13" y="24" width="102" height="102" filterUnits="userSpaceOnUse" color-interpolation-filters="sRGB">
<feFlood flood-opacity="0" result="feFloodId_htq-UD68kB9NAr4wVM0Sn"/>
<feBlend mode="normal" in="SourceGraphic" in2="feFloodId_htq-UD68kB9NAr4wVM0Sn" result="shape"/>
<feGaussianBlur result="gaussian_blur_htq-UD68kB9NAr4wVM0Sn" stdDeviation="12"/>
</filter>
<linearGradient id="linear_fill_4doz1OYY651rIesfvQDzN_0" x1="72.86076354980469" y1="32.01422119140625" x2="85.7623519897461" y2="35.47119140625" gradientUnits="userSpaceOnUse">
<stop offset="0" stop-color="#93BD66"  />
<stop offset="1" stop-color="#B1DB97"  />
</linearGradient>
<filter id="filter_4doz1OYY651rIesfvQDzN" x="72.45013427734375" y="24.958648681640625" width="14.683021545410156" height="22.0574951171875" filterUnits="userSpaceOnUse" color-interpolation-filters="sRGB">
<feFlood flood-opacity="0" result="feFloodId_4doz1OYY651rIesfvQDzN"/>
<feBlend mode="normal" in="SourceGraphic" in2="feFloodId_4doz1OYY651rIesfvQDzN" result="shape_4doz1OYY651rIesfvQDzN"/>
<feColorMatrix in="SourceAlpha" type="matrix" values="0 0 0 0 0 0 0 0 0 0 0 0 0 0 0 0 0 0 127 0" result="hardAlpha_4doz1OYY651rIesfvQDzN"/>
<feOffset dx="0" dy="0"/>
<feGaussianBlur stdDeviation="4"/>
<feComposite in2="hardAlpha_4doz1OYY651rIesfvQDzN" operator="arithmetic" k2="-1" k3="1"/>
<feColorMatrix type="matrix" values="0 0 0 0 0.5098039215686274 0 0 0 0 0.7019607843137254 0 0 0 0 0.37254901960784315 0 0 0 0.6 0"/>
<feBlend mode="normal" in2="shape_4doz1OYY651rIesfvQDzN" result="innerShadow_0_4doz1OYY651rIesfvQDzN" />
</filter>
<mask id="mask-4doz1OYY651rIesfvQDzN" style="mask-type:alpha" maskUnits="userSpaceOnUse">
<path     fill="url(#linear_fill_4doz1OYY651rIesfvQDzN_0)"  d="M75.6611 46.8756C77.474 47.3503 79.3856 46.5962 80.3861 45.0116L86.006 36.1115C88.6217 31.9691 86.4736 26.4781 81.7415 25.2102C77.1644 23.9838 72.6566 27.3946 72.5927 32.1327L72.4505 42.6577C72.4238 44.6345 73.7485 46.3749 75.6611 46.8756Z">
</path>
</mask>
<filter id="filter_58ihFaTK89LJZ0lYJQOX-" x="64.21935272216797" y="26.3427734375" width="30.683021545410156" height="38.0574951171875" filterUnits="userSpaceOnUse" color-interpolation-filters="sRGB">
<feFlood flood-opacity="0" result="feFloodId_58ihFaTK89LJZ0lYJQOX-"/>
<feBlend mode="normal" in="SourceGraphic" in2="feFloodId_58ihFaTK89LJZ0lYJQOX-" result="shape"/>
<feGaussianBlur result="gaussian_blur_58ihFaTK89LJZ0lYJQOX-" stdDeviation="4"/>
</filter>
<linearGradient id="linear_fill_WMtYpsdNgiRFxLZfhZ5io_0" x1="96.27458953857422" y1="43.078704833984375" x2="95.52762603759766" y2="56.414520263671875" gradientUnits="userSpaceOnUse">
<stop offset="0" stop-color="#93BD66"  />
<stop offset="1" stop-color="#B1DB97"  />
</linearGradient>
<filter id="filter_WMtYpsdNgiRFxLZfhZ5io" x="82.29386138916016" y="42.703704833984375" width="22.468048095703125" height="14.54498291015625" filterUnits="userSpaceOnUse" color-interpolation-filters="sRGB">
<feFlood flood-opacity="0" result="feFloodId_WMtYpsdNgiRFxLZfhZ5io"/>
<feBlend mode="normal" in="SourceGraphic" in2="feFloodId_WMtYpsdNgiRFxLZfhZ5io" result="shape_WMtYpsdNgiRFxLZfhZ5io"/>
<feColorMatrix in="SourceAlpha" type="matrix" values="0 0 0 0 0 0 0 0 0 0 0 0 0 0 0 0 0 0 127 0" result="hardAlpha_WMtYpsdNgiRFxLZfhZ5io"/>
<feOffset dx="0" dy="0"/>
<feGaussianBlur stdDeviation="4"/>
<feComposite in2="hardAlpha_WMtYpsdNgiRFxLZfhZ5io" operator="arithmetic" k2="-1" k3="1"/>
<feColorMatrix type="matrix" values="0 0 0 0 0.5098039215686274 0 0 0 0 0.7019607843137254 0 0 0 0 0.37254901960784315 0 0 0 0.6 0"/>
<feBlend mode="normal" in2="shape_WMtYpsdNgiRFxLZfhZ5io" result="innerShadow_0_WMtYpsdNgiRFxLZfhZ5io" />
</filter>
<mask id="mask-WMtYpsdNgiRFxLZfhZ5io" style="mask-type:alpha" maskUnits="userSpaceOnUse">
<path     fill="url(#linear_fill_WMtYpsdNgiRFxLZfhZ5io_0)"  d="M82.2993 48.8575C82.2052 50.7292 83.3341 52.4463 85.0898 53.1018L94.9506 56.7839C99.5402 58.4977 104.476 55.2727 104.75 50.3813C105.015 45.6501 100.755 41.9347 96.1038 42.8405L85.772 44.8526C83.8314 45.2305 82.3986 46.883 82.2993 48.8575Z">
</path>
</mask>
<filter id="filter_eVS0zRT_tdcCFP3LbNKfI" x="66.9845962524414" y="33.667205810546875" width="38.468048095703125" height="30.54498291015625" filterUnits="userSpaceOnUse" color-interpolation-filters="sRGB">
<feFlood flood-opacity="0" result="feFloodId_eVS0zRT_tdcCFP3LbNKfI"/>
<feBlend mode="normal" in="SourceGraphic" in2="feFloodId_eVS0zRT_tdcCFP3LbNKfI" result="shape"/>
<feGaussianBlur result="gaussian_blur_eVS0zRT_tdcCFP3LbNKfI" stdDeviation="4"/>
</filter>
<linearGradient id="linear_fill_-eMsMEiFsjgUYXuectluK" x1="95.86930084228516" y1="46.965362548828125" x2="95.14398956298828" y2="53.676910400390625" gradientUnits="userSpaceOnUse">
<stop offset="0" stop-color="#7CA356"  />
<stop offset="1" stop-color="#7CA356" stop-opacity="0.01" />
</linearGradient>
<filter id="filter_-eMsMEiFsjgUYXuectluK" x="86.6593246459961" y="47.37852783203124" width="12.749896240234378" height="5.12255859375" filterUnits="userSpaceOnUse" color-interpolation-filters="sRGB">
<feFlood flood-opacity="0" result="feFloodId_-eMsMEiFsjgUYXuectluK"/>
<feColorMatrix in="SourceAlpha" type="matrix" values="0 0 0 0 0 0 0 0 0 0 0 0 0 0 0 0 0 0 127 0" result="hardAlpha_-eMsMEiFsjgUYXuectluK"/>
<feOffset dx="0.2" dy="0.2"/>
<feComposite in2="hardAlpha_-eMsMEiFsjgUYXuectluK" operator="out"/>
<feColorMatrix type="matrix" values="0 0 0 0 0.7450980392156863 0 0 0 0 1 0 0 0 0 0.43137254901960786 0 0 0 0.3 0"/>
<feBlend mode="normal" in2="feFloodId_-eMsMEiFsjgUYXuectluK" result="dropShadow_1_-eMsMEiFsjgUYXuectluK"/>
<feBlend mode="normal" in="SourceGraphic" in2="dropShadow_1_-eMsMEiFsjgUYXuectluK" result="shape_-eMsMEiFsjgUYXuectluK"/>
</filter>
<linearGradient id="linear_fill_u1VO2Oky4yhnavrwJDFWf" x1="77.38372039794922" y1="33.748504638671875" x2="84.11001586914062" y2="34.321136474609375" gradientUnits="userSpaceOnUse">
<stop offset="0" stop-color="#7CA356"  />
<stop offset="1" stop-color="#7CA356" stop-opacity="0.01" />
</linearGradient>
<filter id="filter_u1VO2Oky4yhnavrwJDFWf" x="77.73145599365235" y="30.488238525390614" width="5.110725402832031" height="12.616912841796875" filterUnits="userSpaceOnUse" color-interpolation-filters="sRGB">
<feFlood flood-opacity="0" result="feFloodId_u1VO2Oky4yhnavrwJDFWf"/>
<feColorMatrix in="SourceAlpha" type="matrix" values="0 0 0 0 0 0 0 0 0 0 0 0 0 0 0 0 0 0 127 0" result="hardAlpha_u1VO2Oky4yhnavrwJDFWf"/>
<feOffset dx="0.2" dy="0.2"/>
<feComposite in2="hardAlpha_u1VO2Oky4yhnavrwJDFWf" operator="out"/>
<feColorMatrix type="matrix" values="0 0 0 0 0.7450980392156863 0 0 0 0 1 0 0 0 0 0.43137254901960786 0 0 0 0.3 0"/>
<feBlend mode="normal" in2="feFloodId_u1VO2Oky4yhnavrwJDFWf" result="dropShadow_1_u1VO2Oky4yhnavrwJDFWf"/>
<feBlend mode="normal" in="SourceGraphic" in2="dropShadow_1_u1VO2Oky4yhnavrwJDFWf" result="shape_u1VO2Oky4yhnavrwJDFWf"/>
</filter>
<linearGradient id="linear_fill_hrVzEktWV_aIDw98PzIVM_0" x1="86.7402572631836" y1="32.103057861328125" x2="98.36891174316406" y2="43.731719970703125" gradientUnits="userSpaceOnUse">
<stop offset="0" stop-color="#93BD66"  />
<stop offset="1" stop-color="#B1DB97"  />
</linearGradient>
<filter id="filter_hrVzEktWV_aIDw98PzIVM" x="79.00487518310547" y="27.693267822265625" width="24.015960693359375" height="23.509765625" filterUnits="userSpaceOnUse" color-interpolation-filters="sRGB">
<feFlood flood-opacity="0" result="feFloodId_hrVzEktWV_aIDw98PzIVM"/>
<feBlend mode="normal" in="SourceGraphic" in2="feFloodId_hrVzEktWV_aIDw98PzIVM" result="shape_hrVzEktWV_aIDw98PzIVM"/>
<feColorMatrix in="SourceAlpha" type="matrix" values="0 0 0 0 0 0 0 0 0 0 0 0 0 0 0 0 0 0 127 0" result="hardAlpha_hrVzEktWV_aIDw98PzIVM"/>
<feOffset dx="0" dy="0"/>
<feGaussianBlur stdDeviation="4"/>
<feComposite in2="hardAlpha_hrVzEktWV_aIDw98PzIVM" operator="arithmetic" k2="-1" k3="1"/>
<feColorMatrix type="matrix" values="0 0 0 0 0.5098039215686274 0 0 0 0 0.7019607843137254 0 0 0 0 0.37254901960784315 0 0 0 0.6 0"/>
<feBlend mode="normal" in2="shape_hrVzEktWV_aIDw98PzIVM" result="innerShadow_0_hrVzEktWV_aIDw98PzIVM" />
</filter>
<mask id="mask-hrVzEktWV_aIDw98PzIVM" style="mask-type:alpha" maskUnits="userSpaceOnUse">
<path     fill="url(#linear_fill_hrVzEktWV_aIDw98PzIVM_0)"  d="M80.5772 49.6736C82.2181 51.2958 84.7206 51.6685 86.763 50.5948L98.2345 44.5645C103.574 41.7578 104.664 34.5804 100.398 30.3152C96.273 26.1897 89.3665 27.0516 86.3814 32.0644L79.7505 43.1995C78.505 45.291 78.8461 47.9622 80.5772 49.6736Z">
</path>
</mask>
<filter id="filter_ph4PcQ0t8SKFnmKTyTwSy" x="58.63365936279297" y="29.2252197265625" width="42.8017578125" height="42.23681640625" filterUnits="userSpaceOnUse" color-interpolation-filters="sRGB">
<feFlood flood-opacity="0" result="feFloodId_ph4PcQ0t8SKFnmKTyTwSy"/>
<feBlend mode="normal" in="SourceGraphic" in2="feFloodId_ph4PcQ0t8SKFnmKTyTwSy" result="shape"/>
<feGaussianBlur result="gaussian_blur_ph4PcQ0t8SKFnmKTyTwSy" stdDeviation="4"/>
</filter>
<linearGradient id="linear_fill_LdQ0sdp1K12bB-APeTnqI" x1="90.12684631347656" y1="35.998260498046875" x2="95.59436798095703" y2="42.243408203125" gradientUnits="userSpaceOnUse">
<stop offset="0" stop-color="#7CA356"  />
<stop offset="1" stop-color="#7CA356" stop-opacity="0.01" />
</linearGradient>
<filter id="filter_LdQ0sdp1K12bB-APeTnqI" x="84.6593246459961" y="33.72307128906249" width="13.200000000000003" height="12.829345703125" filterUnits="userSpaceOnUse" color-interpolation-filters="sRGB">
<feFlood flood-opacity="0" result="feFloodId_LdQ0sdp1K12bB-APeTnqI"/>
<feColorMatrix in="SourceAlpha" type="matrix" values="0 0 0 0 0 0 0 0 0 0 0 0 0 0 0 0 0 0 127 0" result="hardAlpha_LdQ0sdp1K12bB-APeTnqI"/>
<feOffset dx="0.2" dy="0.2"/>
<feComposite in2="hardAlpha_LdQ0sdp1K12bB-APeTnqI" operator="out"/>
<feColorMatrix type="matrix" values="0 0 0 0 0.7450980392156863 0 0 0 0 1 0 0 0 0 0.43137254901960786 0 0 0 0.3 0"/>
<feBlend mode="normal" in2="feFloodId_LdQ0sdp1K12bB-APeTnqI" result="dropShadow_1_LdQ0sdp1K12bB-APeTnqI"/>
<feBlend mode="normal" in="SourceGraphic" in2="dropShadow_1_LdQ0sdp1K12bB-APeTnqI" result="shape_LdQ0sdp1K12bB-APeTnqI"/>
</filter>
<linearGradient id="linear_fill_QlJQS2JRUMGbP_mWr5qJ7" x1="44.1025390625" y1="52.6258544921875" x2="77.22786712646484" y2="85.75119018554688" gradientUnits="userSpaceOnUse">
<stop offset="0" stop-color="#FFC875"  />
<stop offset="0.7014" stop-color="#F26C0C"  />
<stop offset="1" stop-color="#FF9E59"  />
</linearGradient>
<filter id="filter_QlJQS2JRUMGbP_mWr5qJ7" x="29.60886001586914" y="34.79437255859375" width="65.45047378540039" height="65.45046997070312" filterUnits="userSpaceOnUse" color-interpolation-filters="sRGB">
<feFlood flood-opacity="0" result="feFloodId_QlJQS2JRUMGbP_mWr5qJ7"/>
<feBlend mode="normal" in="SourceGraphic" in2="feFloodId_QlJQS2JRUMGbP_mWr5qJ7" result="shape_QlJQS2JRUMGbP_mWr5qJ7"/>
<feColorMatrix in="SourceAlpha" type="matrix" values="0 0 0 0 0 0 0 0 0 0 0 0 0 0 0 0 0 0 127 0" result="hardAlpha_QlJQS2JRUMGbP_mWr5qJ7"/>
<feOffset dx="0" dy="0"/>
<feGaussianBlur stdDeviation="8"/>
<feComposite in2="hardAlpha_QlJQS2JRUMGbP_mWr5qJ7" operator="arithmetic" k2="-1" k3="1"/>
<feColorMatrix type="matrix" values="0 0 0 0 1 0 0 0 0 0.8666666666666667 0 0 0 0 0.6196078431372549 0 0 0 0.7 0"/>
<feBlend mode="screen" in2="shape_QlJQS2JRUMGbP_mWr5qJ7" result="innerShadow_0_QlJQS2JRUMGbP_mWr5qJ7" />
</filter>
<linearGradient id="linear_fill_yw7KDS7HALf8YMMDVENGX" x1="50.648277282714844" y1="88.21981811523438" x2="56.774986267089844" y2="86.42315673828125" gradientUnits="userSpaceOnUse">
<stop offset="0" stop-color="#F26C0C"  />
<stop offset="1" stop-color="#F26C0C" stop-opacity="0.01" />
</linearGradient>
<filter id="filter_yw7KDS7HALf8YMMDVENGX" x="47.8593246459961" y="81.67344970703124" width="12.022918701171875" height="12.022918701171875" filterUnits="userSpaceOnUse" color-interpolation-filters="sRGB">
<feFlood flood-opacity="0" result="feFloodId_yw7KDS7HALf8YMMDVENGX"/>
<feColorMatrix in="SourceAlpha" type="matrix" values="0 0 0 0 0 0 0 0 0 0 0 0 0 0 0 0 0 0 127 0" result="hardAlpha_yw7KDS7HALf8YMMDVENGX"/>
<feOffset dx="0.2" dy="0.2"/>
<feComposite in2="hardAlpha_yw7KDS7HALf8YMMDVENGX" operator="out"/>
<feColorMatrix type="matrix" values="0 0 0 0 1 0 0 0 0 0.7803921568627451 0 0 0 0 0.43137254901960786 0 0 0 0.2 0"/>
<feBlend mode="normal" in2="feFloodId_yw7KDS7HALf8YMMDVENGX" result="dropShadow_1_yw7KDS7HALf8YMMDVENGX"/>
<feBlend mode="normal" in="SourceGraphic" in2="dropShadow_1_yw7KDS7HALf8YMMDVENGX" result="shape_yw7KDS7HALf8YMMDVENGX"/>
</filter>
<linearGradient id="linear_fill_Uwnsbdp4cOTx54AGDX6X2" x1="49.648277282714844" y1="62.92901611328125" x2="55.774986267089844" y2="61.132354736328125" gradientUnits="userSpaceOnUse">
<stop offset="0" stop-color="#F26C0C"  />
<stop offset="1" stop-color="#F26C0C" stop-opacity="0.01" />
</linearGradient>
<filter id="filter_Uwnsbdp4cOTx54AGDX6X2" x="46.8593246459961" y="56.382647705078114" width="12.022918701171875" height="12.022918701171875" filterUnits="userSpaceOnUse" color-interpolation-filters="sRGB">
<feFlood flood-opacity="0" result="feFloodId_Uwnsbdp4cOTx54AGDX6X2"/>
<feColorMatrix in="SourceAlpha" type="matrix" values="0 0 0 0 0 0 0 0 0 0 0 0 0 0 0 0 0 0 127 0" result="hardAlpha_Uwnsbdp4cOTx54AGDX6X2"/>
<feOffset dx="0.2" dy="0.2"/>
<feComposite in2="hardAlpha_Uwnsbdp4cOTx54AGDX6X2" operator="out"/>
<feColorMatrix type="matrix" values="0 0 0 0 1 0 0 0 0 0.7803921568627451 0 0 0 0 0.43137254901960786 0 0 0 0.2 0"/>
<feBlend mode="normal" in2="feFloodId_Uwnsbdp4cOTx54AGDX6X2" result="dropShadow_1_Uwnsbdp4cOTx54AGDX6X2"/>
<feBlend mode="normal" in="SourceGraphic" in2="dropShadow_1_Uwnsbdp4cOTx54AGDX6X2" result="shape_Uwnsbdp4cOTx54AGDX6X2"/>
</filter>
<linearGradient id="linear_fill_QgSyoBxPqC8DaryziOSYX" x1="73.64827728271484" y1="48.92901611328125" x2="79.77498626708984" y2="47.132354736328125" gradientUnits="userSpaceOnUse">
<stop offset="0" stop-color="#F26C0C"  />
<stop offset="1" stop-color="#F26C0C" stop-opacity="0.01" />
</linearGradient>
<filter id="filter_QgSyoBxPqC8DaryziOSYX" x="70.8593246459961" y="42.382647705078114" width="12.022918701171875" height="12.022918701171875" filterUnits="userSpaceOnUse" color-interpolation-filters="sRGB">
<feFlood flood-opacity="0" result="feFloodId_QgSyoBxPqC8DaryziOSYX"/>
<feColorMatrix in="SourceAlpha" type="matrix" values="0 0 0 0 0 0 0 0 0 0 0 0 0 0 0 0 0 0 127 0" result="hardAlpha_QgSyoBxPqC8DaryziOSYX"/>
<feOffset dx="0.2" dy="0.2"/>
<feComposite in2="hardAlpha_QgSyoBxPqC8DaryziOSYX" operator="out"/>
<feColorMatrix type="matrix" values="0 0 0 0 1 0 0 0 0 0.7803921568627451 0 0 0 0 0.43137254901960786 0 0 0 0.2 0"/>
<feBlend mode="normal" in2="feFloodId_QgSyoBxPqC8DaryziOSYX" result="dropShadow_1_QgSyoBxPqC8DaryziOSYX"/>
<feBlend mode="normal" in="SourceGraphic" in2="dropShadow_1_QgSyoBxPqC8DaryziOSYX" result="shape_QgSyoBxPqC8DaryziOSYX"/>
</filter>
<linearGradient id="linear_fill_U6dZ3Bozx3YcantW92y0f" x1="76.64827728271484" y1="69.92901611328125" x2="82.77498626708984" y2="68.13235473632812" gradientUnits="userSpaceOnUse">
<stop offset="0" stop-color="#F26C0C"  />
<stop offset="1" stop-color="#F26C0C" stop-opacity="0.01" />
</linearGradient>
<filter id="filter_U6dZ3Bozx3YcantW92y0f" x="73.8593246459961" y="63.382647705078114" width="12.022918701171875" height="12.022918701171875" filterUnits="userSpaceOnUse" color-interpolation-filters="sRGB">
<feFlood flood-opacity="0" result="feFloodId_U6dZ3Bozx3YcantW92y0f"/>
<feColorMatrix in="SourceAlpha" type="matrix" values="0 0 0 0 0 0 0 0 0 0 0 0 0 0 0 0 0 0 127 0" result="hardAlpha_U6dZ3Bozx3YcantW92y0f"/>
<feOffset dx="0.2" dy="0.2"/>
<feComposite in2="hardAlpha_U6dZ3Bozx3YcantW92y0f" operator="out"/>
<feColorMatrix type="matrix" values="0 0 0 0 1 0 0 0 0 0.7803921568627451 0 0 0 0 0.43137254901960786 0 0 0 0.2 0"/>
<feBlend mode="normal" in2="feFloodId_U6dZ3Bozx3YcantW92y0f" result="dropShadow_1_U6dZ3Bozx3YcantW92y0f"/>
<feBlend mode="normal" in="SourceGraphic" in2="dropShadow_1_U6dZ3Bozx3YcantW92y0f" result="shape_U6dZ3Bozx3YcantW92y0f"/>
</filter>
</defs>
</svg>
