<svg xmlns="http://www.w3.org/2000/svg" xmlns:xlink="http://www.w3.org/1999/xlink" width="431.32666015625" height="424.7666015625" viewBox="0 0 431.32666015625 424.7666015625" fill="none">
<path d="M284.032 332.598C279.199 302.105 274.367 271.6 269.535 241.079C267.35 240.636 264.723 240.13 261.71 239.666C258.696 239.201 255.299 238.778 251.58 238.456C245.884 237.972 240.889 237.87 236.716 237.933C232.542 237.995 229.184 238.216 226.772 238.376C213.414 239.262 197.778 242.045 184.915 244.751C172.052 247.46 161.973 250.069 159.726 250.68C157.532 279.484 155.34 308.285 153.151 337.082C150.963 365.881 148.77 394.682 146.576 423.485L222.551 423.769L298.529 424.052C293.697 393.576 288.865 363.093 284.032 332.598Z" stroke="rgba(0, 0, 0, 1)" stroke-width="1.3316747155065536"  stroke-linecap="round"    fill="#104FC1" >
</path>
<path d="M383.239 226.399C383.026 226.291 382.833 226.149 382.667 225.977C382.589 225.896 382.517 225.811 382.451 225.721C382.249 225.404 382.122 225.043 382.078 224.671C382.032 224.295 382.059 223.914 382.157 223.549L384.152 215.928L386.145 208.311C386.384 207.413 386.522 206.49 386.558 205.56C386.598 204.173 386.35 202.622 385.228 201.812C385.032 201.681 384.822 201.568 384.603 201.48C384.321 201.366 384.022 201.297 383.717 201.276C382.277 201.186 380.81 202.388 379.154 204.691C377.496 206.996 375.64 210.398 373.424 214.715C371.294 218.866 369.699 221.981 368.511 224.426C367.572 226.28 366.762 228.196 366.083 230.159C365.303 232.62 364.68 235.127 364.212 237.665C363.611 240.963 363.273 244.306 363.202 247.657L351.018 265.451L338.83 283.251C335.435 281.259 332.011 279.21 328.555 277.105C325.099 274.999 321.613 272.827 318.102 270.591C311.221 266.214 306.503 262.682 301.991 259.395C297.254 255.839 292.298 252.584 287.153 249.646C283.524 247.599 280.148 245.881 277.161 244.462C274.175 243.045 271.596 241.933 269.532 241.082C270.851 249.894 272.208 258.747 273.599 267.645C274.991 276.542 276.423 285.482 277.898 294.464C278.872 300.428 279.858 306.369 280.857 312.286C281.855 318.202 282.862 324.096 283.879 329.968C290.196 332.933 295.683 335.525 300.272 337.695C304.862 339.867 308.509 341.617 311.182 342.898C316.897 345.636 320.964 347.604 324.539 348.91C327.873 350.193 331.4 350.892 334.969 350.979C338.948 351.087 342.919 350.58 346.743 349.477C348.738 348.915 350.674 348.16 352.524 347.222C356.354 345.225 359.802 342.573 362.716 339.384C365.29 336.523 367.52 333.371 369.362 329.99C374.202 321.316 378.906 312.57 383.469 303.756C388.032 294.942 392.412 286.031 396.606 277.024C398.335 273.307 400.027 269.648 401.923 266.111C403.8 262.526 405.995 259.115 408.481 255.92C412.024 251.339 415.271 246.534 418.202 241.538C421.202 236.553 424.051 231.467 427.036 226.553C427.725 225.467 428.284 224.304 428.703 223.088C429.283 221.523 429.325 219.807 428.823 218.215C428.612 217.615 428.313 217.051 427.937 216.539C427.636 216.144 427.299 215.778 426.93 215.445C427.723 214.456 428.438 213.405 429.067 212.304C429.984 210.682 430.804 208.697 430.639 206.986C430.596 206.533 430.498 206.087 430.346 205.658C430.285 205.476 430.212 205.299 430.13 205.126C429.753 204.416 429.21 203.808 428.548 203.353C428.11 203.045 427.633 202.793 427.13 202.605C428.026 201.341 428.601 199.881 428.809 198.346C429.004 197.065 428.724 195.757 428.021 194.669C427.855 194.427 427.667 194.203 427.459 193.999C427.13 193.671 426.735 193.413 426.302 193.247C425.145 192.804 423.691 193.088 422.199 193.974C420.446 195.091 418.961 196.579 417.847 198.334C417.781 197.738 417.631 197.155 417.404 196.601C417.029 195.659 416.349 194.871 415.472 194.359C415.298 194.258 415.118 194.171 414.933 194.097C414.647 193.987 414.349 193.914 414.046 193.886C413.125 193.838 412.214 194.108 411.467 194.652C410.8 195.113 410.189 195.651 409.646 196.255C408.476 197.46 406.169 200.15 403.067 203.952C399.965 207.754 395.977 212.685 391.506 218.387C390.829 219.273 389.149 221.463 387.444 223.336C385.738 225.211 384.01 226.767 383.239 226.399Z" stroke="rgba(0, 0, 0, 1)" stroke-width="1.3316747155065536"  stroke-linecap="round"    fill="#FFC0C0" >
</path>
<path    stroke="rgba(0, 0, 0, 1)" stroke-width="1.3316747155065536"  stroke-linecap="round"  d="M417.853 198.348L409.545 210.436L401.232 222.527">
</path>
<path    stroke="rgba(0, 0, 0, 1)" stroke-width="1.3316747155065536"  stroke-linecap="round"  d="M427.099 202.632L417.846 215.296L408.593 227.959">
</path>
<path    stroke="rgba(0, 0, 0, 1)" stroke-width="1.3316747155065536"  stroke-linecap="round"  d="M426.904 215.479L421.183 223.4L415.466 231.318">
</path>
<path d="M263.546 224.832C263.773 224.954 264.027 225.018 264.286 225.018C264.433 225.019 264.579 224.998 264.72 224.957C264.952 224.891 265.165 224.772 265.343 224.61C265.521 224.447 265.659 224.245 265.745 224.02C265.831 223.795 265.863 223.553 265.839 223.313C265.815 223.074 265.735 222.842 265.606 222.639C263.716 219.647 262.193 216.438 261.069 213.082C259.982 209.813 259.317 206.417 259.088 202.98C258.929 200.574 258.699 197.122 259.203 193.534C259.709 189.945 260.949 186.205 263.723 183.21C264.452 182.405 265.26 181.675 266.133 181.03C267.572 179.963 269.21 179.193 270.949 178.766C271.33 178.672 271.862 178.545 272.496 178.447C273.218 178.332 273.949 178.285 274.68 178.305C274.342 179.296 274.065 180.307 273.851 181.331C273.632 182.395 273.484 183.473 273.408 184.557C273.262 186.087 273.3 187.63 273.523 189.151C273.829 190.902 274.551 192.665 276.16 193.866C277.211 194.64 278.46 195.1 279.762 195.195C281.04 195.305 282.323 195.039 283.452 194.428C284.397 193.898 285.183 193.126 285.73 192.191C286.341 191.104 286.731 189.907 286.877 188.669C287.153 186.225 286.611 183.758 285.335 181.655C284.039 179.407 282.11 177.59 279.788 176.431L279.381 176.24L278.978 176.072C280.108 173.846 281.477 171.749 283.063 169.82C284.178 168.456 285.361 167.149 286.607 165.904C288.989 163.469 291.622 161.293 294.463 159.413C297.364 157.499 300.452 155.884 303.678 154.592C303.877 154.523 304.06 154.416 304.215 154.274C304.371 154.133 304.496 153.962 304.584 153.771C304.671 153.58 304.719 153.373 304.724 153.163C304.729 152.953 304.691 152.744 304.613 152.549C304.535 152.354 304.418 152.177 304.269 152.028C304.12 151.88 303.943 151.763 303.748 151.685C303.553 151.607 303.344 151.57 303.134 151.575C302.924 151.581 302.717 151.628 302.526 151.716C299.099 153.085 295.819 154.8 292.739 156.834C289.73 158.832 286.94 161.141 284.414 163.724C283.008 165.129 281.677 166.609 280.426 168.155C278.649 170.356 277.131 172.756 275.903 175.306C274.765 175.166 273.615 175.166 272.478 175.306C271.713 175.406 270.956 175.554 270.209 175.749C268.089 176.266 266.092 177.198 264.334 178.491C263.281 179.261 262.308 180.138 261.432 181.106C258.202 184.588 256.767 188.788 256.151 192.78C255.535 196.773 255.801 200.534 255.978 203.192C256.222 206.885 256.936 210.531 258.1 214.044C259.306 217.645 260.942 221.087 262.974 224.296C263.114 224.523 263.311 224.707 263.546 224.832ZM277.981 191.398C278.521 191.783 279.151 192.024 279.81 192.098C280.564 192.226 281.339 192.076 281.991 191.676C282.643 191.275 283.128 190.653 283.355 189.923C283.555 189.383 283.69 188.823 283.758 188.252C283.943 186.455 283.518 184.648 282.553 183.121C281.562 181.452 280.113 180.102 278.379 179.231L278.043 179.076C277.967 179.014 277.856 178.965 277.746 178.925L277.746 178.938C277.411 179.864 277.137 180.809 276.926 181.77C276.703 182.762 276.555 183.769 276.483 184.783C276.375 185.921 276.375 187.066 276.483 188.203C276.642 189.471 277.05 190.703 277.981 191.398Z" stroke="rgba(0, 0, 0, 1)" stroke-width="1.3316747155065536"  stroke-linecap="round"  fill-rule="evenodd"  fill="#F9851C" >
</path>
<path d="M307.603 226.077C309.118 225.777 310.481 224.961 311.461 223.769C312.442 222.576 312.978 221.08 312.979 219.536C312.982 218.659 312.81 217.79 312.475 216.979C312.139 216.168 311.646 215.432 311.025 214.812C309.934 213.72 308.497 213.041 306.961 212.889C305.424 212.738 303.883 213.123 302.599 213.981C301.315 214.838 300.368 216.114 299.919 217.591C299.471 219.069 299.548 220.656 300.138 222.082C300.728 223.509 301.795 224.687 303.156 225.415C304.517 226.144 306.089 226.378 307.603 226.077Z" stroke="rgba(0, 0, 0, 1)" stroke-width="1.3316747155065536"  stroke-linecap="round"    fill="#14AF6C" >
</path>
<path d="M102.481 160.795L107.121 168.186L111.76 175.572L103.257 177.512L94.7544 179.453L103.257 181.394L111.76 183.335L107.121 190.721L102.481 198.107L109.868 193.468L117.254 188.829L119.195 197.331L121.135 205.834L123.076 197.331L125.017 188.829L132.403 193.468L139.793 198.107L135.154 190.721L130.515 183.335L139.018 181.394L147.521 179.453L139.018 177.512L130.515 175.572L135.154 168.186L139.793 160.795L132.403 165.434L125.017 170.073L123.076 161.571L121.135 153.068L119.195 161.571L117.254 170.073L109.868 165.434L102.481 160.795Z" stroke="rgba(0, 0, 0, 1)" stroke-width="1.3316747155065536"  stroke-linecap="round"    fill="#D1B7E5" >
</path>
<path d="M113.687 235.565C112.297 235.562 110.96 236.097 109.956 237.058C109.558 236.598 109.067 236.226 108.516 235.968C107.713 235.597 106.815 235.481 105.944 235.635C105.073 235.79 104.27 236.207 103.643 236.832C103.147 237.326 102.779 237.933 102.57 238.6C102.36 239.268 102.316 239.976 102.441 240.665C102.565 241.353 102.855 242.001 103.285 242.553C103.715 243.105 104.273 243.544 104.91 243.833C104.615 244.433 104.463 245.093 104.467 245.761C104.468 246.855 104.884 247.908 105.63 248.708C106.376 249.508 107.398 249.996 108.489 250.073C109.58 250.151 110.66 249.812 111.512 249.125C112.363 248.439 112.924 247.455 113.08 246.372L113.394 246.403L113.713 246.403C115.152 246.403 116.531 245.832 117.548 244.815C118.565 243.798 119.137 242.418 119.137 240.98C119.137 239.541 118.565 238.161 117.548 237.144C116.531 236.127 115.152 235.556 113.713 235.556L113.687 235.565Z" stroke="rgba(0, 0, 0, 1)" stroke-width="1.3316747155065536"  stroke-linecap="round"    fill="#F7CE21" >
</path>
<path d="M305.329 287.104C305.122 286.85 304.885 286.623 304.624 286.426C305.141 285.79 305.469 285.023 305.572 284.21C305.675 283.37 305.527 282.517 305.147 281.76C304.827 281.106 304.347 280.544 303.751 280.125C303.156 279.706 302.465 279.444 301.741 279.363C301.018 279.282 300.286 279.385 299.613 279.662C298.94 279.94 298.347 280.382 297.891 280.949C297.511 281.425 297.234 281.974 297.076 282.562C295.757 282.146 294.328 282.255 293.089 282.868C291.796 283.502 290.809 284.625 290.343 285.987C289.878 287.35 289.973 288.842 290.608 290.135C291.242 291.427 292.364 292.415 293.727 292.88C295.089 293.346 296.581 293.251 297.873 292.616L298.152 292.466L298.422 292.301C298.75 292.791 299.173 293.208 299.667 293.528C300.161 293.848 300.715 294.064 301.296 294.162C301.876 294.261 302.47 294.24 303.042 294.101C303.614 293.962 304.151 293.708 304.622 293.354C305.092 293 305.485 292.553 305.777 292.042C306.069 291.531 306.254 290.966 306.32 290.381C306.386 289.796 306.333 289.204 306.162 288.64C305.992 288.077 305.708 287.554 305.329 287.104Z" stroke="rgba(0, 0, 0, 1)" stroke-width="1.3316747155065536"  stroke-linecap="round"    fill="#F7CE21" >
</path>
<path d="M37.1725 254.649C35.0552 252.022 32.8043 249.496 30.5264 246.996C28.2484 244.498 25.918 242.02 23.7037 239.491C21.833 237.382 20.2024 235.557 18.6785 234.332C17.1546 233.11 15.7404 232.495 14.3087 232.804C13.6533 232.949 13.0441 233.252 12.5366 233.691C12.0896 234.081 11.6951 234.528 11.3627 235.02C10.2746 233.342 9.03064 231.769 7.64987 230.323C6.52045 229.18 5.55327 228.493 4.89789 228.348C4.5177 228.267 4.12796 228.241 3.74141 228.272C3.57916 228.283 3.4169 228.306 3.25942 228.343C3.08603 228.38 2.919 228.437 2.75833 228.51C2.39087 228.668 2.06 228.896 1.78321 229.184C0.959201 230.075 0.723771 231.515 1.03874 233.262C1.49687 235.371 2.35747 237.374 3.5728 239.158C3.13693 239.285 2.72175 239.474 2.34156 239.721C2.06159 239.905 1.81184 240.128 1.59709 240.385C0.653778 241.507 0.435846 243.266 0.905116 245.335C1.5605 247.825 2.72652 250.151 4.32681 252.167C4.03411 252.313 3.75891 252.494 3.50757 252.704C3.30555 252.874 3.12261 253.065 2.96195 253.276C2.15544 254.339 1.9566 255.854 2.29702 257.582C2.76947 259.603 3.65551 261.503 4.90266 263.161C5.5135 263.998 6.07186 264.898 6.61271 265.818C7.15356 266.741 7.6801 267.675 8.2305 268.561L27.2829 299.578L46.3368 330.594C52.6902 340.935 58.8671 354.259 67.0467 364.912C75.2263 375.564 85.4119 383.548 99.7811 383.216C100.914 383.19 102.045 383.105 103.168 382.959C104.257 382.831 105.315 382.621 106.335 382.387C109.707 381.599 112.929 380.27 115.875 378.453C118.829 376.637 121.488 374.382 123.762 371.766L138.468 354.902L153.174 338.034L156.467 294.337C157.554 279.779 158.645 265.22 159.741 250.661C159.227 250.781 158.597 250.918 157.875 251.104C157.153 251.29 156.351 251.521 155.465 251.817C150.171 253.644 145.356 256.64 141.379 260.582C137.8 264.043 135.247 267.641 133.435 270.165C129.38 275.794 124.476 282.47 118.813 290.176C113.15 297.881 106.796 306.606 99.8574 316.317C99.8526 316.317 97.0386 312.759 92.12 307.092C87.203 301.425 80.2053 293.637 71.7871 285.16C72.3009 279.214 69.6826 272.262 66.9481 266.781C65.3032 263.503 63.423 260.348 61.3216 257.343L56.2487 249.81L51.1742 242.278C50.6095 241.368 49.8205 240.618 48.8836 240.097C48.0914 239.648 47.164 239.499 46.27 239.677C46.0011 239.742 45.7403 239.838 45.4937 239.965C45.1199 240.151 44.789 240.416 44.5233 240.74C44.0223 241.407 43.7709 242.229 43.8155 243.062C43.8489 243.943 43.9984 244.816 44.2577 245.659C45.2551 249.167 47.2451 252.353 48.9058 255.048C50.5682 257.742 51.906 259.939 51.5958 261.464C51.5528 261.701 51.4844 261.932 51.3922 262.155C51.2522 262.499 51.0295 262.803 50.7447 263.042C50.3582 263.322 49.8937 263.477 49.4149 263.485C49.0792 263.502 48.7404 263.48 48.4095 263.418C46.0346 263.037 43.2253 260.843 41.0094 258.747C39.6525 257.457 38.3719 256.088 37.1725 254.649Z" stroke="rgba(0, 0, 0, 1)" stroke-width="1.3316747155065536"  stroke-linecap="round"    fill="#FFC0C0" >
</path>
<path    stroke="rgba(0, 0, 0, 1)" stroke-width="1.3316747155065536"  stroke-linecap="round"  d="M4.32471 252.171L11.1998 262.088L18.0705 272.001">
</path>
<path    stroke="rgba(0, 0, 0, 1)" stroke-width="1.3316747155065536"  stroke-linecap="round"  d="M3.56787 239.162L12.9001 252.46L22.2369 265.753">
</path>
<path d="M188.08 397.28C186.851 406.123 185.621 414.967 184.389 423.811L201.014 423.811L217.639 423.811L204.705 397.289L191.771 370.745C190.539 379.591 189.309 388.436 188.08 397.28Z" stroke="rgba(0, 0, 0, 1)" stroke-width="1.3316747155065536"  stroke-linecap="round"    fill="#000000" >
</path>
<path    stroke="rgba(0, 0, 0, 1)" stroke-width="1.3316747155065536"  stroke-linecap="round"  d="M11.3608 235.028L20.1434 247.858L28.9213 260.694">
</path>
<path d="M83.5118 296.998C80.9383 299.594 79.4001 303.865 82.2672 310.782C82.6359 311.745 83.1767 312.631 83.862 313.401C84.9529 314.574 86.6227 315.483 88.9444 314.402C89.3893 315.616 90.0711 316.726 90.9517 317.672C92.3869 319.188 94.6866 320.464 98.143 319.515L99.3842 319.175C99.8002 319.063 100.217 318.957 100.633 318.864L106.837 317.464L113.04 316.063C112.836 321.35 112.681 325.417 112.574 328.164C112.468 330.912 112.419 332.33 112.419 332.33C112.158 332.56 111.839 332.857 111.48 333.215C111.122 333.574 110.731 334.005 110.323 334.492C109.631 335.377 109.013 336.318 108.477 337.305C107.173 339.625 106.236 342.131 105.697 344.735C105.131 347.554 103.926 356.726 102.388 370.523C100.851 384.322 98.9185 402.754 96.9736 424.098L146.63 423.88L196.283 423.676C196.16 410.212 195.371 398.247 194.263 388.208C193.155 378.167 191.737 370.041 190.346 364.281C189.045 358.911 187.322 353.653 185.193 348.556C183.256 343.952 181.227 340.173 179.459 337.745C179.335 337.575 179.079 337.226 178.724 336.725C178.369 336.224 177.913 335.573 177.395 334.806C176.509 333.455 175.419 331.705 174.293 329.645C173.005 327.301 171.852 324.887 170.837 322.412L170.796 322.32L170.762 322.231C169.027 317.995 167.518 313.671 166.238 309.275C165.032 305.137 164.107 301.203 163.392 297.53C164.375 297.205 165.281 296.682 166.051 295.991C167.447 294.787 168.975 292.712 169.499 289.234C169.68 288.01 169.702 286.766 169.565 285.536C169.427 284.303 169.151 283.089 168.741 281.919C167.061 277.178 164.295 272.895 160.663 269.415C156.007 264.985 149.028 260.997 138.61 259.8C130.871 258.998 123.06 260.317 116.013 263.616C108.946 267.045 103.385 272.699 102.467 280.789C102.334 281.992 102.062 283.173 101.657 284.312C100.781 286.779 99.2027 288.936 97.1157 290.516C95.7475 291.539 94.2105 292.316 92.573 292.806C92.3037 292.89 92.0333 292.961 91.7629 293.023C91.4925 293.086 91.2128 293.147 90.9389 293.204C89.6839 293.462 86.0865 294.402 83.5118 296.998Z" stroke="rgba(0, 0, 0, 1)" stroke-width="1.3316747155065536"  stroke-linecap="round"    fill="#F9851C" >
</path>
<path    stroke="rgba(0, 0, 0, 1)" stroke-width="1.3316747155065536"  stroke-linecap="round"  d="M88.9253 314.392C90.5612 313.973 92.1326 313.333 93.5963 312.491C96.8024 310.768 99.3624 308.051 100.891 304.748">
</path>
<path d="M99.6764 311.809C100.377 312.159 101.102 312.455 101.847 312.695C102.574 312.955 103.323 313.148 104.085 313.271C104.746 313.38 105.424 313.257 106.003 312.921C106.358 312.692 106.66 312.39 106.89 312.035C107.112 311.713 107.263 311.347 107.333 310.962C107.492 309.965 106.925 308.83 105.795 307.735C104.362 306.438 102.696 305.425 100.886 304.748C100.713 305.138 100.509 305.564 100.261 306.011C99.9899 306.494 99.6941 306.963 99.375 307.416C98.6823 308.402 97.8779 309.305 96.978 310.107C97.8195 310.761 98.7233 311.331 99.6764 311.809Z" stroke="rgba(0, 0, 0, 1)" stroke-width="1.3316747155065536"  stroke-linecap="round"    fill="#EF3F3F" >
</path>
<path d="M112.116 283.039C111.588 282.986 111.059 283.118 110.617 283.412C110.176 283.706 109.85 284.144 109.696 284.651C109.541 285.158 109.567 285.703 109.769 286.194C109.972 286.684 110.338 287.089 110.805 287.339C111.272 287.59 111.812 287.671 112.332 287.568C112.852 287.465 113.321 287.186 113.658 286.776C113.995 286.367 114.179 285.853 114.18 285.323C114.18 284.715 113.94 284.132 113.511 283.701C113.136 283.325 112.643 283.091 112.116 283.039Z"   fill="#000000" >
</path>
<path    stroke="rgba(0, 0, 0, 1)" stroke-width="1.3316747155065536"  stroke-linecap="round"  d="M139.82 279.571C141.544 283.573 143.766 287.342 146.431 290.789C150.601 296.026 156.495 300.537 163.399 297.528">
</path>
<path d="M125.056 335.534C131.573 336.508 138.212 336.304 144.658 334.932C150.247 333.738 155.617 331.681 160.574 328.835C164.138 326.791 167.469 324.365 170.507 321.6C169.739 319.692 169.03 317.811 168.38 315.956C167.734 314.104 167.14 312.278 166.608 310.493C164.174 313.168 161.451 315.566 158.491 317.644C148.453 324.724 136.097 327.721 123.93 326.026C120.093 325.511 116.33 324.544 112.72 323.147C112.618 325.725 112.543 327.781 112.486 329.287C112.427 330.794 112.392 331.751 112.375 332.127C116.454 333.753 120.71 334.897 125.056 335.534Z" stroke="rgba(0, 0, 0, 1)" stroke-width="1.3316747155065536"  stroke-linecap="round"    fill="#F7CE21" >
</path>
<path d="M124.922 394.862C125.836 392.95 126.472 390.916 126.809 388.823C127.243 386.204 127.44 383.551 127.398 380.896C127.409 378.259 127.179 375.627 126.712 373.031C126.348 370.958 125.689 368.948 124.753 367.063C123.991 365.507 122.793 364.204 121.306 363.315C119.714 362.504 117.949 362.089 116.163 362.105C114.376 362.121 112.62 362.568 111.043 363.407C109.57 364.319 108.392 365.636 107.649 367.201C106.734 369.099 106.098 371.12 105.761 373.2C105.323 375.814 105.125 378.463 105.167 381.113C105.157 383.782 105.388 386.445 105.858 389.071C106.218 391.154 106.878 393.173 107.817 395.066C108.577 396.625 109.775 397.927 111.264 398.814C112.835 399.677 114.61 400.097 116.4 400.029C118.198 400.055 119.969 399.596 121.527 398.7C123.005 397.774 124.184 396.442 124.922 394.862ZM122.524 380.95C122.526 379.077 122.407 377.206 122.17 375.349C121.996 373.939 121.665 372.554 121.181 371.219C120.829 370.196 120.166 369.308 119.285 368.68C118.36 368.094 117.277 367.808 116.183 367.861C115.083 367.834 114.001 368.144 113.081 368.747C112.206 369.381 111.55 370.273 111.207 371.299C110.737 372.64 110.422 374.03 110.268 375.442C110.052 377.314 109.957 379.198 109.984 381.082C109.982 382.983 110.101 384.882 110.339 386.767C110.511 388.193 110.842 389.594 111.327 390.946C111.681 391.976 112.349 392.87 113.236 393.502C114.162 394.087 115.244 394.376 116.338 394.331C117.43 394.358 118.504 394.049 119.413 393.445C120.29 392.796 120.943 391.89 121.279 390.852C121.747 389.495 122.061 388.089 122.214 386.661C122.439 384.765 122.543 382.858 122.524 380.95Z" stroke="rgba(0, 0, 0, 1)" stroke-width="1.3316747155065536"  stroke-linecap="round"  fill-rule="evenodd"  fill="#FFF8F8" >
</path>
<path d="M151.594 367.261L151.616 367.194L151.616 365.79L151.616 364.381C151.617 363.737 151.4 363.113 151 362.609C150.838 362.376 150.624 362.183 150.377 362.045C150.129 361.907 149.852 361.827 149.569 361.811L140.801 361.895L132.029 361.979C131.831 361.986 131.637 362.037 131.462 362.128C131.286 362.22 131.133 362.349 131.014 362.507C130.741 362.865 130.597 363.306 130.606 363.756L130.606 365.435L130.606 367.119C130.602 367.495 130.728 367.861 130.961 368.156C131.058 368.289 131.184 368.398 131.33 368.475C131.476 368.551 131.638 368.594 131.803 368.599L137.841 368.541L143.88 368.484C144.043 368.489 144.2 368.539 144.337 368.628C144.473 368.717 144.581 368.842 144.651 368.988C144.739 369.152 144.791 369.333 144.805 369.518C144.819 369.704 144.794 369.89 144.731 370.065L139.68 384.655L134.625 399.25C134.564 399.424 134.54 399.61 134.554 399.794C134.567 399.978 134.619 400.158 134.705 400.322C134.774 400.47 134.882 400.595 135.018 400.685C135.154 400.775 135.313 400.826 135.475 400.831L137.642 400.809L139.804 400.809C139.992 400.807 140.172 400.738 140.314 400.614C140.47 400.48 140.587 400.305 140.65 400.109L146.122 383.716L151.594 367.323L151.594 367.261Z" stroke="rgba(0, 0, 0, 1)" stroke-width="1.3316747155065536"  stroke-linecap="round"    fill="#FFF8F8" >
</path>
<path    stroke="rgba(0, 0, 0, 1)" stroke-width="1.3316747155065536"  stroke-linecap="round"  d="M124.646 326.117L124.528 330.778L124.405 335.435">
</path>
<path    stroke="rgba(0, 0, 0, 1)" stroke-width="1.3316747155065536"  stroke-linecap="round"  d="M136.377 326.136L136.669 331.072L136.964 336.009">
</path>
<path    stroke="rgba(0, 0, 0, 1)" stroke-width="1.3316747155065536"  stroke-linecap="round"  d="M146.934 323.978C147.203 325.573 147.471 327.165 147.739 328.754C148.008 330.343 148.276 331.935 148.545 333.53">
</path>
<path    stroke="rgba(0, 0, 0, 1)" stroke-width="1.3316747155065536"  stroke-linecap="round"  d="M156.937 319.048L158.169 324.262L159.402 329.494">
</path>
<path d="M63.0821 346.366C63.842 347.009 64.8162 347.341 65.8108 347.297C66.8972 347.286 67.9544 346.945 68.8419 346.318C70.1673 345.308 71.1509 343.916 71.6595 342.329C72.2402 340.643 72.3627 338.832 72.0136 337.083C71.8373 336.24 71.575 335.417 71.2296 334.628C70.8646 333.783 70.423 332.973 69.9094 332.208C69.5509 332.362 69.2004 332.534 68.8594 332.723C68.5213 332.911 68.1927 333.116 67.8757 333.338C66.5387 334.279 65.3255 335.383 64.2646 336.626C62.9356 338.248 61.7436 340.322 61.7523 342.644C61.7458 343.385 61.8645 344.122 62.1028 344.824C62.2951 345.412 62.6318 345.942 63.0821 346.366ZM65.7715 350.412C66.6312 350.426 67.4874 350.305 68.31 350.053C69.1545 349.786 69.9516 349.387 70.6715 348.87C72.4858 347.513 73.8454 345.637 74.5704 343.49C75.3668 341.243 75.5388 338.822 75.0666 336.484C74.8837 335.593 74.6214 334.719 74.2826 333.875C73.9314 332.996 73.5103 332.147 73.0243 331.336C76.3206 330.755 80.2239 331.132 84.4376 332.412C89.1445 333.916 93.6052 336.103 97.6768 338.904C98.0214 339.129 98.4411 339.21 98.8448 339.127C99.2477 339.044 99.6019 338.804 99.8299 338.461C99.9428 338.291 100.022 338.1 100.061 337.899C100.1 337.698 100.099 337.492 100.057 337.292C100.016 337.091 99.9356 336.901 99.8204 336.732C99.7053 336.563 99.5581 336.419 99.3869 336.307C94.2515 332.864 89.068 330.454 84.216 329.147C79.3648 327.839 74.8495 327.635 71.0569 328.592C70.3968 327.806 69.6922 327.058 68.9483 326.351C68.1774 325.615 67.3366 324.893 66.4272 324.184C62.7848 321.335 58.5223 319.384 53.9858 318.489C49.6658 317.619 45.1934 317.894 41.0125 319.287C37.6404 320.422 34.6217 322.415 32.2529 325.07C29.8389 327.847 28.131 331.165 27.2727 334.743C27.2232 334.941 27.213 335.146 27.2428 335.347C27.272 335.548 27.3412 335.742 27.4461 335.916C27.5503 336.091 27.688 336.243 27.852 336.364C28.0152 336.485 28.201 336.573 28.3984 336.622C28.797 336.721 29.2182 336.66 29.5708 336.449C29.9235 336.239 30.1792 335.899 30.2812 335.501C31.0157 332.419 32.481 329.558 34.5525 327.161C36.5671 324.882 39.1443 323.172 42.0275 322.203C45.7224 320.992 49.6709 320.775 53.4758 321.574C57.4905 322.365 61.2656 324.083 64.4993 326.59C65.1521 327.101 65.762 327.613 66.3296 328.127C66.8965 328.641 67.4254 329.163 67.9158 329.692C67.5923 329.851 67.2732 330.024 66.9722 330.201C66.6706 330.378 66.374 330.573 66.0855 330.773C64.363 331.973 62.8219 333.415 61.509 335.053C59.9227 337.074 58.6381 339.644 58.6381 342.635C58.6243 343.808 58.8305 344.972 59.2451 346.069C59.616 347.05 60.2105 347.93 60.9814 348.64C61.6248 349.225 62.3775 349.677 63.1972 349.969C64.0227 350.264 64.8942 350.414 65.7715 350.412Z" stroke="rgba(0, 0, 0, 1)" stroke-width="1.3316747155065536"  stroke-linecap="round"  fill-rule="evenodd"  fill="#D1B7E5" >
</path>
<path d="M89.3105 297.334L87.0953 296.581L84.8802 295.828C83.4901 296.803 82.3787 298.124 81.6561 299.661C80.9334 301.197 80.6245 302.897 80.7602 304.589C81.1192 304.916 81.5658 305.13 82.0449 305.205C82.5424 305.278 83.0499 305.194 83.498 304.966L86.5681 303.402L89.6383 301.837C90.0687 301.619 90.4251 301.279 90.6626 300.859C90.9002 300.439 91.0083 299.958 90.9732 299.477C90.9382 298.995 90.7616 298.535 90.4657 298.154C90.1699 297.773 89.7678 297.488 89.3105 297.334Z" stroke="rgba(0, 0, 0, 1)" stroke-width="1.3316747155065536"  stroke-linecap="round"    fill="#000000" >
</path>
<path d="M155.646 385.276C153.248 387.693 151.694 390.819 151.215 394.19L148.893 408.957L146.576 423.707L172.906 423.707L174.793 411.713L176.681 399.715C177.403 395.357 176.406 390.889 173.898 387.252C171.541 383.938 167.991 381.785 163.946 381.785C160.827 381.809 157.844 383.064 155.646 385.276Z" stroke="rgba(0, 0, 0, 1)" stroke-width="1.3316747155065536"  stroke-linecap="round"    fill="#F9851C" >
</path>
<path d="M127.3 288.237C126.31 288.596 125.475 289.288 124.938 290.194C124.4 291.1 124.193 292.165 124.352 293.206C124.512 294.247 125.027 295.201 125.81 295.906C126.594 296.61 127.597 297.021 128.649 297.068C129.702 297.116 130.738 296.797 131.582 296.166C132.425 295.535 133.024 294.631 133.276 293.609C133.421 293.027 133.448 292.423 133.358 291.83C133.267 291.238 133.06 290.669 132.749 290.157C132.203 289.256 131.362 288.572 130.368 288.222C129.375 287.872 128.291 287.877 127.3 288.237Z" stroke="rgba(0, 0, 0, 1)" stroke-width="1.3316747155065536"  stroke-linecap="round"    fill="#EF3F3F" >
</path>
<path d="M235.775 214.64C235.829 212.256 235.681 209.873 235.332 207.515L222.451 206.704L209.566 205.88C209.556 209.357 210.004 212.82 210.895 216.181C212.134 220.854 214.329 225.219 217.343 229C218.987 231.056 220.862 232.917 222.93 234.547C224.598 235.858 226.377 237.02 228.247 238.021C229.873 235.668 231.254 233.154 232.368 230.519C234.488 225.486 235.644 220.1 235.775 214.64Z" stroke="rgba(0, 0, 0, 1)" stroke-width="1.3316747155065536"  stroke-linecap="round"    fill="#000000" >
</path>
<path d="M216.574 227.372C216.689 227.412 216.818 227.461 216.951 227.501L217.283 227.602C217.478 227.66 217.726 227.731 218.014 227.784C220.376 228.097 222.77 227.498 224.706 226.109C226.643 224.721 227.979 222.647 228.441 220.309C228.904 217.972 228.459 215.546 227.197 213.524C225.935 211.502 223.951 210.037 221.648 209.426C219.495 209.017 217.266 209.386 215.36 210.468C213.396 211.564 211.871 213.304 211.04 215.395C210.801 214.722 210.566 213.968 210.353 213.13C210.124 212.23 209.944 211.317 209.813 210.397C209.693 209.55 209.622 208.748 209.587 208C209.551 207.25 209.551 206.551 209.587 205.912L187.604 204.53L165.618 203.147C165.355 203.954 165.116 204.77 164.901 205.598C164.683 206.426 164.488 207.264 164.32 208.119C162.211 218.833 164.258 229.309 169.265 237.59C174.272 245.872 182.257 251.951 192.013 253.874C198.865 255.207 205.961 254.372 212.316 251.486C218.759 248.548 224.275 243.903 228.267 238.055C227.1 237.421 225.965 236.727 224.869 235.977C223.885 235.304 223.057 234.648 222.379 234.107C222.002 233.797 221.528 233.394 220.992 232.902C220.456 232.41 219.827 231.812 219.193 231.139C218.546 230.447 218.054 229.858 217.678 229.366C217.301 228.874 217.044 228.507 216.866 228.236C216.738 228.037 216.618 227.855 216.521 227.687C216.423 227.518 216.33 227.372 216.259 227.243L216.574 227.372Z" stroke="rgba(0, 0, 0, 1)" stroke-width="1.3316747155065536"  stroke-linecap="round"    fill="#FFC0C0" >
</path>
<path d="M211.472 228.102C211.601 227.455 211.601 226.789 211.471 226.143C211.341 225.496 211.084 224.882 210.715 224.336C210.068 223.37 209.105 222.659 207.992 222.324C206.88 221.988 205.685 222.049 204.612 222.496C203.539 222.943 202.654 223.748 202.108 224.775C201.562 225.801 201.389 226.985 201.619 228.125C201.848 229.265 202.465 230.29 203.365 231.025C204.266 231.761 205.393 232.161 206.555 232.158C207.718 232.156 208.843 231.75 209.74 231.01C210.636 230.27 211.249 229.242 211.472 228.102Z" stroke="rgba(0, 0, 0, 1)" stroke-width="1.3316747155065536"  stroke-linecap="round"    fill="#EF3F3F" >
</path>
<path d="M180.381 234.896C179.734 233.931 178.772 233.221 177.66 232.887C176.547 232.552 175.354 232.613 174.281 233.06C173.209 233.507 172.325 234.312 171.78 235.337C171.234 236.362 171.061 237.545 171.29 238.684C171.519 239.823 172.136 240.847 173.035 241.582C173.934 242.317 175.06 242.718 176.222 242.716C177.383 242.714 178.508 242.309 179.405 241.571C180.301 240.833 180.914 239.806 181.139 238.667C181.267 238.019 181.266 237.353 181.135 236.706C181.005 236.059 180.749 235.443 180.381 234.896Z" stroke="rgba(0, 0, 0, 1)" stroke-width="1.3316747155065536"  stroke-linecap="round"    fill="#EF3F3F" >
</path>
<path d="M175.877 226.415C176.323 226.116 176.632 225.652 176.737 225.125L176.724 225.125C176.799 224.734 176.757 224.329 176.604 223.961C176.45 223.594 176.192 223.28 175.861 223.058C175.53 222.837 175.141 222.718 174.743 222.716C174.344 222.715 173.955 222.831 173.622 223.05C173.289 223.273 173.03 223.59 172.877 223.961C172.724 224.331 172.685 224.739 172.764 225.132C172.842 225.525 173.036 225.886 173.32 226.169C173.603 226.451 173.965 226.644 174.358 226.721C174.885 226.825 175.431 226.714 175.877 226.415Z"   fill="#000000" >
</path>
<path d="M196.051 218.369C195.601 218.233 195.118 218.258 194.684 218.438C194.25 218.618 193.893 218.943 193.672 219.358C193.451 219.772 193.381 220.25 193.474 220.71C193.567 221.17 193.816 221.584 194.18 221.881C194.544 222.178 195 222.339 195.47 222.338C195.94 222.337 196.395 222.173 196.757 221.874C197.12 221.576 197.367 221.161 197.458 220.7C197.51 220.439 197.51 220.171 197.457 219.91C197.404 219.649 197.301 219.402 197.152 219.181C196.89 218.791 196.501 218.504 196.051 218.369Z"   fill="#000000" >
</path>
<path    stroke="rgba(0, 0, 0, 1)" stroke-width="1.3316747155065536"  stroke-linecap="round"  d="M175.084 213.307C176.849 212.517 178.667 211.854 180.525 211.322C186.285 209.676 192.342 209.348 198.246 210.36">
</path>
<path    stroke="rgba(0, 0, 0, 1)" stroke-width="1.3316747155065536"  stroke-linecap="round"  d="M180.823 211.866L182.312 221.347L183.796 230.828L185.117 230.509L186.437 230.195">
</path>
<path d="M181.953 181.395C174.176 186.554 168.404 194.226 165.603 203.13L200.47 205.323L235.336 207.516C234.282 199.988 231.069 192.926 226.085 187.186C221.197 181.563 214.582 177.722 207.276 176.263C198.299 174.491 189.379 176.56 181.953 181.395Z" stroke="rgba(0, 0, 0, 1)" stroke-width="1.3316747155065536"  stroke-linecap="round"    fill="#F9851C" >
</path>
<path    stroke="rgba(0, 0, 0, 1)" stroke-width="1.3316747155065536"  stroke-linecap="round"  d="M216.348 221.093L219.703 219.261L223.058 217.435">
</path>
<path d="M167.201 220.572C170.572 219.467 173.489 217.288 175.504 214.368C177.635 211.312 178.797 207.686 178.841 203.96L172.234 203.552L165.588 203.136C165.713 202.75 165.841 202.36 165.978 201.962C166.116 201.563 166.262 201.159 166.421 200.747C166.714 199.985 167.019 199.263 167.334 198.576C167.649 197.889 167.972 197.242 168.291 196.631C167.533 195.723 166.662 194.916 165.699 194.229C164.238 193.171 162.532 192.5 160.741 192.279C157.75 191.943 154.937 193.033 152.642 194.854C150.38 196.664 148.662 199.064 147.679 201.789C147.246 203.042 146.995 204.35 146.935 205.675C146.842 207.829 147.228 209.977 148.068 211.964C148.907 213.95 150.177 215.725 151.787 217.16C154.949 219.971 159.079 221.444 163.306 221.268C164.63 221.207 165.939 220.974 167.201 220.572Z" stroke="rgba(0, 0, 0, 1)" stroke-width="1.3316747155065536"  stroke-linecap="round"    fill="#000000" >
</path>
<path    stroke="rgba(0, 0, 0, 1)" stroke-width="1.3316747155065536"  stroke-linecap="round"  d="M171.217 191.801L201.774 194.397L232.33 196.992">
</path>
<path    stroke="rgba(0, 0, 0, 1)" stroke-width="1.3316747155065536"  stroke-linecap="round"  d="M180.457 192.584L179.342 198.251L178.227 203.917">
</path>
<path    stroke="rgba(0, 0, 0, 1)" stroke-width="1.3316747155065536"  stroke-linecap="round"  d="M192.515 193.692L191.462 199.049L190.409 204.406">
</path>
<path    stroke="rgba(0, 0, 0, 1)" stroke-width="1.3316747155065536"  stroke-linecap="round"  d="M207.232 195.088L206.195 200.35L205.159 205.612">
</path>
<path    stroke="rgba(0, 0, 0, 1)" stroke-width="1.3316747155065536"  stroke-linecap="round"  d="M222.25 196.353L221.272 201.329L220.293 206.31">
</path>
<path d="M192.027 234.337C191.076 235.857 190.413 237.539 190.073 239.299C189.801 240.648 189.676 242.022 189.701 243.397C190.808 243.764 191.976 243.907 193.139 243.818C194.284 243.732 195.394 243.386 196.386 242.808C198.043 241.794 199.286 240.224 199.89 238.378C200.555 236.431 200.568 234.32 199.926 232.366C199.863 232.176 199.76 232.002 199.625 231.854C199.49 231.707 199.325 231.59 199.141 231.511C198.957 231.432 198.759 231.393 198.559 231.396C198.359 231.399 198.162 231.444 197.981 231.529L195.004 232.933L192.027 234.337Z" stroke="rgba(0, 0, 0, 1)" stroke-width="1.3316747155065536"  stroke-linecap="round"    fill="#EF3F3F" >
</path>
<path d="M186.955 241.947C187.783 242.583 188.713 243.075 189.706 243.4C189.681 242.024 189.806 240.65 190.078 239.301C190.419 237.54 191.081 235.857 192.032 234.336L188.7 235.905L185.373 237.483C185.19 237.57 185.028 237.693 184.896 237.846C184.764 237.998 184.665 238.177 184.606 238.37C184.548 238.563 184.532 238.767 184.559 238.967C184.586 239.167 184.655 239.36 184.761 239.531C185.342 240.461 186.084 241.28 186.955 241.947Z" stroke="rgba(0, 0, 0, 1)" stroke-width="1.3316747155065536"  stroke-linecap="round"    fill="#000000" >
</path>
<path d="M342.187 350.493C343.295 350.366 344.395 350.169 345.479 349.904C347.929 349.302 350.293 348.392 352.515 347.197L339.023 340.993L325.532 334.789C326.137 337.46 326.735 340.145 327.326 342.845C327.917 345.545 328.508 348.244 329.098 350.941C330.259 351.003 331.664 351.043 333.268 351.039C334.872 351.034 336.68 350.968 338.642 350.808C339.971 350.702 341.11 350.622 342.187 350.493Z" stroke="rgba(0, 0, 0, 1)" stroke-width="1.3316747155065536"  stroke-linecap="round"    fill="#000000" >
</path>
<path d="M305.494 315.176C303.938 314.853 302.324 314.942 300.814 315.434C299.303 315.927 297.947 316.806 296.881 317.985C295.815 319.164 295.077 320.601 294.737 322.154L294.392 322.087L294.047 322.034C292.858 321.887 291.653 321.976 290.499 322.295C289.345 322.614 288.265 323.158 287.321 323.894C286.378 324.631 285.588 325.546 284.998 326.588C284.408 327.629 284.029 328.777 283.883 329.965C283.848 330.243 283.829 330.523 283.825 330.803C283.825 331.077 283.825 331.352 283.825 331.623C281.977 332.109 280.292 333.079 278.942 334.432C277.593 335.786 276.628 337.474 276.147 339.323C274.534 339.349 272.956 339.802 271.575 340.638C270.194 341.473 269.061 342.661 268.29 344.078C267.519 345.496 267.139 347.093 267.188 348.706C267.237 350.319 267.715 351.89 268.571 353.258C269.426 354.626 270.631 355.742 272.06 356.491C273.489 357.241 275.091 357.597 276.703 357.524C278.315 357.451 279.879 356.95 281.234 356.073C282.589 355.197 283.686 353.977 284.415 352.536L284.831 352.612C284.972 352.638 285.11 352.656 285.274 352.674C287.489 352.945 289.733 352.519 291.694 351.455C292.771 353.23 294.228 354.743 295.961 355.886C298.743 357.72 302.092 358.496 305.397 358.073C308.703 357.65 311.748 356.057 313.98 353.582C315.263 354.909 316.846 355.908 318.595 356.498C320.344 357.087 322.208 357.249 324.033 356.97C325.857 356.69 327.588 355.978 329.081 354.892C330.573 353.807 331.785 352.379 332.612 350.73C333.44 349.08 333.86 347.256 333.839 345.411C333.817 343.565 333.354 341.751 332.487 340.122C331.621 338.492 330.376 337.093 328.858 336.044C327.341 334.994 325.594 334.322 323.763 334.086L323.759 334.095C323.821 333.865 323.874 333.652 323.923 333.399C323.971 333.147 324.007 332.921 324.037 332.677C324.21 331.265 324.075 329.832 323.642 328.477C323.208 327.122 322.486 325.877 321.525 324.827C320.564 323.778 319.387 322.949 318.076 322.398C316.764 321.847 315.349 321.587 313.927 321.635C313.43 321.652 312.936 321.706 312.447 321.795C311.988 320.051 311.027 318.481 309.682 317.28C308.493 316.225 307.049 315.5 305.494 315.176Z" stroke="rgba(0, 0, 0, 1)" stroke-width="1.3316747155065536"  stroke-linecap="round"    fill="#F7CE21" >
</path>
<path d="M328.132 390.355L330.533 356.614L300.502 356.614L270.47 356.614L273.195 390.355L275.925 424.091L300.825 424.091L325.731 424.091L328.132 390.355Z" stroke="rgba(0, 0, 0, 1)" stroke-width="1.3316747155065536"  stroke-linecap="round"    fill="#EF3F3F" >
</path>
<path d="M291.954 424.019L293.508 424.002L291.418 390.26L289.327 356.523L287.777 356.616L286.231 356.713L288.317 390.375L290.403 424.033L291.954 424.019Z" stroke="rgba(0, 0, 0, 1)" stroke-width="1.3316747155065536"  stroke-linecap="round"    fill="#FFF8F8" >
</path>
<path d="M311.732 390.354L312.999 356.675L311.453 356.613L309.902 356.556L308.631 390.296L307.359 424.033L308.914 424.033L310.465 424.033L311.732 390.354Z" stroke="rgba(0, 0, 0, 1)" stroke-width="1.3316747155065536"  stroke-linecap="round"    fill="#FFF8F8" >
</path>
<path    stroke="rgba(0, 0, 0, 1)" stroke-width="1.3316747155065536"  stroke-linecap="round"  d="M307.364 342.014C307.373 341.487 307.312 340.961 307.183 340.45C306.973 339.559 306.499 338.752 305.822 338.136C304.908 337.368 303.736 336.974 302.543 337.033C301.196 337.083 299.901 337.564 298.848 338.407C298.634 337.459 298.176 336.583 297.519 335.867C296.797 335.079 295.836 334.552 294.784 334.367C293.732 334.182 292.648 334.349 291.701 334.844C290.575 335.408 289.669 336.331 289.126 337.467">
</path>
<path d="M265.357 351.269C265.171 351.455 265.066 351.706 265.065 351.968L265.065 355.626C265.066 355.889 265.171 356.14 265.357 356.325C265.543 356.51 265.795 356.614 266.057 356.614L334.951 356.614L334.951 356.627C335.081 356.628 335.21 356.603 335.33 356.553C335.45 356.504 335.559 356.431 335.652 356.339C335.743 356.248 335.816 356.139 335.866 356.018C335.915 355.898 335.94 355.77 335.939 355.64L335.939 351.968C335.94 351.838 335.915 351.71 335.866 351.59C335.816 351.469 335.743 351.36 335.652 351.268C335.559 351.177 335.45 351.104 335.33 351.054C335.21 351.005 335.081 350.98 334.951 350.98L266.057 350.98C265.795 350.98 265.543 351.084 265.357 351.269Z" stroke="rgba(0, 0, 0, 1)" stroke-width="1.3316747155065536"  stroke-linecap="round"    fill="#FFF8F8" >
</path>
<path    stroke="rgba(0, 0, 0, 1)" stroke-width="1.3316747155065536"  stroke-linecap="round"  d="M338.848 283.249L336.268 287.014L333.683 290.774">
</path>
<path d="M325.843 25.2191C324.118 27.8885 322.98 30.8939 322.506 34.037C322.033 37.1801 322.234 40.388 323.096 43.4474C324.226 47.6749 326.301 51.5734 328.167 55.5546C330.034 59.5363 331.713 63.5427 332.065 67.943C332.188 69.097 332.072 70.2649 331.723 71.3729C331.375 72.4808 330.802 73.5042 330.04 74.3801C328.672 76.0734 326.841 77.4841 325.177 79.29C323.445 81.1482 322.091 83.3239 321.19 85.6967C320.274 88.067 320.022 90.6432 320.465 93.1455C320.983 95.8703 322.276 98.2386 323.744 100.538C325.212 102.837 326.855 105.055 328.049 107.471C329.135 109.646 329.896 111.97 330.302 114.368C330.701 116.767 330.738 119.214 330.412 121.625C329.881 125.327 329.013 128.971 327.816 132.515C326.656 136.068 325.267 139.562 323.914 143.04C323.6 143.834 323.614 144.72 323.951 145.505C324.289 146.29 324.924 146.909 325.717 147.226L325.796 147.257C326.558 147.559 327.406 147.562 328.168 147.264C328.932 146.967 329.555 146.391 329.91 145.655C331.06 143.247 332.791 139.652 334.293 136.541C335.796 133.43 337.074 130.808 337.317 130.331C338.494 128.042 339.674 125.23 341.197 122.687C342.718 120.144 344.659 117.82 347.082 116.665C349.506 115.509 352.275 115.304 355.154 115.258C358.033 115.211 360.887 115.229 363.491 114.418C366.934 113.391 370.158 111.735 373.001 109.536C375.844 107.335 377.923 104.295 378.941 100.846C379.791 97.8826 379.595 93.9779 379.955 90.3196C380.315 86.66 381.222 83.2542 384.278 81.285C385.873 80.3214 387.614 79.6213 389.433 79.2127C391.209 78.8175 392.964 78.3295 394.687 77.7509C395.463 77.4763 396.212 77.1294 396.922 76.7147C397.668 76.264 398.358 75.7254 398.976 75.112C400.625 73.4554 401.876 71.4464 402.636 69.2359C403.41 67.0683 403.648 64.7477 403.331 62.4681C402.758 58.6927 400.506 55.7622 398.07 52.9202C395.635 50.0786 393.008 47.3163 391.687 43.8607C389.374 37.881 387.692 32.1621 385.027 27.1605C382.363 22.1579 378.722 17.8567 372.509 14.7068C367.572 12.2419 362.159 10.8832 356.643 10.7223C351.135 10.5082 345.641 11.447 340.517 13.4799C334.386 15.9557 329.119 20.052 325.843 25.2191Z" stroke="rgba(0, 0, 0, 1)" stroke-width="1.590015549659729"  stroke-linecap="round"    fill="#14AF6C" >
</path>
<path d="M368.583 83.7483L368.863 77.0317C370.916 76.1195 372.778 74.8268 374.35 73.2228C375.958 71.588 377.216 69.6418 378.046 67.5044C378.902 65.2685 379.286 62.8802 379.176 60.4888C379.065 58.0974 378.461 55.7548 377.402 53.6077C375.161 49.0984 371.318 45.5875 366.625 43.7609C361.933 41.9343 356.728 41.9236 352.028 43.731C349.795 44.5964 347.766 45.9136 346.068 47.6009C344.369 49.288 343.038 51.3088 342.158 53.5354C340.877 56.8315 340.652 60.4453 341.515 63.8753C342.386 67.3142 344.2 70.4417 346.754 72.9056L344.556 78.962L342.359 85.0184C342.219 85.4038 342.163 85.8149 342.196 86.2234C342.227 86.6322 342.347 87.0295 342.546 87.3882C342.744 87.747 343.018 88.0591 343.347 88.3034C343.677 88.5472 344.055 88.718 344.456 88.8037L354.656 90.9831L364.861 93.1644C365.27 93.2505 365.692 93.2464 366.1 93.1525C366.507 93.0586 366.889 92.8769 367.218 92.6201C367.548 92.3633 367.818 92.0376 368.009 91.6656C368.2 91.2942 368.308 90.8854 368.324 90.4676L368.583 83.7483Z" stroke="rgba(0, 0, 0, 1)" stroke-width="1.590015549659729"  stroke-linecap="round"    fill="#FFF8F8" >
</path>
<path    stroke="rgba(0, 0, 0, 1)" stroke-width="1.590015549659729"  stroke-linecap="round"  d="M354.204 79.3506L352.882 84.8327L351.559 90.3198">
</path>
<path    stroke="rgba(0, 0, 0, 1)" stroke-width="1.590015549659729"  stroke-linecap="round"  d="M361.068 80.8608L359.8 86.1225L358.537 91.3861">
</path>
<path d="M353.223 54.3845C352.313 55.1838 351.653 56.228 351.32 57.3925C350.988 58.5569 350.997 59.7922 351.347 60.9512C351.464 61.4259 351.705 61.8611 352.044 62.2129C352.383 62.5647 352.81 62.8207 353.28 62.9548C353.75 63.089 354.247 63.0966 354.721 62.9769C355.195 62.8573 355.629 62.6145 355.979 62.2733C356.906 61.4888 357.57 60.439 357.882 59.2654C358.237 58.1041 358.227 56.8619 357.854 55.7066C357.737 55.2319 357.497 54.7967 357.157 54.4449C356.818 54.0931 356.392 53.8371 355.922 53.703C355.452 53.5688 354.955 53.5612 354.481 53.6809C354.007 53.8005 353.573 54.0433 353.223 54.3845Z" stroke="rgba(0, 0, 0, 1)" stroke-width="1.590015549659729"  stroke-linecap="round"    fill="#000000" >
</path>
<path d="M365.148 61.0552C364.89 62.2379 364.978 63.4696 365.4 64.6042C365.543 65.0789 365.81 65.5067 366.174 65.8432C366.539 66.1796 366.986 66.4125 367.471 66.5177C367.956 66.6228 368.46 66.5964 368.93 66.4412C369.401 66.2859 369.822 66.0074 370.149 65.6347C371.021 64.7925 371.614 63.704 371.85 62.515C372.133 61.335 372.045 60.0964 371.599 58.9677C371.457 58.4931 371.19 58.0651 370.826 57.7284C370.462 57.3917 370.015 57.1584 369.53 57.0527C369.046 56.9471 368.542 56.9729 368.071 57.1276C367.6 57.2822 367.179 57.5601 366.852 57.9322C365.997 58.7886 365.405 59.8725 365.148 61.0552Z" stroke="rgba(0, 0, 0, 1)" stroke-width="1.590015549659729"  stroke-linecap="round"    fill="#000000" >
</path>
<path d="M360.266 65.3199C359.963 65.2625 359.65 65.2938 359.365 65.41C359.079 65.5261 358.833 65.7223 358.657 65.9748L358.595 65.9565L357.244 67.9587L355.89 69.9658C355.695 70.2502 355.596 70.5903 355.61 70.9353C355.623 71.2803 355.748 71.6115 355.966 71.8797C356.184 72.1478 356.482 72.3385 356.817 72.423C357.152 72.5075 357.505 72.4814 357.824 72.3486C358.085 72.2425 358.369 72.2071 358.648 72.2459C358.927 72.2886 359.19 72.4028 359.411 72.5775L359.742 72.8437L360.076 73.105C360.334 73.3042 360.647 73.4197 360.973 73.4361C361.298 73.4525 361.621 73.3689 361.898 73.1967C362.175 73.0244 362.393 72.7716 362.522 72.4722C362.651 72.1728 362.685 71.8411 362.62 71.5215L362.072 69.0201L361.523 66.5187C361.452 66.2189 361.295 65.9464 361.072 65.7338C360.848 65.5211 360.569 65.3775 360.266 65.3199Z" stroke="rgba(0, 0, 0, 1)" stroke-width="1.590015549659729"  stroke-linecap="round"    fill="#000000" >
</path>
<path d="M134.915 106.229C132.968 106.737 131.178 107.718 129.703 109.086C128.228 110.454 127.115 112.166 126.463 114.069C125.988 115.731 126.161 117.263 127.091 118.262C128.021 119.261 129.531 119.547 131.222 119.197C133.167 118.69 134.957 117.708 136.43 116.341C137.904 114.973 139.016 113.262 139.667 111.36C140.142 109.698 139.972 108.173 139.042 107.173C138.109 106.168 136.599 105.882 134.915 106.229Z" stroke="rgba(0, 0, 0, 1)" stroke-width="2.0384814739227295"  stroke-linecap="round"    fill="#000000" >
</path>
<path d="M164.953 83.1006C163.006 83.6078 161.216 84.5894 159.741 85.9576C158.266 87.3258 157.153 89.038 156.502 90.9414C156.027 92.6034 156.197 94.1298 157.128 95.1291C158.058 96.1285 159.568 96.4143 161.261 96.0714C163.205 95.5587 164.992 94.5746 166.465 93.2063C167.937 91.838 169.05 90.1276 169.704 88.2266C170.181 86.5711 170.008 85.0383 169.078 84.0389C168.138 83.0142 166.628 82.7283 164.953 83.1006Z" stroke="rgba(0, 0, 0, 1)" stroke-width="2.0384814739227295"  stroke-linecap="round"    fill="#000000" >
</path>
<path    stroke="rgba(0, 0, 0, 1)" stroke-width="3.3974688053131104"  stroke-linecap="round"  d="M138.688 107.314L130.963 86.6321L123.244 65.9473C122.945 65.1545 122.904 64.2872 123.128 63.4699C123.338 62.6797 123.815 61.9864 124.477 61.5062L136.659 52.7259L148.85 43.9488C149.296 43.6225 149.815 43.4099 150.362 43.3294C150.909 43.2494 151.467 43.3036 151.988 43.4876C152.531 43.6861 153.023 44.0017 153.429 44.4117C153.835 44.8216 154.146 45.3165 154.34 45.8602L161.487 65.0174L168.65 84.2126">
</path>
<g >
<path     fill="#FFFFFF"  d="M194.747 357.971Q191.387 357.971 188.227 357.731Q185.066 357.491 182.267 356.931L182.267 350.611Q185.467 351.411 188.467 351.691Q191.467 351.971 194.667 351.971Q197.786 351.971 200.467 351.491Q203.146 351.011 205.066 349.811Q206.986 348.611 208.107 346.651Q209.227 344.691 209.227 341.811Q209.227 335.891 205.227 333.571Q201.227 331.251 193.307 331.251L188.907 331.251L188.907 325.731L193.227 325.731Q200.507 325.731 204.267 323.051Q208.027 320.371 208.027 315.811Q208.027 310.931 205.107 308.851Q202.187 306.771 196.187 306.771Q193.786 306.771 190.667 307.171Q187.547 307.571 184.907 308.371L184.907 302.451Q186.987 301.811 190.146 301.331Q193.307 300.851 196.507 300.851Q205.467 300.851 210.066 304.291Q214.667 307.731 214.667 315.411Q214.667 320.851 212.027 323.771Q209.387 326.691 204.827 328.051L204.827 328.531Q210.747 329.571 213.426 332.971Q216.107 336.371 216.107 341.891Q216.107 349.571 210.947 353.771Q205.786 357.971 194.747 357.971ZM245.626 357.971Q241.467 357.971 238.027 356.731Q234.587 355.491 232.107 352.291Q229.626 349.091 228.267 343.531Q226.906 337.971 226.906 329.411Q226.906 320.851 228.267 315.331Q229.626 309.811 232.107 306.571Q234.587 303.331 238.027 302.091Q241.467 300.851 245.626 300.851Q249.786 300.851 253.267 302.091Q256.747 303.331 259.227 306.571Q261.706 309.811 263.066 315.331Q264.427 320.851 264.427 329.411Q264.427 337.971 263.066 343.531Q261.706 349.091 259.227 352.291Q256.747 355.491 253.267 356.731Q249.786 357.971 245.626 357.971ZM245.626 351.971Q248.587 351.971 250.747 350.971Q252.906 349.971 254.346 347.411Q255.786 344.851 256.466 340.491Q257.146 336.131 257.146 329.411Q257.146 322.771 256.466 318.411Q255.786 314.051 254.346 311.491Q252.906 308.931 250.747 307.931Q248.587 306.931 245.626 306.931Q242.747 306.931 240.587 307.931Q238.427 308.931 237.027 311.491Q235.626 314.051 234.947 318.411Q234.267 322.771 234.267 329.411Q234.267 336.131 234.947 340.491Q235.626 344.851 237.027 347.411Q238.427 349.971 240.587 350.971Q242.747 351.971 245.626 351.971Z">
</path>
<path fill-rule="evenodd"  fill="rgba(0, 0, 0, 1)"  d="M181.874,358.893l-1.607,-0.322v-10.521l2.485,0.621c2.03467,0.50867 4.00133,0.85167 5.9,1.029c1.93867,0.18067 3.94367,0.271 6.015,0.271c1.96133,0 3.777,-0.14933 5.447,-0.448c1.53333,-0.27467 2.831,-0.744 3.893,-1.408c0.99533,-0.622 1.783,-1.44067 2.363,-2.456c0.57133,-0.99933 0.857,-2.282 0.857,-3.848c0,-3.17867 -1.00133,-5.34867 -3.004,-6.51c-2.35667,-1.36667 -5.99533,-2.05 -10.916,-2.05h-6.4v-9.52h6.32c4.42667,0 7.71967,-0.76933 9.879,-2.308c1.94733,-1.388 2.921,-3.25867 2.921,-5.612c0,-2.566 -0.69367,-4.343 -2.081,-5.331c-1.59933,-1.13933 -4.18567,-1.709 -7.759,-1.709c-1.51533,0 -3.27067,0.128 -5.266,0.384c-1.96933,0.25267 -3.78067,0.62933 -5.434,1.13l-2.58,0.782v-10.093l1.411,-0.434c1.48133,-0.456 3.324,-0.85133 5.528,-1.186c2.206,-0.33533 4.42633,-0.503 6.661,-0.503c6.41667,0 11.33567,1.27967 14.757,3.839c3.602,2.69333 5.403,6.93367 5.403,12.721c0,4.14 -1.05233,7.374 -3.157,9.702c-0.998,1.10333 -2.16667,2.058 -3.506,2.864c2.07933,0.91867 3.74367,2.17067 4.993,3.756c2.07333,2.63 3.11,6.016 3.11,10.158c0,5.754 -1.966,10.23133 -5.898,13.432c-3.80733,3.09867 -9.628,4.648 -17.462,4.648c-2.29067,0 -4.51467,-0.08167 -6.672,-0.245c-2.18733,-0.16667 -4.25433,-0.44433 -6.201,-0.833zM204.978,328.558c-0.05,-0.00867 -0.10033,-0.01767 -0.151,-0.027v-0.48c0.02933,-0.00867 0.059,-0.01733 0.089,-0.026c0.89867,-0.27267 1.741,-0.591 2.527,-0.955c1.83533,-0.84933 3.36333,-1.949 4.584,-3.299c1.76,-1.94667 2.64,-4.73333 2.64,-8.36c0,-5.12 -1.53367,-8.82667 -4.601,-11.12c-3.066,-2.29333 -7.58567,-3.44 -13.559,-3.44c-2.13333,0 -4.25367,0.16 -6.361,0.48c-2.106,0.32 -3.85233,0.69333 -5.239,1.12v5.92c0.64467,-0.19533 1.31133,-0.37267 2,-0.532c1.18867,-0.276 2.442,-0.49867 3.76,-0.668c2.07933,-0.26667 3.91933,-0.4 5.52,-0.4c4,0 6.97333,0.69333 8.92,2.08c1.94667,1.38667 2.92,3.70667 2.92,6.96c0,3.04 -1.25333,5.45333 -3.76,7.24c-2.50667,1.78667 -6.18667,2.68 -11.04,2.68h-4.32v5.52h4.4c5.28,0 9.25333,0.77333 11.92,2.32c2.66667,1.54667 4,4.29333 4,8.24c0,1.92 -0.37333,3.53333 -1.12,4.84c-0.74733,1.30667 -1.761,2.36 -3.041,3.16c-1.28,0.8 -2.813,1.36 -4.599,1.68c-1.78733,0.32 -3.72067,0.48 -5.8,0.48c-2.13333,0 -4.2,-0.09333 -6.2,-0.28c-1.36933,-0.12733 -2.76933,-0.336 -4.2,-0.626c-0.66067,-0.134 -1.32733,-0.28533 -2,-0.454v6.32c1.866,0.37333 3.85267,0.64 5.96,0.8c2.10667,0.16 4.28,0.24 6.52,0.24c7.35933,0 12.75933,-1.4 16.2,-4.2c3.44,-2.8 5.16,-6.76 5.16,-11.88c0,-3.68 -0.89367,-6.65333 -2.681,-8.92c-1.34133,-1.70133 -3.29133,-2.95967 -5.85,-3.775c-0.806,-0.25667 -1.672,-0.46933 -2.598,-0.638zM230.526,353.517c-1.82733,-2.358 -3.228,-5.528 -4.202,-9.51c-0.94467,-3.86333 -1.41733,-8.72867 -1.418,-14.596c0,-5.868 0.473,-10.72067 1.419,-14.558c0.97267,-3.95067 2.37033,-7.11633 4.193,-9.497c1.89133,-2.47133 4.168,-4.18667 6.83,-5.146c2.51267,-0.906 5.272,-1.359 8.278,-1.359c3.004,0 5.77467,0.452 8.312,1.356c2.69133,0.95933 4.98367,2.67567 6.877,5.149c1.82267,2.38067 3.22033,5.54633 4.193,9.497c0.946,3.83733 1.419,8.69 1.419,14.558c0,5.86733 -0.47267,10.73267 -1.418,14.596c-0.974,3.982 -2.37467,7.152 -4.202,9.51c-1.892,2.44133 -4.18167,4.14067 -6.869,5.098c-2.53733,0.904 -5.308,1.356 -8.312,1.356c-3.006,0 -5.76533,-0.45267 -8.278,-1.358c-2.65733,-0.958 -4.93133,-2.65667 -6.822,-5.096zM238.027,356.731c2.29333,0.82667 4.82633,1.24 7.599,1.24c2.77333,0 5.32033,-0.41333 7.641,-1.24c2.32,-0.82667 4.30667,-2.30667 5.96,-4.44c1.65267,-2.13333 2.93233,-5.05333 3.839,-8.76c0.90733,-3.70667 1.361,-8.41333 1.361,-14.12c0,-5.70667 -0.45367,-10.4 -1.361,-14.08c-0.90667,-3.68 -2.18633,-6.6 -3.839,-8.76c-1.65333,-2.16 -3.64,-3.65333 -5.96,-4.48c-2.32067,-0.82667 -4.86767,-1.24 -7.641,-1.24c-2.77267,0 -5.30567,0.41333 -7.599,1.24c-2.29333,0.82667 -4.26667,2.32 -5.92,4.48c-1.654,2.16 -2.934,5.08 -3.84,8.76c-0.90733,3.68 -1.361,8.37333 -1.361,14.08c0,5.70667 0.45367,10.41333 1.361,14.12c0.906,3.70667 2.186,6.62667 3.84,8.76c1.65333,2.13333 3.62667,3.61333 5.92,4.44zM250.747,350.971c-1.44,0.66667 -3.147,1 -5.121,1c-1.91933,0 -3.599,-0.33333 -5.039,-1c-1.44,-0.66667 -2.62667,-1.85333 -3.56,-3.56c-0.934,-1.70667 -1.62733,-4.01333 -2.08,-6.92c-0.45333,-2.90667 -0.68,-6.6 -0.68,-11.08c0,-4.42667 0.22667,-8.09333 0.68,-11c0.45267,-2.90667 1.146,-5.21333 2.08,-6.92c0.93333,-1.70667 2.12,-2.89333 3.56,-3.56c1.44,-0.66667 3.11967,-1 5.039,-1c1.974,0 3.681,0.33333 5.121,1c1.43933,0.66667 2.639,1.85333 3.599,3.56c0.96,1.70667 1.66667,4.01333 2.12,6.92c0.45333,2.90667 0.68,6.57333 0.68,11c0,4.48 -0.22667,8.17333 -0.68,11.08c-0.45333,2.90667 -1.16,5.21333 -2.12,6.92c-0.96,1.70667 -2.15967,2.89333 -3.599,3.56zM252.603,346.431c0.842,-1.49667 1.471,-3.57933 1.887,-6.248c0.43733,-2.80467 0.656,-6.39533 0.656,-10.772c0,-4.32333 -0.21867,-7.887 -0.656,-10.691c-0.416,-2.66867 -1.045,-4.75133 -1.887,-6.248c-0.74867,-1.33133 -1.64767,-2.24 -2.697,-2.726c-1.17333,-0.54333 -2.6,-0.815 -4.28,-0.815c-1.626,0 -3.02567,0.27167 -4.199,0.815c-1.04133,0.482 -1.92333,1.38367 -2.646,2.705c-0.82133,1.50267 -1.44067,3.59233 -1.858,6.269c-0.43733,2.804 -0.656,6.36767 -0.656,10.691c-0.00067,4.37667 0.218,7.96733 0.656,10.772c0.41733,2.67667 1.03667,4.76633 1.858,6.269c0.72267,1.32067 1.60467,2.222 2.646,2.704c1.17333,0.54333 2.573,0.815 4.199,0.815c1.68,0 3.10667,-0.27167 4.28,-0.815c1.04933,-0.48533 1.94833,-1.39367 2.697,-2.725z">
</path>
</g>
<path d="M160.569 328.831C149.83 335.003 137.32 337.363 125.07 335.53C120.731 334.892 116.481 333.748 112.408 332.124L112.408 332.314C112.147 332.544 111.827 332.841 111.468 333.2C111.11 333.558 110.72 333.989 110.311 334.476C109.619 335.361 109.001 336.302 108.464 337.289C107.161 339.609 106.224 342.115 105.686 344.72C105.119 347.539 103.914 356.71 102.376 370.507C100.839 384.305 98.9429 402.742 96.9976 424.085L120.41 423.974L143.821 423.859L155.921 423.788C160.574 423.766 165.908 423.74 172.12 423.717L185.921 423.69C189.994 423.69 193.493 423.69 196.303 423.69C196.072 409.667 195.248 397.319 194.15 387.225C193.05 377.132 191.659 369.298 190.343 364.309C189.191 359.931 187.818 355.935 186.737 353.028C185.656 350.121 184.858 348.309 184.858 348.309C183.862 346.04 182.869 344.003 181.943 342.23C181.017 340.457 180.17 338.947 179.457 337.728C179.457 337.728 178.106 335.858 176.355 333.005C174.243 329.622 172.397 326.077 170.835 322.406L170.795 322.314L170.759 322.225C170.716 322.118 170.671 322.013 170.631 321.906C170.592 321.799 170.547 321.698 170.503 321.591C167.464 324.358 164.134 326.786 160.569 328.831Z" stroke="rgba(0, 0, 0, 1)" stroke-width="1.3316747155065536"  stroke-linecap="round"    fill="#14AF6C" >
</path>
<g >
<path     fill="#FFFFFF"  d="M125.217 397.171Q123.117 397.171 121.142 397.021Q119.167 396.871 117.417 396.521L117.417 392.571Q119.417 393.071 121.292 393.246Q123.167 393.421 125.167 393.421Q127.117 393.421 128.792 393.121Q130.467 392.821 131.667 392.071Q132.867 391.321 133.566 390.096Q134.267 388.871 134.267 387.071Q134.267 383.371 131.767 381.921Q129.267 380.471 124.317 380.471L121.567 380.471L121.567 377.021L124.267 377.021Q128.816 377.021 131.167 375.346Q133.517 373.671 133.517 370.821Q133.517 367.771 131.691 366.471Q129.867 365.171 126.117 365.171Q124.617 365.171 122.667 365.421Q120.717 365.671 119.067 366.171L119.067 362.471Q120.367 362.071 122.342 361.771Q124.317 361.471 126.317 361.471Q131.917 361.471 134.792 363.621Q137.667 365.771 137.667 370.571Q137.667 373.971 136.017 375.796Q134.367 377.621 131.517 378.471L131.517 378.771Q135.217 379.421 136.892 381.546Q138.566 383.671 138.566 387.121Q138.566 391.921 135.342 394.546Q132.117 397.171 125.217 397.171ZM157.017 397.171Q154.417 397.171 152.267 396.396Q150.117 395.621 148.566 393.621Q147.017 391.621 146.167 388.146Q145.316 384.671 145.316 379.321Q145.316 373.971 146.167 370.521Q147.017 367.071 148.566 365.046Q150.117 363.021 152.267 362.246Q154.417 361.471 157.017 361.471Q159.617 361.471 161.792 362.246Q163.967 363.021 165.517 365.046Q167.066 367.071 167.917 370.521Q168.767 373.971 168.767 379.321Q168.767 384.671 167.917 388.146Q167.066 391.621 165.517 393.621Q163.967 395.621 161.792 396.396Q159.617 397.171 157.017 397.171ZM157.017 393.421Q158.867 393.421 160.217 392.796Q161.566 392.171 162.467 390.571Q163.367 388.971 163.792 386.246Q164.217 383.521 164.217 379.321Q164.217 375.171 163.792 372.446Q163.367 369.721 162.467 368.121Q161.566 366.521 160.217 365.896Q158.867 365.271 157.017 365.271Q155.217 365.271 153.867 365.896Q152.517 366.521 151.642 368.121Q150.767 369.721 150.342 372.446Q149.917 375.171 149.917 379.321Q149.917 383.521 150.342 386.246Q150.767 388.971 151.642 390.571Q152.517 392.171 153.867 392.796Q155.217 393.421 157.017 393.421Z">
</path>
<path fill-rule="evenodd"  fill="rgba(0, 0, 0, 1)"  d="M117.024,398.483l-1.607,-0.322v-8.151l2.485,0.621c1.23467,0.30867 2.42633,0.51667 3.575,0.624c1.18867,0.11067 2.41867,0.166 3.69,0.166c1.18133,0 2.272,-0.08933 3.272,-0.268c0.86333,-0.15467 1.586,-0.414 2.168,-0.778c0.51533,-0.322 0.923,-0.74567 1.223,-1.271c0.29133,-0.50933 0.437,-1.187 0.437,-2.033c0,-1.69867 -0.50133,-2.83867 -1.504,-3.42c-1.35667,-0.78667 -3.50533,-1.18 -6.446,-1.18h-4.75v-7.45h4.7c2.60667,0 4.51967,-0.43433 5.739,-1.303c1.00733,-0.718 1.511,-1.68367 1.511,-2.897c0,-1.346 -0.32867,-2.253 -0.986,-2.721c-0.86933,-0.61933 -2.34067,-0.929 -4.414,-0.929c-0.91533,0 -1.98067,0.078 -3.196,0.234c-1.18933,0.15267 -2.28067,0.37933 -3.274,0.68l-2.58,0.782v-7.873l1.411,-0.434c0.96133,-0.296 2.149,-0.55133 3.563,-0.766c1.416,-0.21533 2.84133,-0.323 4.276,-0.323c4.17667,0 7.40067,0.84967 9.672,2.549c2.452,1.83333 3.678,4.68367 3.678,8.551c0,2.78 -0.72233,4.969 -2.167,6.567c-0.392,0.434 -0.82267,0.83333 -1.292,1.198c0.89133,0.53933 1.64267,1.19667 2.254,1.972c1.40267,1.78 2.104,4.051 2.104,6.813c0,3.834 -1.32067,6.82633 -3.962,8.977c-2.51733,2.04867 -6.313,3.073 -11.387,3.073c-1.45067,0 -2.85967,-0.05167 -4.227,-0.155c-1.39733,-0.10667 -2.71933,-0.28433 -3.966,-0.533zM131.611,378.788c-0.03133,-0.00533 -0.06267,-0.011 -0.094,-0.017v-0.3c0.018,-0.00533 0.03633,-0.01067 0.055,-0.016c0.938,-0.284 1.77767,-0.648 2.519,-1.092c0.74,-0.44267 1.382,-0.965 1.926,-1.567c1.1,-1.21667 1.65,-2.95833 1.65,-5.225c0,-3.2 -0.95833,-5.51667 -2.875,-6.95c-1.91667,-1.43333 -4.74167,-2.15 -8.475,-2.15c-1.33333,0 -2.65833,0.1 -3.975,0.3c-1.31667,0.2 -2.40833,0.43333 -3.275,0.7v3.7c0.63333,-0.192 1.3,-0.35633 2,-0.493c0.51533,-0.10067 1.04867,-0.18633 1.6,-0.257c1.3,-0.16667 2.45,-0.25 3.45,-0.25c2.5,0 4.358,0.43333 5.574,1.3c1.21733,0.86667 1.826,2.31667 1.826,4.35c0,1.9 -0.78333,3.40833 -2.35,4.525c-1.56733,1.11667 -3.86733,1.675 -6.9,1.675h-2.7v3.45h2.75c3.3,0 5.78333,0.48333 7.45,1.45c1.66667,0.96667 2.5,2.68333 2.5,5.15c0,1.2 -0.23367,2.20833 -0.701,3.025c-0.466,0.81667 -1.099,1.475 -1.899,1.975c-0.8,0.5 -1.75833,0.85 -2.875,1.05c-1.11667,0.2 -2.325,0.3 -3.625,0.3c-1.33333,0 -2.625,-0.05833 -3.875,-0.175c-0.61533,-0.05733 -1.24033,-0.14067 -1.875,-0.25c-0.656,-0.114 -1.32267,-0.25567 -2,-0.425v3.95c1.16667,0.23333 2.40833,0.4 3.725,0.5c1.31667,0.1 2.675,0.15 4.075,0.15c4.6,0 7.975,-0.875 10.125,-2.625c2.14933,-1.75 3.224,-4.225 3.224,-7.425c0,-2.3 -0.558,-4.15833 -1.674,-5.575c-0.65533,-0.83067 -1.54267,-1.49233 -2.662,-1.985c-0.76467,-0.33667 -1.63767,-0.59433 -2.619,-0.773zM146.986,394.847c-1.20733,-1.558 -2.128,-3.633 -2.762,-6.225c-0.60533,-2.47333 -0.908,-5.57367 -0.908,-9.301c0,-3.728 0.303,-6.82067 0.909,-9.278c0.63267,-2.57067 1.55033,-4.64133 2.753,-6.212c1.27133,-1.66133 2.808,-2.81667 4.61,-3.466c1.65267,-0.596 3.46233,-0.894 5.429,-0.894c1.96333,0 3.77867,0.297 5.446,0.891c1.82133,0.64933 3.36867,1.80567 4.642,3.469c1.20267,1.57067 2.12033,3.64133 2.753,6.212c0.606,2.45733 0.909,5.55 0.909,9.278c-0.00067,3.72733 -0.30333,6.82767 -0.908,9.301c-0.634,2.592 -1.55467,4.667 -2.762,6.225c-1.272,1.64133 -2.81667,2.78567 -4.634,3.433c-1.66733,0.594 -3.48267,0.891 -5.446,0.891c-1.96667,0 -3.77633,-0.29767 -5.429,-0.893c-1.79733,-0.648 -3.33133,-1.79167 -4.602,-3.431zM152.267,396.396c1.43333,0.51667 3.01667,0.775 4.75,0.775c1.73333,0 3.325,-0.25833 4.775,-0.775c1.45,-0.51667 2.69167,-1.44167 3.725,-2.775c1.03267,-1.33333 1.83267,-3.15833 2.4,-5.475c0.56667,-2.31667 0.85,-5.25833 0.85,-8.825c0,-3.56667 -0.28333,-6.5 -0.85,-8.8c-0.56733,-2.3 -1.36733,-4.125 -2.4,-5.475c-1.03333,-1.35 -2.275,-2.28333 -3.725,-2.8c-1.45,-0.51667 -3.04167,-0.775 -4.775,-0.775c-1.73333,0 -3.31667,0.25833 -4.75,0.775c-1.43333,0.51667 -2.667,1.45 -3.701,2.8c-1.03267,1.35 -1.83233,3.175 -2.399,5.475c-0.56733,2.3 -0.851,5.23333 -0.851,8.8c0,3.56667 0.28367,6.50833 0.851,8.825c0.56667,2.31667 1.36633,4.14167 2.399,5.475c1.034,1.33333 2.26767,2.25833 3.701,2.775zM160.217,392.796c-0.9,0.41667 -1.96667,0.625 -3.2,0.625c-1.2,0 -2.25,-0.20833 -3.15,-0.625c-0.9,-0.41667 -1.64167,-1.15833 -2.225,-2.225c-0.58333,-1.06667 -1.01667,-2.50833 -1.3,-4.325c-0.28333,-1.81667 -0.425,-4.125 -0.425,-6.925c0,-2.76667 0.14167,-5.05833 0.425,-6.875c0.28333,-1.81667 0.71667,-3.25833 1.3,-4.325c0.58333,-1.06667 1.325,-1.80833 2.225,-2.225c0.9,-0.41667 1.95,-0.625 3.15,-0.625c1.23333,0 2.3,0.20833 3.2,0.625c0.89933,0.41667 1.64933,1.15833 2.25,2.225c0.6,1.06667 1.04167,2.50833 1.325,4.325c0.28333,1.81667 0.425,4.10833 0.425,6.875c0,2.8 -0.14167,5.10833 -0.425,6.925c-0.28333,1.81667 -0.725,3.25833 -1.325,4.325c-0.60067,1.06667 -1.35067,1.80833 -2.25,2.225zM160.723,389.591c0.482,-0.85667 0.846,-2.07433 1.092,-3.653c0.268,-1.71467 0.402,-3.92033 0.402,-6.617c0,-2.66333 -0.134,-4.852 -0.402,-6.566c-0.246,-1.57867 -0.61,-2.79633 -1.092,-3.653c-0.38867,-0.69133 -0.83767,-1.155 -1.347,-1.391c-0.63333,-0.29333 -1.41967,-0.44 -2.359,-0.44c-0.90667,0 -1.67667,0.14667 -2.31,0.44c-0.50133,0.232 -0.93833,0.68867 -1.311,1.37c-0.47133,0.86267 -0.83067,2.08733 -1.078,3.674c-0.26733,1.714 -0.401,3.90267 -0.401,6.566c0,2.69667 0.13367,4.90233 0.401,6.617c0.24733,1.58667 0.60667,2.81133 1.078,3.674c0.37267,0.68067 0.80967,1.137 1.311,1.369c0.63333,0.29333 1.40333,0.44 2.31,0.44c0.93933,0 1.72567,-0.14667 2.359,-0.44c0.50933,-0.23533 0.95833,-0.69867 1.347,-1.39z">
</path>
</g>
</svg>
