<?xml version="1.0" encoding="UTF-8"?>
<svg width="1362px" height="1379px" viewBox="0 0 1362 1379" version="1.1" xmlns="http://www.w3.org/2000/svg" xmlns:xlink="http://www.w3.org/1999/xlink">
    <title>樱桃</title>
    <defs>
        <linearGradient x1="70.5543944%" y1="42.7161588%" x2="40.0588204%" y2="56.0612678%" id="linearGradient-1">
            <stop stop-color="#729C46" offset="0%"></stop>
            <stop stop-color="#77A65A" offset="100%"></stop>
        </linearGradient>
        <linearGradient x1="243.242878%" y1="26.4205394%" x2="-90.4847761%" y2="26.4205394%" id="linearGradient-2">
            <stop stop-color="#93BD66" offset="0%"></stop>
            <stop stop-color="#B1DB97" offset="100%"></stop>
        </linearGradient>
        <radialGradient cx="37.923%" cy="34.058%" fx="37.923%" fy="34.058%" r="70.93469%" id="radialGradient-3">
            <stop stop-color="#FF9178" offset="0%"></stop>
            <stop stop-color="#E04A28" offset="73.98%"></stop>
            <stop stop-color="#FF9178" offset="100%"></stop>
        </radialGradient>
        <linearGradient x1="72.014%" y1="81.413%" x2="21.636%" y2="21.647%" id="linearGradient-4">
            <stop stop-color="#FFFFFF" stop-opacity="0.7" offset="0%"></stop>
            <stop stop-color="#FFFFFF" stop-opacity="0.2" offset="100%"></stop>
        </linearGradient>
        <linearGradient x1="3.0593563%" y1="25.2178117%" x2="96.8886848%" y2="74.7548486%" id="linearGradient-5">
            <stop stop-color="#93BD66" offset="0%"></stop>
            <stop stop-color="#B1DB97" offset="100%"></stop>
        </linearGradient>
    </defs>
    <g id="页面-1" stroke="none" stroke-width="1" fill="none" fill-rule="evenodd">
        <g id="樱桃">
            <g id="编组" opacity="0.3" transform="translate(35.818182, 89.545455)" fill="#FF9494" fill-rule="nonzero">
                <g id="椭圆形">
                    <circle cx="644.727273" cy="644.727273" r="644.727273"></circle>
                </g>
            </g>
            <path d="M598.973127,246.472073 C605.441891,270.119236 629.821536,284.074 653.486609,277.676873 L971.374764,191.749055 C995.054164,185.348345 1009.08235,160.9884 1002.73358,137.294673 C996.365109,113.527518 971.912036,99.4456 948.159209,105.866009 L630.272845,191.792036 C606.505691,198.216027 592.475709,222.724618 598.973127,246.472073 Z" id="路径" fill="url(#linearGradient-1)" fill-rule="nonzero"></path>
            <path d="M675.672391,300.156364 C713.598473,338.231091 775.193209,338.404809 813.335991,300.546782 L827.174345,286.8123 C865.365482,248.905918 865.5983,187.216264 827.690127,149.023336 C789.783745,110.830409 728.094091,110.599382 689.901164,148.505764 L676.062809,162.240245 C637.821527,200.196773 637.646018,261.984927 675.672391,300.156364 Z" id="路径" fill-opacity="0.6" fill="#942B16" fill-rule="nonzero"></path>
            <path d="M1015.399,143.251236 C1015.45262,118.645936 995.521591,98.6701364 970.916291,98.6701364 C946.386209,98.6701364 926.487418,118.525945 926.4319,143.056027 L925.708264,472.350482 C925.654645,496.864445 945.444191,516.802636 969.959945,516.932205 C994.579573,517.060527 1014.62164,497.165318 1014.67536,472.545691 L1015.399,143.251236 Z" id="路径" fill="url(#linearGradient-2)" fill-rule="nonzero"></path>
            <path d="M1041.05366,403.746127 C1067.78298,357.044591 1051.59316,297.514773 1004.89163,270.785455 C958.190091,244.054345 898.660273,260.244164 871.930955,306.947491 L862.245718,323.868 C835.550427,370.510436 851.659655,429.959664 898.253736,456.740918 C944.966018,483.590227 1004.60329,467.429064 1031.36843,420.666636 L1041.05366,403.746127 Z" id="路径" fill-opacity="0.6" fill="#942B16" fill-rule="nonzero"></path>
            <circle id="椭圆形" fill="url(#radialGradient-3)" fill-rule="nonzero" cx="429.818182" cy="429.818182" r="429.818182"></circle>
            <circle id="椭圆形" fill-opacity="0.4" fill="#AB2F13" fill-rule="nonzero" cx="859.636364" cy="788" r="501.454545"></circle>
            <circle id="椭圆形" fill="url(#radialGradient-3)" fill-rule="nonzero" cx="931.272727" cy="716.363636" r="429.818182"></circle>
            <g id="编组" opacity="0.8" transform="translate(698.454545, 447.727273)" fill="url(#linearGradient-4)" fill-rule="nonzero">
                <circle id="椭圆形" cx="71.6363636" cy="71.6363636" r="71.6363636"></circle>
            </g>
            <g id="编组" opacity="0.3" transform="translate(232.818182, 89.545455)" fill="url(#linearGradient-4)" fill-rule="nonzero">
                <circle id="椭圆形" cx="71.6363636" cy="71.6363636" r="71.6363636"></circle>
            </g>
            <path d="M1023.58155,213.343836 C1044.05165,227.037127 1071.75164,221.492473 1085.37508,200.974027 C1098.92868,180.557664 1093.41805,153.024227 1073.05005,139.3972 L928.668745,42.8098909 C908.247009,29.1470455 880.615073,34.6308091 866.955809,55.0579182 C853.303709,75.4760727 858.783891,103.097264 879.200255,116.756527 L1023.58155,213.343836 Z" id="路径" fill="url(#linearGradient-5)" fill-rule="nonzero"></path>
            <g id="编组" opacity="0.3" style="mix-blend-mode: soft-light;" fill="#FA6336">
                <path d="M0,429.818182 C0,192.522727 192.522727,0 429.818182,0 C563.2821,0 682.583509,60.9016545 761.433655,156.418 L887.461718,122.354909 L879.193091,116.829955 C869.346673,110.291345 862.621809,100.022273 860.166473,88.5031455 C857.958282,76.9338727 860.418991,64.8094182 866.955809,54.963 C880.675964,34.6218545 908.134182,29.2043545 928.575618,42.7758636 L1073.00348,139.309445 C1093.34463,153.0296 1098.81227,180.734964 1085.24076,201.1764 C1071.66925,221.616045 1044.21104,227.033545 1023.77139,213.462036 L1015.19473,207.729336 L1015.00489,294.704836 C1212.25025,333.687555 1361.09091,507.719145 1361.09091,716.363636 C1361.09091,953.659091 1168.56818,1146.18182 931.272727,1146.18182 C740.480018,1146.18182 578.631982,1021.72438 522.524591,849.603691 C492.664764,856.172745 461.644427,859.636364 429.818182,859.636364 C192.522727,859.636364 0,667.113636 0,429.818182 Z M838.566318,296.578127 C831.569236,275.112291 822.9281,254.387891 812.789764,234.555364 L926.374591,203.853809 L926.193709,286.574109 C896.145836,286.923336 866.835818,290.3583 838.566318,296.578127 Z" id="形状"></path>
            </g>
        </g>
    </g>
</svg>