<?xml version="1.0" encoding="UTF-8"?>
<svg width="1220px" height="1344px" viewBox="0 0 1220 1344" version="1.1" xmlns="http://www.w3.org/2000/svg" xmlns:xlink="http://www.w3.org/1999/xlink">
    <title>茄子</title>
    <defs>
        <radialGradient cx="53.7864208%" cy="39.270207%" fx="53.7864208%" fy="39.270207%" r="87.3765089%" gradientTransform="translate(0.537864,0.392702),scale(1.000000,0.934011),rotate(124.086147),translate(-0.537864,-0.392702)" id="radialGradient-1">
            <stop stop-color="#7A53A6" offset="0%"></stop>
            <stop stop-color="#2D1D40" offset="65.58%"></stop>
            <stop stop-color="#574869" offset="100%"></stop>
        </radialGradient>
        <linearGradient x1="29.0147551%" y1="23.5724689%" x2="92.0561978%" y2="47.395239%" id="linearGradient-2">
            <stop stop-color="#93BD66" offset="0%"></stop>
            <stop stop-color="#B1DB97" offset="100%"></stop>
        </linearGradient>
        <linearGradient x1="31.0104417%" y1="20.7669212%" x2="92.8384256%" y2="46.2601375%" id="linearGradient-3">
            <stop stop-color="#93BD66" offset="0%"></stop>
            <stop stop-color="#B1DB97" offset="100%"></stop>
        </linearGradient>
    </defs>
    <g id="页面-1" stroke="none" stroke-width="1" fill="none" fill-rule="evenodd">
        <g id="茄子" transform="translate(0.000000, -0.000000)">
            <g id="编组" opacity="0.3" transform="translate(119.585692, 397.323258)" fill="#661FB8" fill-rule="nonzero">
                <g id="椭圆形">
                    <circle cx="456.22469" cy="456.22469" r="456.22469"></circle>
                </g>
            </g>
            <path d="M555.484727,1302.55753 C1021.66187,1116.4263 1163.32471,671.473744 1126.3553,437.820803 C1101.12946,278.39393 1085.46405,179.036641 986.363601,135.617569 C913.359202,103.631149 759.236363,177.576722 702.55467,259.823896 C570.682078,420.526508 439.096739,517.011271 163.388331,695.846281 C-198.658065,930.685405 89.3092693,1488.6972 555.484727,1302.55753 Z" id="路径" fill="url(#radialGradient-1)" fill-rule="nonzero"></path>
            <g id="编组" opacity="0.7" transform="translate(580.989377, 50.818835)" fill="url(#linearGradient-2)">
                <g id="路径">
                    <path d="M391.197464,50.1763492 L402.263448,25.6111842 C407.286988,14.4607148 417.185374,6.01041974 429.854903,2.35386333 C442.379116,-1.62205036 456.665707,-0.500075563 469.446758,5.25680414 C482.226118,11.0136838 492.535106,20.9728999 497.854348,32.9868167 C503.511534,44.8993503 503.741336,57.9118923 498.717796,69.0623616 L487.651812,93.6275266 C542.55085,128.777104 586.333213,177.81281 612.464749,234.450571 C645.29603,306.442827 646.782984,384.301794 616.63836,451.20799 L578.724399,535.366238 C502.043167,500.82327 440.439316,441.181185 407.268401,369.292002 C374.433741,297.301436 372.958615,219.442468 403.09986,152.536272 C372.958615,219.442468 313.667992,269.926265 237.992144,293.03489 C162.16929,315.824158 76.6812321,309.203831 0,274.659173 L37.9122717,190.500926 C68.0535163,123.59473 127.344139,73.1092436 203.019987,50.0006182 C262.756696,32.0456421 328.495295,32.3464124 391.197464,50.1763492 Z"></path>
                </g>
            </g>
            <path d="M1004.32872,52.0405849 L1015.4437,27.3655881 C1020.48921,16.1644271 1029.75902,7.37618775 1041.2694,3.15357478 C1052.66488,-1.37318797 1065.38341,-0.981172685 1076.52543,4.03729891 C1087.66576,9.0557705 1096.38641,18.3222009 1100.5465,29.8579266 C1105.01075,41.2753719 1104.56973,54.0412147 1099.52422,65.2423757 L1088.40924,89.9173725 C1135.74677,121.706095 1172.45427,167.685095 1193.0148,222.009628 C1218.78304,291.076977 1216.23157,367.464197 1185.95176,434.669474 L1147.87728,519.20284 C1081.0336,489.09201 1028.91923,433.582983 1002.835,364.632225 C977.056617,295.564876 979.608096,219.175966 1009.88283,151.970689 C979.608096,219.175966 924.085551,271.702635 855.27504,298.158598 C786.349628,324.308721 710.242901,322.054633 643.399225,291.943804 L681.480468,207.408748 C711.755201,140.205161 767.277746,87.6784921 836.088257,61.2225292 C890.392513,40.6197602 949.152563,37.6475408 1004.32872,52.0405849 Z" id="路径" fill="url(#linearGradient-3)"></path>
            <path d="M1004.32872,52.0405849 L1015.4437,27.3655881 C1020.48921,16.1644271 1029.75902,7.37618775 1041.2694,3.15357478 C1052.66488,-1.37318797 1065.38341,-0.981172685 1076.52543,4.03729891 C1087.66576,9.0557705 1096.38641,18.3238906 1100.5465,29.8579266 C1105.01075,41.2753719 1104.56973,54.0412147 1099.52422,65.2423757 L1088.40924,89.9173725 C1135.74677,121.706095 1172.45427,167.685095 1193.0148,222.009628 C1218.78304,291.076977 1216.23157,367.464197 1185.95176,434.669474 L1147.87728,519.20284 C1081.0336,489.09201 1028.91923,433.582983 1002.835,364.632225 C977.056617,295.564876 979.608096,219.175966 1009.88283,151.970689 C979.608096,219.175966 924.085551,271.702635 855.27504,298.158598 C786.349628,324.308721 710.242901,322.054633 643.399225,291.943804 L681.480468,207.408748 C711.755201,140.205161 767.277746,87.6784921 836.088257,61.2225292 C890.392513,40.6197602 949.152563,37.6475408 1004.32872,52.0405849 Z" id="路径" fill="url(#linearGradient-3)"></path>
            <g id="编组" opacity="0.2" transform="translate(1007.488494, 40.890116)" fill="#64913F" fill-rule="nonzero">
                <path d="M59.8972326,38.0305522 C42.9898836,7.57501958 13.3623143,0.643783729 5.973164,0 L0,10.3478519 C11.1048469,12.6205267 37.0150299,17.9228714 59.8972326,38.0305522 Z" id="路径"></path>
            </g>
            <g id="编组" opacity="0.3" style="mix-blend-mode: soft-light;" transform="translate(1.095484, 4.081606)" fill="#661FB8">
                <path d="M1015.44823,27.3663486 L1004.33324,52.0413454 C949.157088,37.649991 890.395348,40.6239001 836.092782,61.2283589 C767.28227,87.6860115 711.761415,140.212681 681.488372,207.419647 L643.408818,291.953013 C651.222089,295.472702 659.160398,298.612203 667.200091,301.369828 C546.082574,438.384241 414.524271,532.95455 163.389476,695.85211 C-198.65861,930.691235 89.3087247,1488.70472 555.484182,1302.56505 C976.422427,1134.49525 1132.77401,755.399571 1131.9376,511.38695 C1137.15545,514.154713 1142.47639,516.761953 1147.89363,519.20191 L1185.9715,434.666855 C1216.2513,367.461578 1218.80278,291.072668 1193.01763,222.007009 C1172.46218,167.682476 1135.75299,121.705166 1088.41376,89.9164433 L1099.52875,65.2414464 C1104.57425,54.0402854 1105.01527,41.2744427 1100.54934,29.8569974 C1096.39093,18.3212716 1087.66859,9.05484127 1076.52826,4.03636968 C1065.38793,-0.98210191 1052.66771,-1.37242748 1041.27223,3.15433528 C1029.76354,7.37525852 1020.49373,16.1651876 1015.44823,27.3663486 Z" id="路径"></path>
            </g>
        </g>
    </g>
</svg>