<svg width="943.495850" height="842.063477" viewBox="0 0 943.496 842.063" fill="none" xmlns="http://www.w3.org/2000/svg" xmlns:xlink="http://www.w3.org/1999/xlink">
	<desc>
			Created with Pixso.
	</desc>
	<defs/>
	<rect id="愿望兔" width="840.000000" height="840.000000" transform="translate(103.495819 2.063477)" fill="#FFFFFF" fill-opacity="0"/>
	<ellipse id="阴影" cx="523.660034" cy="794.549316" rx="273.000000" ry="31.000000" fill="#000000" fill-opacity="1.000000"/>
	<circle id="椭圆 50" cx="519.160034" cy="396.049316" r="308.500000" fill="#FFC955" fill-opacity="1.000000"/>
	<circle id="椭圆 50" cx="519.160034" cy="396.049316" r="303.500000" stroke="#FFFFFF" stroke-opacity="0" stroke-width="10.000000"/>
	<path id="直线 5" d="M156.66 380.54L175.96 380.54" stroke="#FFC955" stroke-opacity="1.000000" stroke-width="10.000000" stroke-linecap="round"/>
	<path id="直线 5(-18°)" d="M174.42 268.37L192.79 274.34" stroke="#FFC955" stroke-opacity="1.000000" stroke-width="10.000000" stroke-linecap="round"/>
	<path id="直线 5(-36°)" d="M225.98 167.18L241.6 178.53" stroke="#FFC955" stroke-opacity="1.000000" stroke-width="10.000000" stroke-linecap="round"/>
	<path id="直线 5(-54°)" d="M306.29 86.87L317.64 102.49" stroke="#FFC955" stroke-opacity="1.000000" stroke-width="10.000000" stroke-linecap="round"/>
	<path id="直线 5(-72°)" d="M407.48 35.31L413.45 53.67" stroke="#FFC955" stroke-opacity="1.000000" stroke-width="10.000000" stroke-linecap="round"/>
	<path id="直线 5(-90°)" d="M519.65 17.54L519.65 36.85" stroke="#FFC955" stroke-opacity="1.000000" stroke-width="10.000000" stroke-linecap="round"/>
	<path id="直线 5(-108°)" d="M631.83 35.31L625.86 53.67" stroke="#FFC955" stroke-opacity="1.000000" stroke-width="10.000000" stroke-linecap="round"/>
	<path id="直线 5(-126°)" d="M733.02 86.87L721.68 102.49" stroke="#FFC955" stroke-opacity="1.000000" stroke-width="10.000000" stroke-linecap="round"/>
	<path id="直线 5(-144°)" d="M813.33 167.18L797.71 178.53" stroke="#FFC955" stroke-opacity="1.000000" stroke-width="10.000000" stroke-linecap="round"/>
	<path id="直线 5(-162°)" d="M864.89 268.37L846.52 274.34" stroke="#FFC955" stroke-opacity="1.000000" stroke-width="10.000000" stroke-linecap="round"/>
	<path id="直线 5(-180°)" d="M882.66 380.54L863.35 380.54" stroke="#FFC955" stroke-opacity="1.000000" stroke-width="10.000000" stroke-linecap="round"/>
	<path id="直线 5(162°)" d="M864.89 492.72L846.52 486.75" stroke="#FFC955" stroke-opacity="1.000000" stroke-width="10.000000" stroke-linecap="round"/>
	<path id="直线 5(144°)" d="M813.33 593.91L797.71 582.56" stroke="#FFC955" stroke-opacity="1.000000" stroke-width="10.000000" stroke-linecap="round"/>
	<path id="直线 5(126°)" d="M733.02 674.22L721.68 658.6" stroke="#FFC955" stroke-opacity="1.000000" stroke-width="10.000000" stroke-linecap="round"/>
	<path id="直线 5(108°)" d="M631.83 725.78L625.86 707.41" stroke="#FFC955" stroke-opacity="1.000000" stroke-width="10.000000" stroke-linecap="round"/>
	<path id="直线 5(90°)" d="M519.65 743.54L519.65 724.24" stroke="#FFC955" stroke-opacity="1.000000" stroke-width="10.000000" stroke-linecap="round"/>
	<path id="直线 5(72°)" d="M407.48 725.78L413.45 707.41" stroke="#FFC955" stroke-opacity="1.000000" stroke-width="10.000000" stroke-linecap="round"/>
	<path id="直线 5(54°)" d="M306.29 674.22L317.64 658.6" stroke="#FFC955" stroke-opacity="1.000000" stroke-width="10.000000" stroke-linecap="round"/>
	<path id="直线 5(36°)" d="M225.98 593.91L241.6 582.56" stroke="#FFC955" stroke-opacity="1.000000" stroke-width="10.000000" stroke-linecap="round"/>
	<path id="直线 5(18°)" d="M174.42 492.72L192.79 486.75" stroke="#FFC955" stroke-opacity="1.000000" stroke-width="10.000000" stroke-linecap="round"/>
	<path id="矩形 3066" d="M689.94 566.9C693 565.14 696.9 566.54 698.15 569.84C720.74 629.55 690.65 696.27 630.94 718.86L618 723.76C606.16 728.24 593.21 720.62 591.38 708.09C584.52 661.09 607.03 614.67 648.18 590.96L689.94 566.9Z" fill="#F2708E" fill-opacity="1.000000" fill-rule="evenodd"/>
	<path id="矩形 3066" d="M618 723.76C606.16 728.24 593.21 720.62 591.38 708.09C584.52 661.09 607.03 614.67 648.18 590.96L689.94 566.9C693 565.14 696.9 566.54 698.15 569.84C720.74 629.55 690.65 696.27 630.94 718.86L618 723.76Z" stroke="#000000" stroke-opacity="1.000000" stroke-width="10.000000"/>
	<path id="矩形 3066" d="M350.77 566.9C347.72 565.14 343.81 566.54 342.56 569.84C319.97 629.55 350.06 696.27 409.78 718.86L422.71 723.76C434.55 728.24 447.5 720.62 449.33 708.09C456.2 661.09 433.68 614.67 392.53 590.96L350.77 566.9Z" fill="#F2708E" fill-opacity="1.000000" fill-rule="evenodd"/>
	<path id="矩形 3066" d="M422.71 723.76C434.55 728.24 447.5 720.62 449.33 708.09C456.2 661.09 433.68 614.67 392.53 590.96L350.77 566.9C347.72 565.14 343.81 566.54 342.56 569.84C319.97 629.55 350.06 696.27 409.78 718.86L422.71 723.76Z" stroke="#000000" stroke-opacity="1.000000" stroke-width="10.000000"/>
	<path id="矩形 3066" d="M742.83 586.9C745.88 585.14 749.79 586.54 751.04 589.84C773.63 649.55 743.53 716.27 683.82 738.86L670.89 743.76C659.04 748.24 646.09 740.62 644.26 728.09C637.4 681.09 659.91 634.67 701.07 610.96L742.83 586.9Z" fill="#F3849D" fill-opacity="1.000000" fill-rule="evenodd"/>
	<path id="矩形 3066" d="M670.89 743.76C659.04 748.24 646.09 740.62 644.26 728.09C637.4 681.09 659.91 634.67 701.07 610.96L742.83 586.9C745.88 585.14 749.79 586.54 751.04 589.84C773.63 649.55 743.53 716.27 683.82 738.86L670.89 743.76Z" stroke="#000000" stroke-opacity="1.000000" stroke-width="10.000000"/>
	<path id="矩形 3066" d="M284.48 586.9C281.43 585.14 277.52 586.54 276.28 589.84C253.68 649.55 283.78 716.27 343.49 738.86L356.43 743.76C368.27 748.24 381.22 740.62 383.05 728.09C389.91 681.09 367.4 634.67 326.24 610.96L284.48 586.9Z" fill="#F3849D" fill-opacity="1.000000" fill-rule="evenodd"/>
	<path id="矩形 3066" d="M356.43 743.76C368.27 748.24 381.22 740.62 383.05 728.09C389.91 681.09 367.4 634.67 326.24 610.96L284.48 586.9C281.43 585.14 277.52 586.54 276.28 589.84C253.68 649.55 283.78 716.27 343.49 738.86L356.43 743.76Z" stroke="#000000" stroke-opacity="1.000000" stroke-width="10.000000"/>
	<path id="身体" d="M381.65 470.04L632.65 449.54L703.65 720.04L340.65 724.04L381.65 593.54L366.65 593.54L350.65 562.04L345.65 537.04L381.65 470.04Z" fill="#FFFFFF" fill-opacity="1.000000" fill-rule="evenodd"/>
	<path id="矢量 447" d="M675.41 512.19C680.66 531.45 689.96 555.14 683.67 585.13C675.81 622.61 616.64 630.1 600.92 617.6C585.19 605.11 614.21 574.48 590.5 538.74C573.86 513.65 638.2 512.19 675.41 512.19L675.41 512.19Z" fill="#579FFF" fill-opacity="1.000000" fill-rule="evenodd"/>
	<path id="矢量 447" d="M683.67 585.13C675.81 622.61 616.64 630.1 600.92 617.6C585.19 605.11 614.21 574.48 590.5 538.74C573.86 513.65 638.2 512.19 675.41 512.19C680.66 531.45 689.96 555.14 683.67 585.13L683.67 585.13Z" stroke="#000000" stroke-opacity="1.000000" stroke-width="10.000000"/>
	<g opacity="0.620000" style="mix-blend-mode:multiply">
		<path id="交集" d="M597.092 598.087C610.746 604.732 627.319 606.981 645.659 600.55C675.76 589.993 685.353 569.233 685.473 552.179C686.634 562.154 686.577 572.992 684.099 584.806C676.237 622.287 617.068 629.774 601.343 617.281C595.847 612.913 595.817 606.33 597.092 598.087L597.092 598.087M682.592 536.235C681.623 533.84 680.457 531.748 679.167 530.05L681.554 532.071C681.91 533.44 682.257 534.828 682.592 536.235L682.592 536.235Z" clip-rule="evenodd" fill="#579FFF" fill-opacity="1.000000" fill-rule="evenodd"/>
	</g>
	<mask id="mask_2_262" fill="white">
		<path id="减去顶层" d="M341.759 431.593C340.208 436.755 339.29 442.069 339.054 447.51C336.535 505.722 413.143 556.316 510.163 560.515C604.336 564.59 683.125 523.456 689.973 467.803C653.566 498.418 590.707 516.888 520.263 513.448C443.982 507.02 373.727 473.532 341.759 431.593L341.759 431.593Z" clip-rule="evenodd" fill="" fill-opacity="1.000000" fill-rule="evenodd"/>
	</mask>
	<path id="减去顶层" d="M341.759 431.593C340.208 436.755 339.29 442.069 339.054 447.51C336.535 505.722 413.143 556.316 510.163 560.515C604.336 564.59 683.125 523.456 689.973 467.803C653.566 498.418 590.707 516.888 520.263 513.448C443.982 507.02 373.727 473.532 341.759 431.593L341.759 431.593Z" clip-rule="evenodd" fill="#579FFF" fill-opacity="1.000000" fill-rule="evenodd" mask="url(#mask_2_262)"/>
	<path id="减去顶层" d="M346.547 433.032Q344.372 440.271 344.05 447.726Q343.19 467.586 355.291 486.433Q367.236 505.037 390.037 520.095Q413.106 535.33 443.581 544.484Q475.264 554 510.38 555.519Q544.468 556.995 576.043 550.671Q606.422 544.588 630.516 532.117Q654.305 519.804 668.413 503.113Q682.665 486.252 685.01 467.192L689.973 467.803L693.191 471.63Q664.544 495.719 619.211 508.216Q572.773 521.018 520.019 518.442L519.931 518.438L519.843 518.43Q462.353 513.586 412.29 490.373Q362.778 467.416 337.782 434.624L341.759 431.593L346.547 433.032ZM339.792 420.765L345.735 428.562Q369.23 459.385 416.497 481.301Q464.955 503.77 520.683 508.466L520.263 513.448L520.507 508.454Q571.66 510.952 616.553 498.576Q659.781 486.659 686.755 463.976L696.489 455.791L694.936 468.414Q692.226 490.431 676.05 509.569Q660.662 527.774 635.113 540.998Q609.767 554.116 578.006 560.477Q545.245 567.038 509.947 565.51Q473.583 563.936 440.705 554.061Q408.822 544.485 384.526 528.44Q359.963 512.217 346.876 491.836Q333.062 470.322 334.059 447.294Q334.436 438.591 336.97 430.154L339.792 420.765Z" fill="#000000" fill-opacity="1.000000" fill-rule="nonzero"/>
	<g opacity="0.760000" style="mix-blend-mode:multiply">
		<path id="减去顶层" d="M339.406 441.322C339.173 443.127 339.016 444.947 338.937 446.782C336.418 504.994 413.026 555.588 510.046 559.786C607.066 563.985 687.759 520.199 690.278 461.987C690.311 461.216 690.331 460.446 690.336 459.678C678.452 512.056 601.858 549.908 510.987 545.975C418.31 541.964 344.181 495.936 339.406 441.322L339.406 441.322Z" clip-rule="evenodd" fill="#579FFF" fill-opacity="1.000000" fill-rule="evenodd"/>
	</g>
	<mask id="mask_2_270" fill="white">
		<path id="合并" d="M387.888 164.039C408.442 86.4515 462.407 33.4362 508.422 45.6263C538.369 53.5596 557.568 87.1548 561.659 131.037C593.188 81.9008 640.776 55.5687 680.537 69.8302C730.717 87.8286 749.428 163.666 722.33 239.217C720.823 243.419 719.205 247.532 717.486 251.55C741.453 286.806 752.938 328.392 747.262 371.231C733.444 475.53 624.191 539.833 502.073 523.654C379.955 507.475 290.316 416.823 304.134 312.524C310.8 262.205 340.084 219.748 382.324 191.095C383.627 182.203 385.473 173.154 387.888 164.039L387.888 164.039Z" clip-rule="evenodd" fill="" fill-opacity="1.000000" fill-rule="evenodd"/>
	</mask>
	<path id="合并" d="M387.888 164.039C408.442 86.4515 462.407 33.4362 508.422 45.6263C538.369 53.5596 557.568 87.1548 561.659 131.037C593.188 81.9008 640.776 55.5687 680.537 69.8302C730.717 87.8286 749.428 163.666 722.33 239.217C720.823 243.419 719.205 247.532 717.486 251.55C741.453 286.806 752.938 328.392 747.262 371.231C733.444 475.53 624.191 539.833 502.073 523.654C379.955 507.475 290.316 416.823 304.134 312.524C310.8 262.205 340.084 219.748 382.324 191.095C383.627 182.203 385.473 173.154 387.888 164.039L387.888 164.039Z" clip-rule="evenodd" fill="#FFFFFF" fill-opacity="1.000000" fill-rule="evenodd" mask="url(#mask_2_270)"/>
	<path id="合并" d="M559.635 116.218C552.973 79.7125 534.898 52.6401 508.422 45.6263C462.407 33.4362 408.442 86.4515 387.888 164.039C385.473 173.154 383.627 182.203 382.324 191.095C340.084 219.748 310.8 262.205 304.134 312.524C290.316 416.823 379.955 507.475 502.073 523.654C624.191 539.833 733.444 475.53 747.262 371.231C752.938 328.392 741.453 286.806 717.486 251.55C719.205 247.532 720.823 243.419 722.33 239.217C749.428 163.666 730.717 87.8286 680.537 69.8302C644.23 56.8074 601.396 77.6328 570.222 118.761C567.257 122.673 564.398 126.769 561.659 131.037C561.185 125.951 560.508 121.004 559.635 116.218ZM392.218 192.545Q394.121 179.56 397.554 166.6Q404.81 139.212 417.675 115.927Q429.973 93.6668 445.615 78.2996Q460.792 63.3897 476.594 57.4318Q489.786 52.4581 501.84 54.4325Q503.867 54.7644 505.861 55.2928Q508.432 55.9738 510.882 56.9566Q525.774 62.9302 536.194 80.0502Q548.792 100.746 551.702 131.965Q552.087 136.089 555.275 138.734Q558.463 141.378 562.587 140.993Q564.885 140.779 566.857 139.579Q568.829 138.38 570.075 136.437Q592.613 101.314 622.665 85.5103Q645.942 73.27 666.756 76.5685Q672.038 77.4055 677.161 79.243Q680.49 80.4371 683.618 82.0271Q695.281 87.9562 704.144 99.3917Q715.427 113.949 720.704 135.337Q726.111 157.251 724.313 182.704Q722.434 209.307 712.917 235.841Q710.772 241.822 708.293 247.616Q707.287 249.967 707.533 252.512Q707.779 255.057 709.216 257.171Q725.242 280.747 732.653 306.775Q733.256 308.892 733.802 311.026Q737.953 327.249 738.588 343.609Q739.097 356.719 737.349 369.917Q734.894 388.442 728.259 405.324Q722.013 421.214 712.062 435.647Q710.531 437.868 708.926 440.034Q689.738 465.945 660.064 484.09Q627.914 503.748 588.047 511.515Q586.651 511.787 585.253 512.043Q545.496 519.32 503.386 513.741Q462.226 508.288 426.325 491.552Q424.192 490.558 422.077 489.523Q385.455 471.612 359.367 444.235Q334.837 418.494 322.957 387.848Q322.19 385.871 321.477 383.874Q315.412 366.903 313.543 349.482Q311.656 331.889 314.047 313.837Q315.932 299.615 320.32 286.214Q326.667 266.834 338.251 249.168Q339.694 246.968 341.204 244.815Q359.59 218.6 387.937 199.37Q389.678 198.19 390.796 196.408Q391.913 194.626 392.218 192.545Z" clip-rule="evenodd" fill="#000000" fill-opacity="1.000000" fill-rule="evenodd"/>
	<path id="椭圆 19" d="M427.5 150.68C419.31 183.89 434.54 190.47 453.85 195.24C473.15 200 489.22 201.14 497.41 167.92C505.6 134.71 496.6 103.93 477.29 99.17C457.99 94.4 435.7 117.47 427.5 150.68L427.5 150.68Z" fill="#FFC6CA" fill-opacity="1.000000" fill-rule="evenodd"/>
	<ellipse id="椭圆 22" rx="37.000000" ry="32.000000" transform="matrix(0.976223 0.216767 -0.216767 0.976223 404.583 294.031)" fill="#FFC6CA" fill-opacity="1.000000"/>
	<path id="矢量 449" d="M394.16 294.79L397.8 290.01" stroke="#FFFFFF" stroke-opacity="1.000000" stroke-width="10.000000" stroke-linecap="round"/>
	<path id="矢量 449" d="M409.69 298.69L413.32 293.92" stroke="#FFFFFF" stroke-opacity="1.000000" stroke-width="10.000000" stroke-linecap="round"/>
	<ellipse id="椭圆 22" rx="37.000000" ry="32.000000" transform="matrix(0.991338 0.131336 -0.131336 0.991338 595.061 320.147)" fill="#FFC6CA" fill-opacity="1.000000"/>
	<path id="矢量 449" d="M582.84 320.99L586.05 315.92" stroke="#FFFFFF" stroke-opacity="1.000000" stroke-width="10.000000" stroke-linecap="round"/>
	<path id="矢量 449" d="M598.64 323.54L601.85 318.47" stroke="#FFFFFF" stroke-opacity="1.000000" stroke-width="10.000000" stroke-linecap="round"/>
	<path id="椭圆 19" d="M650.22 198.73C637.56 230.51 621.34 227 602.87 219.64C584.4 212.28 570.67 203.86 583.33 172.08C596 140.31 621.23 120.51 639.7 127.87C658.17 135.23 662.88 166.96 650.22 198.73L650.22 198.73Z" fill="#FFC6CA" fill-opacity="1.000000" fill-rule="evenodd"/>
	<path id="矢量 466" d="M470.74 320.94L472.03 323.28C477.43 333.01 490.87 334.4 498.14 325.97L499.67 324.19" stroke="#000000" stroke-opacity="1.000000" stroke-width="10.000000" stroke-linecap="round"/>
	<circle id="椭圆 36" cx="435.660065" cy="270.549561" r="36.000000" fill="#000000" fill-opacity="1.000000"/>
	<path id="矢量 497" d="M420.36 272.85L404.92 274.88C404.27 274.96 403.88 275.63 404.11 276.23L408.99 288.83C409.28 289.57 410.27 289.69 410.73 289.05L421.3 274.42C421.81 273.71 421.23 272.73 420.36 272.85L420.36 272.85Z" fill="#FFFFFF" fill-opacity="1.000000" fill-rule="evenodd"/>
	<path id="矢量 497" d="M404.92 274.88C404.27 274.96 403.88 275.63 404.11 276.23L408.99 288.83C409.28 289.57 410.27 289.69 410.73 289.05L421.3 274.42C421.81 273.71 421.23 272.73 420.36 272.85L404.92 274.88Z" stroke="#FFFFFF" stroke-opacity="1.000000" stroke-width="4.000000"/>
	<path id="矢量 497" d="M404.92 274.88C404.27 274.96 403.88 275.63 404.11 276.23L408.99 288.83C409.28 289.57 410.27 289.69 410.73 289.05L421.3 274.42C421.81 273.71 421.23 272.73 420.36 272.85L404.92 274.88Z" stroke="#FFFFFF" stroke-opacity="1.000000" stroke-width="4.000000"/>
	<path id="矢量 497" d="M428.93 282.03L416.97 292C416.47 292.42 416.5 293.19 417.02 293.57L427.87 301.61C428.51 302.08 429.42 301.66 429.46 300.87L430.57 282.86C430.63 281.98 429.61 281.47 428.93 282.03L428.93 282.03Z" fill="#FFFFFF" fill-opacity="1.000000" fill-rule="evenodd"/>
	<path id="矢量 497" d="M416.97 292C416.47 292.42 416.5 293.19 417.02 293.57L427.87 301.61C428.51 302.08 429.42 301.66 429.46 300.87L430.57 282.86C430.63 281.98 429.61 281.47 428.93 282.03L416.97 292Z" stroke="#FFFFFF" stroke-opacity="1.000000" stroke-width="4.000000"/>
	<path id="矢量 497" d="M416.97 292C416.47 292.42 416.5 293.19 417.02 293.57L427.87 301.61C428.51 302.08 429.42 301.66 429.46 300.87L430.57 282.86C430.63 281.98 429.61 281.47 428.93 282.03L416.97 292Z" stroke="#FFFFFF" stroke-opacity="1.000000" stroke-width="4.000000"/>
	<circle id="椭圆 49" cx="451.660065" cy="261.549561" r="13.000000" fill="#FFFFFF" fill-opacity="1.000000"/>
	<circle id="椭圆 36" cx="435.660065" cy="270.549561" r="31.000000" stroke="#000000" stroke-opacity="1.000000" stroke-width="10.000000"/>
	<circle id="椭圆 36" cx="555.659912" cy="286.548584" r="36.000000" fill="#000000" fill-opacity="1.000000"/>
	<path id="矢量 497" d="M540.36 288.85L524.92 290.88C524.27 290.96 523.88 291.63 524.11 292.23L528.99 304.83C529.28 305.57 530.27 305.69 530.73 305.05L541.3 290.42C541.81 289.71 541.23 288.73 540.36 288.85L540.36 288.85Z" fill="#FFFFFF" fill-opacity="1.000000" fill-rule="evenodd"/>
	<path id="矢量 497" d="M524.92 290.88C524.27 290.96 523.88 291.63 524.11 292.23L528.99 304.83C529.28 305.57 530.27 305.69 530.73 305.05L541.3 290.42C541.81 289.71 541.23 288.73 540.36 288.85L524.92 290.88Z" stroke="#FFFFFF" stroke-opacity="1.000000" stroke-width="4.000000"/>
	<path id="矢量 497" d="M524.92 290.88C524.27 290.96 523.88 291.63 524.11 292.23L528.99 304.83C529.28 305.57 530.27 305.69 530.73 305.05L541.3 290.42C541.81 289.71 541.23 288.73 540.36 288.85L524.92 290.88Z" stroke="#FFFFFF" stroke-opacity="1.000000" stroke-width="4.000000"/>
	<path id="矢量 497" d="M548.93 298.03L536.97 308C536.47 308.41 536.5 309.19 537.02 309.57L547.87 317.61C548.51 318.08 549.42 317.66 549.46 316.87L550.57 298.86C550.63 297.98 549.61 297.47 548.93 298.03L548.93 298.03Z" fill="#FFFFFF" fill-opacity="1.000000" fill-rule="evenodd"/>
	<path id="矢量 497" d="M536.97 308C536.47 308.41 536.5 309.19 537.02 309.57L547.87 317.61C548.51 318.08 549.42 317.66 549.46 316.87L550.57 298.86C550.63 297.98 549.61 297.47 548.93 298.03L536.97 308Z" stroke="#FFFFFF" stroke-opacity="1.000000" stroke-width="4.000000"/>
	<path id="矢量 497" d="M536.97 308C536.47 308.41 536.5 309.19 537.02 309.57L547.87 317.61C548.51 318.08 549.42 317.66 549.46 316.87L550.57 298.86C550.63 297.98 549.61 297.47 548.93 298.03L536.97 308Z" stroke="#FFFFFF" stroke-opacity="1.000000" stroke-width="4.000000"/>
	<circle id="椭圆 49" cx="571.659912" cy="277.548584" r="13.000000" fill="#FFFFFF" fill-opacity="1.000000"/>
	<circle id="椭圆 36" cx="555.659912" cy="286.548584" r="31.000000" stroke="#000000" stroke-opacity="1.000000" stroke-width="10.000000"/>
	<path id="矢量 501" d="M389.66 525.54L434.66 491.54L450.16 491.54L472.66 508.54L475.66 533.04L450.16 560.04L418.66 564.54C412.49 566.88 400.16 570.84 400.16 568.04C400.16 565.24 393.16 538.54 389.66 525.54L389.66 525.54Z" fill="#FFFFFF" fill-opacity="1.000000" fill-rule="evenodd"/>
	<path id="矢量 499" d="M383.65 534.54L394.15 526.04L427.66 497.21C431.58 493.83 436.35 491.56 441.45 490.65C453.55 488.49 465.7 494.21 471.74 504.92L473.17 507.46C479.55 518.78 478.72 532.78 471.04 543.25L466.19 549.86C463.19 553.95 460.87 558.51 459.32 563.36L458.9 564.67C444.93 608.48 386.73 617.16 360.58 579.32L359.29 577.45C347.23 560.01 345.96 537.3 355.98 518.62L361.65 508.04" stroke="#000000" stroke-opacity="1.000000" stroke-width="10.000000" stroke-linejoin="round" stroke-linecap="round"/>
	<path id="矢量 500" d="M549.66 559.54L543.16 541.54L499.66 494.04L485.66 472.04L453.66 472.04L434.66 506.04L462.66 585.04L505.66 615.04L568.16 579.54L549.66 559.54Z" fill="#FFFFFF" fill-opacity="1.000000" fill-rule="evenodd"/>
	<path id="矢量 502" d="M375.78 597.54C371.69 636.25 362.44 726.93 358.17 779.94" stroke="#000000" stroke-opacity="1.000000" stroke-width="10.000000" stroke-linecap="round"/>
	<path id="矢量 498" d="M554.66 559.54C549.01 553.09 514.06 511.8 500.77 496.1C497.37 492.07 493.6 488.37 489.51 485.03C467.98 467.47 435.59 481.27 433.34 508.96C432.89 514.5 433.79 520.07 435.95 525.19L451.76 562.56C466.37 597.1 499.45 620.25 536.91 622.14C555.05 623.06 573.08 618.91 588.99 610.16L594.65 607.04" stroke="#000000" stroke-opacity="1.000000" stroke-width="10.000000" stroke-linejoin="round" stroke-linecap="round"/>
	<path id="矩形 3066" d="M226.53 659.56L227.8 686.93C230.55 746.39 280.98 792.36 340.43 789.61C365.99 788.42 385.74 766.75 384.56 741.2L383.47 717.63C381.81 681.91 339.38 666.06 303.65 667.54C283.72 668.37 258.52 657.84 242.25 649.72C235.06 646.14 226.16 651.53 226.53 659.56L226.53 659.56Z" fill="#FFADC0" fill-opacity="1.000000" fill-rule="evenodd"/>
	<path id="矩形 3066" d="M227.8 686.93C230.55 746.39 280.98 792.36 340.43 789.61C365.99 788.42 385.74 766.75 384.56 741.2L383.47 717.63C381.81 681.91 339.38 666.06 303.65 667.54C283.72 668.37 258.52 657.84 242.25 649.72C235.06 646.14 226.16 651.53 226.53 659.56L227.8 686.93Z" stroke="#000000" stroke-opacity="1.000000" stroke-width="10.000000"/>
	<path id="矩形 3066" d="M795.83 659.56L794.56 686.94C791.81 746.39 741.38 792.36 681.92 789.61C656.37 788.42 636.62 766.75 637.8 741.2L638.89 717.63C640.54 681.91 682.97 666.06 718.7 667.55C738.63 668.37 763.83 657.84 780.11 649.72C787.29 646.14 796.2 651.53 795.83 659.56L795.83 659.56Z" fill="#FFADC0" fill-opacity="1.000000" fill-rule="evenodd"/>
	<path id="矩形 3066" d="M794.56 686.94C791.81 746.39 741.38 792.36 681.92 789.61C656.37 788.42 636.62 766.75 637.8 741.2L638.89 717.63C640.54 681.91 682.97 666.06 718.7 667.55C738.63 668.37 763.83 657.84 780.11 649.72C787.29 646.14 796.2 651.53 795.83 659.56L794.56 686.94Z" stroke="#000000" stroke-opacity="1.000000" stroke-width="10.000000"/>
	<g opacity="0.880000" style="mix-blend-mode:multiply">
		<path id="减去顶层" d="M668.969 648.338C646.62 672.853 634.521 706.492 638.443 742.058C641.554 770.273 666.949 790.625 695.165 787.514C739.847 782.587 776.054 753.644 792.345 714.961C752.308 750.172 705.892 762.062 679.296 740.749C657.171 723.019 654.484 686.895 668.969 648.338L668.969 648.338Z" clip-rule="evenodd" fill="#FFACBF" fill-opacity="1.000000" fill-rule="evenodd"/>
	</g>
	<g opacity="0.880000" style="mix-blend-mode:multiply">
		<path id="减去顶层" d="M360.201 655.141C379.374 679.034 389.423 710.246 385.8 743.102C382.689 771.318 357.294 791.669 329.078 788.558C283.926 783.58 247.429 754.078 231.391 714.783C273.752 755.275 323.894 770.52 351.462 748.427C373.306 730.922 375.359 694.477 360.201 655.141L360.201 655.141Z" clip-rule="evenodd" fill="#FFACBF" fill-opacity="1.000000" fill-rule="evenodd"/>
	</g>
	<path id="矩形 3066" d="M688.84 613.03L699.49 661.63C712.64 721.65 674.65 780.96 614.63 794.11C582.4 801.17 550.53 780.77 543.47 748.53C530.32 688.51 568.31 629.2 628.32 616.05L676.93 605.4C682.32 604.22 687.65 607.63 688.84 613.03L688.84 613.03Z" fill="#FFADC0" fill-opacity="1.000000" fill-rule="evenodd"/>
	<path id="矩形 3066" d="M699.49 661.63C712.64 721.65 674.65 780.96 614.63 794.11C582.4 801.17 550.53 780.77 543.47 748.53C530.32 688.51 568.31 629.2 628.32 616.05L676.93 605.4C682.32 604.22 687.65 607.63 688.84 613.03L699.49 661.63Z" stroke="#000000" stroke-opacity="1.000000" stroke-width="10.000000"/>
	<path id="矩形 3066" d="M338.12 612.31L328.13 657.92C314.61 719.59 353.65 780.54 415.32 794.05C445.9 800.76 476.12 781.4 482.83 750.82C496.34 689.15 457.31 628.2 395.64 614.68L350.03 604.69C344.64 603.5 339.31 606.92 338.12 612.31L338.12 612.31Z" fill="#FFADC0" fill-opacity="1.000000" fill-rule="evenodd"/>
	<path id="矩形 3066" d="M328.13 657.92C314.61 719.59 353.65 780.54 415.32 794.05C445.9 800.76 476.12 781.4 482.83 750.82C496.34 689.15 457.31 628.2 395.64 614.68L350.03 604.69C344.64 603.5 339.31 606.92 338.12 612.31L328.13 657.92Z" stroke="#000000" stroke-opacity="1.000000" stroke-width="10.000000"/>
	<path id="矩形 3066" d="M515.64 591.62L544.92 620.89C591.62 667.6 591.62 743.32 544.92 790.03C524.84 810.1 492.3 810.1 472.23 790.03C425.52 743.32 425.52 667.6 472.23 620.89L501.5 591.62C505.41 587.71 511.74 587.71 515.64 591.62L515.64 591.62Z" fill="#FFADC0" fill-opacity="1.000000" fill-rule="evenodd"/>
	<path id="矩形 3066" d="M544.92 620.89C591.62 667.6 591.62 743.32 544.92 790.03C524.84 810.1 492.3 810.1 472.23 790.03C425.52 743.32 425.52 667.6 472.23 620.89L501.5 591.62C505.41 587.71 511.74 587.71 515.64 591.62L544.92 620.89Z" stroke="#000000" stroke-opacity="1.000000" stroke-width="10.000000"/>
	<g opacity="0.740000" style="mix-blend-mode:multiply">
		<path id="减去顶层" d="M567.946 655.387C546.538 679.751 535.054 712.688 538.889 747.466C542 775.682 567.395 796.033 595.611 792.922C644.098 787.576 682.604 753.95 696.512 710.285C655.07 750.963 605.062 766.399 577.605 744.395C556.537 727.513 554.09 692.87 567.946 655.387L567.946 655.387Z" clip-rule="evenodd" fill="#FFACBF" fill-opacity="1.000000" fill-rule="evenodd"/>
	</g>
	<g opacity="0.740000" style="mix-blend-mode:multiply">
		<path id="减去顶层" d="M463.819 659.546C481.942 686.297 489.231 720.265 481.205 754.188C474.67 781.812 446.978 798.908 419.354 792.373C373.025 781.412 339.423 744.879 329.962 701.263C365.997 745.389 413.095 765.837 442.917 747.427C466.194 733.057 473.023 698.669 463.819 659.546L463.819 659.546Z" clip-rule="evenodd" fill="#FFACBF" fill-opacity="1.000000" fill-rule="evenodd"/>
	</g>
	<path id="矩形 3066" d="M515.64 591.62L556.33 632.31C596.73 672.71 596.73 738.21 556.33 778.61C529.96 804.99 487.19 804.99 460.81 778.61C420.41 738.21 420.41 672.71 460.81 632.31L501.5 591.62C505.41 587.71 511.74 587.71 515.64 591.62L515.64 591.62Z" fill="#FFADC0" fill-opacity="1.000000" fill-rule="evenodd"/>
	<path id="矩形 3066" d="M556.33 632.31C596.73 672.71 596.73 738.21 556.33 778.61C529.96 804.99 487.19 804.99 460.81 778.61C420.41 738.21 420.41 672.71 460.81 632.31L501.5 591.62C505.41 587.71 511.74 587.71 515.64 591.62L556.33 632.31Z" stroke="#000000" stroke-opacity="1.000000" stroke-width="10.000000"/>
	<g opacity="0.630000" style="mix-blend-mode:multiply">
		<path id="减去顶层" d="M437.505 696.935C435.138 730.314 446.714 764.497 472.234 790.016C492.306 810.089 524.85 810.089 544.923 790.016C569.127 765.812 580.788 733.815 579.906 702.102C565.549 738.928 539.461 763.549 509.66 763.549C478.486 763.549 451.375 736.606 437.505 696.935L437.505 696.935Z" clip-rule="evenodd" fill="#FFACBF" fill-opacity="1.000000" fill-rule="evenodd"/>
	</g>
	<path id="矢量 503" d="M515.65 623.04C522.65 629.38 529.65 636.54 535.65 645.54" stroke="#FFFFFF" stroke-opacity="1.000000" stroke-width="10.000000" stroke-linecap="round"/>
	<path id="矢量 503" d="M352.1 639.54C348.76 648.37 347.66 655.55 347.66 655.55" stroke="#FFFFFF" stroke-opacity="1.000000" stroke-width="10.000000" stroke-linecap="round"/>
	<path id="矢量 503" d="M673.23 636.55C676.57 645.37 677.67 652.55 677.67 652.55" stroke="#FFFFFF" stroke-opacity="1.000000" stroke-width="10.000000" stroke-linecap="round"/>
	<path id="矢量 503" d="M244.51 675.41C244.51 675.41 244.51 683.54 245.15 686.04" stroke="#FFFFFF" stroke-opacity="1.000000" stroke-width="10.000000" stroke-linecap="round"/>
	<path id="矢量 503" d="M776.25 674.54C776.25 674.54 776.25 682.68 775.61 685.18" stroke="#FFFFFF" stroke-opacity="1.000000" stroke-width="10.000000" stroke-linecap="round"/>
	<path id="星形 3" d="M160.62 616.51L158.44 628.11C158.4 628.33 158.28 628.53 158.11 628.68L149.15 636.38C148.52 636.92 148.8 637.96 149.62 638.12L161.22 640.3C161.44 640.34 161.65 640.46 161.8 640.63L169.49 649.59C170.03 650.22 171.07 649.95 171.23 649.12L173.41 637.52C173.46 637.3 173.57 637.09 173.75 636.95L182.7 629.25C183.34 628.71 183.06 627.67 182.23 627.51L170.63 625.33C170.41 625.28 170.21 625.17 170.06 625L162.37 616.04C161.82 615.4 160.78 615.68 160.62 616.51L160.62 616.51Z" fill="#FFE63B" fill-opacity="1.000000" fill-rule="evenodd"/>
	<path id="星形 3" d="M149.2 623.15L142.64 628.79C140.97 630.23 139.83 632 139.23 634.11C138.67 636.06 138.65 638.02 139.18 639.98C139.71 641.94 140.7 643.63 142.15 645.04C143.73 646.57 145.6 647.54 147.77 647.94L156.27 649.55L161.9 656.11C163.34 657.78 165.11 658.91 167.22 659.52C169.17 660.07 171.13 660.09 173.09 659.56C175.06 659.04 176.74 658.04 178.15 656.59C179.68 655.01 180.65 653.14 181.06 650.97L182.66 642.47L189.22 636.84C190.89 635.4 192.03 633.63 192.63 631.52C193.18 629.57 193.2 627.61 192.67 625.65C192.15 623.68 191.16 622 189.7 620.59C188.12 619.06 186.25 618.09 184.09 617.68L175.59 616.08L169.95 609.52C168.52 607.85 166.74 606.72 164.63 606.11C162.68 605.56 160.72 605.54 158.76 606.07C156.8 606.59 155.11 607.58 153.7 609.04C152.17 610.62 151.2 612.49 150.8 614.66L149.2 623.15M160.62 616.51L158.44 628.11C158.4 628.33 158.28 628.53 158.11 628.68L149.15 636.38C148.52 636.92 148.8 637.96 149.62 638.12L161.22 640.3C161.44 640.34 161.65 640.46 161.8 640.63L169.49 649.59C170.03 650.22 171.07 649.95 171.23 649.12L173.41 637.52C173.46 637.3 173.57 637.09 173.75 636.95L182.7 629.25C183.34 628.71 183.06 627.67 182.23 627.51L170.63 625.33C170.41 625.28 170.21 625.17 170.06 625L162.37 616.04C161.82 615.4 160.78 615.68 160.62 616.51L160.62 616.51Z" fill="#000000" fill-opacity="1.000000" fill-rule="evenodd"/>
	<path id="星形 3" d="M884.44 545.91L877.35 555.35C877.22 555.53 877.02 555.66 876.8 555.72L865.37 558.66C864.56 558.87 864.35 559.93 865.02 560.43L874.46 567.52C874.64 567.65 874.77 567.85 874.83 568.07L877.77 579.5C877.98 580.31 879.04 580.52 879.54 579.85L886.63 570.41C886.77 570.23 886.96 570.1 887.18 570.04L898.61 567.1C899.42 566.89 899.63 565.83 898.96 565.33L889.52 558.24C889.34 558.1 889.21 557.91 889.15 557.69L886.21 546.26C886 545.45 884.94 545.24 884.44 545.91L884.44 545.91Z" fill="#FFE63B" fill-opacity="1.000000" fill-rule="evenodd"/>
	<path id="星形 3" d="M871.25 546.82L862.88 548.98C860.74 549.53 858.94 550.62 857.47 552.24C856.1 553.75 855.23 555.5 854.83 557.49C854.43 559.48 854.58 561.43 855.26 563.34C856 565.41 857.25 567.11 859.02 568.43L865.93 573.62L868.09 581.99C868.64 584.13 869.73 585.93 871.36 587.4C872.86 588.77 874.61 589.65 876.6 590.04C878.6 590.44 880.55 590.29 882.46 589.61C884.52 588.87 886.22 587.62 887.54 585.85L892.73 578.94L901.11 576.78C903.24 576.23 905.04 575.14 906.52 573.51C907.88 572.01 908.76 570.26 909.15 568.27C909.55 566.28 909.4 564.32 908.72 562.41C907.98 560.35 906.73 558.65 904.97 557.33L898.05 552.14L895.89 543.76C895.34 541.63 894.25 539.83 892.63 538.35C891.12 536.99 889.37 536.11 887.38 535.72C885.39 535.32 883.44 535.47 881.53 536.15C879.46 536.89 877.76 538.14 876.44 539.9L871.25 546.82M884.44 545.91L877.35 555.35C877.22 555.53 877.02 555.66 876.8 555.72L865.37 558.66C864.56 558.87 864.35 559.93 865.02 560.43L874.46 567.52C874.64 567.65 874.77 567.85 874.83 568.07L877.77 579.5C877.98 580.31 879.04 580.52 879.54 579.85L886.63 570.41C886.77 570.23 886.96 570.1 887.18 570.04L898.61 567.1C899.42 566.89 899.63 565.83 898.96 565.33L889.52 558.24C889.34 558.1 889.21 557.91 889.15 557.69L886.21 546.26C886 545.45 884.94 545.24 884.44 545.91L884.44 545.91Z" fill="#000000" fill-opacity="1.000000" fill-rule="evenodd"/>
</svg>
