<svg xmlns="http://www.w3.org/2000/svg" xmlns:xlink="http://www.w3.org/1999/xlink" width="373.629638671875" height="422.037109375" viewBox="0 0 373.629638671875 422.037109375" fill="none">
<path    stroke="rgba(0, 0, 0, 1.00)" stroke-width="2" stroke-linejoin="round" stroke-linecap="round"  d="M1 421.037L56.7981 421.037L184.989 421.037L259.959 421.037L316.778 421.037L372.63 421.037">
</path>
<g opacity="0.3">
<path d="M358.667 174.215C358.667 77.9987 280.668 0 184.452 0C88.2358 0 10.2371 77.9987 10.2371 174.215C10.2371 270.431 88.2358 348.43 184.452 348.43C280.668 348.43 358.667 270.431 358.667 174.215Z"   fill="#FCE779" >
</path>
</g>
<path    stroke="rgba(0, 0, 0, 1.00)" stroke-width="2" stroke-linejoin="round" stroke-linecap="round"  d="M259.959 421.037L259.959 413.035L184.989 413.035L184.989 421.037">
</path>
<path d="M70.9759 389.406L60.45 384.411L63.887 377.215C65.2833 374.315 67.9685 372.328 70.9759 371.737L70.9759 217.339L56.8518 217.339L56.8518 421.037L70.9759 421.037L70.9759 389.406Z"   fill="#A17DB2" >
</path>
<path d="M70.976 217.339L225.482 217.339L267.263 217.339L267.263 205.202L212.539 205.202L126.667 205.202L80.2667 205.202L63.7797 205.202L21.5149 205.202L21.5149 217.339L56.7982 217.339L70.976 217.339Z"   fill="#A17DB2" >
</path>
<path d="M264.417 356.593L264.417 304.608L264.417 284.2C264.417 284.2 266.565 284.2 278.487 284.2C293.363 284.2 305.393 277.756 307.004 258.208C307.809 248.326 306.95 240.27 305.93 234.739L305.822 234.9L257.006 235.706L246.265 235.867L240.519 235.974C229.026 237.639 213.076 244.459 214.204 269.432C214.419 273.728 214.633 278.293 214.956 283.126C217.372 322.061 222.958 374.476 222.958 374.476L230.046 374.476L256.791 374.476L264.417 374.476L264.417 356.593Z"   fill="#60A7F4" >
</path>
<path d="M267.639 85.2278C269.089 89.9538 267.048 95.9149 262.537 95.3778L264.685 98.4926C264.954 98.3852 275.802 93.1223 273.546 72.3389C272.257 60.363 261.248 45.0574 234.933 50.4278C234.933 50.4278 211.196 54.9926 220.111 73.5204C221.024 75.3463 222.044 76.7963 223.226 77.9241C233.859 88.0741 254.696 71.1037 254.804 71.05L256.415 70.513C256.415 70.513 253.085 80.4482 259.315 87.5908C259.315 87.5908 266.189 80.5019 267.639 85.2278Z"   fill="#000000" >
</path>
<path d="M223.28 77.9241C222.85 90.5444 223.494 119.813 237.941 116.376C238.854 116.107 239.767 115.893 240.626 115.624L242.13 126.311L252.763 134.796L263.182 122.552L259.852 105.689L264.632 98.5463L262.483 95.4315C267.048 95.9685 269.035 90.0074 267.585 85.2815C266.135 80.5555 259.261 87.6444 259.261 87.6444C253.032 80.5018 256.361 70.5667 256.361 70.5667L254.75 71.1037C254.75 71.1037 233.913 88.0741 223.28 77.9241Z"   fill="#F4B383" >
</path>
<path d="M216.406 138.985L199.919 164.763L212.539 204.504L212.539 205.148L267.263 205.148L267.263 217.285L225.482 217.285L227.308 236.243L240.626 236.028L241.324 235.921C247.232 235.169 256.791 235.706 257.113 235.759L305.93 234.954L305.93 234.739L304.802 203.054L323.384 204.396C334.339 205.202 341.267 193.011 334.984 184.043L299.056 133.669C294.652 129.426 289.496 126.204 283.159 126.204L269.641 126.204L269.948 125.721L263.235 122.552L252.81 134.741L252.763 134.689L252.705 134.75L242.184 126.311L236.222 129.802L236.169 129.695L231.55 130.017C225.374 130.446 219.735 133.776 216.406 138.985Z"   fill="#FFFFFF" >
</path>
<path d="M199.22 283.233L215.009 283.233C214.687 278.4 214.472 273.835 214.257 269.539C213.183 244.567 229.08 237.746 240.572 236.082L227.254 236.296L227.254 236.35L190.735 236.35C180.209 236.35 170.596 242.419 166.085 251.924L118.611 351.652L127.365 356.593L151.048 369.965L159.265 374.583L199.22 283.233Z"   fill="#60A7F4" >
</path>
<path d="M273.546 72.3389C272.257 60.4166 261.248 45.0574 234.933 50.4277C234.933 50.4277 211.25 54.9926 220.111 73.5203C220.97 75.3463 222.044 76.7963 223.226 77.924C233.859 88.074 254.696 71.1037 254.696 71.1037L256.307 70.5666C256.307 70.5666 252.978 80.5018 259.207 87.6444C259.207 87.6444 266.081 80.5555 267.531 85.2814C268.981 90.0074 266.994 95.9685 262.43 95.4314L264.685 98.4926C265.007 98.3315 275.802 93.1222 273.546 72.3389Z" stroke="rgba(0, 0, 0, 1.00)" stroke-width="2" stroke-linejoin="round" stroke-linecap="round" >
</path>
<path    stroke="rgba(0, 0, 0, 1.00)" stroke-width="2" stroke-linejoin="round" stroke-linecap="round"  d="M223.548 72.3389C223.548 72.3389 223.387 74.5407 223.28 77.924C222.85 90.5444 223.494 119.813 237.941 116.376C238.907 116.161 239.767 115.893 240.626 115.624C249.165 112.993 253.569 108.804 253.569 108.804">
</path>
<path    stroke="rgba(0, 0, 0, 1.00)" stroke-width="2" stroke-linejoin="round" stroke-linecap="round"  d="M233.429 107.676C233.429 107.676 238.316 110.844 243.526 106.494">
</path>
<path    stroke="rgba(0, 0, 0, 1.00)" stroke-width="2" stroke-linejoin="round" stroke-linecap="round"  d="M252.763 134.796L242.183 126.311L240.626 115.624">
</path>
<path    stroke="rgba(0, 0, 0, 1.00)" stroke-width="2" stroke-linejoin="round" stroke-linecap="round"  d="M264.685 98.4927L259.906 105.689L263.235 122.552L252.763 134.796">
</path>
<path    stroke="rgba(0, 0, 0, 1.00)" stroke-width="2" stroke-linejoin="round" stroke-linecap="round"  d="M242.184 126.311L236.222 129.802L243.472 144.409L252.763 134.796L260.389 143.228L269.572 126.311L269.948 125.721L263.235 122.552">
</path>
<path    stroke="rgba(0, 0, 0, 1.00)" stroke-width="2" stroke-linejoin="round" stroke-linecap="round"  d="M199.972 164.817L216.459 139.039C219.789 133.83 225.428 130.5 231.604 130.071L236.222 129.748">
</path>
<path    stroke="rgba(0, 0, 0, 1.00)" stroke-width="2" stroke-linejoin="round" stroke-linecap="round"  d="M80.2666 205.202L126.667 205.202L212.539 205.202L267.263 205.202L267.263 217.339L225.481 217.339L70.9758 217.339">
</path>
<path    stroke="rgba(0, 0, 0, 1.00)" stroke-width="2" stroke-linejoin="round" stroke-linecap="round"  d="M56.7982 217.339L21.5149 217.339L21.5149 205.202L63.7797 205.202">
</path>
<path d="M199.918 164.817L193.689 145C193.044 142.906 191.057 141.456 188.855 141.456L113.885 141.456C110.448 141.456 108.031 144.785 108.998 148.061L126.667 204.557L212.539 204.557L199.918 164.817Z"   fill="#C4C4C4" >
</path>
<path    stroke="rgba(0, 0, 0, 1.00)" stroke-width="2" stroke-linejoin="round" stroke-linecap="round"  d="M212.539 204.557L199.918 164.817L193.689 145C193.044 142.906 191.057 141.456 188.855 141.456L113.885 141.456C110.448 141.456 108.031 144.785 108.998 148.061L126.667 204.557">
</path>
<path d="M164.206 174.215C164.206 170.003 160.791 166.589 156.58 166.589C152.368 166.589 148.954 170.003 148.954 174.215C148.954 178.426 152.368 181.841 156.58 181.841C160.791 181.841 164.206 178.426 164.206 174.215Z" stroke="rgba(0, 0, 0, 1.00)" stroke-width="2" stroke-linejoin="round" stroke-linecap="round"    fill="#000000" >
</path>
<path    stroke="rgba(0, 0, 0, 1.00)" stroke-width="2" stroke-linejoin="round" stroke-linecap="round"  d="M257.059 235.759L305.93 234.954L305.93 234.739L304.802 203.054">
</path>
<path    stroke="rgba(0, 0, 0, 1.00)" stroke-width="2" stroke-linejoin="round" stroke-linecap="round"  d="M225.481 217.339L227.254 236.296L240.572 236.028L246.372 235.974L257.059 235.759">
</path>
<path    stroke="rgba(0, 0, 0, 1.00)" stroke-width="2" stroke-linejoin="round" stroke-linecap="round"  d="M264.417 304.607L264.417 356.593L264.417 374.476L256.791 374.476L230.046 374.476L222.958 374.476C222.958 374.476 217.372 322.061 214.956 283.126C214.633 278.293 214.419 273.728 214.204 269.432C213.076 244.459 229.026 237.639 240.519 235.974C240.734 235.92 241.002 235.92 241.217 235.867C247.124 235.115 256.684 235.652 257.006 235.706">
</path>
<path    stroke="rgba(0, 0, 0, 1.00)" stroke-width="2" stroke-linejoin="round" stroke-linecap="round"  d="M305.93 234.739C306.95 240.27 307.809 248.326 307.004 258.208C305.393 277.756 293.363 284.2 278.487 284.2">
</path>
<path    stroke="rgba(0, 0, 0, 1.00)" stroke-width="2" stroke-linejoin="round" stroke-linecap="round"  d="M232.731 236.296L227.254 236.296L190.735 236.296C180.209 236.296 170.596 242.365 166.085 251.87L118.611 351.545L127.365 356.485L151.048 369.857L159.265 374.476L199.22 283.126L215.009 283.126">
</path>
<path d="M63.887 377.161L137.085 411.961L146.161 388.707C143.583 389.406 141.005 389.352 138.428 388.761C130.426 387.043 123.015 380.383 118.504 375.496C116.624 373.509 116.194 373.026 116.141 372.918L112.059 373.778L104.326 375.443L98.687 376.624L75.2184 371.791C73.7684 371.415 72.3721 371.415 70.9759 371.683C67.9684 372.274 65.2833 374.261 63.887 377.161Z"   fill="#C4C4C4" >
</path>
<path d="M127.365 356.539L118.45 375.55C123.015 380.383 130.426 387.043 138.374 388.815L151.048 369.911L127.365 356.539Z"   fill="#F4B383" >
</path>
<path d="M133.648 419.211L137.085 412.015L63.887 377.215L60.45 384.411L70.9759 389.406L133.648 419.211Z"   fill="#000000" >
</path>
<path d="M63.887 377.215L60.45 384.411L70.9759 389.406L133.648 419.211L137.085 412.015L63.887 377.215Z" stroke="rgba(0, 0, 0, 1.00)" stroke-width="2" stroke-linejoin="round" stroke-linecap="round" >
</path>
<path    stroke="rgba(0, 0, 0, 1.00)" stroke-width="2" stroke-linejoin="round" stroke-linecap="round"  d="M116.141 372.919L112.059 373.778L104.326 375.443L98.687 376.624L75.2184 371.791C73.7684 371.469 72.3184 371.415 70.9759 371.683C67.9684 372.274 65.2833 374.261 63.887 377.161">
</path>
<path    stroke="rgba(0, 0, 0, 1.00)" stroke-width="2" stroke-linejoin="round" stroke-linecap="round"  d="M137.085 412.015L146.161 388.761C143.583 389.405 141.006 389.352 138.428 388.815C130.48 387.043 123.069 380.383 118.504 375.55C116.624 373.509 116.248 373.026 116.141 372.972">
</path>
<path d="M184.989 413.035L184.989 421.037L259.959 421.037L259.959 413.035L184.989 413.035Z"   fill="#000000" >
</path>
<path d="M230.1 374.53L230.852 386.935L230.261 387.096C235.47 390.05 246.479 394.937 255.448 390.05L256.791 374.53L230.1 374.53Z"   fill="#F4B383" >
</path>
<path d="M255.395 389.996C246.426 394.883 235.417 389.996 230.208 387.043C228.274 385.969 227.146 385.163 227.146 385.163L216.137 397.569L192.883 403.315C188.265 404.282 184.989 408.309 184.989 413.035L259.959 413.035L258.187 388.171C257.274 388.922 256.361 389.513 255.395 389.996Z"   fill="#C4C4C4" >
</path>
<path    stroke="rgba(0, 0, 0, 1.00)" stroke-width="2" stroke-linejoin="round" stroke-linecap="round"  d="M184.989 413.035C184.989 408.309 188.265 404.282 192.883 403.315L216.137 397.569L227.146 385.163C227.146 385.163 228.274 385.969 230.208 387.043C235.417 389.996 246.426 394.883 255.395 389.996C256.308 389.459 257.22 388.869 258.133 388.117L259.906 412.982">
</path>
<path    stroke="rgba(0, 0, 0, 1.00)" stroke-width="2" stroke-linejoin="round" stroke-linecap="round"  d="M48.0134 204.097L47.2616 191.691">
</path>
<path    stroke="rgba(0, 0, 0, 1.00)" stroke-width="2" stroke-linejoin="round" stroke-linecap="round"  d="M73.9524 191.691L72.6099 207.212">
</path>
<path    stroke="rgba(0, 0, 0, 1.00)" stroke-width="2" stroke-linejoin="round" stroke-linecap="round"  d="M43.3948 216.878L36.467 211.239">
</path>
<path    stroke="rgba(0, 0, 0, 1.00)" stroke-width="2" stroke-linejoin="round" stroke-linecap="round"  d="M47.906 212.367L40.9783 206.728">
</path>
<path d="M264.417 284.2L264.417 304.607L307.004 304.607L328.378 304.607L328.378 284.2L278.487 284.2C266.565 284.2 264.417 284.2 264.417 284.2Z" stroke="rgba(0, 0, 0, 1.00)" stroke-width="2" stroke-linejoin="round" stroke-linecap="round" >
</path>
<path d="M278.433 284.2C266.511 284.2 264.363 284.2 264.363 284.2L264.363 304.607L306.95 304.607L328.324 304.607L328.324 284.2L278.433 284.2Z"   fill="#000000" >
</path>
<path    stroke="rgba(0, 0, 0, 1.00)" stroke-width="2" stroke-linejoin="round" stroke-linecap="round"  d="M125.293 121.125L81.5784 173.807">
</path>
<path    stroke="rgba(0, 0, 0, 1.00)" stroke-width="2" stroke-linejoin="round" stroke-linecap="round"  d="M81.5784 173.808L133.939 238.199">
</path>
<path    stroke="rgba(0, 0, 0, 1.00)" stroke-width="2" stroke-linejoin="round" stroke-linecap="round"  d="M70.9759 388.331L70.9759 389.406L70.9759 421.037L56.7981 421.037L56.7981 217.339L70.9759 217.339L70.9759 371.737">
</path>
<path d="M237.941 184.687C231.711 184.848 226.072 188.231 222.85 193.602L216.244 204.718L253.998 204.718L253.998 184.204L237.941 184.687Z"   fill="#F4B383" >
</path>
<path    stroke="rgba(0, 0, 0, 1.00)" stroke-width="2" stroke-linejoin="round" stroke-linecap="round"  d="M219.305 199.348L222.904 193.441C226.179 188.017 232.033 184.741 238.37 184.741L253.515 184.741">
</path>
<path    stroke="rgba(0, 0, 0, 1.00)" stroke-width="2" stroke-linejoin="round" stroke-linecap="round"  d="M269.572 126.311L280.743 126.311C289.282 126.311 297.337 130.5 302.278 137.481L335.091 184.15C341.374 193.118 334.446 205.309 323.491 204.504L304.802 203.054L253.515 199.133L253.515 184.741L253.515 178.511L293.954 177.115L310.817 176.524">
</path>
<path d="M84.724 165.139L60.4499 165.139L56.4758 165.139L56.4758 169.274L59.2684 169.274L85.8518 169.274L88.6981 169.274L88.6981 165.139L84.724 165.139Z"   fill="#FBD86C" >
</path>
<path d="M59.2686 169.274L60.826 180.069L84.3482 180.069L85.8519 169.274L59.2686 169.274Z"   fill="#FBD86C" >
</path>
<path d="M79.6759 160.95L65.4981 160.95L60.45 165.139L84.724 165.139L79.6759 160.95Z"   fill="#000000" >
</path>
<path d="M60.8259 180.069L62.813 194.407L82.3074 194.407L84.3482 180.069L60.8259 180.069Z"   fill="#000000" >
</path>
<path d="M62.813 194.407L64.3167 205.202L80.8037 205.202L82.3074 194.407L62.813 194.407Z"   fill="#FBD86C" >
</path>
<path    stroke="rgba(0, 0, 0, 1.00)" stroke-width="2" stroke-linejoin="round" stroke-linecap="round"  d="M85.8519 169.274L84.3482 180.069L82.3074 194.408L80.8037 205.202L64.3167 205.202L62.813 194.408L60.826 180.069L59.2686 169.274">
</path>
<path    stroke="rgba(0, 0, 0, 1.00)" stroke-width="2" stroke-linejoin="round" stroke-linecap="round"  d="M84.724 165.139L88.6981 165.139L88.6981 169.274L85.8518 169.274L59.2684 169.274L56.4758 169.274L56.4758 165.139L60.4499 165.139">
</path>
<path d="M79.6759 160.95L65.4981 160.95L60.45 165.139L84.724 165.139L79.6759 160.95Z" stroke="rgba(0, 0, 0, 1.00)" stroke-width="2" stroke-linejoin="round" stroke-linecap="round" >
</path>
<path    stroke="rgba(0, 0, 0, 1.00)" stroke-width="2" stroke-linejoin="round" stroke-linecap="round"  d="M36.9814 101.93L82.4685 101.93C85.9055 101.93 88.6981 104.722 88.6981 108.106L88.6981 110.361C88.6981 113.798 85.9055 116.591 82.4685 116.591L61.0944 116.591C57.6574 116.591 54.8648 119.383 54.8648 122.82L54.8648 125.72C54.8648 129.157 57.6574 131.95 61.0944 131.95L82.4685 131.95C85.9055 131.95 88.6981 134.743 88.6981 138.126C88.6981 139.844 88 141.402 86.8722 142.53C85.7444 143.657 84.187 144.356 82.4685 144.356L77.2592 144.356C74.6814 144.356 72.587 146.45 72.587 149.028L72.587 153.915">
</path>
<path d="M362.963 124.593C365.335 124.593 367.259 122.669 367.259 120.296L367.259 94.5185C367.259 92.1458 365.335 90.2222 362.963 90.2222L321.611 90.2222C319.238 90.2222 317.315 92.1458 317.315 94.5185L317.315 120.296C317.315 122.669 319.238 124.593 321.611 124.593L326.444 124.593L326.444 134.796L336.648 124.593L362.963 124.593Z"   fill="#80AE7B" >
</path>
<path d="M321.611 90.7594L321.611 89.6853L362.963 89.6853C365.633 89.6853 367.796 91.849 367.796 94.5186L367.796 120.296L366.722 120.296L366.722 94.5186C366.722 92.4425 365.039 90.7594 362.963 90.7594L321.611 90.7594ZM321.611 89.6853L321.611 90.7594C319.535 90.7594 317.852 92.4424 317.852 94.5186L316.778 94.5186C316.778 91.849 318.942 89.6853 321.611 89.6853ZM316.778 94.5186L317.852 94.5186L317.852 120.296L316.778 120.296L316.778 94.5186ZM336.648 124.593L337.028 124.972L336.871 125.13L336.648 125.13L336.648 124.593ZM326.982 133.5L326.065 134.417L326.444 134.796L326.444 134.796L326.445 134.797L326.982 134.797L326.982 133.5ZM326.444 124.593L326.444 125.13L325.907 125.13L325.907 124.593L326.444 124.593ZM326.982 124.593C326.982 124.296 326.741 124.056 326.445 124.056L326.445 124.593L326.982 124.593ZM321.611 89.6853L321.611 89.6853L321.611 89.6853ZM316.778 120.296C316.778 122.966 318.942 125.13 321.611 125.13L325.907 125.13L325.907 134.796L326.444 134.796L326.444 134.797L325.907 134.797C325.907 135.013 326.039 135.209 326.239 135.293C326.44 135.376 326.671 135.33 326.824 135.176L326.444 134.797L326.445 134.797L326.824 135.176L336.871 125.13L362.963 125.13L362.963 124.056L362.963 124.056L362.963 125.13C365.633 125.13 367.796 122.966 367.796 120.296L366.722 120.296C366.722 122.373 365.039 124.056 362.963 124.056L336.648 124.056L336.648 124.593L336.648 124.593L336.648 124.593L336.648 124.056C336.506 124.056 336.369 124.112 336.268 124.213L336.268 124.213L326.982 133.5L326.982 124.593L326.444 124.593L326.444 124.056L321.611 124.056C319.535 124.056 317.852 122.373 317.852 120.296L316.778 120.296Z" fill-rule="evenodd"  fill="#000000" >
</path>
<path d="M331.815 104.185C329.738 104.185 328.055 105.868 328.055 107.945C328.055 110.021 329.738 111.704 331.815 111.704C333.891 111.704 335.574 110.021 335.574 107.945C335.574 105.868 333.891 104.185 331.815 104.185Z"   fill="#FFFFFF" >
</path>
<path d="M342.555 104.185C340.479 104.185 338.796 105.868 338.796 107.945C338.796 110.021 340.479 111.704 342.555 111.704C344.632 111.704 346.315 110.021 346.315 107.945C346.315 105.868 344.632 104.185 342.555 104.185Z"   fill="#FFFFFF" >
</path>
<path d="M353.296 104.185C351.22 104.185 349.537 105.868 349.537 107.945C349.537 110.021 351.22 111.704 353.296 111.704C355.373 111.704 357.056 110.021 357.056 107.945C357.056 105.868 355.373 104.185 353.296 104.185Z"   fill="#FFFFFF" >
</path>
</svg>
