<?xml version="1.0" encoding="UTF-8"?>
<svg width="880px" height="755px" viewBox="0 0 880 755" version="1.1" xmlns="http://www.w3.org/2000/svg" xmlns:xlink="http://www.w3.org/1999/xlink">
    <title>编组</title>
    <g id="页面-1" stroke="none" stroke-width="1" fill="none" fill-rule="evenodd">
        <g id="编组" fill-rule="nonzero">
            <path d="M253.1,71.2 L259.2,66.3 L271.7,57.4 L278.3,53.5 L287.3,48.8 L296.5,44.7 L306,41 L315.7,37.8 L325.5,35 L335.5,32.6 L355.7,28.7 L381.1,25.3 L396.2,23.9 L413,22.9 L446.6,22 L463.5,22.1 L480.3,22.7 L497.1,23.8 L513.9,25.5 L530.5,27.7 L547.1,30.5 L559.5,33 L571.7,35.9 L583.9,39.2 L604.6,45.8 L613.1,49 L621.2,52.7 L629.2,56.8 L637,61.2 L646.4,67.3 L655.5,73.9 L664.2,80.9 L672.6,88.5 L680.5,96.5 L688.1,104.8 L695.3,113.5 L702,122.6 L708.4,132 L714.3,141.5 L719.8,151.3 L724.8,161.3 L730.5,175.1 L735.8,189 L740.7,203.1 L745.2,217.3 L749.3,231.6 L753,246.1 L756.3,260.6 L759.2,275.3 L761.6,290 L763.6,304.8 L765.2,319.6 L766.3,334.5 L766.3,346.7 L765.8,359.3 L764.2,376 L761.3,392.6 L759.2,400.7 L756.7,408.6 L753.7,416.3 L750.2,423.7 L746.1,430.8 L742.7,435.9 L738.8,440.8 L734.6,445.5 L729.9,450 L722.8,455.9 L715.5,461.3 L708,466.3 L700.2,470.9 L689.6,476.5 L678.7,481.5 L667.5,486 L656.1,489.9 L644.5,493.5 L632.7,496.6 L614.9,500.7 L597,504.2 L561.4,510.3 L565.1,516.1 L554.5,508.8 L543.5,502.9 L535.8,499.6 L528,496.8 L520,494.5 L503.7,491.1 L495.3,489.8 L482.8,488.5 L470.1,487.7 L445,486.8 L455.8,495.5 L461.5,499.5 L467.1,514.8 L440.2,516.6 L456.3,510.7 L464.3,507.2 L450.7,505.1 L437.2,504 L442.9,495.8 L435.9,474.5 L426.8,464 L419,452.6 L415.6,446.6 L412.5,440.4 L409.9,434 L407.7,427.4 L432.7,434.2 L430.4,431 L427.8,428.3 L424.9,426 L421.6,424.3 L418.2,422.9 L414.6,421.9 L407.1,421.2 L403.2,421.4 L402.4,423.6 L402,428 L402.4,431.3 L403.3,434.6 L409.1,447 L412.8,453.9 L417,460.5 L426.5,473 L436.9,484.8 L421.9,487.7 L379.6,492.4 L360.6,495.5 L353.2,497.3 L345.9,499.4 L338.8,502.1 L331.8,505.3 L325,509.3 L328.6,504.9 L312.1,502.5 L284.2,497.7 L262.2,492.6 L251.3,489.6 L240.5,486.1 L230,482.2 L219.7,477.8 L209.7,472.8 L200,467.3 L193,462.8 L186.2,457.8 L179.6,452.5 L173.2,446.7 L167.9,441.4 L163.1,435.9 L158.9,430 L155,423.9 L151.6,417.5 L148.6,411 L145.9,404.2 L143.7,397.2 L141.2,387.8 L139.2,378.2 L137.9,368.4 L137,358.6 L136.5,348.9 L136.5,339.3 L137.1,324.4 L138.3,309.5 L140,294.7 L142.3,279.9 L145.1,265.2 L148.4,250.7 L152.3,236.2 L156.6,221.9 L161.4,207.7 L166.6,193.7 L172.2,179.9 L178.3,166.3 L184.7,154.4 L191.6,142.8 L199,131.4 L207,120.5 L215.3,109.9 L224.2,99.6 L233.5,89.7 L243.1,80.3 L253.1,71.2 Z M239.9,351.8 L234.8,350.8 L229.5,350.3 L223.9,350.3 L218.4,350.9 L212.9,351.9 L207.5,353.5 L202.3,355.5 L197.4,358 L192.9,361 L189.7,363.6 L184.3,369.4 L182,372.7 L180.2,376.2 L178.7,379.9 L177.7,383.9 L177.1,388.2 L177.5,393.2 L178.2,397.9 L179.3,402.5 L180.9,407 L182.8,411.4 L187.7,419.5 L190.6,423.3 L194.9,428 L199.6,432.2 L204.8,436 L210.3,439.4 L216.1,442.2 L222.1,444.4 L231.4,446.7 L240.9,447.5 L258.5,447.9 L267.5,447.8 L276.4,447.2 L282.4,446.5 L293.9,444.2 L299.6,442.6 L305,440.5 L310.3,438 L315.3,435.1 L320,431.6 L324.6,427.5 L328.1,423.9 L331,420.1 L333.4,416.1 L335.3,411.8 L338.2,402.7 L339.7,395.6 L342.6,374 L350.7,364.7 L357.7,354.5 L361.7,347.3 L365.1,339.8 L367.9,332.1 L371,320.1 L372.7,307.9 L372.9,295.6 L372.4,289.4 L371.5,283.2 L370.2,278.6 L368.4,274.1 L366.1,269.9 L363.3,266 L360,262.5 L356.3,259.4 L350.1,255.8 L343.2,253.6 L336.4,253 L329.6,252.9 L322.9,253.4 L316.2,254.4 L309.6,255.9 L303.2,257.9 L296.9,260.4 L290.7,263.3 L284.8,266.7 L279.1,270.4 L273.7,274.5 L268.5,279 L263.7,283.8 L259.2,288.9 L255.2,294.2 L251.5,299.9 L248.2,305.8 L245.4,311.9 L243.1,318.1 L241.3,324.6 L240.1,331.2 L239.4,337.9 L239.4,344.7 L239.9,351.8 Z M522.1,294.2 L522,302.1 L522.5,310.1 L523.5,318 L525.1,326 L527.2,333.7 L529.8,341.3 L534.8,352.2 L541.1,362.4 L544.7,367.1 L548.6,371.6 L552.9,375.8 L557.5,379.7 L557.4,404.7 L558.5,412.9 L559.6,416.7 L561.1,420.4 L563.3,423.9 L566,427.3 L570.2,431.2 L574.7,434.6 L579.3,437.7 L584.1,440.5 L590.8,443.7 L597.7,446.4 L604.9,448.5 L612.2,450.2 L619.7,451.3 L627.2,452 L642.2,452.2 L655,451.4 L660.2,450.7 L670.4,448.2 L676.9,445.8 L683.3,442.8 L689.4,439.4 L695.3,435.5 L700.9,431.2 L706.2,426.6 L709.2,423.4 L711.9,419.8 L714.3,415.8 L716.3,411.7 L717.9,407.4 L719,403 L719.6,398.5 L719.6,394 L719.1,389.6 L717.1,383.3 L715.6,380.3 L713.6,377.3 L709.9,373.4 L706,369.9 L701.7,366.9 L697.2,364.3 L692.5,362 L682.5,358.6 L672.2,356.6 L666.9,356 L656.4,355.8 L657.3,349.8 L657.8,343.8 L657.7,338 L657.2,332.2 L656.3,326.4 L654.9,320.8 L653.2,315.3 L648.5,304.6 L642.5,294.6 L639,289.8 L633.9,283.8 L628.3,278.2 L622.3,273 L615.9,268.3 L609.2,264.2 L602.2,260.6 L596.8,258.2 L591.2,256.2 L579.9,253.4 L574.1,252.5 L568.3,252.1 L562.5,252.1 L556.6,252.5 L549.3,254.3 L542.8,257.4 L538.8,260.2 L535.2,263.4 L531.9,267.1 L529.1,271.1 L526.7,275.3 L524.8,279.9 L523.4,284.6 L522.5,289.3 L522.1,294.2 Z M423.8,360.3 L426.6,363.9 L428.5,365.6 L437.8,372.5 L440.2,374.8 L441.6,376.5 L442.4,378.3 L442.7,380.2 L442.5,382.1 L441.6,384.4 L436.6,392.9 L434.6,395.3 L432.2,397.4 L428.7,399.7 L424.9,401.5 L420.8,402.6 L416.6,403.2 L412.3,403.3 L408,402.7 L401.9,400.8 L399.1,399.3 L394.3,396 L390.9,392.5 L388.8,389.5 L387.1,386.2 L381.6,372.4 L379.5,373.8 L378.2,375.2 L377.4,376.7 L376.9,378.4 L377.1,382.1 L379.2,387.7 L382,392.8 L384.5,396.2 L387.4,399.3 L390.6,402.1 L397.7,406.7 L405.7,409.9 L413.9,411.6 L417.6,411.5 L421,410.9 L424.3,409.9 L430.3,406.9 L437.1,401.5 L440.8,397.7 L447.4,389.6 L449.5,392.8 L454.7,398.6 L457.7,401.1 L462,403.9 L466.6,406.2 L471.5,408 L479,409.5 L486.7,409.4 L490.5,408.9 L494.2,407.9 L497.8,406.5 L505,402.4 L508.2,399.9 L510.9,396.9 L513.2,393.6 L515.2,390.1 L516.8,386.3 L518.1,382.4 L519.7,374.4 L517.2,374.6 L515.3,375.2 L512.6,377.4 L510.6,380.7 L507.3,389.6 L506,392.4 L503.4,395.4 L498.7,398.6 L495.8,400.2 L492.7,401.4 L489.6,402.3 L485.2,402.8 L480.9,402.8 L476.6,402.1 L472.5,400.9 L468.5,399.2 L464.7,396.9 L461.3,394.3 L458.2,391.2 L455.6,387.7 L452.6,381.8 L451.6,378.5 L451,375.1 L455.9,372.2 L460.4,368.9 L464.5,365.1 L468.2,361 L471.6,356.5 L474.6,351.7 L471.8,348.7 L468.8,346.4 L465.5,344.5 L462.1,343.1 L454.7,341.4 L448.9,341 L443,341.1 L437.2,341.6 L429.6,342.8 L427.7,343.5 L424.4,345.9 L422.1,349.1 L421.4,350.9 L421.1,354.7 L421.5,356.6 L422.4,358.4 L423.8,360.3 Z" id="形状" fill="#FDFDFD"></path>
            <path d="M153.7,25.8 L158.9,21.4 L164.3,17.5 L170,13.9 L176,10.7 L182.2,8 L188.5,5.6 L195,3.7 L201.7,2.1 L208.4,1 L215.1,0.3 L221.9,0 L228.6,0.1 L235.4,0.7 L242.1,1.7 L248.6,3.1 L255.1,5 L261.4,7.3 L267.4,10 L273.3,13.2 L278.9,16.8 L284.3,20.8 L289.3,25.3 L293.9,30.3 L298.3,35.8 L310.8,31.4 L323.4,27.6 L336.2,24.4 L349.1,21.8 L362.1,19.6 L375.1,17.9 L401.4,15.4 L434.4,14 L454.1,13.7 L491.6,15.5 L510.3,17 L529,19.2 L541.4,21.1 L553.7,23.3 L575.2,28.2 L611.7,39.2 L621,41.5 L625.2,36.3 L629.7,31.6 L634.5,27.2 L639.6,23.2 L645,19.6 L650.7,16.4 L656.5,13.6 L662.6,11.1 L668.8,9.1 L675.1,7.4 L681.5,6.2 L688,5.3 L694.5,4.9 L701,4.9 L707.5,5.3 L714,6.1 L720.4,7.4 L726.7,9.1 L732.9,11.3 L744.5,16.6 L749.9,19.6 L755,23.1 L759.9,26.8 L768.8,35.3 L776.7,44.9 L783.4,55.3 L788.9,66.4 L793,78.2 L795.6,90.2 L796.4,96.4 L796.8,102.5 L796.7,108.6 L796.3,114.8 L795.4,120.9 L794.1,126.9 L792.4,132.8 L790.2,138.7 L787.9,143.9 L785.2,148.7 L782.1,153.3 L778.7,157.6 L773.7,163 L768.2,167.9 L762.3,172.5 L756.2,176.6 L749.8,180.4 L743.2,183.7 L749,200.9 L754.4,218.3 L759.2,235.8 L763.6,253.5 L767.3,271.2 L770.4,289.1 L772.4,302.6 L773.9,316.1 L775,329.7 L775.8,343.3 L774.4,367 L772.4,382.9 L769.3,398.5 L767.1,406.1 L764.5,413.6 L761.5,420.9 L758,428 L754,434.9 L750.1,440.6 L741.6,451.2 L727.7,466.4 L734.3,491.9 L737.1,504.8 L741.7,530.9 L743.3,544.1 L744.6,557.2 L745.4,570.5 L745.9,583.7 L745.9,596.9 L745.4,610.1 L744.5,623.3 L767,623.4 L812.3,623 L849.9,623.2 L880,624.7 L878,627.2 L875.8,628.9 L873.4,630.1 L870.7,630.8 L743.2,630.5 L740.3,642.4 L736.1,654 L733.4,659.5 L730.4,664.8 L724.9,672.1 L721.7,675.4 L714.2,681.6 L710.1,684.3 L705.8,686.7 L699.2,689.8 L692.3,692.5 L664.2,701.7 L662.4,705.4 L656.5,720.5 L654.7,724.1 L652.6,727.5 L646,734.6 L641.8,738.1 L637.4,741 L632.6,743.4 L627.6,745.5 L622.4,747.2 L614.4,749.2 L606.3,750.6 L590.1,752.3 L579.6,747.4 L574.8,746.2 L565.1,744.7 L557.7,744.2 L528.1,744.3 L488.9,742.6 L393.4,740.3 L361.6,739.2 L320.1,736.9 L310.4,735.7 L304,734.6 L291.6,731.2 L285.6,728.9 L279.8,726.1 L274.2,722.6 L302.9,710.1 L312.3,705.6 L324.3,698.7 L330.1,694.8 L331.2,690.3 L332.4,681.1 L332.4,676.4 L331.9,670.2 L330.8,664.1 L329.2,658 L327,652.1 L324.4,646.5 L321.2,641.2 L318.3,637.1 L315,633.4 L311.5,630.1 L305.8,625.5 L287.2,613.2 L281.1,608.9 L275.5,604.1 L281.6,604.9 L287.6,606.2 L293.3,608 L298.9,610.3 L304.3,613 L309.4,616.2 L314.3,619.8 L318.9,623.9 L328.9,625.2 L333.8,641.3 L336.7,649.3 L340.1,657 L342.8,661.9 L345.9,666.5 L349.4,670.9 L354.5,674.1 L359.9,676.8 L365.4,679 L376.8,682.3 L391.8,684.7 L418.7,686.7 L440.6,686.9 L451.8,686.6 L462.9,685.8 L470.3,684.9 L484.7,682.1 L491.7,680 L498.5,677.5 L505.1,674.4 L509.8,671.7 L514.3,668.6 L518.7,665.2 L523,661.3 L518.2,649.6 L513.9,637.8 L513,632.5 L512.6,627.2 L512.7,621.9 L513.2,616.5 L514.2,611.3 L515.7,606.1 L517.6,601.2 L520,596.4 L522.8,592 L526,587.8 L529.6,584 L533.6,580.6 L536.9,578.4 L544,574.9 L564.4,569.1 L564.5,554.5 L563.4,540 L562.2,532.8 L559.1,520.7 L571.7,526.2 L561.4,510.3 L597,504.2 L614.9,500.7 L632.7,496.6 L644.5,493.5 L656.1,489.9 L667.5,486 L678.7,481.5 L689.6,476.5 L700.2,470.9 L708,466.3 L715.5,461.3 L722.8,455.9 L729.9,450 L734.6,445.5 L738.8,440.8 L742.7,435.9 L746.1,430.8 L750.2,423.7 L753.7,416.3 L756.7,408.6 L759.2,400.7 L761.3,392.6 L762.9,384.4 L765.1,367.7 L766.3,346.7 L766.3,334.5 L765.2,319.6 L763.6,304.8 L761.6,290 L759.2,275.3 L756.3,260.6 L753,246.1 L749.3,231.6 L745.2,217.3 L740.7,203.1 L735.8,189 L730.5,175.1 L724.8,161.3 L719.8,151.3 L714.3,141.5 L708.4,132 L702,122.6 L695.3,113.5 L688.1,104.8 L680.5,96.5 L672.6,88.5 L664.2,80.9 L655.5,73.9 L646.4,67.3 L637,61.2 L629.2,56.8 L621.2,52.7 L613.1,49 L604.6,45.8 L596,42.9 L583.9,39.2 L571.7,35.9 L559.5,33 L547.1,30.5 L530.5,27.7 L513.9,25.5 L497.1,23.8 L480.3,22.7 L463.5,22.1 L446.6,22 L429.8,22.2 L396.2,23.9 L381.1,25.3 L355.7,28.7 L335.5,32.6 L325.5,35 L315.7,37.8 L306,41 L296.5,44.7 L287.3,48.8 L278.2,53.5 L271.7,57.4 L259.2,66.3 L253.1,71.2 L243.1,80.3 L233.5,89.7 L224.2,99.6 L215.3,109.9 L207,120.5 L199,131.4 L191.6,142.8 L184.7,154.4 L178.3,166.3 L172.2,179.9 L166.6,193.7 L161.4,207.7 L156.6,221.9 L152.3,236.2 L148.4,250.7 L145.1,265.2 L142.3,279.9 L140,294.7 L138.3,309.5 L137.1,324.4 L136.5,339.3 L136.5,348.9 L137,358.6 L137.9,368.4 L139.2,378.2 L141.2,387.8 L143.7,397.2 L145.9,404.2 L148.6,411 L151.6,417.5 L155,423.9 L158.9,430 L163.1,435.9 L167.9,441.4 L173.2,446.7 L179.6,452.5 L186.2,457.8 L193,462.8 L200,467.3 L209.7,472.8 L219.7,477.8 L230,482.2 L240.5,486.1 L251.3,489.6 L262.2,492.6 L273.2,495.3 L295.4,499.8 L328.6,504.9 L320.1,515.9 L317,521.6 L314.6,527.5 L312.7,533.4 L311.2,539.5 L309.4,551.9 L308.8,561.5 L309.3,609.3 L285.4,603.7 L273.8,600 L270.9,592 L268.4,584 L270.9,611.1 L291.4,621.9 L298.1,625.8 L306.4,631.7 L310.2,635 L313.7,638.6 L316.9,642.6 L319.7,647.1 L322.2,651.8 L324.4,657 L326.2,662.3 L327.4,667.7 L327.8,671.4 L327.7,675 L327.3,678.5 L326.4,681.9 L324.9,685.2 L322.8,688.5 L319,693.1 L314.8,697.4 L310.1,701.3 L305.2,704.7 L300,707.6 L294.5,710.1 L288.8,712.2 L283,713.8 L277.1,714.9 L271.1,715.5 L265.1,715.7 L251.6,714.4 L244.2,713.1 L237,711.3 L230,709 L223,706.3 L216.3,703.3 L209.7,699.8 L203.3,696 L197.1,691.8 L185.3,682.6 L179.8,677.5 L172.8,670.4 L166.4,662.9 L160.4,655 L156.9,649.5 L151,638.2 L148.6,632.4 L145.8,624.4 L143.6,616.2 L141.8,607.9 L139.4,591 L137.9,569.6 L137.5,557 L137.7,548.7 L138.2,540.5 L139.3,532.4 L140.7,524.3 L142.6,516.4 L147.5,500.7 L150.5,493.1 L155,483.1 L160,473.4 L165.5,463.9 L166.8,462.3 L167.8,459.6 L167.6,457.5 L166.7,455.4 L165.4,453.5 L152.2,436.6 L148.4,430.8 L145,424.7 L141,416.4 L137.5,407.8 L134.6,398.9 L132.2,389.9 L130.3,380.7 L129,371.4 L128,362.1 L127.5,352.8 L127.3,343.5 L127.8,328.8 L128.7,314.1 L130.3,299.5 L132.5,285 L135.1,270.5 L138.2,256.1 L141.8,241.9 L145.8,227.7 L151.8,208.9 L158.3,190.4 L165.4,172.2 L155.2,166.2 L145.7,159 L141.4,155 L137.5,150.6 L132.5,143.4 L128.6,135.3 L126.1,127.8 L124.3,120.1 L122.9,112.3 L122.2,104.3 L122.1,96.3 L122.6,88.4 L123.6,80.4 L125.3,72.7 L127.6,65 L132.1,54 L137.9,43.7 L141.4,38.9 L145.1,34.3 L149.2,29.9 L153.7,25.8 Z M148.6,64 L144.5,75.2 L141.6,86.9 L140.5,94.9 L140,102.9 L140.1,111 L141.5,123 L144.4,134.7 L146.4,140.4 L148.8,145.8 L151.5,151.2 L154.7,156.3 L151.3,148.2 L148.5,139.8 L146.2,131 L144.8,124.4 L143.8,117.7 L143,104.3 L143.2,97.6 L143.9,91 L145,84.5 L146.7,78.1 L148.8,71.8 L151.5,65.8 L154.7,59.9 L158.6,54.2 L162.4,49.1 L166.5,44.5 L171,40.2 L175.8,36.3 L180.9,32.7 L186.1,29.5 L191.6,26.7 L197.3,24.2 L203.2,22.1 L209.1,20.4 L215.2,19.1 L221.3,18.2 L227.5,17.7 L233.7,17.6 L239.9,17.9 L246,18.6 L252.1,19.8 L258,21.3 L263.9,23.3 L269.6,25.7 L275,28.6 L280.3,31.8 L285.3,35.6 L290.1,39.8 L285.2,33.3 L279.6,27.6 L276.3,25.2 L272.7,23.3 L267.2,20.8 L261.5,18.7 L255.8,17 L249.9,15.6 L238,14.2 L226,14.3 L214.1,15.8 L202.4,18.8 L191.2,23.1 L180.6,28.8 L175.6,32.1 L170.9,35.8 L166.4,39.7 L162.2,44 L158.3,48.6 L154.7,53.4 L151.5,58.5 L148.6,64 Z M629.8,46.3 L647.3,34.6 L657.4,29.1 L666.3,26 L672.7,24.6 L679,23.7 L685.4,23.3 L691.8,23.5 L698.2,24.1 L704.4,25.2 L710.6,26.8 L716.8,28.8 L722.7,31.3 L728.5,34.1 L734,37.3 L739.3,40.9 L744.4,44.9 L749.1,49.2 L753.5,53.9 L757.6,58.8 L761.3,64.1 L764.5,69.6 L767.3,75.4 L771.7,87.7 L773.2,94 L774.1,100.3 L774.4,106.6 L774.3,113 L773.8,119.5 L772.5,129 L770.5,138.6 L765.7,157.3 L768.8,152.3 L774.1,142 L776.3,136.6 L778,131.1 L779.4,125.4 L780.3,119.7 L780.6,113.9 L780.3,102 L779.7,96.2 L778.7,90.4 L777.2,84.8 L775.4,79.2 L770.6,68.6 L767.7,63.5 L763.3,57 L758.5,50.9 L753.1,45.1 L747.3,39.9 L741.1,35.1 L734.5,30.8 L729.3,27.9 L718.6,23.2 L707.4,19.9 L701.6,18.8 L695.8,18.2 L684.1,17.8 L678.3,18.2 L672.5,19 L666.8,20.2 L661.3,21.9 L655.8,24 L650.6,26.6 L645.7,29.7 L641.1,33.1 L636.9,37.1 L633.1,41.4 L629.8,46.3 Z M721.3,474 L719.8,476.5 L719.2,478.5 L719.2,480 L719.6,481.2 L720.6,482.3 L722.1,483.2 L724.6,484 L726,481.4 L726.6,479.5 L726.6,477.9 L726.2,476.7 L725.3,475.6 L723.7,474.7 L721.3,474 Z M735.2,565.9 L736.5,595.8 L736.5,605.9 L735.5,619.3 L734.5,625.8 L733.1,632.2 L731.3,638.5 L729,644.6 L726.9,649.1 L721.7,657.6 L718.5,661.7 L714,666.2 L709.4,670.4 L704.4,674 L699.2,677.3 L692,681.2 L684.5,684.6 L676.6,687.4 L668.6,689.7 L660.5,691.7 L652.2,693.2 L639.8,695 L627.6,696.2 L619.3,696.3 L610.9,696 L602.3,695.2 L593.8,693.9 L585.5,692.1 L577.3,689.8 L571.3,687.6 L565.5,685 L560,682.1 L554.6,678.8 L549.6,675.1 L544.8,671 L540.5,666.4 L533.5,657.2 L531.1,653 L529.2,648.6 L526.2,639.4 L525.2,634.7 L524.2,627.4 L523.5,620.1 L522.9,605.6 L522,612.5 L521.8,619.4 L522.2,626.4 L523.2,633.3 L524.8,640.1 L526.9,646.7 L529.7,653.1 L532.9,659.1 L536.7,664.9 L543.3,672.7 L551.1,679.5 L555.3,682.4 L559.8,685 L564.6,687.2 L577.7,691.8 L585.9,694 L594.1,695.8 L602.5,697.1 L610.9,697.9 L619.3,698.3 L627.8,698.2 L636.2,697.7 L644.7,696.8 L653,695.4 L661.3,693.7 L669.5,691.5 L677.6,688.9 L685.5,686 L693.3,682.7 L700.9,679.1 L706,676.1 L710.7,672.8 L714.9,669.1 L718.7,665 L722.1,660.6 L725.2,655.9 L727.8,651 L730.2,645.8 L732.7,638.6 L734.7,631.2 L736.1,623.6 L737,616 L737.3,608.4 L737.3,576.1 L736.6,563.7 L734.4,538.9 L730,508.1 L726.9,489.6 L727.3,499.2 L728.1,508.8 L733.5,546.8 L734.5,556.3 L735.2,565.9 Z M218.5,500.3 L224,505.8 L229.2,511.6 L234,517.6 L238.6,523.9 L244.2,532.5 L249.3,541.4 L254,550.6 L258.3,560.1 L265.9,579.2 L265.6,568 L289.1,570.1 L300.8,571.7 L301.7,567 L282.7,565.3 L263.6,564.7 L250.3,537.8 L245.5,529 L242,523.3 L238.1,518 L233.9,513 L230.5,509.4 L222.8,503.1 L218.5,500.3 Z M643.8,556.3 L634.7,559.7 L630.1,560.8 L623.1,562 L615.9,562.7 L594.3,564 L587.1,564.8 L577.8,566.6 L573.2,568 L589.3,567.6 L605.4,566.7 L616.1,565.7 L626.7,564.3 L637.3,562.4 L640.8,561.2 L643.9,559.6 L646.7,557.6 L651.5,552.6 L653.5,549.7 L656.2,545.1 L658.5,540.3 L662.4,530.4 L652.2,547.9 L649.8,551.1 L647,553.9 L643.8,556.3 Z M542.2,579.8 L542.2,584 L622.5,578.6 L625.6,577.9 L628.5,576.7 L636.8,571.7 L613.1,573.7 L577.6,575.7 L565.7,576.7 L554,578 L542.2,579.8 Z M387.8,692.3 L383.4,691.8 L374.9,690 L368.7,688 L350.3,680.9 L344.1,679 L337.7,677.6 L343.7,681.8 L349.9,685.3 L356.3,688.3 L362.9,690.8 L369.6,692.9 L376.5,694.5 L390.6,696.7 L397.8,697.3 L419.4,698.1 L440.7,698.2 L459.6,697.1 L469.2,696.1 L485.1,693.2 L497.3,689.7 L503.2,687.4 L508.8,684.6 L514.2,681.5 L519.3,677.9 L524.2,673.7 L528.7,669 L522.6,673.5 L516.3,677.4 L509.9,680.9 L503.3,683.9 L489.7,688.8 L475.6,692.2 L466,693.7 L456.3,694.7 L446.4,695.3 L436.6,695.4 L416.8,694.8 L387.8,692.3 Z M629.3,732.5 L624.1,734.5 L618.9,736 L613.6,737.1 L581,741.5 L583.6,742.8 L589,744.4 L593.2,744.9 L597.5,744.9 L601.7,744.5 L614.5,742.4 L626.1,739.1 L631.9,736.8 L637.3,733.9 L640.7,731.7 L643.7,729.2 L646.4,726.3 L648.7,723.1 L650.5,719.5 L651.8,715.4 L637.2,727.4 L629.3,732.5 Z" id="形状" fill="#2F1925"></path>
            <polygon id="路径" fill="#A26A69" points="148.6 64 151.5 58.5 154.7 53.4 158.3 48.6 162.2 44 166.4 39.7 170.9 35.8 175.6 32.1 180.6 28.8 191.2 23.1 202.4 18.8 214.1 15.8 226 14.3 238 14.2 249.9 15.6 255.8 17 261.5 18.7 267.2 20.8 272.7 23.3 276.3 25.2 279.6 27.6 285.2 33.3 290.1 39.8 285.3 35.6 280.3 31.8 275 28.6 269.6 25.7 263.9 23.3 258 21.3 252.1 19.8 246 18.6 239.9 17.9 233.7 17.6 227.5 17.7 221.3 18.2 215.2 19.1 209.1 20.4 203.2 22.1 197.3 24.2 191.6 26.7 186.1 29.5 180.9 32.7 175.8 36.3 171 40.2 166.5 44.5 162.4 49.1 158.6 54.2 154.7 59.9 151.5 65.8 148.8 71.8 146.7 78.1 145 84.5 143.9 91 143.2 97.6 143 104.3 143.8 117.7 144.8 124.4 146.2 131 148.5 139.8 151.3 148.2 154.7 156.3 151.5 151.2 148.8 145.8 146.4 140.4 144.4 134.7 141.5 123 140.1 111 140 102.9 140.5 94.9 141.6 86.9 144.5 75.2"></polygon>
            <path d="M161,447.7 L166.7,455.4 L167.6,457.5 L167.8,459.6 L167.5,460.9 L160,473.4 L155,483.1 L150.5,493.1 L147.5,500.7 L142.6,516.4 L140.7,524.3 L139.3,532.4 L138.2,540.5 L137.7,548.7 L137.5,557 L138.6,582.4 L140.4,599.5 L141.8,607.9 L143.6,616.2 L145.8,624.4 L148.6,632.4 L151,638.2 L156.9,649.5 L160.4,655 L166.4,662.9 L172.8,670.4 L179.8,677.5 L185.3,682.6 L197.1,691.8 L209.7,699.8 L216.3,703.3 L223,706.3 L230,709 L237,711.3 L244.2,713.1 L251.6,714.4 L265.1,715.7 L271.1,715.5 L277.1,714.9 L283,713.8 L288.8,712.2 L294.5,710.1 L300,707.6 L305.2,704.7 L310.1,701.3 L314.8,697.4 L319,693.1 L322.8,688.5 L324.9,685.2 L326.4,681.9 L327.3,678.5 L327.7,675 L327.8,671.4 L327.4,667.7 L326.2,662.3 L324.4,657 L322.2,651.8 L319.7,647.1 L316.9,642.6 L313.7,638.6 L310.2,635 L306.4,631.7 L298.1,625.8 L291.4,621.9 L270.9,611.1 L268.4,584 L270.9,592 L273.8,600 L285.4,603.7 L309.3,609.3 L308.8,561.5 L309.4,551.9 L310.1,545.7 L312.7,533.4 L314.6,527.5 L317,521.6 L320.1,515.9 L318,526.4 L316.5,536.9 L315.5,547.5 L313.9,579.4 L313.6,596.9 L314.3,606.5 L316.1,614 L317.4,617.5 L319.2,620.9 L321.5,624.3 L318.9,623.9 L314.3,619.8 L309.4,616.2 L304.3,613 L298.9,610.3 L293.3,608 L287.6,606.2 L281.6,604.9 L275.5,604.1 L281.1,608.9 L305.8,625.5 L311.5,630.1 L315,633.4 L318.3,637.1 L321.2,641.2 L324.4,646.5 L327,652.1 L329.2,658 L330.8,664.1 L331.9,670.2 L332.4,676.4 L332.4,681.1 L331.2,690.3 L330.1,694.8 L318.4,702.3 L302.9,710.1 L274.2,722.6 L279.8,726.1 L285.6,728.9 L291.6,731.2 L304,734.6 L310.4,735.7 L320.1,736.9 L361.6,739.2 L393.4,740.3 L488.9,742.6 L528.1,744.3 L557.7,744.2 L570,745.3 L579.6,747.4 L448.6,746.3 L383.2,746.2 L377.1,752.4 L362.5,752.4 L347.9,751.9 L333.2,751 L318.6,749.6 L304,747.5 L289.6,744.8 L294,745 L298.3,744.6 L302.4,743.8 L306.5,742.3 L302.5,740.5 L285,734.2 L278.5,730.6 L274.3,726.7 L272.7,724.3 L271.3,721.5 L270.3,718.2 L249.3,725.6 L257.9,719.4 L248.2,717.7 L238.7,715.4 L229.3,712.5 L222.4,709.9 L215.6,707.1 L202.6,700.3 L190.4,692.3 L179.1,683 L173.8,677.9 L168.9,672.5 L164.2,666.7 L159.9,660.7 L155.2,654 L151.2,647.2 L147.7,640.1 L144.7,632.9 L142.1,625.5 L140,617.9 L138.2,610.2 L136.8,602.4 L135.5,591.9 L134.6,581.3 L134.2,570.6 L134.3,554.6 L135,539 L135.5,532.3 L136.4,525.8 L139.5,513.1 L143.7,500.7 L151.6,482.5 L160.2,464.7 L159.9,460.1 L158.4,459 L161,447.7 Z M315.9,744.3 L318.2,748.7 L363,750.7 L377.9,751.6 L377.4,743.9 L369.7,744.2 L361.9,744 L338.3,742.7 L330.7,742.7 L325.6,742.9 L315.9,744.3 Z" id="形状" fill="#A26A69"></path>
            <polygon id="路径" fill="#644A51" points="629.8 46.3 633.1 41.4 636.9 37.1 641.1 33.1 645.7 29.7 650.6 26.6 655.8 24 661.3 21.9 666.8 20.2 672.5 19 678.3 18.2 684.1 17.8 695.8 18.2 701.6 18.8 707.4 19.9 718.6 23.2 729.3 27.9 734.5 30.8 741.1 35.1 747.3 39.9 753.1 45.1 758.5 50.9 763.3 57 767.7 63.5 770.6 68.6 775.4 79.2 777.2 84.8 778.7 90.4 779.7 96.2 780.3 102 780.6 113.9 780.3 119.7 779.4 125.4 778 131.1 776.3 136.6 774.1 142 768.8 152.3 765.7 157.3 770.5 138.6 772.5 129 773.8 119.5 774.3 113 774.4 106.6 774.1 100.3 773.2 94 771.7 87.7 767.3 75.4 764.5 69.6 761.3 64.1 757.6 58.8 753.5 53.9 749.1 49.2 744.4 44.9 739.3 40.9 734 37.3 728.5 34.1 722.7 31.3 716.8 28.8 710.6 26.8 704.4 25.2 698.2 24.1 691.8 23.5 685.4 23.3 679 23.7 672.7 24.6 666.3 26 657.4 29.1 647.3 34.6"></polygon>
            <polygon id="路径" fill="#FACFD1" points="735.2 565.9 734.5 556.3 733.5 546.8 728.1 508.8 727.3 499.2 726.9 489.6 730 508.1 734.4 538.9 736.6 563.7 737.3 576.1 737.3 608.4 737 616 736.1 623.6 734.7 631.2 732.7 638.6 730.2 645.8 727.8 651 725.2 655.9 722.1 660.6 718.7 665 714.9 669.1 710.7 672.8 706 676.1 700.9 679.1 693.3 682.7 685.6 686 677.6 688.9 669.5 691.5 661.3 693.7 653 695.4 644.7 696.8 636.2 697.7 627.8 698.2 619.3 698.3 610.9 697.9 602.5 697.1 594.1 695.8 585.9 694 577.7 691.8 569.7 689.1 564.6 687.2 559.8 685 555.3 682.4 551.1 679.5 543.3 672.7 536.7 664.9 532.9 659.1 529.7 653.1 526.9 646.7 524.8 640.1 523.2 633.3 522.2 626.4 521.8 619.4 522 612.5 522.9 605.6 523.5 620.1 524.2 627.4 525.2 634.7 526.2 639.4 529.2 648.6 531.1 653 533.5 657.2 540.5 666.4 544.8 671 549.6 675.1 554.6 678.8 560 682.1 565.5 685 571.3 687.6 577.3 689.8 585.5 692.1 593.8 693.9 602.3 695.2 610.9 696 619.3 696.3 627.6 696.2 639.8 695 652.2 693.2 660.5 691.7 668.6 689.7 676.6 687.4 684.5 684.6 692 681.2 699.2 677.3 704.4 674 709.4 670.3 714 666.2 718.5 661.7 721.7 657.6 726.9 649.1 729 644.6 731.3 638.5 733.1 632.2 734.5 625.8 735.5 619.3 736.5 605.9 736.5 595.8"></polygon>
            <polygon id="路径" fill="#FACFD1" points="643.8 556.3 647 553.9 649.8 551.1 652.2 547.9 662.4 530.4 658.5 540.3 656.2 545.1 653.5 549.7 651.5 552.6 646.7 557.6 643.9 559.6 640.8 561.2 637.3 562.4 626.7 564.3 616.1 565.7 605.4 566.7 589.3 567.6 573.2 568 577.8 566.6 587.1 564.8 594.3 564 615.9 562.7 623.1 562 630.1 560.8 634.7 559.7"></polygon>
            <polygon id="路径" fill="#FACFD1" points="387.8 692.3 416.8 694.8 436.6 695.4 456.3 694.7 466 693.7 475.6 692.2 489.7 688.8 503.3 683.9 509.9 680.9 516.3 677.4 522.6 673.5 528.7 669 524.2 673.7 519.3 677.9 514.2 681.5 508.8 684.6 503.2 687.4 497.3 689.7 485.1 693.2 469.2 696.1 459.6 697.1 440.7 698.2 419.4 698.1 397.8 697.3 390.6 696.7 376.5 694.5 369.6 692.9 362.9 690.8 356.3 688.3 349.9 685.3 343.7 681.8 337.7 677.6 344.1 679 350.3 680.9 368.7 688 374.9 690 383.4 691.8"></polygon>
            <path d="M239.9,351.8 L239.4,344.7 L239.4,337.9 L240.1,331.2 L241.3,324.6 L243.1,318.1 L245.4,311.9 L248.2,305.8 L251.5,299.9 L255.2,294.2 L259.2,288.9 L263.7,283.8 L268.5,279 L273.7,274.5 L279.1,270.4 L284.8,266.7 L290.7,263.3 L296.9,260.4 L303.2,257.9 L309.6,255.9 L316.2,254.4 L322.9,253.4 L329.6,252.9 L336.4,253 L343.2,253.6 L346.8,254.5 L353.3,257.4 L356.3,259.4 L360,262.5 L363.3,266 L366.1,269.9 L368.4,274.1 L370.2,278.6 L371.5,283.2 L372.4,289.4 L372.9,295.6 L372.7,307.9 L372,314.1 L369.6,326.1 L367.9,332.1 L365.1,339.8 L361.7,347.3 L357.7,354.5 L354.3,359.7 L346.8,369.5 L342.6,374 L338.5,377.4 L334.1,380.3 L329.6,382.9 L324.8,385.1 L314.9,388.5 L304.6,390.4 L297.5,390.9 L290.6,390.7 L283.6,390 L278.4,389 L268.4,386 L263.5,384 L259.4,381.8 L255.6,379.2 L252.3,376 L249.4,372.6 L246.9,368.8 L244.6,364.7 L242.8,360.5 L239.9,351.8 Z M313.2,337.7 L316.8,336.9 L320.2,335.8 L323.4,334.2 L326.3,332.3 L329.1,330.1 L331.5,327.5 L333.6,324.7 L335.3,321.6 L336.7,318.1 L334.2,316.4 L331.8,315.5 L329.3,315.1 L326.7,315.2 L324.2,315.9 L321.8,317 L319.5,318.4 L315.6,322.3 L314.1,324.6 L313,327.1 L312.3,329.7 L312,332.3 L312.3,335 L313.2,337.7 Z" id="形状" fill="#311A27"></path>
            <path d="M522.1,294.2 L522.5,289.3 L523.4,284.6 L524.8,279.9 L526.7,275.3 L529.1,271.1 L531.9,267.1 L535.2,263.4 L538.8,260.2 L542.8,257.4 L545.9,255.7 L552.8,253.2 L556.6,252.5 L562.5,252.1 L568.3,252.1 L574.1,252.5 L579.9,253.4 L591.2,256.2 L596.8,258.2 L602.2,260.6 L609.2,264.2 L615.9,268.3 L622.3,273 L628.3,278.2 L633.9,283.8 L639,289.8 L642.5,294.6 L645.7,299.5 L651,309.9 L653.2,315.3 L654.9,320.8 L656.3,326.4 L657.2,332.2 L657.7,338 L657.8,343.8 L657.3,349.8 L656.4,355.8 L654.6,360.9 L652.5,365.5 L650,369.7 L647.1,373.5 L643.8,377 L640.3,380.1 L636.5,382.9 L632.4,385.3 L623.6,389.2 L618.9,390.6 L614.1,391.6 L607.6,392.6 L600.9,392.9 L594.2,392.6 L587.5,391.8 L581,390.5 L574.7,388.6 L568.5,386.1 L562.8,383.2 L557.5,379.7 L552.9,375.8 L548.6,371.6 L544.7,367.1 L541.1,362.4 L534.8,352.2 L529.8,341.3 L527.2,333.7 L525.1,326 L523.5,318 L522.5,310.1 L522,302.1 L522.1,294.2 Z M560.6,316.1 L561.4,321.6 L562.2,324.3 L563.3,326.8 L566.3,331.3 L568.1,333.2 L572.6,336.1 L575,336.9 L577.8,337.3 L580.8,337.2 L582.2,334.9 L582.9,332.6 L583.1,330.4 L582.7,328.1 L581.9,326 L579.1,322 L575.1,318.7 L570.4,316.5 L565.4,315.5 L562.9,315.6 L560.6,316.1 Z" id="形状" fill="#301A26"></path>
            <polygon id="路径" fill="#FFF9FA" points="313.2 337.7 312.3 335 312 332.3 312.3 329.7 313 327.1 314.1 324.6 315.6 322.3 319.5 318.4 321.8 317 324.2 315.9 326.7 315.2 329.3 315.1 331.8 315.5 334.2 316.4 336.7 318.1 335.3 321.6 333.6 324.7 331.5 327.5 329.1 330.1 326.3 332.3 323.4 334.2 320.2 335.8 316.8 336.9"></polygon>
            <polygon id="路径" fill="#FFFAF9" points="560.6 316.1 562.9 315.6 565.4 315.5 567.9 315.8 572.8 317.4 575.1 318.7 577.3 320.3 580.7 323.9 581.9 326 582.7 328.1 583.1 330.4 582.9 332.6 582.2 334.9 580.8 337.2 577.8 337.3 575 336.9 572.6 336.1 570.2 334.8 566.3 331.3 563.3 326.8 561.4 321.6"></polygon>
            <polygon id="路径" fill="#351D27" points="423.8 360.3 422.4 358.4 421.5 356.6 421.1 354.7 421.4 350.9 422.1 349.1 424.4 345.9 427.7 343.5 429.6 342.8 437.2 341.6 443 341.1 448.9 341 454.7 341.4 458.5 342.1 462.1 343.1 465.5 344.5 468.8 346.4 471.8 348.7 474.6 351.7 471.6 356.5 468.2 361 464.5 365.1 460.4 368.9 455.9 372.2 451 375.1 451.6 378.5 452.6 381.8 455.6 387.7 458.2 391.2 461.3 394.3 464.7 396.9 468.5 399.2 472.5 400.9 476.6 402.1 480.9 402.8 485.2 402.8 489.6 402.3 492.7 401.4 495.8 400.2 498.7 398.6 503.4 395.4 506 392.4 507.3 389.6 510.6 380.7 512.6 377.4 515.3 375.2 517.2 374.6 519.7 374.4 518.1 382.4 516.8 386.3 515.2 390.1 513.2 393.6 510.9 396.9 508.2 399.9 505 402.4 497.8 406.5 494.2 407.9 490.5 408.9 486.7 409.4 479 409.5 471.5 408 466.6 406.2 462 403.9 457.7 401.1 454.7 398.6 449.5 392.8 447.4 389.6 440.8 397.7 437.1 401.5 430.3 406.9 424.3 409.9 421 410.9 417.6 411.5 413.9 411.6 405.7 409.9 397.7 406.7 390.6 402.1 387.4 399.3 384.5 396.2 382 392.8 379.2 387.7 377.1 382.1 376.9 378.4 377.4 376.7 378.2 375.2 379.5 373.8 381.6 372.4 387.1 386.2 388.8 389.5 390.9 392.5 394.3 396 399.1 399.3 401.9 400.8 408 402.7 412.3 403.3 416.6 403.2 420.8 402.6 424.9 401.5 428.7 399.7 432.2 397.4 434.6 395.3 436.6 392.9 441.6 384.4 442.5 382.1 442.7 380.2 442.4 378.3 441.6 376.5 440.2 374.8 437.8 372.5 428.5 365.6 426.6 363.9"></polygon>
            <path d="M177.1,388.2 L177.7,383.9 L178.7,379.9 L180.2,376.2 L182,372.7 L184.3,369.4 L189.7,363.6 L192.9,361 L197.4,358 L202.3,355.5 L207.5,353.5 L212.9,351.9 L218.4,350.9 L223.9,350.3 L229.5,350.3 L234.8,350.8 L239.9,351.8 L242.8,360.5 L244.6,364.7 L246.9,368.8 L249.4,372.6 L252.3,376 L255.6,379.2 L259.4,381.8 L263.5,384 L268.4,386 L278.4,389 L283.6,390 L290.6,390.7 L297.5,390.9 L304.6,390.4 L314.9,388.5 L324.8,385.1 L329.6,382.9 L334.1,380.3 L338.5,377.4 L342.6,374 L339.7,395.6 L336.9,407.3 L333.4,416.1 L331,420.1 L328.1,423.9 L320,431.6 L315.3,435.1 L310.3,438 L305,440.5 L299.6,442.6 L293.9,444.2 L282.4,446.5 L276.4,447.2 L267.5,447.8 L258.5,447.9 L236.1,447.3 L226.7,445.7 L222.1,444.4 L216.1,442.2 L210.3,439.4 L204.8,436 L199.6,432.2 L194.9,428 L190.6,423.3 L185.1,415.5 L180.9,407 L179.3,402.5 L178.2,397.9 L177.5,393.2 L177.1,388.2 Z M198.3,389.3 L222.6,388.7 L220.8,369.4 L216.5,370 L209.8,372.1 L205.2,374.9 L203.2,376.6 L200.1,380.9 L199.1,383.3 L198.5,386.1 L198.3,389.3 Z" id="形状" fill="#F9D1D2"></path>
            <polygon id="路径" fill="#FACFD0" points="656.4 355.8 666.9 356 672.2 356.6 682.5 358.6 692.5 362 697.2 364.3 701.7 366.9 706 369.9 709.9 373.4 713.6 377.3 715.6 380.3 718.3 386.4 719.1 389.6 719.6 394 719.6 398.5 719 403 717.9 407.4 716.3 411.7 714.3 415.8 711.9 419.8 709.2 423.4 706.2 426.6 700.9 431.2 695.3 435.5 689.4 439.4 683.3 442.8 676.9 445.8 670.4 448.2 665.3 449.6 655 451.4 642.2 452.2 627.2 452 619.7 451.3 612.2 450.2 604.9 448.5 597.7 446.4 590.8 443.7 584.1 440.5 579.3 437.7 574.7 434.6 570.2 431.2 566 427.3 563.2 423.9 561.1 420.4 559.6 416.7 557.8 408.9 557.4 404.7 557.5 379.7 562.8 383.2 568.5 386.1 574.7 388.6 581 390.5 587.5 391.8 594.2 392.6 600.9 392.9 607.6 392.6 614.1 391.6 618.9 390.6 623.6 389.2 632.4 385.3 636.5 382.9 640.3 380.1 643.8 377 647.1 373.5 650 369.7 652.5 365.5 654.6 360.9"></polygon>
            <polygon id="路径" fill="#FBEDEC" points="198.3 389.3 198.5 386.1 199.1 383.3 200.1 380.9 201.5 378.6 203.2 376.6 205.2 374.9 209.8 372.1 216.5 370 220.8 369.4 222.6 388.7"></polygon>
            <path d="M403.2,421.4 L407.1,421.2 L414.6,421.9 L418.2,422.9 L421.6,424.3 L424.9,426 L427.8,428.3 L430.4,431 L432.7,434.2 L407.7,427.4 L409.9,434 L412.5,440.4 L415.6,446.6 L419,452.6 L426.8,464 L435.9,474.5 L442.9,495.8 L437.2,504 L450.7,505.1 L464.3,507.2 L456.3,510.7 L440.2,516.6 L467.1,514.8 L461.5,499.5 L455.8,495.5 L445,486.8 L470.1,487.7 L482.8,488.5 L495.3,489.8 L503.7,491.1 L520,494.5 L528,496.8 L535.8,499.6 L543.5,502.9 L554.5,508.8 L565.1,516.1 L571.7,526.2 L559.1,520.7 L560.4,525.7 L554.3,520.7 L548,516.1 L535.1,507.5 L548.7,519.1 L551.8,522.3 L554.2,525.9 L555.5,528.5 L556.3,531.3 L556.8,534.4 L557.4,543.6 L557.4,552.8 L556.6,571.2 L548,573.6 L548,552.2 L547.4,531 L536.3,533.7 L525,536.1 L513.7,537.9 L502.3,539.3 L479.4,541.2 L445,542.2 L424.9,541.8 L404.8,540.9 L378,538.6 L351.5,535.1 L338.3,532.7 L325.1,529.9 L324.4,546.7 L324.3,563.6 L324.7,580.4 L325.5,595.4 L326.9,610.3 L328.9,625.2 L321.5,624.3 L319.2,620.9 L317.4,617.5 L316.1,614 L314.3,606.5 L313.6,596.9 L313.9,579.4 L315.5,547.5 L316.5,536.9 L318,526.4 L320.1,515.9 L325,509.3 L331.8,505.3 L338.8,502.1 L345.9,499.4 L353.2,497.3 L360.6,495.5 L379.6,492.4 L421.9,487.7 L436.9,484.8 L426.5,473 L421.6,466.8 L417,460.5 L412.8,453.9 L409.1,447 L404.6,437.7 L402.4,431.3 L402,428 L402,425.9 L403.2,421.4 Z M330.9,523.7 L342.3,526.6 L353.8,528.9 L377.1,532 L400.4,534.1 L424,534.8 L447.6,535 L463.3,534.7 L479,533.9 L494.7,532.6 L506.4,531.2 L518,529.4 L529.6,527.2 L541.1,524.6 L536.3,521.3 L531.3,518.6 L526.2,516.5 L515.4,513.4 L501.3,511.3 L475.8,509.2 L471.3,519.1 L469.9,521.4 L468.2,523.3 L465.2,524.9 L459.4,526.5 L455.6,527.1 L452,527 L448.4,526.4 L444.9,525.3 L441.6,523.7 L438.4,521.7 L432.8,516.7 L430.3,513.8 L426.2,507.5 L401.9,508.4 L389.7,509.2 L377.4,510.4 L369.3,511.6 L353.5,515.1 L345.8,517.5 L338.3,520.3 L330.9,523.7 Z" id="形状" fill="#431F2D"></path>
            <polygon id="路径" fill="#2E1923" points="158.4 459 159.9 460.1 160.2 464.7 147.5 491.5 141.5 506.8 137.8 519.4 136.4 525.8 135.5 532.3 135 539 134.3 554.6 134.2 570.6 134.6 581.3 135.5 591.9 136.8 602.4 138.2 610.2 140 617.9 142.1 625.5 144.7 632.9 147.7 640.1 151.2 647.2 155.2 654 164.2 666.7 168.9 672.5 173.8 677.9 179.1 683 190.4 692.3 202.6 700.3 215.6 707.1 222.4 709.9 229.3 712.5 238.7 715.4 248.2 717.7 257.9 719.4 251.3 724.2 243.3 723.2 235.5 721.7 228 719.7 220.6 717.2 213.4 714.3 206.4 710.9 199.6 707.1 193.1 703 186.7 698.4 180.6 693.5 174.8 688.4 169.1 682.8 158.8 671 149.5 658.3 144 649.3 139 640.2 134.7 630.7 112.2 630.4 0 630.3 4.5 623.7 36.5 623.1 68.5 623 132.4 623.3 130 610.3 128.1 597 126.7 583.6 126.2 573.6 126 563.5 126.3 553.5 126.9 543.5 128.1 533.5 129.7 523.7 131.8 514 134.5 504.3 137.6 494.9 141.4 485.7 145.8 476.6 150.8 467.7"></polygon>
            <polygon id="路径" fill="#2E1923" points="255 723.6 270.3 718.2 271.3 721.5 272.7 724.3 274.3 726.7 278.5 730.6 285 734.2 302.5 740.5 306.5 742.3 302.4 743.8 298.3 744.6 294 745 289.6 744.8 285.3 743.2 277.2 739.3 271.5 735.7"></polygon>
            <polygon id="路径" fill="#866771" points="721.3 474 723.7 474.7 725.3 475.6 726.2 476.7 726.6 477.9 726.6 479.5 726 481.4 724.6 484 722.1 483.2 720.6 482.3 719.6 481.2 719.2 480 719.2 478.5 719.8 476.5"></polygon>
            <polygon id="路径" fill="#E0CBC8" points="218.5 500.3 222.8 503.1 230.5 509.4 233.9 513 238.1 518 242 523.3 245.5 529 250.3 537.8 263.6 564.7 282.7 565.3 301.7 567 300.8 571.7 289.1 570.1 265.6 568 265.9 579.2 258.3 560.1 254 550.6 249.3 541.4 244.2 532.5 238.6 523.9 234 517.6 229.2 511.6 224 505.8"></polygon>
            <polygon id="路径" fill="#E0CBC8" points="535.1 507.5 548 516.1 554.3 520.7 560.4 525.7 562.2 532.8 563.4 540 564.1 547.2 564.5 554.5 564.4 569.1 556.6 571.2 557.4 552.8 557.4 543.6 556.8 534.4 556.3 531.3 555.5 528.5 554.2 525.9 551.8 522.3 548.7 519.1"></polygon>
            <polygon id="路径" fill="#CC8664" points="330.9 523.7 338.3 520.3 345.8 517.5 353.5 515.1 361.4 513.2 377.4 510.4 389.7 509.2 401.9 508.4 426.2 507.5 430.3 513.8 432.8 516.7 438.4 521.7 441.6 523.7 444.9 525.3 448.4 526.4 452 527 455.6 527.1 459.4 526.5 465.2 524.9 468.2 523.3 469.9 521.4 471.3 519.1 475.8 509.2 501.3 511.3 509.8 512.4 520.8 514.8 526.2 516.5 531.3 518.7 536.3 521.3 541.1 524.6 529.6 527.2 518 529.4 506.4 531.2 494.7 532.6 479 533.9 463.3 534.7 447.6 535 424 534.8 400.4 534.1 388.8 533.1 365.4 530.6 353.8 528.9 342.3 526.6"></polygon>
            <polygon id="路径" fill="#FEFFFF" points="325.1 529.9 338.3 532.7 351.5 535.1 378 538.6 404.8 540.9 424.9 541.8 445 542.2 479.4 541.2 502.3 539.3 513.7 537.9 525 536.1 536.3 533.7 547.4 531 548 552.2 548 573.6 540.3 576.5 533.6 580.6 529.6 584 526 587.8 522.8 592 520 596.4 517.6 601.2 515.7 606.1 514.2 611.3 513.2 616.5 512.7 621.9 512.6 627.2 513 632.5 513.9 637.8 508 638.5 496.5 641.2 462.9 652.7 451.4 655.5 438.9 657.4 425.2 658.1 418.2 658 411.4 657.3 404.6 656.3 397.9 654.7 391.5 652.5 385.2 649.9 380.8 647.5 376.5 644.7 372.4 641.6 368.6 638 363.5 631.8 359.1 625.2 355.3 618.4 351.9 611.3 348.9 604 346.4 596.5 342.3 581.2 340.7 573.4 336.8 550.1 332.9 557.3 329.4 564.7 325.9 575 324.7 580.4 324.3 563.6 324.4 546.7"></polygon>
            <polygon id="路径" fill="#E8E6E9" points="324.7 580.4 325.9 575 329.4 564.7 332.9 557.3 336.8 550.1 340.7 573.4 344.2 588.9 348.9 604 351.9 611.3 355.3 618.4 359.1 625.2 363.5 631.8 368.6 638 372.5 641.6 376.5 644.7 380.8 647.5 385.2 649.9 391.5 652.5 397.9 654.7 404.6 656.3 411.4 657.3 418.2 658 425.2 658.1 438.9 657.4 451.4 655.5 457.2 654.3 471.3 649.9 488 643.9 496.5 641.2 508 638.5 513.9 637.8 518.2 649.6 523 661.3 518.7 665.2 514.3 668.6 509.8 671.7 505.1 674.4 498.5 677.5 491.7 680 484.7 682.1 470.3 684.9 462.9 685.8 451.8 686.6 429.5 686.9 418.7 686.7 400.8 685.5 391.8 684.7 376.8 682.3 365.4 679 359.9 676.8 354.5 674.1 349.4 670.9 345.9 666.5 342.8 661.9 340.1 657 336.7 649.3 333.8 641.3 328.9 625.2 326.9 610.3 325.5 595.4"></polygon>
            <polygon id="路径" fill="#7B5E63" points="542.2 579.8 554 578 565.7 576.7 577.6 575.7 613.1 573.7 636.8 571.7 628.5 576.7 625.6 577.9 622.5 578.6 542.2 584"></polygon>
            <polygon id="路径" fill="#2F1724" points="315.9 744.3 325.6 742.9 330.7 742.7 338.3 742.7 361.9 744 369.7 744.2 377.4 743.9 377.9 751.6 363 750.7 318.2 748.7"></polygon>
            <polygon id="路径" fill="#5F3F49" points="629.3 732.5 637.2 727.4 651.8 715.4 650.5 719.5 648.7 723.1 646.4 726.3 643.7 729.2 640.7 731.7 637.3 733.9 631.9 736.8 626.1 739.1 614.5 742.4 601.7 744.5 597.5 744.9 593.2 744.9 589 744.4 583.6 742.8 581 741.5 613.6 737.1 618.9 736 624.1 734.5"></polygon>
            <polygon id="路径" fill="#280D1A" points="383.2 746.2 448.6 746.3 579.6 747.4 590.1 752.3 542.8 754.2 519.2 754.6 483.7 754.6 448.1 754.1 377.1 752.4"></polygon>
        </g>
    </g>
</svg>