<?xml version="1.0" encoding="UTF-8"?>
<svg width="1339px" height="2223px" viewBox="0 0 1339 2223" version="1.1" xmlns="http://www.w3.org/2000/svg" xmlns:xlink="http://www.w3.org/1999/xlink">
    <title>编组</title>
    <defs>
        <linearGradient x1="-8.531%" y1="50%" x2="100%" y2="50%" id="linearGradient-1">
            <stop stop-color="#2A82E4" offset="0%"></stop>
            <stop stop-color="#FFD6FB" offset="29.81%"></stop>
            <stop stop-color="#FFCD29" stop-opacity="0.53" offset="66.04%"></stop>
            <stop stop-color="#8AF2EF" offset="100%"></stop>
        </linearGradient>
        <linearGradient x1="-7.567%" y1="51.83%" x2="100%" y2="36.648%" id="linearGradient-2">
            <stop stop-color="#2A82E4" offset="0%"></stop>
            <stop stop-color="#F4B9EE" offset="26.79%"></stop>
            <stop stop-color="#F7D9D2" offset="46.05%"></stop>
            <stop stop-color="#FFC300" offset="69.05%"></stop>
            <stop stop-color="#8AF2EF" offset="100%"></stop>
        </linearGradient>
        <linearGradient x1="-7.56699523%" y1="50.5139557%" x2="100%" y2="46.2500909%" id="linearGradient-3">
            <stop stop-color="#2A82E4" offset="0%"></stop>
            <stop stop-color="#F4B9EE" offset="26.79%"></stop>
            <stop stop-color="#F7D9D2" offset="46.05%"></stop>
            <stop stop-color="#FFC300" offset="69.05%"></stop>
            <stop stop-color="#8AF2EF" offset="100%"></stop>
        </linearGradient>
    </defs>
    <g id="页面-1" stroke="none" stroke-width="1" fill="none" fill-rule="evenodd">
        <g id="编组" transform="translate(5.714286, 4.285714)">
            <ellipse id="椭圆形" stroke="#000000" stroke-width="10" fill="url(#linearGradient-1)" fill-rule="nonzero" cx="663.928571" cy="1318.57143" rx="663.928571" ry="895.142857"></ellipse>
            <circle id="椭圆形" fill="#7948EA" fill-rule="nonzero" cx="669.5" cy="780.928571" r="450.357143"></circle>
            <circle id="椭圆形" fill="url(#linearGradient-2)" fill-rule="nonzero" cx="669.5" cy="780.928571" r="450.357143"></circle>
            <circle id="椭圆形" stroke="#000000" stroke-width="8" cx="669.5" cy="780.928571" r="450.357143"></circle>
            <ellipse id="椭圆形" fill="#EE83C4" fill-rule="nonzero" transform="translate(992.638504, 448.499996) rotate(3.682884) translate(-992.638504, -448.499996) " cx="992.638504" cy="448.499996" rx="80.7331284" ry="89.4307557"></ellipse>
            <path d="M937.212714,383.687571 C953.076429,366.800571 974.929429,356.889 998.403714,358.211286 C1042.90457,360.718429 1076.43343,402.708429 1073.25957,451.987714 C1070.08386,501.285571 1031.41071,539.210286 986.909857,536.703143 C963.435571,535.380857 943.012571,523.088429 929.431286,504.543" id="路径" stroke="#000000" stroke-width="8" stroke-linecap="round"></path>
            <path d="M978.927857,473.430286 C971.631143,457.449571 977.364143,439.060143 991.738429,432.357714 C999.311857,428.825429 1007.77114,429.245143 1015.157,432.768143" id="路径" stroke="#000000" stroke-width="5" stroke-linecap="round"></path>
            <ellipse id="椭圆形" fill="#EE83C4" fill-rule="nonzero" transform="translate(346.361949, 448.499996) scale(-1, 1) rotate(3.682884) translate(-346.361949, -448.499996) " cx="346.361949" cy="448.499996" rx="80.7331284" ry="89.4307557"></ellipse>
            <path d="M401.787286,383.687571 C385.923571,366.800571 364.070571,356.889 340.596286,358.211286 C296.095429,360.718429 262.568429,402.708429 265.740429,451.987714 C268.916143,501.285571 307.591143,539.210286 352.092,536.703143 C375.566286,535.380857 395.989286,523.088429 409.570571,504.543" id="路径" stroke="#000000" stroke-width="8" stroke-linecap="round"></path>
            <path d="M351.605429,473.430286 C358.900286,457.449571 353.169143,439.060143 338.794857,432.357714 C331.221429,428.825429 322.762143,429.245143 315.376286,432.768143" id="路径" stroke="#000000" stroke-width="5" stroke-linecap="round"></path>
            <ellipse id="椭圆形" stroke="#000000" stroke-width="8.00000011" fill="#EE83C4" fill-rule="nonzero" transform="translate(668.571399, 574.785841) rotate(-0.013261) translate(-668.571399, -574.785841) " cx="668.571399" cy="574.785841" rx="293.317856" ry="478.214425"></ellipse>
            <path d="M590.85,639.804286 L611.65,639.804286 C616.032857,639.804286 618.707143,634.975714 616.367143,631.261429 L605.967143,614.751429 C603.775714,611.278571 598.724286,611.278571 596.532857,614.751429 L586.132857,631.261429 C583.792857,634.975714 586.467143,639.804286 590.85,639.804286 Z" id="路径" fill="#FFFFFF" fill-rule="nonzero"></path>
            <path d="M607.530857,613.769 L617.934571,630.269714 C621.054571,635.215286 617.498143,641.659571 611.65,641.659571 L590.842571,641.659571 C584.994429,641.659571 581.439857,635.215286 584.559857,630.269714 L594.963571,613.769 C597.877429,609.146571 604.617,609.146571 607.530857,613.769 Z M604.388571,615.750571 C602.930714,613.440286 599.561857,613.440286 598.105857,615.750571 L587.700286,632.251286 C586.142143,634.723143 587.919429,637.945286 590.842571,637.945286 L611.65,637.945286 C614.575,637.945286 616.352286,634.723143 614.792286,632.251286 L604.388571,615.750571 Z" id="形状" fill="#000000" fill-rule="nonzero"></path>
            <rect id="矩形" fill="#000000" fill-rule="nonzero" x="577.571429" y="634.584264" width="182.388681" height="12.8463527" rx="3.45863342"></rect>
            <ellipse id="椭圆形" stroke="#000000" stroke-width="6" fill="#FFFFFF" fill-rule="nonzero" cx="797.642857" cy="423.428544" rx="129.071429" ry="118.857114"></ellipse>
            <ellipse id="椭圆形" fill="#000000" fill-rule="nonzero" cx="747.5" cy="415.071429" rx="45.5" ry="41.7857143"></ellipse>
            <ellipse id="椭圆形" stroke="#000000" stroke-width="6" fill="#FFFFFF" fill-rule="nonzero" cx="539.5" cy="423.428544" rx="129.071429" ry="118.857114"></ellipse>
            <ellipse id="椭圆形" fill="#000000" fill-rule="nonzero" cx="481.928571" cy="411.357143" rx="41.7857143" ry="38.0714286"></ellipse>
            <path d="M666.710571,1235 C682.310571,1318.05143 718.710571,1511.84429 666.710571,1556.28571" id="路径" stroke="#000000" stroke-width="8" stroke-linecap="round"></path>
            <path d="M665.841429,1248 C650.241429,1331.05143 613.841429,1524.84429 665.841429,1569.28571" id="路径" stroke="#000000" stroke-width="8" stroke-linecap="round"></path>
            <path d="M462.428571,201.5 C462.428571,90.22 552.648571,0 663.928571,0 C775.208571,0 865.428571,90.22 865.428571,201.5 C865.428571,205.552286 865.309714,209.578571 865.072,213.571429 L462.785143,213.571429 C462.547429,209.578571 462.428571,205.552286 462.428571,201.5 Z" id="路径" fill="#FFEB3B" fill-rule="nonzero"></path>
            <path d="M462.428571,201.5 C462.428571,90.22 552.648571,0 663.928571,0 C775.208571,0 865.428571,90.22 865.428571,201.5 C865.428571,205.552286 865.309714,209.578571 865.072,213.571429 L462.785143,213.571429 C462.547429,209.578571 462.428571,205.552286 462.428571,201.5 Z" id="路径" fill="#FF8D1A" fill-rule="nonzero"></path>
            <path d="M462.428571,201.5 C462.428571,90.22 552.648571,0 663.928571,0 C775.208571,0 865.428571,90.22 865.428571,201.5 C865.428571,205.552286 865.309714,209.578571 865.072,213.571429 L462.785143,213.571429 C462.547429,209.578571 462.428571,205.552286 462.428571,201.5 Z" id="路径" fill="url(#linearGradient-3)" fill-rule="nonzero"></path>
            <path d="M462.428571,201.5 C462.428571,90.22 552.648571,0 663.928571,0 C775.208571,0 865.428571,90.22 865.428571,201.5 C865.428571,205.552286 865.309714,209.578571 865.072,213.571429 L462.785143,213.571429 C462.547429,209.578571 462.428571,205.552286 462.428571,201.5 Z" id="路径" stroke="#000000" stroke-width="8"></path>
        </g>
    </g>
</svg>