<svg xmlns="http://www.w3.org/2000/svg" xmlns:xlink="http://www.w3.org/1999/xlink" width="512" height="512" viewBox="0 0 512 512" fill="none">
<g  clip-path="url(#clip-path-xvC8vcSKY6xla3HfBLoaj)">
<path     fill="#FAEEB6"  d="M180.213 219.561C180.404 220.186 180.544 220.826 180.63 221.473L211.605 452.594C212.404 458.552 217.488 463 223.499 463L332 463C338.627 463 344 457.627 344 451L344 251.865C344 250.958 344.103 250.054 344.307 249.17L377.163 106.639C378.504 100.821 375.364 94.9019 369.794 92.75L325.135 75.4952C318.783 73.0412 311.664 76.3579 309.458 82.7996L287.988 145.467C284.269 156.323 268.896 156.268 265.256 145.385L233.127 49.3387C230.904 42.6915 223.481 39.3569 217.035 42.1096L146.414 72.2666C140.775 74.6745 137.858 80.9456 139.65 86.8091L180.213 219.561Z">
</path>
<g mask="url(#mask-ziKs-cR4xuJOyTSrCaJaK)">
<path    stroke="rgba(157, 204, 75, 1)" stroke-width="12"  stroke-linecap="round"  d="M290.11 338.676C285.684 344.387 269.97 352.923 255.636 339.878">
</path>
</g>
<g mask="url(#mask-ziKs-cR4xuJOyTSrCaJaK)">
<path     fill="#9DCC4B"  d="M115 200L248.5 211.115C259.26 212.011 270.077 212.007 280.837 211.103L413 200L413 -35L115 -35L115 200Z">
</path>
</g>
<circle cx="323" cy="275" r="51" stroke="rgba(157, 204, 75, 1)" stroke-width="10"      fill="#FFFFFF" >
</circle>
<circle cx="221" cy="275" r="51" stroke="rgba(157, 204, 75, 1)" stroke-width="10"      fill="#FFFFFF" >
</circle>
<circle cx="332" cy="281" r="32"   fill="#451B02" >
</circle>
<circle cx="230" cy="281" r="32"   fill="#451B02" >
</circle>
<g >
<path     fill="#A3D13F"  d="M127.21 432.55L143.058 430.821L156.768 431.162L156.223 441.069L155.958 448.907L145.04 447.731L122.292 448.46L93.7162 451.751L73.7828 453.894L71.5488 446.875L69.7554 438.951L89.6122 437.203L127.21 432.55ZM248.45 393.687L248.128 405.929Q248.42 411.39 248.463 414.028L258.908 413.664L259.336 421.66L259.327 428.8L249.149 428.661L249.222 430.026L250.871 458.983L252.122 469.576L251.248 473.339L247.489 476.181L233.76 477.307L232.316 470.441L228.247 465.671L234.852 464.828L236.16 463.683L235.094 443.789L234.311 429.162L211.436 431.169L210.681 424.364L209.786 416.784L227.692 415.14L233.446 414.832L233.174 409.761L231.62 393.512L239.411 392.9L248.45 393.687ZM231.686 449.546L226.399 454.915L221.593 458.301L215.664 451.675L209.885 446.019L214.423 441.278L218.915 437.516L224.94 442.279L231.686 449.546ZM177.996 407.533L185.956 406.422L194.25 406.076L201.313 406.48L204.63 408.16L206.792 448.532L207.465 461.112L207.765 468.528L203.269 468.573L203.274 468.671L188.241 469.182L180.065 469.914L180.06 469.816L179.767 469.832L172.063 470.244L170.309 442.955L168.296 409.03L175.558 407.663L177.996 407.533ZM187.812 420.992L183.141 421.438Q183.616 430.312 183.949 434.695L187.167 434.522L191.94 434.169L191.251 421.297L187.812 420.992ZM184.623 447.274L184.821 450.98L185.484 457.888Q187.63 457.773 188.708 457.813L192.895 457.491L192.72 450.557L192.516 446.754L187.933 446.999L184.623 447.274ZM383.1 415.327L398.759 413.706L407.053 413.359L408.211 422.197L407.758 426.524L397.996 426.851L390.888 427.427L389.313 434.553L387.589 446.185L393.628 443.906L395.455 443.319L392.737 434.565L399.432 431.762L404.949 430.684L409.328 443.065L412.973 454.508L414.996 444.816L416.954 430.237L417.661 417.877L410.476 418.848L409.099 411.392L408.754 404.956L417.982 403.777L417.89 392.926L416.885 383.298L424.882 382.87L432.746 383.623L432.659 389.299L432.388 402.516L444.752 401.463L451.246 402.191L453.755 407.044L455.439 412.92L455.853 422.482L455.783 441.262L454.227 457.873L450.199 464.837L443.821 466.254L435.398 466.021L433.796 459.847L430.978 454.717L435.28 454.683L438.471 454.023L439.614 451.614L440.133 446.697L440.539 436.015L440.207 420.679L439.684 416.404L431.765 416.437L430.97 428.997L428.774 446.425L425.651 461.164L418.844 460.061L413.627 457.602L408.856 459.814L400.353 461.736L398.988 456.333L390.803 458.727L378.145 463.414L375.032 460.06L372.594 454.714L376.441 435.242L377.287 429.134L375.732 429.315L370.883 430.063L369.312 424.475L368.839 417.459L374.848 416.453L383.1 415.327ZM390.681 392.525L402.096 392.012L403.259 400.947L402.616 405.382L388.455 405.749L379.125 406.836L373.116 407.842L371.921 403.798L371.164 395.135L379.796 393.793L390.681 392.525Z">
</path>
<path     fill="#F7E281"  d="M305.254 450.007L306.6 456.879L309.222 462.019L312.929 463.679L320.793 464.432L327.696 463.671L330.127 461.585L329.53 459.563L334.261 458.429L342.412 459.069Q342.299 458.781 341.878 458.217L338.261 454.597L343.611 450.398L347.776 447.828L352.163 451.212L355.913 455.51L360.139 463.205L355.102 465.919L348.596 468.615L342.947 459.92L344.599 465.21L342.193 471.403L336.744 473.748L322.359 475.399L310.62 475.343L300.198 472.478L294.814 466.898L291.215 454.475L295.565 451.7L305.254 450.007ZM323.401 447.373L327.336 451.466L331.642 457.005L326.22 459.838L319.888 462.133L316.296 457.142L312.971 453.506L317.588 450.227L323.401 447.373ZM289.839 454.354L288.982 460.267L287.26 468.281L284.94 474.273L278.826 473.329L272.27 471.431L274.614 464.068L277.071 451.517L283.586 452.635L289.839 454.354ZM288.87 410.691Q288.499 409.243 287.963 406.534L272.104 408.068L271.195 402.053L270.426 396.813L278.986 395.964Q281.419 395.736 286.197 395.48L285.731 390.419L293.187 389.042L300.712 388.932L300.665 393.531L300.717 394.507L307.733 394.033L318.46 393.459Q318.442 391.308 318.213 387.017L328.077 386.783L333.678 387.265L333.667 392.547L337.178 392.359L352.596 391.729L352.946 398.262L352.561 403.857L333.406 404.101L333.103 409.398L326.451 409.363L318.299 408.724L318.465 404.509L301.99 405.489L302.686 409.364L298.237 410.287L290.061 411.018Q290.857 411.269 292.438 411.575L291.86 413.562L307.832 412.316L323.532 411.475L340.233 411.07L348.837 412.858L352.085 416.89L352.706 433.971L351.635 441.363L349.693 445.281L344.358 447.914L336.074 448.455L334.864 444.119L332.043 440.749L330.655 444.051L328.189 447.312L320.996 444.47L319.899 445.898L315.355 450.542L308.244 447.402L304.474 444.573L308.448 440.252L304.187 439.209L300.341 444.109L295.413 448.872L290.149 445.535L286.142 441.936L291.527 436.562L287.872 435.878L288.899 431.324L291.414 425.322L298.524 426.603L300.328 423.768L290.387 424.399L289.793 420.616L286.486 430.084L281.777 438.942L274.014 436.424L270.382 432.511L274.204 425.363L277.199 417.379L279.286 408.857L286.493 410.133L288.87 410.691ZM332.391 439.948L334.06 440.055L336.369 439.344L337.88 436.525L337.917 431.731L336.78 423.283L327.182 423.015L330.647 423.807L333.21 426.017L328.762 434.275Q328.675 434.475 328.306 434.886L333.61 437.145L332.391 439.948ZM316.671 429.446L319.842 422.919L311.152 423.189L314.367 424.777L311.384 429.338L315.85 430.565L316.671 429.446Z">
</path>
<path fill-rule="evenodd"  fill="rgba(111, 148, 31, 1)" style="mix-blend-mode:multiply" d="M278.165,413.434l-0.966,3.945l-0.876,2.337l-2.119,5.647l-2.879,5.384l-0.943,1.764l3.632,3.913l0.501,0.163l0.834,0.27l6.428,2.085l1.086,-2.042l3.128,-5.885l0.495,-0.931l1.46,-4.18l0.978,-2.801l0.024,-0.069l0.722,-2.065l0.123,-0.353l0.075,0.479l0.324,2.066l0.027,0.171l0.126,0.8l0.042,0.267l1.031,-0.066l2.417,-0.153l0.801,-0.051l4.384,-0.278l0.029,-0.001l1.279,-0.082l-0.275,0.432l-0.508,0.799l-0.288,0.452l-0.199,0.313l-0.534,0.839l-7.11,-1.281l-0.135,0.322l-2.38,5.68l-0.479,2.125l-0.548,2.429l1.585,0.297l1.225,0.229l0.306,0.057l0.062,0.012l0.027,0.005l0.45,0.084l-0.115,0.115l-0.239,0.238l-0.472,0.471l-3.251,3.245l-0.488,0.487l-0.82,0.818l1.004,0.901l1.434,1.289l1.31,1.177l0.259,0.232l1.282,0.812l3.982,2.525l4.376,-4.229l0.552,-0.534l3.427,-4.367l0.034,-0.043l0.385,-0.49l0.466,0.114l0.879,0.216l2.298,0.562l0.618,0.151l-0.531,0.578l-0.698,0.759l-2.745,2.984l0.171,0.128l2.292,1.721l1.307,0.98l3.54,1.564l3.021,1.333l0.502,0.222l0.048,0.021l1.859,-1.9l2.685,-2.744l0.897,-1.167l0.2,-0.261l4.485,1.772l0.482,0.191l0.196,0.077l0.057,0.023l1.918,0.757l0.055,0.022l0.122,-0.161l1.153,-1.525l1.191,-1.575l1.388,-3.302l0.022,0.026l1.733,2.07l1.066,1.274l1.21,4.336l3.922,-0.256l1.987,-0.13l1.299,-0.085l1.076,-0.07l1.172,-0.579l0.231,-0.114l1.403,-0.692l2.529,-1.248l1.942,-3.918l0.745,-5.139l0.326,-2.253l-0.621,-17.081l-0.818,-1.015l-2.43,-3.017l-1.391,-0.289l-2.476,-0.515l-3.037,-0.631l-1.7,-0.353l-1.308,0.031l-4.545,0.111l-0.884,0.021l-3.622,0.088l-0.018,0.001l-2.385,0.057l-3.939,0.096l-15.7,0.841l-1.688,0.131l-1.496,0.117l-2.227,0.174l-0.626,0.049l-8.566,0.668l-1.173,0.092l-0.196,0.015l0.098,-0.336l0.282,-0.969l0.198,-0.682c-0.26467,-0.05133 -0.513,-0.10133 -0.745,-0.15c-0.07333,-0.01533 -0.145,-0.03067 -0.215,-0.046c-0.23467,-0.05133 -0.451,-0.10133 -0.649,-0.15c-0.298,-0.07333 -0.554,-0.14367 -0.768,-0.211l0.353,-0.032l0.366,-0.032l0.87,-0.078l5.224,-0.467l1.363,-0.122l2.77,-0.575l1.219,-0.253l0.46,-0.095l-0.526,-2.927l-0.17,-0.948l4.437,-0.264l0.363,-0.021l7.263,-0.432l4.412,-0.263l-0.038,0.968l-0.128,3.247l0.418,0.032l7.734,0.607l6.652,0.035l0.275,-4.819l0.028,-0.478l14.983,-0.191l4.172,-0.053l0.008,-0.117l0.16,-2.329l0.165,-2.393l0.052,-0.756l-0.35,-6.533l-4.517,0.184l-2.411,0.099l-8.49,0.347l-3.511,0.188l0.001,-0.451l0.01,-4.831l-0.295,-0.025l-3.156,-0.272l-2.15,-0.185l-9.864,0.234c0.12133,2.27533 0.19833,4.09933 0.231,5.472c0.008,0.35333 0.01333,0.67667 0.016,0.97l-10.727,0.574l-6.94,0.468l-0.076,0.006l-0.052,-0.976l0.047,-4.599l-0.371,0.006l-7.154,0.104l-4.485,0.829l-2.777,0.513l-0.194,0.035l0.391,4.237l0.075,0.824c-1.42467,0.076 -2.693,0.15033 -3.805,0.223c-1.374,0.09 -2.50933,0.177 -3.406,0.261l-2.363,0.234l-2.388,0.237l-3.225,0.32l-0.584,0.058l0.769,5.24l0.909,6.015l15.859,-1.534c0.04867,0.24467 0.096,0.48167 0.142,0.711c0.01,0.04933 0.02,0.09867 0.03,0.148c0.26467,1.29933 0.49567,2.34333 0.693,3.132c0.014,0.056 0.028,0.11133 0.042,0.166l-0.517,-0.122l-0.593,-0.139l-1.267,-0.297l-5.832,-1.033l-1.375,-0.243zM332.416,439.95l-0.025,-0.002l0.161,-0.37l0.275,-0.631l0.522,-1.202l0.261,-0.6l-0.513,-0.219l-0.5,-0.213l-0.188,-0.08l-0.359,-0.153l-2.751,-1.171l-0.577,-0.246l-0.416,-0.177c0.01067,-0.012 0.021,-0.02333 0.031,-0.034c0.09533,-0.10733 0.17567,-0.20367 0.241,-0.289c0.09067,-0.118 0.152,-0.214 0.184,-0.288l0.668,-1.24l0.094,-0.175l0.341,-0.633l0.3,-0.555l0.837,-1.555l1.083,-2.01l1.125,-2.09l-0.824,-0.711l-0.256,-0.22l-1.181,-1.018l-0.302,-0.261l-1.137,-0.259l-0.846,-0.194l-0.692,-0.158l-0.79,-0.181l0.479,0.014l2.149,0.06l3.172,0.088l0.075,0.002l1.301,0.037l2.422,0.067l0.31,2.301l0.4,2.978l0.427,3.169l-0.035,4.58l-0.002,0.214l-0.745,1.39l-0.362,0.675l-0.404,0.754l-2.309,0.711zM312.026,429.514l-0.642,-0.176l0.406,-0.622l0.331,-0.506l0.167,-0.254l0.317,-0.486l0.444,-0.678l1.318,-2.015l-0.348,-0.172l-1.102,-0.544l-0.073,-0.036l-1.692,-0.836l0.751,-0.023l1.187,-0.037l1.907,-0.059l2.939,-0.092l1.906,-0.059l-0.385,0.791l-2.786,5.736l-0.29,0.394l-0.531,0.725l-1.04,-0.286zM258.918,413.856l-0.01,-0.192l-10.445,0.364c-0.018,-1.13 -0.07067,-2.64833 -0.158,-4.555c-0.04867,-1.06067 -0.10767,-2.242 -0.177,-3.544l0.023,-0.881l0.079,-3.019l0.22,-8.342l-4.799,-0.418l-4.24,-0.369l-7.791,0.612l0.894,9.353l0.249,2.595l0.411,4.301l0.272,5.071l-5.754,0.308l-5.952,0.546l-4.667,0.429l-7.287,0.669l0.895,7.58l0.446,4.022l0.036,0.322l0.273,2.461l6.413,-0.563l4.501,-0.395l6.008,-0.527l5.953,-0.522l1.849,34.521l-1.308,1.145l-2.062,0.263l-4.543,0.58l1.397,1.637l2.672,3.133l1.394,6.63l0.05,0.236l13.729,-1.126l3.759,-2.842l0.874,-3.763l-1.251,-10.593l-1.043,-18.312l-0.606,-10.645l-0.073,-1.365l9.613,0.131l0.565,0.008l0.001,-0.685l0.001,-0.382l0.007,-6.073zM266.029,445.461l-4.164,-4.486l0.966,16.962l0.284,2.408zM261.334,480.757l-9.39,7.098l-27.751,2.277l-2.991,-14.229l-1.186,-1.391l0.238,5.891l-12.648,0.127l-18.626,0.634l-20.233,1.81l-0.029,-0.533l-7.868,0.421l-1.383,-21.508l-14.88,-1.602l-21.415,0.686l-28.083,3.234l-29.7686,3.201l-5.3622,-16.848l-4.9395,-21.823l33.33,-2.934l37.3873,-4.627l0.173,-0.021l16.646,-1.815l14.321,0.356l-1.184,-19.969l18.429,-3.469l2.723,-0.146l8.029,-1.12l9.469,-0.396l10.158,0.581l11.742,5.949l0.189,3.532l4.113,-0.377l-2.032,-21.24l20.949,-1.647l21.282,1.853l-0.079,3.011l12.469,-1.237l-0.357,-3.877l19.226,-3.551l13.65,-0.199l-0.083,-1.544l22.882,-0.545l17.249,1.486l-0.008,3.745l18.253,-0.746l0.258,4.818l13.976,-2.173l11.537,-1.343l0.426,-0.02l14.323,-0.644l-0.825,-7.903l21.494,-1.15l19.78,1.892l-0.256,16.696l0.255,-0.022l14.046,1.575l6.003,11.611l2.404,8.388l0.488,11.264l-0.073,19.601l-1.851,19.763l-7.982,13.8l-12.975,2.883l-18.925,-0.525l-1.187,-4.574l-9.604,-1.555l-1.672,-0.789l-0.84,0.389l-21.16,4.784l-1.106,-4.378l-15.679,5.806l-5.267,-5.674l-9.275,4.997l-8.675,3.594l-0.027,0.071l-11.69,5.032l-16.85,1.933l-14.043,-0.067l-14.662,-4.03l-1.664,4.3l-16.416,-2.535zM285.03,474.041l2.23,-5.76l1.722,-8.014l0.168,-1.158l0.689,-4.755l-1.039,-0.286l-3.226,-0.887l-1.988,-0.546l-4.315,-0.741l-1.365,-0.234l-0.835,-0.143l-2.013,10.286l-0.444,2.265l-2.344,7.363l6.556,1.898l5.179,0.799l0.935,0.145zM293.602,452.952l-2.387,1.523l2.109,7.28l1.49,5.143l4.103,4.252l1.281,1.328l7.817,2.149l2.605,0.716l4.005,0.019l3.928,0.019l3.806,0.018l11.655,-1.338l2.73,-0.313l0.685,-0.295l4.764,-2.05l0.118,-0.305l2.288,-5.888l-0.385,-1.234l-0.931,-2.98l-0.302,-0.967l-0.034,-0.109l0.069,0.107l2.219,3.415l0.155,0.239l3.206,4.934l0.671,-0.278l5.835,-2.418l1.961,-1.056l0.437,-0.236l2.639,-1.422l-4.19,-7.63l-0.036,-0.065l-2.171,-2.489l-1.579,-1.809l-1.399,-1.079l-2.988,-2.305l-4.165,2.57l-0.553,0.434l-0.63,0.495l-4.167,3.27l1.841,1.843l0.582,0.582l0.863,0.864l0.331,0.331c0.07933,0.10667 0.15067,0.206 0.214,0.298c0.042,0.06067 0.08033,0.118 0.115,0.172c0.09733,0.15333 0.16567,0.28067 0.205,0.382l-0.528,-0.042l-0.155,-0.012l-0.6,-0.047h-0.003l-0.229,-0.018l-6.101,-0.479l-0.535,-0.042l-4.731,1.134l0.39,1.32l0.005,0.018l0.202,0.684l-0.094,0.08l-0.9,0.773l-0.141,0.121l-1.296,1.112l-5.284,0.582l-0.109,0.012l-0.199,0.022l-1.008,0.111l-0.303,0.034l-0.229,-0.022l-1.817,-0.174l-0.36,-0.035l-2.305,-0.22l-2.334,-0.224l-0.819,-0.078l-0.735,-0.329l-1.805,-0.808l-0.984,-0.44l-0.183,-0.083l-0.703,-1.377l-1.919,-3.763l-0.351,-1.791l-0.637,-3.252l-0.358,-1.829l-2.729,0.477l-1.148,0.201l-5.812,1.015l-0.318,0.203l-0.147,0.093l-0.392,0.251zM318.994,449.537l-0.838,0.411l-0.378,0.186l-0.19,0.093l-0.056,0.039l-0.981,0.698l-0.566,0.402l-0.461,0.327l-0.223,0.158l-0.464,0.33l-0.866,0.615l-0.909,0.646l-0.091,0.064l0.042,0.045l0.035,0.039l0.766,0.838l0.805,0.88l0.248,0.272l1.133,1.239l0.296,0.323l0.011,0.016l0.432,0.6l0.225,0.312l2.924,4.063l0.422,-0.153l0.205,-0.074l0.539,-0.196l0.253,-0.091l1.972,-0.715l1.558,-0.565l1.383,-0.501l0.207,-0.108l0.23,-0.121l0.063,-0.032l0.496,-0.26l0.667,-0.348l3.759,-1.964l-2.587,-3.328l-1.568,-2.017l-0.151,-0.194l-0.556,-0.579l-0.8,-0.831l-0.589,-0.613l-0.96,-0.998l-0.705,-0.733l-0.07,-0.074l-0.255,-0.265l-0.077,0.038zM377.569,462.793l0.576,0.621l9.377,-3.472l3.281,-1.215l8.185,-2.394l1.365,5.403l0.202,-0.046l8.301,-1.876l1.071,-0.497l1.962,-0.909l1.738,-0.806l0.466,0.22l3.442,1.622l1.309,0.617l1.513,0.245l5.294,0.858l2.285,-10.782l0.261,-1.233l0.561,-2.648l0.016,-0.076l0.02,-0.159l0.095,-0.756l0.351,-2.779l0.817,-6.489l0.079,-0.622l0.834,-6.623l0.458,-7.245l0.056,-0.884l0.221,-3.489l0.06,-0.942l7.919,-0.033l0.066,0.538l0.457,3.737l0.332,15.336l-0.406,10.682l-0.335,3.177l-0.184,1.74l-1.143,2.409l-0.335,0.069l-2.421,0.501l-0.435,0.09l-4.302,0.034l2.818,5.13l1.602,6.174l1.482,0.041l2.319,0.064l4.622,0.128l6.378,-1.417l4.028,-6.964l1.556,-16.611l0.07,-18.78l-0.414,-9.562l-1.684,-5.876l-2.509,-4.853l-6.494,-0.728l-0.34,0.029l-12.024,1.024l0.247,-12.064l0.024,-1.153l0.087,-5.676l-3.8,-0.364l-4.064,-0.389l-7.997,0.428l1.005,9.628l0.02,2.335l0.072,8.516l-0.081,0.01l-2.984,0.381l-6.163,0.788l0.345,6.436l1.071,5.798l0.044,0.239l0.004,0.022l0.258,1.397l2.877,-0.389l4.308,-0.582l-0.628,10.984l-0.07,1.219l-0.009,0.157l-1.077,8.022l-0.616,4.585l-0.265,1.972l-0.031,0.151l-0.835,4l-1.157,5.541l-2.728,-8.564l-0.588,-1.845l-0.135,-0.427l-0.194,-0.607l-1.603,-4.533l-2.431,-6.874l-0.345,-0.974l-0.167,0.033l-2.437,0.476l-1.729,0.338l-1.184,0.231l-1.004,0.42l-0.25,0.105l-5.441,2.278l0.161,0.519l0.087,0.28l1.191,3.836l1.279,4.119l-1.827,0.587l-6.039,2.279l0.066,-0.444l1.658,-11.188l0.444,-2.007l1.131,-5.119l7.108,-0.576l1.745,-0.058l5.401,-0.181l2.616,-0.088l0.453,-4.327l-0.559,-4.268l-0.083,-0.63l-0.005,-0.041l-0.157,-1.193l-0.2,-1.529l-0.154,-1.177l-8.294,0.347l-1.409,0.145l-7.857,0.814l-0.804,0.083l-5.589,0.579l-2.496,0.34l-0.443,0.061l-5.313,0.725l-6.009,1.006l0.218,3.23l0.255,3.786l1.039,3.698l0.532,1.89l4.849,-0.748l1.555,-0.181l-0.748,5.404l-0.098,0.704l-0.012,0.059l-1.232,6.239l-2.603,13.174l1.207,2.648l1.231,2.698zM372.196,404.73l0.92,3.112l6.009,-1.006l9.33,-1.087l8.313,-0.215l5.848,-0.152l0.561,-3.871l0.082,-0.564l-0.946,-7.266v-0.002l-0.038,-0.292l-0.179,-1.375l-11.415,0.513l-10.885,1.268l-8.632,1.342l0.074,0.854l0.118,1.347l0.565,6.462zM196.453,406.202l-2.203,-0.126l-8.294,0.346l-7.96,1.111l-2.438,0.13l-7.262,1.367l0.619,10.431l0.267,4.505l1.127,18.989l1.754,27.289l7.997,-0.428l0.005,0.098l8.176,-0.732l3.037,-0.103l0.758,-0.026l3.735,-0.127l7.499,-0.255h0.004l-0.005,-0.098h0.001l1.91,-0.019l2.585,-0.026l-0.008,-0.195l-0.292,-7.221l-2.835,-52.952l-3.317,-1.68zM191.251,421.297l0.689,12.872l-4.773,0.353l-3.218,0.173c-0.002,-0.02933 -0.00433,-0.062 -0.007,-0.098c-0.21667,-2.87333 -0.47833,-7.16233 -0.785,-12.867c-0.006,-0.11067 -0.01133,-0.208 -0.016,-0.292l4.671,-0.446l1.375,0.122zM185.448,457.51l-0.012,-0.125l-0.615,-6.405l-0.198,-3.706l0.292,-0.024l2.961,-0.246l0.057,-0.005l4.583,-0.245l0.204,3.803l0.155,6.12l0.008,0.34l0.005,0.16l0.007,0.314l-1.472,0.113l-0.756,0.058l-1.836,0.142l-0.123,0.009c-0.06267,-0.002 -0.128,-0.004 -0.196,-0.006c-0.70933,-0.016 -1.712,0.01067 -3.008,0.08l-0.02,0.001l-0.02,-0.209zM212.672,443.107l-2.787,2.912l5.779,5.656l2.814,3.145l0.71,0.794l2.405,2.687l1.117,-0.787l1.062,-0.748l0.568,-0.4l2.059,-1.451l1.245,-1.264l4.042,-4.105l-6.746,-7.267l-0.283,-0.224l-1.747,-1.381l-3.995,-3.158l-0.303,0.254l-0.363,0.304l-3.826,3.204zM89.6122,437.203l-7.7936,0.686l-12.0632,1.062l1.7934,7.924l1.2276,3.857l1.0064,3.162l19.9334,-2.143l28.5758,-3.291l21.698,-0.695l1.05,-0.034l10.918,1.176l0.194,-5.756l0.071,-2.082l0.23,-4.178l0.315,-5.729l-12.002,-0.299l-1.708,-0.042l-15.848,1.729z">
</path>
</g>
<path d="M414.303 275.316L393.898 284.738L411.445 295.213L417.566 328.141L431.658 298.117L452.493 293.154L434.516 278.219L428.825 249.75L414.303 275.316Z" stroke="rgba(255, 195, 0, 1)" stroke-width="9" stroke-linejoin="round"     fill="#FFC300" >
</path>
<path d="M400 181.873L386.533 188.091L398.114 195.005L402.153 216.737L411.453 196.921L425.204 193.646L413.34 183.789L409.584 165L400 181.873Z" stroke="rgba(255, 195, 0, 1)" stroke-width="9" stroke-linejoin="round"     fill="#FFC300" >
</path>
<path d="M103.077 297.676L103.495 295.795C105.743 285.69 115.721 279.423 125.799 281.788C135.877 284.152 142.217 294.249 139.97 304.353L131.37 342.198L92.7295 333.729C82.6516 331.364 76.3113 321.268 78.5584 311.163C80.8055 301.058 90.7845 294.792 100.862 297.156L103.077 297.676Z" fill-rule="evenodd"  fill="#FF8D1A" >
</path>
<path d="M113.771 194.287L115.036 192.833C121.828 185.022 133.588 184.271 141.319 191.154C149.051 198.038 149.81 209.935 143.017 217.747L117.414 246.912L87.4858 221.045C79.7545 214.161 78.9949 202.264 85.7878 194.453C92.5808 186.642 104.34 185.891 112.072 192.774L113.771 194.287Z" fill-rule="evenodd"  fill="#FF8D1A" >
</path>
</g>
<defs>
<clipPath id="clip-path-xvC8vcSKY6xla3HfBLoaj">
<path d="M0 512L512 512L512 0L0 0L0 512Z" fill="white"/>
</clipPath>
<mask id="mask-ziKs-cR4xuJOyTSrCaJaK" style="mask-type:alpha" maskUnits="userSpaceOnUse">
<path     fill="#FAEEB6"  d="M180.213 219.561C180.404 220.186 180.544 220.826 180.63 221.473L211.605 452.594C212.404 458.552 217.488 463 223.499 463L332 463C338.627 463 344 457.627 344 451L344 251.865C344 250.958 344.103 250.054 344.307 249.17L377.163 106.639C378.504 100.821 375.364 94.9019 369.794 92.75L325.135 75.4952C318.783 73.0412 311.664 76.3579 309.458 82.7996L287.988 145.467C284.269 156.323 268.896 156.268 265.256 145.385L233.127 49.3387C230.904 42.6915 223.481 39.3569 217.035 42.1096L146.414 72.2666C140.775 74.6745 137.858 80.9456 139.65 86.8091L180.213 219.561Z">
</path>
</mask>
</defs>
</svg>
