<svg xmlns="http://www.w3.org/2000/svg" xmlns:xlink="http://www.w3.org/1999/xlink" width="814" height="1016.001953125" viewBox="0 0 814 1016.001953125" fill="none">
<path d="M0 814L814 814L814 0L0 0L0 814Z">
</path>
<g  mask="url(#mask-oah-jI9E7WX8COxXpvGOc)">
<path   fill-rule="evenodd"  fill="url(#linear_fill_848sWuL8ib6k5lE3AZp_L_2)"  d="M630.503 571.387L653.431 552.602C671.802 537.549 674.146 510.749 658.667 492.735L568.757 388.104C553.277 370.09 525.84 367.69 507.469 382.742L484.541 401.528C477.278 407.479 472.52 415.266 470.378 423.62C460.235 418.396 448.084 417.104 436.499 420.999L407.606 430.713C401.818 432.659 396.735 435.71 392.511 439.55C385.012 430.469 374.203 424.072 361.575 422.338L343.029 419.792C340.134 419.395 337.262 419.259 334.436 419.366C333.522 408.002 328.52 396.909 319.468 388.372L306.765 376.391C287.079 357.824 255.69 358.37 236.663 377.611L147.855 467.418C128.828 486.66 129.362 517.315 149.049 535.883L161.751 547.863C181.438 566.431 212.827 565.884 231.854 546.643L282.66 495.265L269.861 584.185C266.225 609.453 282.584 632.865 306.959 638.524L306.959 680.329C234.574 708.476 184.654 768.064 184.654 837.022C184.654 933.112 281.564 1011 401.124 1011C520.674 1011 617.584 933.112 617.584 837.022C617.584 767.093 566.247 706.799 492.209 679.158L492.209 636.767L510.44 630.638C532.953 623.07 544.798 598.781 536.898 576.384L508.202 495.023L569.215 566.026C584.695 584.04 612.132 586.44 630.503 571.387ZM398.819 535.071L396.004 527.089L394.855 535.071L398.819 535.071Z">
</path>
<path   fill-rule="evenodd"  fill="url(#linear_fill_848sWuL8ib6k5lE3AZp_L_3)"  d="M630.503 571.387L653.431 552.602C671.802 537.549 674.146 510.749 658.667 492.735L568.757 388.104C553.277 370.09 525.84 367.69 507.469 382.742L484.541 401.528C477.278 407.479 472.52 415.266 470.378 423.62C460.235 418.396 448.084 417.104 436.499 420.999L407.606 430.713C401.818 432.659 396.735 435.71 392.511 439.55C385.012 430.469 374.203 424.072 361.575 422.338L343.029 419.792C340.134 419.395 337.262 419.259 334.436 419.366C333.522 408.002 328.52 396.909 319.468 388.372L306.765 376.391C287.079 357.824 255.69 358.37 236.663 377.611L147.855 467.418C128.828 486.66 129.362 517.315 149.049 535.883L161.751 547.863C181.438 566.431 212.827 565.884 231.854 546.643L282.66 495.265L269.861 584.185C266.225 609.453 282.584 632.865 306.959 638.524L306.959 680.329C234.574 708.476 184.654 768.064 184.654 837.022C184.654 933.112 281.564 1011 401.124 1011C520.674 1011 617.584 933.112 617.584 837.022C617.584 767.093 566.247 706.799 492.209 679.158L492.209 636.767L510.44 630.638C532.953 623.07 544.798 598.781 536.898 576.384L508.202 495.023L569.215 566.026C584.695 584.04 612.132 586.44 630.503 571.387ZM398.819 535.071L396.004 527.089L394.855 535.071L398.819 535.071Z">
</path>
<path   fill-rule="evenodd"  fill="#FFFFFF"  d="M630.503 571.387L653.431 552.602C671.802 537.549 674.146 510.749 658.667 492.735L568.757 388.104C553.277 370.09 525.84 367.69 507.469 382.742L484.541 401.528C477.278 407.479 472.52 415.266 470.378 423.62C460.235 418.396 448.084 417.104 436.499 420.999L407.606 430.713C401.818 432.659 396.735 435.71 392.511 439.55C385.012 430.469 374.203 424.072 361.575 422.338L343.029 419.792C340.134 419.395 337.262 419.259 334.436 419.366C333.522 408.002 328.52 396.909 319.468 388.372L306.765 376.391C287.079 357.824 255.69 358.37 236.663 377.611L147.855 467.418C128.828 486.66 129.362 517.315 149.049 535.883L161.751 547.863C181.438 566.431 212.827 565.884 231.854 546.643L282.66 495.265L269.861 584.185C266.225 609.453 282.584 632.865 306.959 638.524L306.959 680.329C234.574 708.476 184.654 768.064 184.654 837.022C184.654 933.112 281.564 1011 401.124 1011C520.674 1011 617.584 933.112 617.584 837.022C617.584 767.093 566.247 706.799 492.209 679.158L492.209 636.767L510.44 630.638C532.953 623.07 544.798 598.781 536.898 576.384L508.202 495.023L569.215 566.026C584.695 584.04 612.132 586.44 630.503 571.387ZM398.819 535.071L396.004 527.089L394.855 535.071L398.819 535.071Z">
</path>
<path  fill-rule="evenodd"  stroke="rgba(0, 0, 0, 1)" stroke-width="10"    d="M630.503 571.387L653.431 552.602C671.802 537.549 674.146 510.749 658.667 492.735L568.757 388.104C553.277 370.09 525.84 367.69 507.469 382.742L484.541 401.528C477.278 407.479 472.52 415.266 470.378 423.62C460.235 418.396 448.084 417.104 436.499 420.999L407.606 430.713C401.818 432.659 396.735 435.71 392.511 439.55C385.012 430.469 374.203 424.072 361.575 422.338L343.029 419.792C340.134 419.395 337.262 419.259 334.436 419.366C333.522 408.002 328.52 396.909 319.468 388.372L306.765 376.391C287.079 357.824 255.69 358.37 236.663 377.611L147.855 467.418C128.828 486.66 129.362 517.315 149.049 535.883L161.751 547.863C181.438 566.431 212.827 565.884 231.854 546.643L282.66 495.265L269.861 584.185C266.225 609.453 282.584 632.865 306.959 638.524L306.959 680.329C234.574 708.476 184.654 768.064 184.654 837.022C184.654 933.112 281.564 1011 401.124 1011C520.674 1011 617.584 933.112 617.584 837.022C617.584 767.093 566.247 706.799 492.209 679.158L492.209 636.767L510.44 630.638C532.953 623.07 544.798 598.781 536.898 576.384L508.202 495.023L569.215 566.026C584.695 584.04 612.132 586.44 630.503 571.387ZM398.819 535.071L396.004 527.089L394.855 535.071L398.819 535.071Z">
</path>
<ellipse transform="matrix(1.0000001192092896, 0, 0.00021249166456982493, 1.0000001192092896, 240, 99)" cx="162.5" cy="236" rx="162.5" ry="236" stroke="rgba(0, 0, 0, 1)" stroke-width="8"      fill="#EE83C4" >
</ellipse>
<path     fill="#FFFFFF"  d="M367.77 397.51L377.64 397.51C379.95 397.5 381.38 395.01 380.23 393.01L375.3 384.49C374.14 382.5 371.27 382.5 370.11 384.49L365.17 393.01C364.01 395.01 365.46 397.51 367.77 397.51Z">
</path>
<path   fill="rgba(0, 0, 0, 1)"  d="M376.166 383.984L381.099 392.505C382.642 395.172 380.718 398.509 377.637 398.509L367.771 398.509C364.69 398.509 362.766 395.172 364.31 392.505L369.242 383.984C370.783 381.323 374.625 381.323 376.166 383.984ZM374.435 384.986C373.665 383.655 371.743 383.655 370.973 384.986L366.04 393.507C365.269 394.841 366.231 396.509 367.771 396.509L377.637 396.509C379.177 396.509 380.14 394.841 379.368 393.507L374.435 384.986Z">
</path>
<rect  x="361.000244140625" y="394.69921875" width="90.162841796875" height="6.917266845703125" rx="3.4586334228515625"    fill="#000000" >
</rect>
<ellipse transform="matrix(0.9984176754951477, 0.05623244121670723, -0.06426519900560379, 0.9979315400123596, 540.189697265625, 291)" cx="43.471685752464" cy="48.15508550271042" rx="43.471685752464" ry="48.15508550271042"   fill="#EE83C4" >
</ellipse>
<path    stroke="rgba(0, 0, 0, 1)" stroke-width="8"  stroke-linecap="round"  d="M550.654 306.601C559.195 297.507 570.962 292.171 583.602 292.883C607.564 294.232 625.618 316.843 623.909 343.378C622.2 369.923 601.375 390.343 577.413 388.994C564.773 388.282 553.776 381.663 546.463 371.676">
</path>
<path    stroke="rgba(0, 0, 0, 1)" stroke-width="5"  stroke-linecap="round"  d="M573.116 354.924C569.187 346.318 572.273 336.416 580.013 332.807C584.091 330.905 588.646 331.131 592.623 333.028">
</path>
<ellipse transform="matrix(-0.9984176754951477, 0.05623244121670723, 0.06426519900560379, 0.9979315400123596, 272.81103515625, 291)" cx="43.471685752464" cy="48.15508550271042" rx="43.471685752464" ry="48.15508550271042"   fill="#EE83C4" >
</ellipse>
<path    stroke="rgba(0, 0, 0, 1)" stroke-width="8"  stroke-linecap="round"  d="M262.347 306.601C253.805 297.507 242.039 292.171 229.399 292.883C205.437 294.232 187.383 316.843 189.092 343.378C190.801 369.923 211.626 390.343 235.588 388.994C248.228 388.282 259.225 381.663 266.538 371.676">
</path>
<path    stroke="rgba(0, 0, 0, 1)" stroke-width="5"  stroke-linecap="round"  d="M235.326 354.924C239.255 346.318 236.169 336.416 228.429 332.807C224.35 330.905 219.795 331.131 215.818 333.028">
</path>
<path     fill="url(#linear_fill_XDcMhiZt_1SfOkfdg-ims_0)"  d="M465.944 215.625C439.704 215.625 465.938 152.725 465.948 102.655C465.959 52.5845 487.238 12.0045 513.478 12.0045C539.728 12.0045 560.989 52.5845 560.978 102.655C560.968 152.725 492.184 215.625 465.944 215.625Z">
</path>
<path     fill="#FF5733"  d="M465.944 215.625C439.704 215.625 465.938 152.725 465.948 102.655C465.959 52.5845 487.238 12.0045 513.478 12.0045C539.728 12.0045 560.989 52.5845 560.978 102.655C560.968 152.725 492.184 215.625 465.944 215.625Z">
</path>
<path    stroke="rgba(0, 0, 0, 1)" stroke-width="6"    d="M465.944 215.625C439.704 215.625 465.938 152.725 465.948 102.655C465.959 52.5845 487.238 12.0045 513.478 12.0045C539.728 12.0045 560.989 52.5845 560.978 102.655C560.968 152.725 492.184 215.625 465.944 215.625Z">
</path>
<path     fill="url(#linear_fill_vu5-_B7bJ-b92W6lWFSZq_0)"  d="M348.056 215.625C374.296 215.625 348.062 152.725 348.052 102.655C348.041 52.5845 326.762 12.0045 300.522 12.0045C274.272 12.0045 253.011 52.5845 253.022 102.655C253.032 152.725 321.816 215.625 348.056 215.625Z">
</path>
<path     fill="#FF5733"  d="M348.056 215.625C374.296 215.625 348.062 152.725 348.052 102.655C348.041 52.5845 326.762 12.0045 300.522 12.0045C274.272 12.0045 253.011 52.5845 253.022 102.655C253.032 152.725 321.816 215.625 348.056 215.625Z">
</path>
<path    stroke="rgba(0, 0, 0, 1)" stroke-width="6"    d="M348.056 215.625C374.296 215.625 348.062 152.725 348.052 102.655C348.041 52.5845 326.762 12.0045 300.522 12.0045C274.272 12.0045 253.011 52.5845 253.022 102.655C253.032 152.725 321.816 215.625 348.056 215.625Z">
</path>
<path     fill="url(#linear_fill_F3e5zSDluI4xSfYI2drt9_0)"  d="M428.684 232C406.684 232 428.675 183.83 428.683 145.5C428.691 107.16 446.527 76.08 468.527 76.08C490.527 76.08 508.351 107.16 508.343 145.5C508.335 183.83 450.684 232 428.684 232Z">
</path>
<path     fill="#FF5733"  d="M428.684 232C406.684 232 428.675 183.83 428.683 145.5C428.691 107.16 446.527 76.08 468.527 76.08C490.527 76.08 508.351 107.16 508.343 145.5C508.335 183.83 450.684 232 428.684 232Z">
</path>
<path    stroke="rgba(0, 0, 0, 1)" stroke-width="6"    d="M428.684 232C406.684 232 428.675 183.83 428.683 145.5C428.691 107.16 446.527 76.08 468.527 76.08C490.527 76.08 508.351 107.16 508.343 145.5C508.335 183.83 450.684 232 428.684 232Z">
</path>
<path     fill="url(#linear_fill_EMovrFKBPHt7d9OKGR2bn_0)"  d="M386.013 229.864C408.013 229.864 386.023 181.694 386.015 143.364C386.007 105.024 368.17 73.9443 346.17 73.9443C324.17 73.9443 306.347 105.024 306.355 143.364C306.363 181.694 364.013 229.864 386.013 229.864Z">
</path>
<path     fill="#FF5733"  d="M386.013 229.864C408.013 229.864 386.023 181.694 386.015 143.364C386.007 105.024 368.17 73.9443 346.17 73.9443C324.17 73.9443 306.347 105.024 306.355 143.364C306.363 181.694 364.013 229.864 386.013 229.864Z">
</path>
<path    stroke="rgba(0, 0, 0, 1)" stroke-width="6"    d="M386.013 229.864C408.013 229.864 386.023 181.694 386.015 143.364C386.007 105.024 368.17 73.9443 346.17 73.9443C324.17 73.9443 306.347 105.024 306.355 143.364C306.363 181.694 364.013 229.864 386.013 229.864Z">
</path>
<ellipse  transform="matrix(0.9999998807907104, 0, 0.00021226555691100657, -1, 368.217041015625, 229.8642578125)" cx="39.82814025878906" cy="69.41747821574673" rx="39.82814025878906" ry="69.41747821574673"    fill="url(#linear_fill_WFACYp_g-psZQoWgZvS34_0)" >
</ellipse>
<ellipse  transform="matrix(0.9999998807907104, 0, 0.00021226555691100657, -1, 368.217041015625, 229.8642578125)" cx="39.82814025878906" cy="69.41747821574673" rx="39.82814025878906" ry="69.41747821574673"    fill="#FF5733" >
</ellipse>
<ellipse  transform="matrix(0.9999998807907104, 0, 0.00021226555691100657, -1, 368.217041015625, 229.8642578125)" cx="39.82814025878906" cy="69.41747821574673" rx="39.82814025878906" ry="69.41747821574673"   stroke="rgba(0, 0, 0, 1)" stroke-width="6"   >
</ellipse>
<path d="M226.37 270.74L231.498 270.74C228.97 277.962 227.606 285.657 227.606 293.644C227.606 335.264 264.646 369.004 310.336 369.004C356.036 369.004 393.076 335.264 393.076 293.644C393.076 291.165 392.945 288.714 392.688 286.297L420.495 286.297C420.238 288.714 420.106 291.165 420.106 293.644C420.106 335.264 457.146 369.004 502.836 369.004C548.536 369.004 585.576 335.264 585.576 293.644C585.576 285.657 584.212 277.962 581.685 270.74L587.63 270.74C594.19 270.74 599.5 265.43 599.5 258.87C599.5 252.31 594.19 247 587.63 247L226.37 247C219.81 247 214.5 252.31 214.5 258.87C214.5 265.43 219.81 270.74 226.37 270.74Z" stroke="rgba(0, 0, 0, 1)" stroke-width="8"    fill-rule="evenodd"  fill="#7948EA" >
</path>
<g mask="url(#mask-cn_L3nJbnaV212JB_t2um)">
<rect x="324.885986328125" y="181" width="68.62004343262015" height="205.0000761232584" transform="rotate(29.000000095653437 324.885986328125 181)"   fill="#94CBFF" >
</rect>
</g>
<g mask="url(#mask-cn_L3nJbnaV212JB_t2um)">
<rect x="517.885986328125" y="195" width="64.171511902309" height="205.0000761232584" transform="rotate(29.000000095653437 517.885986328125 195)"   fill="#C1D19F" >
</rect>
</g>
<path d="M226.37 270.74L231.498 270.74C228.97 277.962 227.606 285.657 227.606 293.644C227.606 335.264 264.646 369.004 310.336 369.004C356.036 369.004 393.076 335.264 393.076 293.644C393.076 291.165 392.945 288.714 392.688 286.297L420.495 286.297C420.238 288.714 420.106 291.165 420.106 293.644C420.106 335.264 457.146 369.004 502.836 369.004C548.536 369.004 585.576 335.264 585.576 293.644C585.576 285.657 584.212 277.962 581.685 270.74L587.63 270.74C594.19 270.74 599.5 265.43 599.5 258.87C599.5 252.31 594.19 247 587.63 247L226.37 247C219.81 247 214.5 252.31 214.5 258.87C214.5 265.43 219.81 270.74 226.37 270.74Z" stroke="rgba(0, 0, 0, 1)" stroke-width="8"   >
</path>
<circle  cx="630" cy="516" r="85"    fill="url(#linear_fill_qcOfjmslNCUvzvicyR0cV_0)" >
</circle>
<circle  cx="630" cy="516" r="85"    fill="url(#linear_fill_qcOfjmslNCUvzvicyR0cV_1)" >
</circle>
<circle  cx="630" cy="516" r="85"    fill="#CCCCCC" >
</circle>
<circle  cx="630" cy="516" r="85"   stroke="rgba(0, 0, 0, 1)" stroke-width="8"   >
</circle>
<circle  cx="157" cy="516" r="85"    fill="url(#linear_fill_7m4IjeYsO4gykuplC-2Xc_0)" >
</circle>
<circle  cx="157" cy="516" r="85"    fill="url(#linear_fill_7m4IjeYsO4gykuplC-2Xc_1)" >
</circle>
<circle  cx="157" cy="516" r="85"    fill="#CCCCCC" >
</circle>
<circle  cx="157" cy="516" r="85"   stroke="rgba(0, 0, 0, 1)" stroke-width="8"   >
</circle>
</g>
<defs>
<mask id="mask-oah-jI9E7WX8COxXpvGOc" style="mask-type:alpha" maskUnits="userSpaceOnUse">
<path fill="white" d="M0 814L814 814L814 0L0 0L0 814Z">
</path>
</mask>
<linearGradient id="linear_fill_848sWuL8ib6k5lE3AZp_L_2" x1="133.927001953125" y1="686.90869140625" x2="668.9017333984375" y2="686.90869140625" gradientUnits="userSpaceOnUse">
<stop offset="0" stop-color="#78B7FF"  />
<stop offset="0.2306775874906925" stop-color="#FFEB3B"  />
<stop offset="0.5346" stop-color="#FFD6FB"  />
<stop offset="1" stop-color="#8AF2EF"  />
</linearGradient>
<linearGradient id="linear_fill_848sWuL8ib6k5lE3AZp_L_3" x1="154.8338623046875" y1="686.90869140625" x2="611.5899047851562" y2="686.90869140625" gradientUnits="userSpaceOnUse">
<stop offset="0" stop-color="#2A82E4"  />
<stop offset="0.1554" stop-color="#C8C0F5"  />
<stop offset="0.4094" stop-color="#FFD6FB"  />
<stop offset="0.6604" stop-color="#FFCD29" stop-opacity="0.53" />
<stop offset="1" stop-color="#8AF2EF"  />
</linearGradient>
<linearGradient id="linear_fill_XDcMhiZt_1SfOkfdg-ims_0" x1="446.22412109375" y1="110.0859375" x2="560.9727783203125" y2="141" gradientUnits="userSpaceOnUse">
<stop offset="0" stop-color="#2A82E4"  />
<stop offset="0.2679" stop-color="#F4B9EE"  />
<stop offset="0.4605" stop-color="#F7D9D2"  />
<stop offset="0.6905" stop-color="#FFC300"  />
<stop offset="1" stop-color="#8AF2EF"  />
</linearGradient>
<linearGradient id="linear_fill_vu5-_B7bJ-b92W6lWFSZq_0" x1="367.77587890625" y1="110.0859375" x2="253.0272216796875" y2="141" gradientUnits="userSpaceOnUse">
<stop offset="0" stop-color="#2A82E4"  />
<stop offset="0.2679" stop-color="#F4B9EE"  />
<stop offset="0.4605" stop-color="#F7D9D2"  />
<stop offset="0.6905" stop-color="#FFC300"  />
<stop offset="1" stop-color="#8AF2EF"  />
</linearGradient>
<linearGradient id="linear_fill_F3e5zSDluI4xSfYI2drt9_0" x1="412.1551513671875" y1="151.185546875" x2="508.3353271484375" y2="174.857421875" gradientUnits="userSpaceOnUse">
<stop offset="0" stop-color="#2A82E4"  />
<stop offset="0.2679" stop-color="#F4B9EE"  />
<stop offset="0.4605" stop-color="#F7D9D2"  />
<stop offset="0.6905" stop-color="#FFC300"  />
<stop offset="1" stop-color="#8AF2EF"  />
</linearGradient>
<linearGradient id="linear_fill_EMovrFKBPHt7d9OKGR2bn_0" x1="402.5423583984375" y1="149.0498046875" x2="306.3621826171875" y2="172.7216796875" gradientUnits="userSpaceOnUse">
<stop offset="0" stop-color="#2A82E4"  />
<stop offset="0.2679" stop-color="#F4B9EE"  />
<stop offset="0.4605" stop-color="#F7D9D2"  />
<stop offset="0.6905" stop-color="#FFC300"  />
<stop offset="1" stop-color="#8AF2EF"  />
</linearGradient>
<linearGradient id="linear_fill_WFACYp_g-psZQoWgZvS34_0" x1="-6.027590746765137" y1="71.95815791844305" x2="79.65628051757812" y2="50.880234833013716" gradientUnits="userSpaceOnUse">
<stop offset="0" stop-color="#2A82E4"  />
<stop offset="0.2679" stop-color="#F4B9EE"  />
<stop offset="0.4605" stop-color="#F7D9D2"  />
<stop offset="0.6905" stop-color="#FFC300"  />
<stop offset="1" stop-color="#8AF2EF"  />
</linearGradient>
<mask id="mask-cn_L3nJbnaV212JB_t2um" style="mask-type:alpha" maskUnits="userSpaceOnUse">
<path d="M226.37 270.74L231.498 270.74C228.97 277.962 227.606 285.657 227.606 293.644C227.606 335.264 264.646 369.004 310.336 369.004C356.036 369.004 393.076 335.264 393.076 293.644C393.076 291.165 392.945 288.714 392.688 286.297L420.495 286.297C420.238 288.714 420.106 291.165 420.106 293.644C420.106 335.264 457.146 369.004 502.836 369.004C548.536 369.004 585.576 335.264 585.576 293.644C585.576 285.657 584.212 277.962 581.685 270.74L587.63 270.74C594.19 270.74 599.5 265.43 599.5 258.87C599.5 252.31 594.19 247 587.63 247L226.37 247C219.81 247 214.5 252.31 214.5 258.87C214.5 265.43 219.81 270.74 226.37 270.74Z" stroke="rgba(0, 0, 0, 1)" stroke-width="8"    fill-rule="evenodd"  fill="#7948EA" >
</path>
</mask>
<linearGradient id="linear_fill_qcOfjmslNCUvzvicyR0cV_0" x1="623.2" y1="424.2" x2="623.2" y2="607.8" gradientUnits="userSpaceOnUse">
<stop offset="0" stop-color="#2A82E4"  />
<stop offset="0.2981" stop-color="#FFD6FB"  />
<stop offset="0.6604" stop-color="#FFCD29" stop-opacity="0.53" />
<stop offset="1" stop-color="#8AF2EF"  />
</linearGradient>
<linearGradient id="linear_fill_qcOfjmslNCUvzvicyR0cV_1" x1="611.3" y1="414" x2="636.8" y2="597.6" gradientUnits="userSpaceOnUse">
<stop offset="0" stop-color="#2A82E4"  />
<stop offset="0.2679" stop-color="#F4B9EE"  />
<stop offset="0.4605" stop-color="#F7D9D2"  />
<stop offset="0.6905" stop-color="#FFC300"  />
<stop offset="1" stop-color="#8AF2EF"  />
</linearGradient>
<linearGradient id="linear_fill_7m4IjeYsO4gykuplC-2Xc_0" x1="150.2" y1="424.2" x2="150.2" y2="607.8" gradientUnits="userSpaceOnUse">
<stop offset="0" stop-color="#2A82E4"  />
<stop offset="0.2981" stop-color="#FFD6FB"  />
<stop offset="0.6604" stop-color="#FFCD29" stop-opacity="0.53" />
<stop offset="1" stop-color="#8AF2EF"  />
</linearGradient>
<linearGradient id="linear_fill_7m4IjeYsO4gykuplC-2Xc_1" x1="59.1361" y1="519.111" x2="242" y2="493.3016" gradientUnits="userSpaceOnUse">
<stop offset="0" stop-color="#2A82E4"  />
<stop offset="0.2679" stop-color="#F4B9EE"  />
<stop offset="0.4605" stop-color="#F7D9D2"  />
<stop offset="0.6905" stop-color="#FFC300"  />
<stop offset="1" stop-color="#8AF2EF"  />
</linearGradient>
</defs>
</svg>
