<?xml version="1.0" encoding="UTF-8"?>
<svg width="41px" height="40px" viewBox="0 0 41 40" version="1.1" xmlns="http://www.w3.org/2000/svg" xmlns:xlink="http://www.w3.org/1999/xlink">
    <title>编组 4</title>
    <g id="页面-1" stroke="none" stroke-width="1" fill="none" fill-rule="evenodd">
        <g id="编组-4" transform="translate(0.416667, 0.000000)" fill="#D33A31" fill-rule="nonzero">
            <path d="M20,0 C31.045695,0 40,8.954305 40,20 C40,31.045695 31.045695,40 20,40 C8.954305,40 0,31.045695 0,20 C0,8.954305 8.954305,0 20,0 Z M23.2142857,25.2541722 L16.7857143,25.2541722 C15.8981138,25.2541722 15.1785715,25.8809735 15.1785715,26.6541722 C15.1785715,27.4273708 15.8981138,28.0541722 16.7857143,28.0541722 L23.2142857,28.0541722 C24.1018862,28.0541722 24.8214285,27.4273708 24.8214285,26.6541722 C24.8214285,25.8809735 24.1018862,25.2541722 23.2142857,25.2541722 Z M25.8928571,18.6 L14.1071429,18.6 C13.532966,18.6 13.0024048,18.8668385 12.7153163,19.3 C12.4282279,19.7331615 12.4282279,20.2668385 12.7153163,20.7 C13.0024048,21.1331615 13.532966,21.4 14.1071429,21.4 L25.8928571,21.4 C26.467034,21.4 26.9975952,21.1331615 27.2846837,20.7 C27.5717721,20.2668385 27.5717721,19.7331615 27.2846837,19.3 C26.9975952,18.8668385 26.467034,18.6 25.8928571,18.6 Z M23.2142857,11.9458278 L16.7857143,11.9458278 C15.8981138,11.9458278 15.1785715,12.5726292 15.1785715,13.3458278 C15.1785715,14.1190265 15.8981138,14.7458278 16.7857143,14.7458278 L23.2142857,14.7458278 C24.1018862,14.7458278 24.8214285,14.1190265 24.8214285,13.3458278 C24.8214285,12.5726292 24.1018862,11.9458278 23.2142857,11.9458278 Z" id="形状结合"></path>
        </g>
    </g>
</svg>