<svg xmlns="http://www.w3.org/2000/svg" width="1.2em" height="1.2em" viewBox="0 0 26 26"><g fill="none"><defs><mask id="pepiconsPopShareAndroidCircleFilled0"><path fill="#fff" d="M0 0h26v26H0z"/><g fill="#000"><path fill-rule="evenodd" d="M8 16a3 3 0 1 0 0-6a3 3 0 0 0 0 6m0-4a1 1 0 1 1 0 2a1 1 0 0 1 0-2m9-1a3 3 0 1 0 0-6a3 3 0 0 0 0 6m0-4a1 1 0 1 1 0 2a1 1 0 0 1 0-2m0 14a3 3 0 1 0 0-6a3 3 0 0 0 0 6m0-4a1 1 0 1 1 0 2a1 1 0 0 1 0-2" clip-rule="evenodd"/><path d="m9.236 12.777l-.763-1.291l6.791-4.013l.763 1.291zm6.021 5.752l.772-1.286l-6.286-3.772l-.772 1.286z"/></g></mask></defs><circle cx="13" cy="13" r="13" fill="#0091FF" mask="url(#pepiconsPopShareAndroidCircleFilled0)"/></g></svg>