<?xml version="1.0" encoding="UTF-8"?>
<svg width="40px" height="41px" viewBox="0 0 40 41" version="1.1" xmlns="http://www.w3.org/2000/svg" xmlns:xlink="http://www.w3.org/1999/xlink">
    <title>形状结合</title>
    <g id="页面-1" stroke="none" stroke-width="1" fill="none" fill-rule="evenodd">
        <path d="M20,0.432530937 C31.045695,0.432530937 40,9.38683594 40,20.4325309 C40,31.4782259 31.045695,40.4325309 20,40.4325309 C8.954305,40.4325309 0,31.4782259 0,20.4325309 C0,9.38683594 8.954305,0.432530937 20,0.432530937 Z M24.8295036,11.9316572 C23.8861682,11.9334532 22.997099,12.3730066 22.4229133,13.1214689 C21.8487277,13.8699312 21.6544719,14.8425133 21.8970891,15.7541173 L16.2896809,18.5590355 C15.4908712,17.5401801 14.1337866,17.1400744 12.9100132,17.562617 C11.6862399,17.9851597 10.8651295,19.1373494 10.8651295,20.4320167 C10.8651295,21.726684 11.6862399,22.8788737 12.9100132,23.3014163 C14.1337866,23.723959 15.4908712,23.3238533 16.2896809,22.3049979 L21.8970891,25.1074876 C21.4916556,26.6122112 22.2914783,28.1795058 23.7478342,28.73412 C25.20419,29.288734 26.8439356,28.6504837 27.5421137,27.2572442 C28.2402919,25.8640046 27.7700775,24.168414 26.4540637,23.3337423 C25.1380499,22.4990705 23.4037857,22.7964871 22.4410731,24.0219478 L16.8336651,21.2194581 C16.9722113,20.7036382 16.9722113,20.160395 16.8336651,19.6445753 L22.4410731,16.8408713 C23.2400585,17.859396 24.5970379,18.2591812 25.8206135,17.8365313 C27.044189,17.4138814 27.8651295,16.2617985 27.8651295,14.9672831 C27.8651295,13.2907532 26.5060335,11.9316572 24.8295036,11.9316572 Z" id="形状结合" fill="#D33A31" fill-rule="nonzero"></path>
    </g>
</svg>